<svg fill="none" height="101" viewBox="0 0 68 101" width="68" xmlns="http://www.w3.org/2000/svg"><path d="m9.35869 27.3654v.5zm0-15.8192v-.5zm27.85221-2.75575-.4562.20473zm.5854 1.26405.4322-.25138zm2.2789 1.4751-.0524.4973zm-29.7947 0 .0523.4973zm2.279-1.4752-.4322-.25135zm-3.20081 17.811h.00001.00001.00001.00001.00001.00001.00001v-1h-.00001c-.00001 0-.00001 0-.00001 0s0 0-.00001 0h-.00001c-.00001 0-.00001 0-.00001 0s0 0-.00001 0h-.00001zm-8.409532-8.4096c0 4.6444 3.765072 8.4095 8.409532 8.4096l.00001-1c-4.09218-.0001-7.40954-3.3175-7.40954-7.4096zm8.409532-8.4096c-4.64446 0-8.409532 3.7651-8.409532 8.4096h1.000002c0-4.0922 3.31736-7.4096 7.40954-7.4096zm.00007 0h-.00001c-.00001 0-.00001 0-.00001 0s0 0-.00001 0h-.00001c-.00001 0-.00001 0-.00001 0s0 0-.00001 0h-.00001v1h.00001.00001.00001.00001.00001.00001.00001zm15.81914-10.5462c-5.5636 0-10.3506 3.32054-12.4892 8.08581l.9123.40946c1.9833-4.4191 6.4214-7.49527 11.5769-7.49527zm12.4891 8.08571c-2.1386-4.76521-6.9256-8.08571-12.4891-8.08571v1c5.1554 0 9.5935 3.07613 11.5768 7.49518zm3.3301 3.46049c4.0922 0 7.4096 3.3173 7.4096 7.4096h1c0-4.6445-3.7651-8.4096-8.4096-8.4096zm7.4096 7.4096c0 4.0922-3.3174 7.4096-7.4096 7.4096v1c4.6445 0 8.4096-3.7651 8.4096-8.4096zm-7.4096 7.4096h-31.63834v1h31.63834zm-4.2424-17.87022c.3279.73059.5128 1.14472.6094 1.31072l.8644-.50278c-.0619-.1064-.2144-.4442-.5615-1.21741zm4.2424 2.05102c-.5277 0-.7464-.0008-.8695-.0138l-.1048.9945c.1903.02.4818.0193.9743.0193zm-3.633-.7403c.3098.5326.6418.9449 1.0879 1.2336.446.2888.9581.4228 1.5708.4874l.1048-.9945c-.5313-.056-.8695-.1623-1.1323-.3324-.2627-.1701-.4982-.4351-.7668-.89688zm-28.00534 1.7403c.49246 0 .78384.0007.97404-.0193l-.1047-.9945c-.1231.013-.34176.0138-.86934.0138zm3.32994-3.46039c-.347.77311-.4995 1.11086-.5614 1.21724l.8644.50275c.0966-.166.2815-.58003.6093-1.31053zm-2.3559 3.44109c.6128-.0645 1.1249-.1986 1.571-.4874.4461-.2887.7782-.7011 1.0879-1.2337l-.8644-.50275c-.2686.46185-.5041.72685-.7669.89695s-.601.2764-1.1323.3324z" fill="#abb8ff"/><rect fill="#abb8ff" fill-opacity=".3" height="32.0508" rx="3.5" stroke="#abb8ff" width="25.2712" x="12.9661" y="32.0085"/><rect fill="#abb8ff" fill-opacity=".3" height="32.0508" rx="3.5" stroke="#abb8ff" width="25.2712" x="31.6102" y="42.178"/><g fill="#ea4040"><path d="m26.0254 17.9492-.3535-.3535.3535-.3536.3536.3536zm.5 17.7966c0 .2762-.2238.5-.5.5-.2761 0-.5-.2238-.5-.5zm-5.0908-13.9128 4.2373-4.2373.7071.7071-4.2373 4.2373zm4.9444-4.2373 4.2373 4.2373-.7071.7071-4.2373-4.2373zm.1464.3535v17.7966h-1v-17.7966z"/><path d="m26.0255 41.678-.3535.3535.3535.3536.3536-.3536zm.5-5.9322c0-.2762-.2238-.5-.5-.5-.2761 0-.5.2238-.5.5zm-5.0908 2.0484 4.2373 4.2373.7071-.7071-4.2373-4.2373zm4.9444 4.2373 4.2373-4.2373-.7071-.7071-4.2373 4.2373zm.1464-.3535v-5.9322h-1v5.9322z"/><path d="m44.6695 62.8645-.3536-.3536.3536-.3535.3535.3535zm.5 17.7966c0 .2762-.2239.5-.5.5s-.5-.2238-.5-.5zm-5.0908-13.9129 4.2372-4.2373.7071.7072-4.2372 4.2372zm4.9443-4.2373 4.2373 4.2373-.7071.7071-4.2373-4.2372zm.1465.3536v17.7966h-1v-17.7966z"/><path d="m44.6694 86.5933-.3536.3535.3536.3536.3535-.3536zm.5-5.9322c0-.2762-.2239-.5-.5-.5-.2762 0-.5.2238-.5.5zm-5.0909 2.0484 4.2373 4.2373.7071-.7071-4.2372-4.2373zm4.9444 4.2373 4.2373-4.2373-.7071-.7071-4.2373 4.2373zm.1465-.3535v-5.9322h-1v5.9322z"/></g><path d="m65.2995 94.9434c.7909.302 1.391.6238 1.7719.96l-.3309.3749c.2599.2294.3103.3916.3103.4844s-.0504.2549-.3103.4844l.3309.3748c-.3809.3363-.981.658-1.7719.9601l-.1784-.4671c-.5321.2032-1.1607.3996-1.8783.5865l.1261.4838c-.604.1573-1.2651.3068-1.978.4475l-.0968-.4905c-.6187.1221-1.2778.2377-1.9739.3461l.077.4941c-.6405.0996-1.3111.1936-2.009.2796l-.0617-.4958c-.6444.0802-1.3127.1546-2.0025.2229l.0492.4979c-.6543.064-1.3276.124-2.018.177l-.0386-.498c-.6552.05-1.326.096-2.0109.135l.029.499c-.6619.039-1.3367.072-2.0228.1l-.0202-.5c-.662.027-1.3347.048-2.0168.064l.0119.5c-.6672.016-1.3433.027-2.027.032l-.0039-.5c-.3349.003-.6717.004-1.0101.004-.3385 0-.6753-.001-1.0102-.004l-.0039.5c-.6837-.005-1.3597-.016-2.027-.032l.0119-.5c-.6821-.016-1.3548-.037-2.0168-.064l-.0201.5c-.6862-.028-1.3609-.061-2.0229-.1l.029-.499c-.6848-.039-1.3557-.085-2.0109-.135l-.0385.498c-.6904-.053-1.3638-.113-2.0181-.177l.0492-.4979c-.6898-.0683-1.358-.1427-2.0025-.2229l-.0617.4958c-.6979-.086-1.3684-.18-2.0089-.2796l.0769-.4941c-.6961-.1084-1.3552-.224-1.9738-.3461l-.0969.4905c-.7128-.1407-1.374-.2902-1.9779-.4475l.126-.4838c-.7176-.1869-1.3462-.3833-1.8783-.5865l-.1784.4671c-.7909-.3021-1.391-.6238-1.7719-.9601l.3309-.3748c-.2599-.2295-.3103-.3916-.3103-.4844s.0504-.255.3103-.4844l-.3309-.3749c.3809-.3362.981-.658 1.7719-.96l.1784.4671c.5321-.2032 1.1607-.3996 1.8783-.5865l-.126-.4839c.6039-.1573 1.2651-.3068 1.9779-.4475l.0969.4906c.6186-.1222 1.2777-.2378 1.9738-.3462l-.0769-.494c.6405-.0997 1.311-.1933 2.0089-.2801l.0617.4962c.6445-.0801 1.3127-.1546 2.0025-.2229l-.0492-.4975c.6543-.0648 1.3277-.124 2.0181-.1774l.0385.4985c.6552-.0506 1.3261-.0959 2.0109-.1357l-.029-.4991c.662-.0384 1.3367-.0716 2.0229-.0992l.0201.4996c.662-.0267 1.3347-.0482 2.0168-.0644l-.0119-.4999c.6673-.0158 1.3433-.0264 2.027-.0318l.0039.5c.3349-.0026.6717-.0039 1.0102-.0039.3384 0 .6752.0013 1.0101.0039l.0039-.5c.6837.0054 1.3598.016 2.027.0318l-.0119.4999c.6821.0162 1.3548.0377 2.0168.0644l.0202-.4996c.6861.0276 1.3609.0608 2.0228.0992l-.029.4991c.6849.0398 1.3557.0851 2.0109.1357l.0386-.4985c.6904.0534 1.3637.1126 2.018.1774l-.0492.4975c.6898.0683 1.3581.1428 2.0025.2229l.0617-.4962c.6979.0868 1.3685.1804 2.009.2801l-.077.494c.6961.1084 1.3552.224 1.9739.3462l.0968-.4906c.7129.1407 1.374.2902 1.978.4475l-.1261.4839c.7176.1869 1.3462.3833 1.8783.5865z" fill="#abb8ff" fill-opacity=".3" stroke="#abb8ff" stroke-dasharray="2 2"/></svg>