<svg height="160pt" preserveAspectRatio="xMidYMid meet" viewBox="0 0 160 160" width="160pt" xmlns="http://www.w3.org/2000/svg"><path d="m0 1420v-179l34 20c19 11 48 24 65 29l31 9v-200c0-240-2-236 126-265 85-19 281-25 372-11l53 8-3-38c-3-32-9-41-42-59-54-31-145-48-256-48l-95-1-8 47c-14 76-63 78-54 2 4-42 3-44-22-44-40 0-127 26-166 49l-35 20v-379-380h800 800v227 227l-23-44c-22-44-76-90-105-90-11 0-13 8-8 31 8 40-7 96-37 140-25 37-90 79-124 79-17 0-28 13-48 54-55 116-192 185-312 158-48-11-52-5-26 36 67 109 191 161 311 132 28-6 63-23 78-36 26-24 26-28 23-121-3-59 0-97 6-99 25-9 39 17 44 83l7 68 21-42c13-22 25-59 29-81 6-37 9-40 43-46 42-6 82-43 105-96 14-32 15 12 16 493v527h-800-800zm312-109c-8-5-12-17-10-27 3-16 17-20 86-28 46-4 121-4 172 1 124 12 120 19 120-195 0-124-3-173-12-178-7-5-76-10-154-12-139-4-248 7-299 30l-25 11v198 198l28 4c53 8 107 7 94-2zm106 2c-16-2-40-2-55 0-16 2-3 4 27 4s43-2 28-4zm678-604c54-26 101-78 123-140 15-40 20-44 57-49 83-12 136-72 132-150l-3-45-255-3c-287-2-300 0-333 71-32 67-11 154 44 186 27 15 28 18 22 72-5 55-5 57 23 67 51 18 140 14 190-9z" transform="matrix(.1 0 0 -.1 0 160)"/></svg>