<svg enable-background="new 0 0 64 64" height="800" viewBox="0 0 64 64" width="800" xmlns="http://www.w3.org/2000/svg"><path d="m53.9791489 9.1429005h-3.9682999c-.0826988 0-.1562004.0283995-.2331009.0469999v-4.1671004c-0-2.7698-2.3045998-5.0228-5.1379013-5.0228h-34.422596c-2.8332991 0-5.1378989 2.253-5.1378989 5.0228v46.8432999c0 2.7697983 2.3045998 5.0228004 5.1378999 5.0228004h6.0367002v2.2678986c0 2.6706013 2.2162991 4.8432011 4.9414997 4.8432011h32.783699c2.7252007 0 4.9414978-2.1725998 4.9414978-4.8432007v-45.1706991c-.0000018-2.6705999-2.216299-4.8431997-4.9414996-4.8431997zm-46.8680973 42.7231998v-46.8433003c0-1.6487999 1.3938999-2.9909999 3.1062002-2.9909999h34.422596c1.7123032 0 3.1062012 1.3422 3.1062012 2.9909999v46.8432999c0 1.6487999-1.393898 2.9911003-3.1062012 2.9911003h-34.422596c-1.7123003.0000004-3.1062002-1.3423-3.1062002-2.9910999zm49.7777958 7.290699c0 1.550602-1.3055 2.8115005-2.9096985 2.8115005h-32.783699c-1.6042004 0-2.9097996-1.2608986-2.9097996-2.8115005v-2.2678986h26.3541946c2.8333015 0 5.1379013-2.2530022 5.1379013-5.0228004v-40.7385006c.0769005.0186005.1504021.0469999.2331009.0469999h3.9682999c1.6041985 0 2.9096985 1.2609005 2.9096985 2.8115005v45.1706992z"/><path d="m38.6031494 13.2063999h-22.3491974c-.5615005 0-1.0159006.4542999-1.0159006 1.0158005 0 .5615997.4544001 1.0158997 1.0159006 1.0158997h22.3491974c.5615005 0 1.0158997-.4542999 1.0158997-1.0158997-0-.5615006-.4543991-1.0158005-1.0158997-1.0158005z"/><path d="m38.6031494 21.3334007h-22.3491974c-.5615005 0-1.0159006.4542999-1.0159006 1.0157986 0 .5615005.4544001 1.0159016 1.0159006 1.0159016h22.3491974c.5615005 0 1.0158997-.454401 1.0158997-1.0159016-0-.5614986-.4543991-1.0157986-1.0158997-1.0157986z"/><path d="m38.6031494 29.4603004h-22.3491974c-.5615005 0-1.0159006.4543991-1.0159006 1.0158997s.4544001 1.0158997 1.0159006 1.0158997h22.3491974c.5615005 0 1.0158997-.4543991 1.0158997-1.0158997s-.4543991-1.0158997-1.0158997-1.0158997z"/><path d="m28.4444485 37.5872993h-12.1904965c-.5615005 0-1.0159006.4543991-1.0159006 1.0158997s.4544001 1.0158997 1.0159006 1.0158997h12.1904964c.5615025 0 1.0158005-.4543991 1.0158005-1.0158997s-.454298-1.0158997-1.0158004-1.0158997z"/></svg>