<svg fill="none" height="274" viewBox="0 0 251 274" width="251" xmlns="http://www.w3.org/2000/svg" xmlns:xlink="http://www.w3.org/1999/xlink"><clipPath id="a"><path d="m107 1.11609h28v28h-28z"/></clipPath><clipPath id="b"><path d="m221 107.116h28v28h-28z"/></clipPath><circle cx="121" cy="131.116" fill="#abb8ff" fill-opacity=".1" r="117.5" stroke="#abb8ff"/><circle cx="121" cy="131.116" r="70.5" stroke="#abb8ff" stroke-dasharray="2 2"/><path d="m198 180.116h46v46h-46z" fill="#ea4040" fill-opacity=".3"/><path d="m225.342 194.856c0 2.399-1.944 4.343-4.342 4.343s-4.342-1.944-4.342-4.343 1.944-4.343 4.342-4.343 4.342 1.944 4.342 4.343z" fill="#020013" stroke="#abb8ff" stroke-linecap="round"/><path d="m229.345 192.684c.576-.997 1.524-1.725 2.636-2.023 1.113-.298 2.298-.142 3.295.434.998.576 1.725 1.524 2.023 2.637.298 1.112.142 2.298-.433 3.295-.576.998-1.525 1.726-2.637 2.024s-2.297.142-3.295-.434c-.997-.576-1.725-1.524-2.023-2.637s-.142-2.298.434-3.296z" stroke="#abb8ff"/><path d="m205.134 192.684c.576-.997 1.525-1.725 2.637-2.023s2.297-.142 3.295.434c.997.576 1.725 1.524 2.023 2.637.298 1.112.142 2.298-.434 3.295-.576.998-1.524 1.726-2.636 2.024-1.113.298-2.298.142-3.295-.434-.998-.576-1.725-1.524-2.023-2.637s-.142-2.298.433-3.296z" stroke="#abb8ff"/><path d="m241.503 212.025-.496.061zm-15.419-7.034-.29-.407-.533.38.507.414zm3.323 7.033.497-.054zm11.172.493h-12.105v1h12.105zm.428-.431c.027.215-.14.431-.428.431v1c.816 0 1.529-.673 1.42-1.554zm-9.112-8.255c3.723 0 5.901 1.482 7.2 3.22 1.319 1.765 1.764 3.839 1.912 5.035l.992-.123c-.157-1.273-.635-3.546-2.103-5.511-1.488-1.99-3.962-3.621-8.001-3.621zm-5.52 1.567c1.29-.922 3.064-1.567 5.52-1.567v-1c-2.642 0-4.624.698-6.101 1.753zm-.607-.02c2.314 1.89 2.965 5.063 3.142 6.7l.994-.108c-.182-1.682-.865-5.211-3.504-7.366zm3.142 6.7c.024.222-.15.439-.436.439v1c.818 0 1.525-.671 1.43-1.547z" fill="#abb8ff"/><path clip-rule="evenodd" d="m215.916 204.991c-1.384-.989-3.262-1.66-5.811-1.66-7.762 0-9.303 6.224-9.608 8.694-.068.548.372.992.924.992h12.105c-.552 0-.993-.444-.933-.993.179-1.659.847-5.011 3.323-7.033z" fill="#020013" fill-rule="evenodd"/><path d="m215.916 204.991.316.387.507-.414-.532-.38zm-15.419 7.034.496.061zm12.096-.001.497.054zm-2.488-8.193c2.456 0 4.23.645 5.52 1.567l.582-.814c-1.478-1.055-3.46-1.753-6.102-1.753zm-9.112 8.255c.148-1.196.593-3.27 1.912-5.035 1.3-1.738 3.477-3.22 7.2-3.22v-1c-4.039 0-6.513 1.631-8.001 3.621-1.468 1.965-1.946 4.238-2.103 5.511zm.428.431c-.288 0-.455-.216-.428-.431l-.992-.123c-.109.881.604 1.554 1.42 1.554zm12.105 0h-12.105v1h12.105zm0 0c-.286 0-.46-.217-.436-.439l-.994-.108c-.095.876.613 1.547 1.43 1.547zm-.436-.439c.177-1.637.828-4.81 3.142-6.7l-.632-.774c-2.639 2.155-3.322 5.684-3.504 7.366z" fill="#abb8ff"/><path d="m221 203.331c6.792 0 8.14 6.222 8.407 8.693.06.549-.381.993-.933.993h-14.948c-.552 0-.993-.444-.933-.993.267-2.471 1.615-8.693 8.407-8.693z" fill="#020013" stroke="#abb8ff" stroke-linecap="round"/><path d="m236.737 225.125h5.763c.828 0 1.5-.672 1.5-1.5v-5.765" stroke="#ea4040" stroke-linecap="round"/><path d="m236.737 179.116h5.763c.828 0 1.5.672 1.5 1.5v5.765" stroke="#ea4040" stroke-linecap="round"/><path d="m205.263 225.125h-5.763c-.828 0-1.5-.672-1.5-1.5v-5.765" stroke="#ea4040" stroke-linecap="round"/><path d="m205.263 179.116h-5.763c-.828 0-1.5.672-1.5 1.5v5.765" stroke="#ea4040" stroke-linecap="round"/><path d="m1 179.116h46v46h-46z" fill="#ea4040" fill-opacity=".3"/><g stroke-linecap="round"><circle cx="24" cy="193.116" fill="#020013" r="6.5" stroke="#abb8ff"/><path d="m24 203.116c13.483 0 15.6041 10.652 15.9377 14.003.0547.55-.3854.997-.9377.997h-30c-.55228 0-.99243-.447-.93771-.997.33365-3.351 2.45471-14.003 15.93771-14.003z" fill="#020013" stroke="#abb8ff"/><path d="m39.7368 225.125h5.7632c.8284 0 1.5-.672 1.5-1.5v-5.765" stroke="#ea4040"/><path d="m39.7368 179.116h5.7632c.8284 0 1.5.672 1.5 1.5v5.765" stroke="#ea4040"/><path d="m8.26315 225.125h-5.76315c-.82843 0-1.500005-.672-1.500005-1.5v-5.765" stroke="#ea4040"/><path d="m8.26315 179.116h-5.76315c-.82843 0-1.500005.672-1.500005 1.5v5.765" stroke="#ea4040"/></g><path d="m1 12.5161c0-.8401 0-1.2601.16349-1.581.14381-.2822.37328-.5117.65552-.6555.32087-.1635.74091-.1635 1.58099-.1635h17.7657c.3669 0 .5504 0 .723.0414.1531.0368.2994.0974.4337.1797.1513.0928.2811.2225.5405.482l11.8192 11.8214c.2594.2594.3891.3892.4818.5405.0822.1342.1428.2805.1795.4336.0415.1726.0415.356.0415.7228v28.3519c0 .8401 0 1.2602-.1635 1.581-.1438.2823-.3733.5117-.6555.6556-.3209.1634-.7409.1634-1.581.1634h-29.5849c-.84008 0-1.26012 0-1.58099-.1634-.28224-.1439-.51171-.3733-.65552-.6556-.16349-.3208-.16349-.7409-.16349-1.581z" fill="#020013" stroke="#abb8ff"/><path d="m19.5147 10.1161v13.4729c0 .8401 0 1.2602.1635 1.581.1438.2823.3733.5117.6555.6555.3209.1635.7409.1635 1.581.1635h13.4699" stroke="#abb8ff"/><rect fill="#020013" height="21" rx="7.5" width="48" x="10.5" y="43.2109"/><path d="m23.1719 57.6093h.2265c.2605 0 .4636.0495.6094.1485.1458.0937.2188.2291.2188.4062 0 .1875-.0651.3255-.1954.4141-.125.0885-.3255.1328-.6015.1328h-2.1563c-.1562 0-.2864-.0521-.3906-.1563-.1042-.1041-.1562-.2343-.1562-.3906 0-.1927.0703-.3333.2109-.4219.1406-.0885.3646-.1328.6719-.1328h.1562l2.5313-2.5937-2.4844-2.4141h-.1094c-.3021 0-.513-.0391-.6328-.1172-.1146-.0833-.1719-.2265-.1719-.4297 0-.2135.0651-.3593.1954-.4375.1354-.0833.3906-.125.7656-.125h1.6015c.2813 0 .4844.0469.6094.1407.1302.0885.1953.2291.1953.4218 0 .1771-.0729.3125-.2187.4063-.1407.0937-.3464.1406-.6172.1406h-.0625l1.6797 1.6484 1.6015-1.6484h-.164c-.2917 0-.5078-.0417-.6485-.125-.1406-.0885-.2109-.224-.2109-.4062 0-.2032.0625-.349.1875-.4375.125-.0938.3281-.1407.6094-.1407h2.0312c.1615 0 .2917.0521.3907.1563.1041.0989.1562.2291.1562.3906 0 .1927-.0651.3359-.1953.4297-.1302.0885-.3386.1328-.625.1328h-.2188l-2.2421 2.3359 2.7343 2.6719h.0781c.198 0 .3516.0495.461.1485.1094.0937.164.2291.164.4062 0 .2083-.0624.3516-.1874.4297s-.3829.1172-.7735.1172h-1.5937c-.2761 0-.4792-.0443-.6094-.1328-.1302-.0886-.1953-.2266-.1953-.4141 0-.1719.0625-.3073.1875-.4062.125-.099.2968-.1485.5156-.1485h.4375l-1.9687-1.9219zm10.7969-8h-1.3282c-.5052 0-.8229-.039-.9531-.1172-.125-.0833-.1875-.2317-.1875-.4453 0-.1875.0521-.3281.1562-.4219.1094-.0937.2657-.1406.4688-.1406h2.5781c.1407 0 .25.0287.3281.086.0782.0572.1172.1354.1172.2343v8.8047h2.4532c.1979 0 .3411.0443.4296.1328.0938.0834.1407.2188.1407.4063 0 .2135-.0443.362-.1328.4453-.0886.0781-.2552.1172-.5.1172h-5.7657c-.2031 0-.3593-.0469-.4687-.1406-.1042-.0938-.1563-.2344-.1563-.4219 0-.1823.0547-.3177.1641-.4063.1094-.0885.2734-.1328.4922-.1328h2.1641zm6.7265 8.5391v-1.3906c0-.2292.0417-.3933.125-.4922.0886-.099.2292-.1485.4219-.1485.2135 0 .3828.1459.5078.4375.0833.1771.1589.3099.2266.3985.2187.2812.5416.5078.9687.6797.4271.1666.8985.25 1.4141.25.5521 0 .9948-.112 1.3281-.336.3333-.2239.5-.5182.5-.8828 0-.3698-.1354-.6328-.4063-.7891-.2656-.1562-.7239-.2343-1.375-.2343h-.4296c-1.0625 0-1.8724-.1849-2.4297-.5547s-.836-.9063-.836-1.6094c0-.6875.2709-1.2214.8125-1.6016.5469-.3802 1.3125-.5703 2.2969-.5703.4011 0 .8099.0573 1.2266.1719.4166.1094.6354.1641.6562.1641.0573 0 .1667-.0495.3281-.1485.1615-.1041.3204-.1562.4766-.1562.1771 0 .3073.0651.3906.1953.0886.1302.1328.3255.1328.5859v.9141c0 .276-.0416.4766-.125.6016-.0833.1197-.2161.1796-.3984.1796-.1562 0-.3489-.1328-.5781-.3984-.1615-.1823-.2943-.3203-.3985-.4141-.276-.2552-.5703-.4375-.8828-.5468-.3125-.1146-.6796-.1719-1.1015-.1719-.4896 0-.8854.1094-1.1875.3281-.2969.2136-.4453.487-.4453.8203 0 .3282.1536.5625.4609.7032.3073.1406.9688.2213 1.9844.2421 1.0833.0261 1.875.2162 2.375.5704.5.3489.75.8906.75 1.625 0 .7031-.2761 1.2656-.8282 1.6875-.552.4218-1.2968.6328-2.2343.6328-.2969 0-.6276-.0287-.9922-.086-.3646-.0521-.8229-.1432-1.375-.2734-.1823.1198-.3386.2083-.4688.2656-.1302.0625-.2395.0938-.3281.0938-.1823 0-.3229-.0625-.4219-.1875-.0937-.1302-.1406-.3151-.1406-.5547z" fill="#fff"/><rect height="21" rx="7.5" stroke="#fff" width="48" x="10.5" y="43.2109"/><path d="m175 9.51609c0-.84008 0-1.26012.163-1.58099.144-.28224.374-.51171.656-.65552.321-.16349.741-.16349 1.581-.16349h17.766c.367 0 .55 0 .723.04145.153.03676.299.09738.433.17964.152.09278.281.22253.541.48201l11.819 11.82141c.259.2594.389.3892.482.5405.082.1342.143.2805.179.4336.042.1726.042.356.042.7228v28.3519c0 .8401 0 1.2602-.164 1.581-.143.2823-.373.5117-.655.6556-.321.1634-.741.1634-1.581.1634h-29.585c-.84 0-1.26 0-1.581-.1634-.282-.1439-.512-.3733-.656-.6556-.163-.3208-.163-.7409-.163-1.581z" fill="#020013" stroke="#abb8ff"/><path d="m193.515 7.11609v13.47291c0 .8401 0 1.2602.163 1.581.144.2823.373.5117.656.6555.321.1635.741.1635 1.581.1635h13.47" stroke="#abb8ff"/><rect fill="#020013" height="21" rx="7.5" width="58" x="184.5" y="40.2105"/><path d="m198.492 57.7105h.336c.38 0 .638.0391.774.1172.135.0833.203.2318.203.4453 0 .1823-.055.3203-.164.4141-.105.0937-.258.1406-.461.1406h-3.602c-.245 0-.417-.0417-.516-.125-.093-.0833-.14-.2266-.14-.4297 0-.1875.049-.3281.148-.4219.104-.0937.258-.1406.461-.1406h1.696l1.265-2.4922-2.867-5.6172c-.344 0-.581-.0416-.711-.125-.125-.0833-.187-.2291-.187-.4375 0-.1823.052-.3177.156-.4062.104-.0938.26-.1406.469-.1406h2.179c.292 0 .487.0416.586.125.099.0781.149.2187.149.4218 0 .2084-.065.3542-.196.4375-.13.0834-.369.125-.718.125h-.29l2.118 4.3047 2.156-4.3047h-.305c-.359 0-.607-.0416-.742-.125-.135-.0833-.203-.2291-.203-.4375 0-.2031.049-.3437.148-.4218.099-.0834.297-.125.594-.125h1.93c.213 0 .37.0468.469.1406.104.0885.156.2239.156.4062 0 .198-.057.3386-.172.4219s-.318.1302-.609.1406zm11.93-5.4531c-.287-.0938-.565-.1615-.836-.2031-.266-.0469-.531-.0704-.797-.0704-.802 0-1.435.1355-1.898.4063-.464.2708-.696.6354-.696 1.0937 0 .3542.144.6459.43.875.292.2292.661.3438 1.109.3438.662 0 1.274-.1719 1.836-.5156.568-.349.852-.711.852-1.086zm.062 2.4609c-.427.3854-.893.6797-1.398.8828-.5.2032-1.016.3047-1.547.3047-.776 0-1.404-.2161-1.883-.6484-.474-.4323-.711-.9948-.711-1.6875 0-.8229.315-1.461.946-1.9141.635-.4531 1.526-.6797 2.671-.6797.303 0 .607.0209.915.0625.307.0365.622.0964.945.1797v-.0547c0-.5989-.143-1.0416-.43-1.3281-.286-.2864-.732-.4297-1.336-.4297-.406 0-.859.1094-1.359.3281-.5.2188-.831.3282-.992.3282-.151 0-.276-.0599-.375-.1797-.099-.125-.149-.2839-.149-.4766 0-.3073.287-.5677.86-.7812.578-.2136 1.315-.3203 2.211-.3203.916 0 1.609.2343 2.078.7031.468.4635.703 1.151.703 2.0625v3.539h.383c.369 0 .617.0391.742.1172.125.0782.187.2188.187.4219 0 .1875-.052.3281-.156.4219-.104.0937-.26.1406-.469.1406h-1.226c-.146 0-.266-.0443-.36-.1328-.093-.0885-.156-.2161-.187-.3828zm10.711-3.3594c0-.7343-.067-1.2291-.203-1.4843-.13-.2604-.357-.3907-.68-.3907-.385 0-.692.1667-.921.5-.224.3334-.336.7917-.336 1.375v3.25h.14c.318 0 .529.0391.633.1172.11.073.164.2136.164.4219 0 .1875-.044.3281-.133.4219-.088.0937-.224.1406-.406.1406h-.992c-.224 0-.378-.0521-.461-.1562-.078-.1042-.117-.3282-.117-.6719v-.2266-3.2969-.6093c0-.3907-.089-.6979-.266-.9219-.177-.2292-.419-.3438-.726-.3438-.235 0-.451.0704-.649.211-.193.1354-.359.3385-.5.6094v4.3046h.289c.313 0 .524.0391.633.1172.109.0782.164.2188.164.4219 0 .2136-.044.362-.133.4453-.088.0781-.257.1172-.507.1172h-2.079c-.203 0-.354-.0443-.453-.1328-.094-.0938-.14-.237-.14-.4297 0-.2083.06-.3489.179-.4219.125-.0781.365-.1172.719-.1172h.156v-5.0078h-.14c-.365 0-.615-.0416-.75-.125-.131-.0833-.196-.2291-.196-.4375 0-.1823.052-.3177.157-.4062.104-.0938.26-.1406.468-.1406h1.196c.172 0 .284.0312.336.0937.057.0573.091.1823.101.375.214-.2292.443-.3984.688-.5078.244-.1094.521-.1641.828-.1641.364 0 .664.0808.898.2422.24.1563.417.3959.532.7188.218-.3282.471-.5703.757-.7266.287-.1562.615-.2344.985-.2344.672 0 1.161.2188 1.468.6563.313.4375.469 1.1458.469 2.125v3.539h.125c.323 0 .539.0391.649.1172.109.0782.164.2188.164.4219 0 .1875-.047.3281-.141.4219-.094.0937-.232.1406-.414.1406h-.945c-.209 0-.362-.0625-.461-.1875s-.149-.3229-.149-.5937zm6.188-4.75h-1.328c-.506 0-.823-.039-.953-.1171-.125-.0834-.188-.2318-.188-.4454 0-.1875.052-.3281.156-.4218.11-.0938.266-.1407.469-.1407h2.578c.141 0 .25.0287.328.086s.117.1354.117.2344v8.8046h2.454c.198 0 .341.0443.429.1329.094.0833.141.2187.141.4062 0 .2136-.044.362-.133.4453-.088.0781-.255.1172-.5.1172h-5.765c-.204 0-.36-.0469-.469-.1406-.104-.0938-.157-.2344-.157-.4219 0-.1823.055-.3177.165-.4062.109-.0886.273-.1329.492-.1329h2.164z" fill="#fff"/><rect height="21" rx="7.5" stroke="#fff" width="58" x="184.5" y="40.2105"/><g clip-path="url(#a)"><path d="m134.473 13.8682-12.225-12.22505c-.704-.703887-1.847-.703887-2.551 0l-2.538 2.53825 3.221 3.22081c.771-.26205 1.627-.06399 2.203.51191.579.58201.777 1.44129.509 2.21828l3.105 3.102c.777-.2681 1.636-.0701 2.218.5089.838.8379.838 2.1969 0 3.0349s-2.197.838-3.038 0c-.612-.6125-.795-1.5327-.466-2.3341l-2.895-2.8948v7.6178c1.064.5241 1.499 1.81.972 2.8735-.103.2102-.241.4022-.405.5667-.838.838-2.197.838-3.035 0-.838-.8379-.838-2.1969 0-3.0349.201-.2011.439-.3595.701-.4692v-7.6879c-1.097-.451-1.621-1.70642-1.167-2.80338 0-.00305 0-.0061.003-.00915l-3.175-3.1751-8.383 8.38263c-.704.7039-.704 1.8466 0 2.5504l12.225 12.2251c.704.7039 1.847.7039 2.551 0l12.167-12.1672c.704-.7038.704-1.8465 0-2.5504" fill="#fff"/></g><g clip-path="url(#b)"><path d="m248.473 119.868-12.225-12.225c-.704-.704-1.847-.704-2.551 0l-2.538 2.538 3.221 3.221c.771-.262 1.627-.064 2.203.512.579.582.777 1.441.509 2.218l3.105 3.102c.777-.268 1.636-.07 2.218.509.838.838.838 2.197 0 3.035s-2.197.838-3.038 0c-.612-.612-.795-1.533-.466-2.334l-2.895-2.895v7.618c1.064.524 1.499 1.81.972 2.874-.103.21-.241.402-.405.566-.838.838-2.197.838-3.035 0s-.838-2.197 0-3.035c.201-.201.439-.359.701-.469v-7.688c-1.097-.451-1.621-1.706-1.167-2.803 0-.003 0-.006.003-.009l-3.175-3.175-8.383 8.382c-.704.704-.704 1.847 0 2.551l12.225 12.225c.704.704 1.847.704 2.551 0l12.167-12.167c.704-.704.704-1.847 0-2.551" fill="#fff"/></g><path d="m6.73828 259.437c.45899 0 .83171-.144 1.11817-.434.28645-.29.42968-.666.42968-1.128 0-.453-.14648-.825-.43945-1.118-.28971-.293-.65918-.44-1.1084-.44-.45247 0-.82357.147-1.11328.44-.28646.289-.42969.662-.42969 1.118s.14323.83.42969 1.123c.28971.293.66081.439 1.11328.439zm-1.52344-3.13c.1823-.227.41016-.402.6836-.522s.58268-.181.92773-.181c.6543 0 1.19955.222 1.63574.664.4362.44.6543.985.6543 1.636 0 .641-.22461 1.185-.67383 1.631-.44596.446-.99121.669-1.63574.669-.3418 0-.63965-.06-.89355-.181-.25391-.12-.46224-.302-.625-.547v.391c0 .088-.01628.151-.04883.19-.0293.04-.07975.059-.15137.059h-.89355c-.12696 0-.22136-.029-.28321-.088-.06185-.058-.09277-.146-.09277-.263 0-.131.03743-.219.1123-.264.07487-.049.22299-.073.44434-.073h.10254v-5h-.09277c-.22136 0-.37273-.026-.45411-.079-.08138-.052-.12207-.143-.12207-.273 0-.117.03256-.205.09766-.264.0651-.058.16113-.088.28809-.088h.74218c.09766 0 .16765.017.20996.049.04558.033.06836.083.06836.152zm6.04976 2.007c0 .41.0863.71.2588.899.1726.189.446.283.8204.283.3548 0 .6575-.112.9082-.337.2539-.225.3808-.506.3808-.845v-2.016h-.6689c-.127 0-.2198-.026-.2784-.078-.0553-.056-.083-.14-.083-.254 0-.124.031-.215.0928-.274.0619-.058.1611-.088.2979-.088h1.04c.1237 0 .21.028.2588.083.0521.052.0781.183.0781.391v3.35h.2246c.1595 0 .2735.026.3418.078.0716.052.1074.138.1074.259 0 .117-.0341.205-.1025.263-.0651.059-.1611.088-.2881.088h-.7422c-.0879 0-.1562-.018-.205-.054-.0489-.035-.0733-.084-.0733-.146v-.332c-.3125.241-.581.407-.8057.498-.2213.088-.4557.132-.7031.132-.5371 0-.9407-.142-1.2109-.425-.2669-.287-.4004-.718-.4004-1.294v-2.197h-.1025c-.2214 0-.3728-.026-.45415-.078-.08138-.052-.12207-.144-.12207-.274 0-.114.03093-.198.09278-.254.0651-.058.16434-.088.29784-.088h.7373c.1139 0 .1921.023.2344.069.0456.045.0683.146.0683.302zm5.0928 1.451v-.87c0-.143.0261-.245.0781-.307.0554-.062.1433-.093.2637-.093.1335 0 .2393.091.3174.273.0521.111.0993.194.1416.249.1367.176.3385.318.6055.425.2669.104.5615.157.8838.157.345 0 .6217-.07.83-.21.2084-.14.3125-.324.3125-.552 0-.231-.0846-.396-.2539-.493-.166-.098-.4524-.147-.8593-.147h-.2686c-.6641 0-1.1702-.115-1.5186-.347-.3483-.231-.5224-.566-.5224-1.005 0-.43.1693-.764.5078-1.001.3418-.238.8203-.357 1.4355-.357.2507 0 .5062.036.7666.108.2605.068.3972.102.4102.102.0358 0 .1042-.031.2051-.093.1009-.065.2002-.097.2978-.097.1107 0 .1921.04.2442.122.0553.081.083.203.083.366v.571c0 .173-.0261.298-.0781.376-.0521.075-.1351.113-.2491.113-.0976 0-.2181-.083-.3613-.249-.1009-.114-.1839-.201-.249-.259-.1725-.16-.3565-.274-.5518-.342-.1953-.072-.4248-.107-.6885-.107-.3059 0-.5533.068-.7421.205-.1856.133-.2784.304-.2784.512 0 .205.0961.352.2881.44.1921.088.6055.138 1.2403.151.677.016 1.1718.135 1.4843.357.3125.218.4688.556.4688 1.015 0 .44-.1725.791-.5176 1.055-.345.264-.8105.395-1.3965.395-.1855 0-.3922-.018-.6201-.053-.2279-.033-.5143-.09-.8594-.171-.1139.075-.2116.13-.2929.166-.0814.039-.1498.058-.2051.058-.1139 0-.2018-.039-.2637-.117-.0586-.081-.0879-.197-.0879-.346zm7.6856-5.567c0-.351.0309-.573.0927-.664.0651-.091.2019-.137.4102-.137.2018 0 .3353.039.4004.118.0651.074.0976.255.0976.542 0 .279-.0309.454-.0927.522-.0586.065-.1937.098-.4053.098-.2083 0-.3451-.031-.4102-.093-.0618-.062-.0927-.191-.0927-.386zm.9033 5.23h1.5674c.1269 0 .2197.027.2783.083.0618.052.0928.136.0928.254 0 .133-.0293.226-.0879.278-.0554.049-.1595.073-.3125.073h-3.7891c-.1302 0-.2279-.029-.293-.088-.0651-.058-.0976-.146-.0976-.263 0-.114.0342-.199.1025-.254.0684-.056.1709-.083.3076-.083h1.4893v-3.13h-.9521c-.1335 0-.236-.03-.3077-.088-.0683-.062-.1025-.15-.1025-.264s.0325-.198.0977-.254c.0651-.058.1627-.088.2929-.088h1.4307c.0879 0 .1562.018.2051.054.052.036.0781.085.0781.147zm3.7353 0v-3.13h-.0927c-.2214 0-.3744-.026-.459-.078-.0814-.052-.1221-.144-.1221-.274 0-.12.0342-.207.1026-.259.0683-.055.179-.083.332-.083h.2295.4687c.0879 0 .1563.018.2051.054s.0732.085.0732.147v.332c.2377-.222.4721-.385.7032-.489.2343-.107.4769-.161.7275-.161.4915 0 .8773.153 1.1572.459.2832.306.4248.729.4248 1.27v2.212h.2295c.1628 0 .28.027.3516.083.0716.052.1074.136.1074.254 0 .126-.039.218-.1172.273-.0748.052-.2099.078-.4052.078h-1.0791c-.2084 0-.3418-.024-.4004-.073s-.0879-.142-.0879-.278c0-.127.0342-.215.1025-.264.0684-.049.197-.073.3858-.073h.1709v-2.032c0-.38-.0863-.67-.2588-.869-.1726-.202-.4232-.303-.752-.303-.332 0-.625.113-.8789.337-.2539.225-.3809.503-.3809.835v2.032h.1709c.1954 0 .3272.024.3956.073.0683.049.1025.137.1025.264 0 .136-.0293.229-.0879.278s-.2018.073-.4297.073h-.8887-.2636c-.1335 0-.2344-.028-.3028-.083-.0651-.059-.0976-.148-.0976-.268 0-.131.0374-.219.1123-.264.0781-.049.2278-.073.4492-.073zm6.1719-1.353c.0261.469.1839.832.4736 1.089.293.254.6918.381 1.1963.381.3809 0 .7959-.101 1.2452-.303.4492-.205.721-.308.8154-.308.0976 0 .179.031.2441.093s.0977.139.0977.23c0 .094-.0342.18-.1026.259-.0683.078-.1774.154-.3271.229-.3255.16-.6624.282-1.0107.366-.3451.085-.6885.127-1.0303.127-.7422 0-1.3363-.213-1.7822-.639-.446-.43-.669-.998-.669-1.705 0-.719.236-1.302.708-1.748s1.0873-.669 1.8457-.669c.6869 0 1.2565.209 1.709.625.4525.417.6787.922.6787 1.514 0 .182-.0391.304-.1172.366-.0748.062-.2816.093-.6201.093h-.0732zm.0244-.64h3.1787c-.0488-.387-.2115-.698-.4882-.932-.2735-.238-.6104-.357-1.0108-.357-.4329 0-.7975.114-1.0937.342-.2963.228-.4916.544-.586.947zm5.503 2.33v-.87c0-.143.026-.245.0781-.307.0553-.062.1432-.093.2637-.093.1334 0 .2392.091.3173.273.0521.111.0993.194.1416.249.1368.176.3386.318.6055.425.2669.104.5615.157.8838.157.3451 0 .6217-.07.8301-.21.2083-.14.3125-.324.3125-.552 0-.231-.0847-.396-.2539-.493-.166-.098-.4525-.147-.8594-.147h-.2686c-.664 0-1.1702-.115-1.5185-.347-.3483-.231-.5225-.566-.5225-1.005 0-.43.1693-.764.5078-1.001.3418-.238.8204-.357 1.4356-.357.2506 0 .5062.036.7666.108.2604.068.3971.102.4101.102.0358 0 .1042-.031.2051-.093.1009-.065.2002-.097.2979-.097.1106 0 .192.04.2441.122.0554.081.083.203.083.366v.571c0 .173-.026.298-.0781.376-.0521.075-.1351.113-.249.113-.0977 0-.2181-.083-.3614-.249-.1009-.114-.1839-.201-.249-.259-.1725-.16-.3564-.274-.5517-.342-.1954-.072-.4248-.107-.6885-.107-.306 0-.5534.068-.7422.205-.1855.133-.2783.304-.2783.512 0 .205.096.352.2881.44.192.088.6054.138 1.2402.151.6771.016 1.1719.135 1.4844.357.3125.218.4687.556.4687 1.015 0 .44-.1725.791-.5176 1.055-.345.264-.8105.395-1.3964.395-.1856 0-.3923-.018-.6202-.053-.2278-.033-.5143-.09-.8593-.171-.114.075-.2116.13-.293.166-.0814.039-.1497.058-.2051.058-.1139 0-.2018-.039-.2636-.117-.0586-.081-.0879-.197-.0879-.346zm6.0058 0v-.87c0-.143.0261-.245.0781-.307.0554-.062.1433-.093.2637-.093.1335 0 .2393.091.3174.273.0521.111.0993.194.1416.249.1367.176.3385.318.6055.425.2669.104.5615.157.8838.157.345 0 .6217-.07.83-.21.2084-.14.3125-.324.3125-.552 0-.231-.0846-.396-.2539-.493-.166-.098-.4524-.147-.8593-.147h-.2686c-.6641 0-1.1702-.115-1.5186-.347-.3483-.231-.5224-.566-.5224-1.005 0-.43.1693-.764.5078-1.001.3418-.238.8203-.357 1.4355-.357.2507 0 .5062.036.7666.108.2605.068.3972.102.4102.102.0358 0 .1042-.031.2051-.093.1009-.065.2002-.097.2978-.097.1107 0 .1921.04.2442.122.0553.081.083.203.083.366v.571c0 .173-.0261.298-.0781.376-.0521.075-.1351.113-.2491.113-.0976 0-.2181-.083-.3613-.249-.1009-.114-.1839-.201-.249-.259-.1725-.16-.3565-.274-.5518-.342-.1953-.072-.4248-.107-.6885-.107-.3059 0-.5533.068-.7421.205-.1856.133-.2784.304-.2784.512 0 .205.0961.352.2881.44.1921.088.6055.138 1.2403.151.677.016 1.1718.135 1.4843.357.3125.218.4688.556.4688 1.015 0 .44-.1725.791-.5176 1.055-.345.264-.8105.395-1.3965.395-.1855 0-.3922-.018-.6201-.053-.2279-.033-.5143-.09-.8594-.171-.1139.075-.2116.13-.2929.166-.0814.039-.1498.058-.2051.058-.114 0-.2018-.039-.2637-.117-.0586-.081-.0879-.197-.0879-.346zm-29.1162 9.549c0 .41.0863.71.2588.899s.446.283.8203.283c.3548 0 .6576-.112.9082-.337.2539-.225.3809-.506.3809-.845v-2.016h-.669c-.1269 0-.2197-.026-.2783-.078-.0553-.056-.083-.14-.083-.254 0-.124.0309-.215.0928-.274.0618-.058.1611-.088.2978-.088h1.0401c.1237 0 .2099.028.2588.083.052.052.0781.183.0781.391v3.35h.2246c.1595 0 .2734.026.3418.078.0716.052.1074.138.1074.259 0 .117-.0342.205-.1025.263-.0651.059-.1612.088-.2881.088h-.7422c-.0879 0-.1563-.018-.2051-.054-.0488-.035-.0732-.084-.0732-.146v-.332c-.3125.241-.5811.407-.8057.498-.2213.088-.4557.132-.7031.132-.5371 0-.9408-.142-1.211-.425-.2669-.287-.4003-.718-.4003-1.294v-2.197h-.1026c-.2213 0-.3727-.026-.4541-.078s-.1221-.144-.1221-.274c0-.114.031-.198.0928-.254.0651-.058.1644-.088.2979-.088h.7373c.1139 0 .192.023.2343.069.0456.045.0684.146.0684.302zm5.0928 1.451v-.87c0-.143.026-.245.0781-.307.0553-.062.1432-.093.2637-.093.1334 0 .2392.091.3174.273.052.111.0992.194.1416.249.1367.176.3385.318.6054.425.267.104.5616.157.8838.157.3451 0 .6218-.07.8301-.21s.3125-.324.3125-.552c0-.231-.0846-.396-.2539-.493-.166-.098-.4525-.147-.8594-.147h-.2685c-.6641 0-1.1703-.115-1.5186-.347-.3483-.231-.5225-.566-.5225-1.005 0-.43.1693-.764.5079-1.001.3418-.238.8203-.357 1.4355-.357.2507 0 .5062.036.7666.108.2604.068.3971.102.4102.102.0358 0 .1041-.031.205-.093.101-.065.2002-.097.2979-.097.1107 0 .1921.04.2441.122.0554.081.083.203.083.366v.571c0 .173-.026.298-.0781.376-.0521.075-.1351.113-.249.113-.0977 0-.2181-.083-.3613-.249-.1009-.114-.184-.201-.2491-.259-.1725-.16-.3564-.274-.5517-.342-.1953-.072-.4248-.107-.6885-.107-.306 0-.5534.068-.7422.205-.1855.133-.2783.304-.2783.512 0 .205.096.352.2881.44.192.088.6055.138 1.2402.151.6771.016 1.1719.135 1.4844.357.3125.218.4687.556.4687 1.015 0 .44-.1725.791-.5175 1.055-.3451.264-.8106.395-1.3965.395-.1856 0-.3923-.018-.6201-.053-.2279-.033-.5144-.09-.8594-.171-.1139.075-.2116.13-.293.166-.0814.039-.1497.058-.2051.058-.1139 0-.2018-.039-.2636-.117-.0586-.081-.0879-.197-.0879-.346zm6.4844-1.69c.026.469.1839.832.4736 1.089.293.254.6917.381 1.1963.381.3808 0 .7959-.101 1.2451-.303.4492-.205.721-.308.8154-.308.0977 0 .1791.031.2442.093s.0976.139.0976.23c0 .094-.0342.18-.1025.259-.0684.078-.1774.154-.3272.229-.3255.16-.6624.282-1.0107.366-.3451.085-.6885.127-1.0303.127-.7422 0-1.3362-.213-1.7822-.639-.446-.43-.669-.998-.669-1.705 0-.719.236-1.302.7081-1.748.472-.446 1.0872-.669 1.8457-.669.6868 0 1.2565.209 1.7089.625.4525.417.6788.922.6788 1.514 0 .182-.0391.304-.1172.366-.0749.062-.2816.093-.6202.093h-.0732zm.0244-.64h3.1787c-.0488-.387-.2116-.698-.4883-.932-.2734-.238-.6104-.357-1.0107-.357-.433 0-.7976.114-1.0938.342s-.4915.544-.5859.947zm7.1533 1.993h1.6211c.1269 0 .2197.027.2783.083.0619.052.0928.136.0928.254 0 .133-.0293.226-.0879.278-.0554.049-.1595.073-.3125.073h-3.1934c-.1269 0-.223-.029-.2881-.088-.0651-.058-.0976-.146-.0976-.263 0-.114.0325-.199.0976-.254.0684-.056.1726-.083.3125-.083h.8497v-3.13h-.3321c-.3157 0-.5127-.025-.5908-.074-.0781-.052-.1172-.144-.1172-.278 0-.114.0309-.198.0928-.254.0651-.058.1627-.088.293-.088h1.1132c.0879 0 .1547.018.2002.054.0456.033.0684.081.0684.147v.83c.3092-.388.6315-.676.9668-.865.3353-.188.6966-.283 1.084-.283.2897 0 .5241.059.7031.176s.2686.269.2686.454c0 .121-.0456.228-.1368.322-.0879.091-.1855.137-.2929.137-.0749 0-.2019-.049-.3809-.146-.1758-.101-.3337-.152-.4736-.152-.2539 0-.5225.091-.8057.274-.2799.179-.5908.464-.9326.854z" fill="#fff"/><path d="m201.944 257.116c-.068 0-.117-.016-.146-.049-.026-.036-.039-.102-.039-.2v-.4c-.196.244-.44.434-.733.571-.293.133-.61.2-.952.2-.615 0-1.131-.218-1.548-.654-.413-.44-.62-.985-.62-1.636 0-.674.222-1.234.664-1.68.443-.449.995-.673 1.656-.673.335 0 .636.06.903.18.267.117.496.292.688.523v-1.87h-.258c-.284 0-.468-.025-.552-.074-.082-.052-.122-.144-.122-.278 0-.117.032-.205.097-.264.069-.058.166-.088.293-.088h1.001c.098 0 .168.017.21.049.046.033.069.083.069.152v5.503h.219c.16 0 .275.027.347.083.072.052.108.136.108.254 0 .11-.031.196-.093.258s-.145.093-.249.093zm-3.198-2.192c0 .449.145.817.435 1.103.289.287.657.43 1.103.43.449 0 .819-.148 1.109-.444.289-.3.434-.679.434-1.138 0-.453-.145-.825-.434-1.118-.287-.293-.656-.44-1.109-.44-.459 0-.83.148-1.113.445-.283.296-.425.683-.425 1.162zm6.084.151c.026.469.184.832.474 1.089.293.254.691.381 1.196.381.381 0 .796-.101 1.245-.303.449-.205.721-.308.816-.308.097 0 .179.031.244.093s.097.139.097.23c0 .094-.034.18-.102.259-.069.078-.178.154-.327.229-.326.16-.663.282-1.011.366-.345.085-.689.127-1.03.127-.743 0-1.337-.213-1.783-.639-.446-.43-.669-.998-.669-1.705 0-.719.236-1.302.708-1.748s1.088-.669 1.846-.669c.687 0 1.257.209 1.709.625.453.417.679.922.679 1.514 0 .182-.039.304-.117.366-.075.062-.282.093-.62.093h-.074zm.024-.64h3.179c-.049-.387-.211-.698-.488-.932-.274-.238-.61-.357-1.011-.357-.433 0-.797.114-1.094.342-.296.228-.491.544-.586.947zm5.396-1.137c-.215 0-.363-.026-.444-.078-.078-.052-.118-.144-.118-.274 0-.114.033-.198.098-.254.065-.058.163-.088.293-.088h1.367c.186 0 .31.026.371.078.062.049.093.137.093.264 0 .13-.041.222-.122.274s-.231.078-.449.078h-.181l1.27 3.159 1.411-3.159h-.293c-.251 0-.42-.025-.508-.074-.088-.052-.132-.144-.132-.278 0-.127.031-.215.093-.264.062-.052.186-.078.371-.078h1.509c.13 0 .228.03.293.088.065.056.098.14.098.254 0 .13-.041.222-.123.274-.078.052-.224.078-.439.078h-.088l-1.611 3.559c-.082.179-.163.295-.244.347-.078.055-.194.083-.347.083-.14 0-.249-.026-.327-.078-.075-.052-.153-.169-.235-.352zm15.581-.42c.16 0 .275.027.347.083.075.055.112.143.112.263 0 .114-.034.201-.102.259-.069.056-.171.083-.308.083h-1.978v1.631c0 .534.069.886.205 1.055.14.169.378.254.713.254.297 0 .651-.087 1.065-.259.413-.173.669-.259.766-.259.092 0 .168.033.23.098.065.065.098.145.098.239 0 .107-.041.202-.123.283-.078.078-.213.155-.405.23-.319.127-.607.219-.864.278-.254.059-.493.088-.718.088-.381 0-.701-.06-.962-.181-.257-.123-.449-.306-.576-.547-.065-.113-.112-.249-.142-.405-.026-.156-.039-.397-.039-.722v-.152-1.631h-.83c-.136 0-.236-.026-.298-.078-.061-.055-.092-.143-.092-.264 0-.133.042-.224.127-.273.084-.049.265-.073.542-.073h.551v-1.001-.259c0-.14.03-.242.088-.308.062-.068.157-.102.283-.102.144 0 .243.041.298.122.056.081.083.267.083.557v.991zm3.023 2.197c.026.469.183.832.473 1.089.293.254.692.381 1.196.381.381 0 .796-.101 1.246-.303.449-.205.721-.308.815-.308.098 0 .179.031.244.093s.098.139.098.23c0 .094-.034.18-.103.259-.068.078-.177.154-.327.229-.325.16-.662.282-1.011.366-.345.085-.688.127-1.03.127-.742 0-1.336-.213-1.782-.639-.446-.43-.669-.998-.669-1.705 0-.719.236-1.302.708-1.748s1.087-.669 1.846-.669c.686 0 1.256.209 1.709.625.452.417.678.922.678 1.514 0 .182-.039.304-.117.366-.075.062-.281.093-.62.093h-.073zm.024-.64h3.179c-.049-.387-.212-.698-.489-.932-.273-.238-.61-.357-1.01-.357-.433 0-.798.114-1.094.342s-.492.544-.586.947zm8.716.523c-.179-.059-.353-.101-.523-.127-.166-.029-.332-.044-.498-.044-.501 0-.897.085-1.186.254-.29.169-.435.397-.435.683 0 .222.09.404.269.547.182.144.413.215.693.215.413 0 .796-.107 1.148-.322.354-.218.532-.444.532-.679zm.039 1.538c-.267.241-.558.425-.874.552-.313.127-.635.19-.967.19-.485 0-.877-.135-1.177-.405-.296-.27-.444-.622-.444-1.055 0-.514.197-.913.591-1.196.397-.283.953-.425 1.67-.425.188 0 .379.013.571.039.192.023.389.06.591.112v-.034c0-.374-.09-.651-.269-.83s-.457-.268-.835-.268c-.254 0-.537.068-.849.205-.313.136-.52.205-.62.205-.095 0-.173-.038-.235-.112-.062-.079-.093-.178-.093-.298 0-.192.179-.355.537-.489.362-.133.822-.2 1.382-.2.573 0 1.006.147 1.299.44.293.289.44.719.44 1.289v2.212h.239c.231 0 .386.024.464.073s.117.137.117.264c0 .117-.033.205-.098.263-.065.059-.163.088-.293.088h-.766c-.091 0-.166-.028-.225-.083s-.098-.135-.117-.239zm6.694-2.1c0-.459-.042-.768-.127-.927-.081-.163-.223-.245-.425-.245-.24 0-.433.105-.576.313-.14.208-.21.495-.21.859v2.032h.088c.199 0 .331.024.396.073.068.045.102.133.102.264 0 .117-.027.205-.083.263-.055.059-.14.088-.254.088h-.62c-.14 0-.236-.032-.288-.098-.049-.065-.073-.205-.073-.419v-.142-2.061-.38c0-.245-.056-.437-.166-.577-.111-.143-.262-.215-.454-.215-.147 0-.282.044-.406.132-.12.085-.224.212-.312.381v2.691h.181c.195 0 .327.024.395.073s.103.137.103.264c0 .133-.028.226-.083.278-.056.049-.161.073-.318.073h-1.299c-.127 0-.221-.028-.283-.083-.058-.059-.088-.148-.088-.268 0-.131.038-.219.113-.264.078-.049.228-.073.449-.073h.098v-3.13h-.088c-.228 0-.384-.026-.469-.078-.081-.052-.122-.144-.122-.274 0-.114.032-.198.097-.254.066-.058.163-.088.293-.088h.748c.107 0 .177.02.209.059.036.036.057.114.064.234.133-.143.277-.249.43-.317s.325-.103.517-.103c.228 0 .415.051.562.152.149.097.26.247.332.449.136-.205.294-.356.473-.454s.385-.147.616-.147c.42 0 .726.137.918.411.195.273.293.716.293 1.328v2.212h.078c.202 0 .337.024.405.073s.103.137.103.264c0 .117-.03.205-.088.263-.059.059-.145.088-.259.088h-.591c-.13 0-.226-.039-.288-.117s-.093-.202-.093-.371z" fill="#fff"/></svg>