<svg fill="none" height="102" viewBox="0 0 71 102" width="71" xmlns="http://www.w3.org/2000/svg"><path d="m49.6593 60.6309c1.9021 2.7195 3.0187 6.0343 3.0187 9.6159 0 9.2302-7.4333 16.7124-16.6079 16.7124-9.1745 0-16.6031-7.4822-16.6031-16.7124 0-21.9609 33.211-16.1028 33.211-38.7305 0-9.2301-7.4333-16.7124-16.6031-16.7124-9.1699 0-16.6079 7.4823-16.6079 16.7124 0 3.5768 1.1166 6.8965 3.0187 9.616" stroke="#abb8ff" stroke-linecap="round" stroke-miterlimit="10"/><path d="m14.322 38.4451 8.5252 2.6642 2.6642-8.5253" stroke="#abb8ff" stroke-linecap="round"/><circle cx="36.3091" cy="50.4737" fill="#020013" r="11.0789"/><circle cx="36.3091" cy="50.4737" fill="#abb8ff" fill-opacity=".3" r="11.0789"/><g stroke="#abb8ff"><circle cx="36.3091" cy="50.4737" r="11.0789"/><rect height="4.21053" rx="2.10526" transform="matrix(0 1 -1 0 143.6247 49.9539)" width="4.21053" x="46.8354" y="96.7893"/><rect fill="#020013" height="4.21053" rx="2.10526" transform="matrix(0 -1 1 0 -55.2169 123.6245)" width="4.21053" x="34.2038" y="89.4207"/><path d="m36.3091 89.4207v5.4736c0 1.8857 0 2.8285.5857 3.4143.5858.5857 1.5286.5857 3.4143.5857h2.3157"/></g><path d="m37.4713 45.7737-.4975.0498zm1.3394.5548-.3166-.387zm1.1025.055.3535-.3536zm.4861.4861-.3536.3535zm.055 1.1025.3869.3167zm.5548 1.3394-.0498.4976zm-.5547 3.6635.387-.3166zm-.055 1.1023-.3535-.3535zm-1.5887.5412-.3166.387zm-1.3394.5549.4976.0498zm-2.3244.0002-.4975.0498zm-1.3393-.5547.3166.3869zm-1.1026-.055-.3535.3535zm-.4861-.4861.3536-.3536zm-.055-1.1025.387.3166zm-.5548-1.3393-.0497.4975zm.0002-2.3245-.0498-.4975zm.5548-1.3396.387-.3166zm.055-1.1027.3535.3535zm1.5885-.541.3166-.387zm1.3393-.5546-.4975-.0498zm2.8219-.0496c-.0676-.6761-.6365-1.191-1.316-1.191v1c.1657 0 .3045.1255.321.2905zm.5253.2175c-.1992.163-.4996.0386-.5253-.2175l-.995.0995c.105 1.0499 1.3368 1.5602 2.1535.892zm1.7726.0884c-.4804-.4804-1.2468-.5186-1.7726-.0884l.6332.774c.1283-.1049.3152-.0956.4323.0216zm.4861.4861-.4861-.4861-.7071.7072.4861.486zm.0884 1.7728c.4303-.5259.3921-1.2923-.0884-1.7728l-.7071.7071c.1172.1172.1265.3042.0216.4324zm.2176.5252c-.2561-.0256-.3805-.326-.2176-.5252l-.7739-.6333c-.6682.8167-.158 2.0486.892 2.1536zm1.191 1.316c0-.6794-.5149-1.2484-1.191-1.316l-.0995.9951c.1649.0165.2905.1552.2905.3209zm0 .6876v-.6876h-1v.6876zm-1.1909 1.3159c.676-.0676 1.1909-.6365 1.1909-1.3159h-1c0 .1656-.1255.3043-.2904.3208zm-.2175.5249c-.1628-.199-.0385-.4993.2175-.5249l-.0995-.9951c-1.0497.105-1.5601 1.3367-.892 2.1533zm-.0884 1.7725c.4804-.4804.5186-1.2467.0884-1.7725l-.774.6333c.1049.1281.0956.315-.0215.4321zm-.4862.4862.4862-.4862-.7071-.7071-.4862.4862zm-1.7727.0884c.5259.4303 1.2922.392 1.7727-.0884l-.7071-.7071c-.1172.1172-.3041.1265-.4324.0216zm-.5252.2177c.0256-.2562.3261-.3806.5252-.2177l.6332-.7739c-.8167-.6683-2.0485-.1577-2.1535.8921zm-1.3162 1.1911c.6796 0 1.2485-.515 1.3162-1.1911l-.9951-.0995c-.0165.165-.1553.2906-.3211.2906zm-.6873 0h.6873v-1h-.6873zm-1.316-1.1909c.0676.676.6365 1.1909 1.316 1.1909v-1c-.1657 0-.3045-.1256-.321-.2904zm-.5252-.2176c.1992-.1629.4996-.0385.5252.2176l.995-.0995c-.105-1.05-1.3368-1.5602-2.1535-.892zm-1.7727-.0884c.4804.4805 1.2468.5187 1.7727.0884l-.6333-.7739c-.1282.1049-.3152.0956-.4323-.0216zm-.4861-.4861.4861.4861.7071-.7071-.4861-.4861zm-.0885-1.7726c-.4302.5258-.392 1.2922.0885 1.7726l.7071-.7071c-.1172-.1172-.1265-.3041-.0216-.4323zm-.2175-.5252c.2561.0256.3805.326.2175.5252l.774.6332c.6682-.8166.1579-2.0485-.892-2.1535zm-1.191-1.316c0 .6795.5149 1.2484 1.191 1.316l.0995-.9951c-.1649-.0164-.2905-.1552-.2905-.3209zm0-.6874v.6874h1v-.6874zm1.1911-1.3161c-.6761.0676-1.1911.6366-1.1911 1.3161h1c0-.1657.1257-.3045.2906-.321zm.2176-.5254c.1631.1993.0385.4998-.2176.5254l.0995.9951c1.0501-.1051 1.5602-1.3371.8921-2.1538zm.0884-1.773c-.4805.4805-.5187 1.247-.0884 1.773l.774-.6333c-.1051-.1283-.0957-.3154.0215-.4326zm.486-.486-.486.486.7071.7071.486-.486zm1.7727-.0884c-.5258-.4302-1.2922-.3921-1.7727.0884l.7071.7071c.1171-.1171.3041-.1265.4324-.0215zm.5252-.2174c-.0256.2559-.3259.3804-.5252.2174l-.6332.774c.8165.668 2.0484.1581 2.1534-.8919zm1.3159-1.1908c-.6794 0-1.2483.5148-1.3159 1.1908l.995.0995c.0165-.1648.1552-.2903.3209-.2903zm.6875 0h-.6875v1h.6875zm1.3326 5.9408c0 .9258-.7505 1.6763-1.6763 1.6763v1c1.4781 0 2.6763-1.1982 2.6763-2.6763zm-1.6763-1.6763c.9258 0 1.6763.7505 1.6763 1.6763h1c0-1.4781-1.1982-2.6763-2.6763-2.6763zm-1.6763 1.6763c0-.9258.7505-1.6763 1.6763-1.6763v-1c-1.4781 0-2.6763 1.1982-2.6763 2.6763zm1.6763 1.6763c-.9258 0-1.6763-.7505-1.6763-1.6763h-1c0 1.4781 1.1982 2.6763 2.6763 2.6763z" fill="#ea4040"/><rect height="4.21053" rx="2.10526" stroke="#abb8ff" transform="matrix(0 -1 1 0 20.57211 30.99349)" width="4.21053" x="25.7828" y="5.21069"/><rect fill="#020013" height="4.21053" rx="2.10526" stroke="#abb8ff" transform="matrix(0 1 -1 0 50.9932 -25.8354)" width="4.21053" x="38.4143" y="12.5789"/><path d="m36.3091 12.5791v-5.47368c0-1.88562 0-2.82843-.5858-3.41422-.5858-.58578-1.5286-.58578-3.4142-.58578h-2.3158" stroke="#abb8ff"/><path d="m47.5 49c12.8561 1.7833 22 6.1494 22 11.4999 0 6.9036-15.2223 12.5-34 12.5s-34-5.5964-34-12.5c0-5.6241 10.1027-10.3806 24-11.9506" stroke="#abb8ff" stroke-dasharray="2 2"/></svg>