<svg fill="none" height="16" viewBox="0 0 22 16" width="22" xmlns="http://www.w3.org/2000/svg"><path d="m11 12.0581c1.25 0 2.3125-.4375 3.1875-1.3125.875-.87499 1.3125-1.93749 1.3125-3.18749s-.4375-2.3125-1.3125-3.1875-1.9375-1.3125-3.1875-1.3125-2.3125.4375-3.1875 1.3125-1.3125 1.9375-1.3125 3.1875.4375 2.3125 1.3125 3.18749c.875.875 1.9375 1.3125 3.1875 1.3125zm0-1.8c-.75 0-1.3875-.26249-1.9125-.78749s-.7875-1.1625-.7875-1.9125.2625-1.3875.7875-1.9125 1.1625-.7875 1.9125-.7875 1.3875.2625 1.9125.7875.7875 1.1625.7875 1.9125-.2625 1.3875-.7875 1.9125-1.1625.78749-1.9125.78749zm0 4.8c-2.43333 0-4.65-.6792-6.65-2.0375s-3.45-3.17916-4.35-5.46249c.9-2.28334 2.35-4.10417 4.35-5.4625 2-1.358338 4.21667-2.0375045 6.65-2.0375045 2.4333 0 4.65.6791665 6.65 2.0375045 2 1.35833 3.45 3.17916 4.35 5.4625-.9 2.28333-2.35 4.10419-4.35 5.46249s-4.2167 2.0375-6.65 2.0375zm0-2c1.8833 0 3.6125-.4958 5.1875-1.4875s2.7792-2.32916 3.6125-4.01249c-.8333-1.68334-2.0375-3.02084-3.6125-4.0125-1.575-.99167-3.3042-1.4875-5.1875-1.4875-1.88333 0-3.6125.49583-5.1875 1.4875-1.575.99166-2.77917 2.32916-3.6125 4.0125.83333 1.68333 2.0375 3.02079 3.6125 4.01249s3.30417 1.4875 5.1875 1.4875z" fill="#1c1b1f"/></svg>