<svg height="258pt" viewBox="0 0 969 257.75" width="969pt" xmlns="http://www.w3.org/2000/svg"><g transform="translate(36 221.75)"><path d="m-36 36v-257.75h969v257.75z" fill="#fff"/><path d="m7.5-148v-37.75h54.25v37.75z" fill="#008b00"/><path d="m7.5-148v-37.75h54.25v37.75z" fill="none" stroke="#000"/><text fill="#fff" font-family="Arial" font-size="14" x="18.5" y="-161.45">Table</text><path d="m61.75-148v-37.75h130v37.75z" fill="none" stroke="#000"/><text font-family="Arial" font-size="14" x="72.75" y="-161.45">starbake.product  </text><path d="m345.12-74v-37.75h49.76v37.75z" fill="#00008b"/><path d="m345.12-74v-37.75h49.76v37.75z" fill="none" stroke="#000"/><text fill="#fff" font-family="Arial" font-size="14" x="356.12" y="-87.45">Task</text><path d="m394.88-74v-37.75h160v37.75z" fill="none" stroke="#000"/><text font-family="Arial" font-size="14" x="405.88" y="-87.45">kpi.product_summary  </text><path d="m189.44-148.01c48.72 10.35 109.3 23.22 159.67 33.92" fill="none" stroke="#000"/><path d="m349.82-117.52 9.05 5.5-10.51 1.35z" stroke="#000"/><path d="m700.75-37v-37.75h49.75v37.75z" fill="#00008b"/><path d="m700.75-37v-37.75h49.75v37.75z" fill="none" stroke="#000"/><text fill="#fff" font-family="Arial" font-size="14" x="711.75" y="-50.45">Task</text><path d="m750.5-37v-37.75h146.5v37.75z" fill="none" stroke="#000"/><text font-family="Arial" font-size="14" x="761.5" y="-50.45">kpi.order_summary  </text><path d="m554.6-81.82c42.61 4.54 91.97 9.81 135.05 14.4" fill="none" stroke="#000"/><path d="m689.96-70.91 9.57 4.54-10.32 2.42z" stroke="#000"/><path d="m0 0v-37.75h54.25v37.75z" fill="#008b00"/><path d="m0 0v-37.75h54.25v37.75z" fill="none" stroke="#000"/><text fill="#fff" font-family="Arial" font-size="14" x="11" y="-13.45">Table</text><path d="m54.25 0v-37.75h145v37.75z" fill="none" stroke="#000"/><text font-family="Arial" font-size="14" x="65.25" y="-13.45">starbake.order_line  </text><path d="m189.44-37.74c48.72-10.35 109.3-23.22 159.67-33.92" fill="none" stroke="#000"/><path d="m348.36-75.08 10.51 1.35-9.05 5.5z" stroke="#000"/><path d="m343.25 0v-37.75h49.75v37.75z" fill="#00008b"/><path d="m343.25 0v-37.75h49.75v37.75z" fill="none" stroke="#000"/><text fill="#fff" font-family="Arial" font-size="14" x="354.25" y="-13.45">Task</text><path d="m393 0v-37.75h163.75v37.75z" fill="none" stroke="#000"/><text font-family="Arial" font-size="14" x="404" y="-13.45">kpi.revenue_summary  </text><g stroke="#000"><path d="m199.06-18.88h133" fill="none"/><path d="m331.99-22.38 10 3.5-10 3.5z"/><path d="m556.49-30.13c42.17-4.5 90.71-9.67 133.16-14.2" fill="none"/><path d="m689.05-47.79 10.32 2.42-9.58 4.54z"/></g><path d="m14.25-74v-37.75h54.25v37.75z" fill="#008b00"/><path d="m14.25-74v-37.75h54.25v37.75z" fill="none" stroke="#000"/><text fill="#fff" font-family="Arial" font-size="14" x="25.25" y="-87.45">Table</text><path d="m68.5-74v-37.75h116.5v37.75z" fill="none" stroke="#000"/><text font-family="Arial" font-size="14" x="79.5" y="-87.45">starbake.order  </text><path d="m184.96-92.88h149.02" fill="none" stroke="#000"/><path d="m333.7-96.38 10 3.5-10 3.5z" stroke="#000"/><path d="m184.96-74.96c49.43 10.5 112.16 23.82 164.07 34.85" fill="none" stroke="#000"/><path d="m349.74-43.54 9.06 5.5-10.51 1.35z" stroke="#000"/></g></svg>