<svg fill="none" height="102" viewBox="0 0 69 102" width="69" xmlns="http://www.w3.org/2000/svg"><g stroke="#abb8ff"><rect height="6.77966" rx="3.38983" transform="matrix(0 1 -1 0 128.7205 32.6017)" width="6.77966" x="48.0594" y="80.6611"/><rect height="6.77966" rx="3.38983" transform="matrix(0 1 -1 0 149.0595 39.3815)" width="6.77966" x="54.839" y="94.2205"/><path d="m29.4152 72.1865v21.4237c0 1.8857 0 2.8285.5858 3.4143s1.5286.5858 3.4142.5858h14.6441"/><path d="m29.4153 77.2712v2.7797c0 1.8856 0 2.8284.5858 3.4142s1.5286.5858 3.4142.5858h7.8644"/><rect height="6.77966" rx="3.38983" transform="matrix(0 -1 1 0 -10.5677 32.1101)" width="6.77966" x="10.7712" y="21.3389"/><rect height="6.77966" rx="3.38983" transform="matrix(0 -1 1 0 -3.78796 11.77112)" width="6.77966" x="3.99158" y="7.77954"/><path d="m29.4152 29.8135v-21.42375c0-1.88562 0-2.82843-.5858-3.41422-.5857-.58578-1.5286-.58578-3.4142-.58578h-14.644"/><path d="m29.4153 24.7288v-2.7797c0-1.8856 0-2.8284-.5858-3.4142s-1.5286-.5858-3.4142-.5858h-7.8644"/></g><path d="m4.83893 33.5085c0-1.1045.89543-2 2-2h47.69487c1.1046 0 2 .8955 2 2v31.8983h-51.69487z" fill="#abb8ff" fill-opacity=".3"/><path d="m2.79657 32.9661c0-1.933 1.567-3.5 3.5-3.5h48.77963c1.933 0 3.5 1.567 3.5 3.5v34.483h-55.77963z" stroke="#abb8ff"/><path d="m1.10165 67.6018h59.16945v3.4322c0 .8284-.6715 1.5-1.5 1.5h-55.16944c-1.38071 0-2.50001-1.1193-2.50001-2.5z" stroke="#abb8ff"/><ellipse cx="49.9237" cy="55.4068" fill="#020013" rx="14.5763" ry="14.5763" stroke="#abb8ff"/><path d="m60.3473 65.8306 8.0509 8.0508" stroke="#abb8ff" stroke-linecap="round"/><path d="m40.918 56.291 4.2949 1.9805c.1719.082.2949.164.3691.2461.0742.0781.1114.1679.1114.2695 0 .1172-.0352.2109-.1055.2813-.0664.0703-.1602.1054-.2813.1054-.0546 0-.1152-.0097-.1816-.0293-.0664-.0195-.1602-.0586-.2812-.1172l-4.6583-2.1738c-.0156-.0039-.0351-.0117-.0585-.0234-.3594-.1641-.5391-.3438-.5391-.5391s.1758-.3711.5273-.5273c.0313-.0157.0547-.0274.0703-.0352l4.6583-2.1387c.1054-.0507.1953-.0859.2695-.1054.0742-.0235.1387-.0352.1933-.0352.1211 0 .2149.0332.2813.0996.0703.0664.1055.1563.1055.2696 0 .1054-.0372.1992-.1114.2812-.0742.0781-.1972.1563-.3691.2344zm7.7578 3.8672c-.086.1953-.168.3281-.2461.3984-.0742.0704-.1641.1055-.2695.1055-.1094 0-.2051-.041-.2872-.123-.082-.0782-.123-.1739-.123-.2871 0-.0313.0059-.0684.0176-.1114.0117-.039.0273-.082.0469-.1289l3.6562-7.8808c.0977-.2032.1836-.3399.2578-.4102.0742-.0742.1641-.1113.2695-.1113.1172 0 .2168.039.2989.1172.082.0781.123.1718.123.2812 0 .0313-.0058.0664-.0176.1055-.0078.039-.0214.0762-.041.1113zm10.0898-3.8672-4.2832-1.957c-.1797-.082-.3066-.1621-.3808-.2402-.0743-.0821-.1114-.1739-.1114-.2754 0-.1133.0332-.2032.0996-.2696.0704-.0664.1641-.0996.2813-.0996.0586 0 .123.0117.1934.0352.0742.0195.166.0547.2753.1054l4.6582 2.1387c.0157.0078.0391.0195.0704.0352.3515.1562.5273.332.5273.5273 0 .1914-.1719.3672-.5156.5274-.0391.0156-.0664.0273-.0821.0351l-4.6582 2.1738-.0234.0118c-.2031.0898-.3516.1347-.4453.1347-.1172 0-.2109-.0351-.2813-.1054-.0664-.0704-.0996-.1641-.0996-.2813 0-.1016.0371-.1914.1114-.2695.0742-.0821.2011-.1641.3808-.2461z" fill="#ea4040"/></svg>