<svg height="150pt" preserveAspectRatio="xMidYMid meet" viewBox="0 0 150 150" width="150pt" xmlns="http://www.w3.org/2000/svg"><g fill="#ea4b35" transform="matrix(.1 0 0 -.1 0 150)"><path d="m134 981c-49-30-59-68-59-231 0-162 10-197 65-225 38-20 142-20 181 1 35 18 59 67 59 119v36l-47-3c-47-3-48-4-51-38-4-43-18-60-48-60-45 0-58 39-58 175 0 99 3 127 17 148 33 51 87 27 87-37 0-25 3-26 51-26h52l-7 43c-7 48-32 86-67 104-38 20-139 16-175-6z"/><path d="m675 930c38-38 71-70 72-70 7 0-10 57-24 78-17 28-71 62-98 62-15 0-2-17 50-70z"/><path d="m1248 993-78-4v-239-240h135 135v40 40h-85-85v71 72l75-6 75-7v45 45l-75-7-75-6v62 61h80 80v40 40l-52-2c-29-1-88-4-130-5z"/><path d="m810 893v-99l45-44 45-44v107 107h40c57 0 77-24 85-104 8-68-1-169-16-197-6-12 1-25 25-48l33-32 21 26c30 38 45 126 39 226-6 94-22 143-57 174-19 17-39 20-141 23l-119 4z"/><path d="m438 914c-8-18-12-77-13-164 0-111 4-141 18-168 27-49 71-72 140-72 93 0 142 34 160 111 5 21-2 34-43 74l-50 49v-47c0-26-7-63-14-82-13-29-20-35-45-35-53 0-66 34-67 173l-1 119-36 36-36 36z"/><path d="m810 545c0-34 1-35 37-35h37l-34 35c-19 19-35 35-37 35s-3-16-3-35z"/></g></svg>