<svg fill="none" height="389" viewBox="0 0 482 389" width="482" xmlns="http://www.w3.org/2000/svg"><g fill="#ea4040"><path d="m108.333 88.1162c0 1.4728 1.194 2.6667 2.667 2.6667s2.667-1.1939 2.667-2.6667c0-1.4727-1.194-2.6667-2.667-2.6667s-2.667 1.194-2.667 2.6667zm2.313 68.3538c.196.195.512.195.708 0l3.182-3.182c.195-.195.195-.512 0-.707-.196-.196-.512-.196-.708 0l-2.828 2.828-2.828-2.828c-.196-.196-.512-.196-.708 0-.195.195-.195.512 0 .707zm-.146-68.3538v67.9998h1v-67.9998z"/><path d="m108.333 238.116c0 1.473 1.194 2.667 2.667 2.667s2.667-1.194 2.667-2.667-1.194-2.666-2.667-2.666-2.667 1.193-2.667 2.666zm138.832 65.972c.261-.091.398-.376.307-.637l-1.486-4.247c-.091-.261-.377-.398-.637-.307-.261.091-.398.376-.307.637l1.321 3.775-3.776 1.321c-.26.092-.398.377-.306.637.091.261.376.398.637.307zm-136.382-65.521 136 65.5.434-.901-136-65.5z"/><path d="m368.333 87.6162c0 1.4728 1.194 2.6667 2.667 2.6667s2.667-1.1939 2.667-2.6667c0-1.4727-1.194-2.6667-2.667-2.6667s-2.667 1.194-2.667 2.6667zm-248.267 68.2518c-.137.24-.054.546.186.682l3.909 2.23c.24.137.545.054.682-.186s.053-.545-.187-.682l-3.474-1.982 1.982-3.475c.137-.239.054-.545-.186-.682s-.545-.053-.682.187zm250.802-68.7341-250.5 68.5001.264.965 250.5-68.5005z"/><path d="m370.646 155.97c.196.195.512.195.708 0l3.182-3.182c.195-.195.195-.512 0-.707-.196-.196-.512-.196-.708 0l-2.828 2.828-2.828-2.828c-.196-.196-.512-.196-.708 0-.195.195-.195.512 0 .707zm-.146-68.3538v1h1v-1zm0 3v2h1v-2zm0 4v2h1v-2zm0 4v1.9998h1v-1.9998zm0 3.9998v2h1v-2zm0 4v2h1v-2zm0 4v2h1v-2zm0 4v2h1v-2zm0 4v2h1v-2zm0 4v2h1v-2zm0 4v2h1v-2zm0 4v2h1v-2zm0 4v2h1v-2zm0 4v2h1v-2zm0 4v2h1v-2zm0 4v2h1v-2zm0 4v2h1v-2zm0 4v1h1v-1z"/><path d="m368.333 236.116c0 1.473 1.194 2.667 2.667 2.667s2.667-1.194 2.667-2.667-1.194-2.666-2.667-2.666-2.667 1.193-2.667 2.666zm-116.815 67.869c-.073.266.084.541.35.614l4.342 1.184c.266.072.541-.085.614-.351.072-.267-.085-.541-.351-.614l-3.859-1.053 1.052-3.859c.073-.266-.084-.541-.35-.614-.267-.072-.542.085-.614.351zm.73.565.875-.5-.496-.868-.875.5zm2.625-1.5 1.75-1-.496-.868-1.75 1zm3.5-2 1.75-1-.496-.868-1.75 1zm3.5-2 1.75-1-.496-.868-1.75 1zm3.5-2 1.75-1-.496-.868-1.75 1zm3.5-2 1.75-1-.496-.868-1.75 1zm3.5-2 1.75-1-.496-.868-1.75 1zm3.5-2 1.75-1-.496-.868-1.75 1zm3.5-2 1.75-1-.496-.868-1.75 1zm3.5-2 1.75-1-.496-.868-1.75 1zm3.5-2 1.75-1-.496-.868-1.75 1zm3.5-2 1.75-1-.496-.868-1.75 1zm3.5-2 1.75-1-.496-.868-1.75 1zm3.5-2 1.75-1-.496-.868-1.75 1zm3.5-2 1.75-1-.496-.868-1.75 1zm3.5-2 1.75-1-.496-.868-1.75 1zm3.5-2 1.75-1-.496-.868-1.75 1zm3.5-2 1.75-1-.496-.868-1.75 1zm3.5-2 1.75-1-.496-.868-1.75 1zm3.5-2 1.75-1-.496-.868-1.75 1zm3.5-2 1.75-1-.496-.868-1.75 1zm3.5-2 1.75-1-.496-.868-1.75 1zm3.5-2 1.75-1-.496-.868-1.75 1zm3.5-2 1.75-1-.496-.868-1.75 1zm3.5-2 1.75-1-.496-.868-1.75 1zm3.5-2 1.75-1-.496-.868-1.75 1zm3.5-2 1.75-1-.496-.868-1.75 1zm3.5-2 1.75-1-.496-.868-1.75 1zm3.5-2 1.75-1-.496-.868-1.75 1zm3.5-2 1.75-1-.496-.868-1.75 1zm3.5-2 1.75-1-.496-.868-1.75 1zm3.5-2 1.75-1-.496-.868-1.75 1zm3.5-2 1.75-1-.496-.868-1.75 1zm3.5-2 1.75-1-.496-.868-1.75 1zm3.5-2 .875-.5-.496-.868-.875.5z"/></g><rect fill="#020013" height="71" rx="9.5" width="221" x=".5" y=".616211"/><path d="m92.1465 26.9404v-1.6269h-1.6953c-.1367 0-.2393-.0365-.3076-.1094-.0638-.0729-.0957-.1846-.0957-.335 0-.1731.0296-.2916.0888-.3554.0593-.0638.1732-.0957.3418-.0957h2.9531c.1185 0 .2051.0387.2598.1162.0593.0729.0889.1846.0889.3349 0 .1687-.0388.2849-.1162.3487-.073.0638-.2051.0957-.3965.0957h-.0889v1.8935.1641c0 .123-.0137.2096-.041.2598-.0273.0455-.082.0911-.1641.1367-.2597.1549-.638.2871-1.1347.3965-.4968.1093-1.0004.164-1.5108.164-1.2213 0-2.208-.3896-2.9599-1.1689-.752-.7793-1.128-1.7956-1.128-3.0488 0-1.2533.3669-2.2878 1.1006-3.1036.7383-.8157 1.6771-1.2236 2.8164-1.2236.3099 0 .6198.0365.9297.1094.3145.0683.6403.1732.9776.3144.0455-.1185.107-.2028.1845-.2529.0821-.0547.1869-.082.3145-.082.2142 0 .3554.0638.4238.1914.0729.1276.1094.4215.1094.8818v.9297c0 .2233-.0388.3805-.1162.4717-.0775.0866-.2119.1299-.4034.1299-.2369 0-.4078-.1459-.5126-.4375-.0365-.0866-.0661-.1527-.0889-.1983-.1686-.36-.4102-.638-.7246-.834-.3145-.1959-.6745-.2939-1.0801-.2939-.8158 0-1.4674.2962-1.9551.8887-.4876.5879-.7314 1.3831-.7314 2.3857 0 1.0345.2689 1.8571.8066 2.4678.5378.6107 1.2533.916 2.1465.916.2598 0 .5264-.0342.7998-.1025.278-.0684.5811-.1778.9092-.3282zm5.5644.2119h2.2696c.1775 0 .3075.0388.3895.1163.087.0729.13.1914.13.3554 0 .1869-.041.3168-.123.3897-.078.0683-.223.1025-.4375.1025h-4.4707c-.1778 0-.3122-.041-.4034-.123-.0911-.0821-.1367-.2051-.1367-.3692 0-.1595.0456-.278.1367-.3554.0957-.0775.2416-.1163.4375-.1163h1.1895v-4.3818h-.4649c-.442 0-.7177-.0342-.8271-.1025-.1094-.0729-.1641-.2028-.1641-.3897 0-.1595.0433-.278.1299-.3554.0912-.0821.2279-.1231.4102-.1231h1.5586c.123 0 .2164.0251.2802.0752.0638.0456.0957.1139.0957.2051v1.1621c.433-.5423.8842-.9457 1.3536-1.21s.9755-.3965 1.5175-.3965c.406 0 .734.0821.984.2461.251.1641.376.376.376.6358 0 .1686-.063.319-.191.4512-.123.1276-.26.1914-.41.1914-.105 0-.283-.0684-.533-.2051-.246-.1413-.468-.2119-.663-.2119-.3559 0-.7319.1276-1.1284.3828-.3919.2506-.8271.6494-1.3057 1.1963zm9.0781.1778c.702 0 1.276-.2211 1.723-.6631.451-.4466.676-1.014.676-1.7022 0-.6881-.225-1.2555-.676-1.7021-.451-.4512-1.026-.6768-1.723-.6768s-1.271.2256-1.723.6768c-.446.4466-.67 1.014-.67 1.7021 0 .6928.224 1.2601.67 1.7022.447.442 1.021.6631 1.723.6631zm3.589-2.3653c0 .9753-.333 1.7728-.998 2.3926s-1.529.9297-2.591.9297c-1.057 0-1.919-.3099-2.584-.9297s-.998-1.4173-.998-2.3926c0-.9752.333-1.7705.998-2.3857.665-.6198 1.527-.9297 2.584-.9297s1.919.3099 2.584.9297c.67.6198 1.005 1.415 1.005 2.3857zm3.117.629c0 .5742.121.9934.362 1.2578.242.2643.625.3964 1.149.3964.497 0 .92-.1572 1.271-.4716.356-.3145.534-.7087.534-1.1826v-2.8233h-.937c-.178 0-.308-.0365-.39-.1094-.077-.0774-.116-.1959-.116-.3554 0-.1732.043-.3008.13-.3828.087-.0821.226-.1231.417-.1231h1.456c.173 0 .294.0387.362.1162.073.0729.11.2552.11.5469v4.6894h.314c.224 0 .383.0365.479.1094.1.0729.15.1937.15.3623 0 .1641-.048.2871-.143.3692-.092.082-.226.123-.404.123h-1.039c-.123 0-.219-.0251-.287-.0752s-.102-.1185-.102-.2051v-.4648c-.438.3372-.814.5697-1.128.6973-.31.123-.638.1845-.985.1845-.752 0-1.317-.1982-1.695-.5947-.374-.401-.561-1.0049-.561-1.8115v-3.0762h-.143c-.31 0-.522-.0365-.636-.1094s-.171-.2005-.171-.3828c0-.1595.043-.278.13-.3554.091-.0821.23-.1231.417-.1231h1.032c.16 0 .269.0319.328.0957.064.0638.096.2051.096.4238zm8.347 4.2724h1.64c.174 0 .303.041.39.1231.087.082.13.205.13.3691 0 .1777-.043.3031-.13.376-.082.0729-.23.1094-.444.1094h-3.015c-.182 0-.321-.0411-.417-.1231-.091-.082-.137-.2028-.137-.3623 0-.1823.057-.3099.171-.3828.119-.0729.335-.1094.65-.1094h.13v-7.0957h-.13c-.315 0-.531-.0365-.65-.1094-.114-.0729-.171-.2005-.171-.3828 0-.1595.046-.278.137-.3554.096-.0821.235-.1231.417-.1231h1.039c.137 0 .235.0228.294.0684.064.0455.096.1162.096.2119v.6631c.31-.319.651-.5583 1.025-.7178.378-.1595.784-.2393 1.217-.2393.916 0 1.682.3099 2.297.9297s.923 1.3968.923 2.3311c0 .8978-.292 1.636-.875 2.2148-.584.5788-1.329.8682-2.236.8682-.483 0-.927-.0843-1.333-.2529-.405-.1732-.745-.4193-1.018-.7383zm2.119-2.7412c.633 0 1.153-.1982 1.559-.5947.405-.4011.608-.9183.608-1.5518 0-.6198-.205-1.1302-.615-1.5312-.406-.4056-.923-.6084-1.552-.6084s-1.144.2005-1.545.6015c-.401.4011-.602.9138-.602 1.5381 0 .6289.199 1.1439.595 1.5449.401.4011.918.6016 1.552.6016zm5.072.499v-1.2168c0-.2005.037-.344.11-.4306.077-.0866.2-.1299.369-.1299.187 0 .335.1276.444.3828.073.1549.139.2712.198.3486.192.2461.474.4444.848.5948.374.1458.786.2187 1.237.2187.483 0 .871-.098 1.162-.2939.292-.196.438-.4535.438-.7725 0-.3236-.119-.5537-.356-.6904-.232-.1368-.633-.2051-1.203-.2051h-.376c-.929 0-1.638-.1618-2.126-.4854-.487-.3235-.731-.7929-.731-1.4082 0-.6015.237-1.0687.711-1.4013.478-.3327 1.148-.4991 2.01-.4991.35 0 .708.0502 1.073.1504.364.0957.556.1436.574.1436.05 0 .146-.0433.287-.1299.141-.0911.28-.1367.417-.1367.155 0 .269.057.342.1709.077.1139.116.2848.116.5127v.7998c0 .2415-.036.417-.109.5264-.073.1048-.189.1572-.349.1572-.137 0-.305-.1162-.506-.3487-.141-.1595-.257-.2802-.348-.3623-.242-.2233-.499-.3828-.773-.4785-.273-.1002-.595-.1504-.964-.1504-.428 0-.774.0957-1.039.2871-.26.1869-.389.4262-.389.7178 0 .2871.134.4922.403.6153.269.123.848.1936 1.736.2119.948.0228 1.641.1891 2.078.499.438.3053.657.7793.657 1.4219 0 .6152-.242 1.1074-.725 1.4765-.483.3692-1.135.5537-1.955.5537-.26 0-.549-.025-.868-.0752-.319-.0455-.72-.1253-1.203-.2392-.16.1048-.297.1823-.411.2324-.113.0547-.209.082-.287.082-.159 0-.282-.0546-.369-.164-.082-.114-.123-.2757-.123-.4854z" fill="#fff"/><path d="m58.3975 54.1162c-.0957 0-.1641-.0228-.2051-.0683-.0365-.0502-.0547-.1436-.0547-.2803v-.5606c-.2734.3418-.6152.6084-1.0254.7998-.4102.1869-.8545.2803-1.333.2803-.8613 0-1.5837-.3053-2.167-.916-.5788-.6152-.8682-1.3786-.8682-2.29 0-.9434.3099-1.7273.9297-2.3516.6198-.6289 1.3923-.9434 2.3174-.9434.4694 0 .891.0843 1.2647.253.3737.164.6949.4078.9638.7314v-2.6182h-.3623c-.3965 0-.6539-.0341-.7724-.1025-.114-.0729-.1709-.2028-.1709-.3896 0-.1641.0455-.2872.1367-.3692.0957-.082.2324-.123.4101-.123h1.4014c.1367 0 .2347.0228.2939.0683.0639.0456.0958.1162.0958.2119v7.7041h.3076c.2233 0 .3851.0388.4853.1163.1003.0729.1504.1914.1504.3554 0 .155-.0433.2757-.1299.3623s-.2028.1299-.3486.1299zm-4.4776-3.0693c0 .6289.2028 1.1439.6084 1.5449s.9206.6016 1.5449.6016c.6289 0 1.1462-.2074 1.5518-.6221.4056-.4193.6084-.9502.6084-1.5928 0-.6334-.2028-1.1553-.6084-1.5654-.401-.4102-.9183-.6152-1.5518-.6152-.6425 0-1.1621.2073-1.5586.622-.3964.4147-.5947.9571-.5947 1.627zm12.3457.0478c-.2506-.082-.4944-.1412-.7314-.1777-.2324-.041-.4649-.0615-.6973-.0615-.7018 0-1.2555.1185-1.6611.3554-.4056.237-.6084.556-.6084.9571 0 .3099.1253.5651.376.7656.2552.2005.5787.3008.9707.3008.5787 0 1.1142-.1504 1.6064-.4512.4968-.3053.7451-.6221.7451-.9502zm.0547 2.1533c-.3737.3373-.7816.5948-1.2236.7725-.4375.1777-.8887.2666-1.3535.2666-.6791 0-1.2282-.1891-1.6475-.5674-.4147-.3782-.6221-.8704-.6221-1.4765 0-.7201.2757-1.2784.8272-1.6748.556-.3965 1.3353-.5948 2.3379-.5948.2643 0 .5309.0183.7998.0547.2689.0319.5446.0843.8271.1572v-.0478c0-.5241-.1253-.9115-.376-1.1621-.2506-.2507-.6403-.376-1.1689-.376-.3555 0-.7519.0957-1.1895.2871-.4374.1914-.7268.2871-.8681.2871-.1322 0-.2416-.0524-.3281-.1572-.0866-.1094-.1299-.2484-.1299-.417 0-.2689.2506-.4967.7519-.6836.5059-.1868 1.1507-.2803 1.9346-.2803.8021 0 1.4082.2051 1.8184.6153.4101.4056.6152 1.0071.6152 1.8047v3.0966h.335c.3235 0 .54.0342.6494.1026.1093.0683.164.1914.164.3691 0 .1641-.0455.2871-.1367.3692-.0911.082-.2279.123-.4101.123h-1.0733c-.1276 0-.2324-.0387-.3144-.1162-.0821-.0775-.1368-.1891-.1641-.335zm8.7022-5.0654c.2233 0 .3851.0388.4853.1162.1048.0775.1572.2005.1572.3692 0 .1595-.0478.2802-.1435.3623-.0957.0774-.2393.1162-.4307.1162h-2.7685v2.2832c0 .7474.0957 1.2396.2871 1.4765.1959.237.5286.3555.998.3555.4147 0 .9115-.1207 1.4903-.3623.5787-.2415.9365-.3623 1.0732-.3623.1276 0 .2347.0456.3213.1367.0911.0912.1367.2028.1367.335 0 .1504-.057.2825-.1709.3965-.1094.1093-.2985.2164-.5674.3213-.4466.1777-.8499.3076-1.2099.3896-.3555.082-.6905.1231-1.0049.1231-.5332 0-.9821-.0844-1.3467-.253-.36-.1731-.6289-.4284-.8066-.7656-.0912-.1595-.1573-.3486-.1983-.5674-.0364-.2187-.0547-.556-.0547-1.0117v-.2119-2.2832h-1.1621c-.1914 0-.3304-.0365-.417-.1094-.0866-.0775-.1299-.2005-.1299-.3691 0-.1869.0593-.3145.1778-.3828.1185-.0684.3714-.1026.7588-.1026h.7724v-1.4014-.3623c0-.1959.041-.3395.1231-.4306.0866-.0957.2187-.1436.3965-.1436.2005 0 .3395.057.417.1709.0774.114.1162.3737.1162.7793v1.3877zm8.0595 2.9121c-.2506-.082-.4944-.1412-.7314-.1777-.2324-.041-.4649-.0615-.6973-.0615-.7018 0-1.2555.1185-1.6611.3554-.4056.237-.6084.556-.6084.9571 0 .3099.1253.5651.376.7656.2552.2005.5787.3008.9707.3008.5787 0 1.1142-.1504 1.6064-.4512.4968-.3053.7451-.6221.7451-.9502zm.0547 2.1533c-.3737.3373-.7816.5948-1.2236.7725-.4375.1777-.8887.2666-1.3535.2666-.6791 0-1.2282-.1891-1.6475-.5674-.4147-.3782-.6221-.8704-.6221-1.4765 0-.7201.2758-1.2784.8272-1.6748.556-.3965 1.3353-.5948 2.3379-.5948.2643 0 .5309.0183.7998.0547.2689.0319.5446.0843.8271.1572v-.0478c0-.5241-.1253-.9115-.3759-1.1621-.2507-.2507-.6403-.376-1.169-.376-.3555 0-.7519.0957-1.1894.2871s-.7269.2871-.8682.2871c-.1322 0-.2415-.0524-.3281-.1572-.0866-.1094-.1299-.2484-.1299-.417 0-.2689.2506-.4967.7519-.6836.5059-.1868 1.1508-.2803 1.9346-.2803.8021 0 1.4082.2051 1.8184.6153.4101.4056.6152 1.0071.6152 1.8047v3.0966h.335c.3235 0 .54.0342.6494.1026.1094.0683.164.1914.164.3691 0 .1641-.0455.2871-.1367.3692-.0911.082-.2278.123-.4101.123h-1.0733c-.1276 0-.2324-.0387-.3144-.1162-.0821-.0775-.1367-.1891-.1641-.335zm3.8555.376v-1.2168c0-.2005.0364-.344.1094-.4306.0774-.0866.2005-.1299.3691-.1299.1869 0 .335.1276.4443.3828.073.1549.139.2712.1983.3486.1914.2461.4739.4444.8476.5948.3737.1458.7862.2187 1.2373.2187.4831 0 .8705-.098 1.1622-.2939.2916-.196.4375-.4535.4375-.7725 0-.3236-.1185-.5537-.3555-.6904-.2324-.1368-.6335-.2051-1.2031-.2051h-.376c-.9297 0-1.6384-.1618-2.126-.4854-.4876-.3235-.7314-.7929-.7314-1.4082 0-.6015.2369-1.0687.7109-1.4013.4785-.3327 1.1484-.4991 2.0098-.4991.3509 0 .7086.0502 1.0732.1504.3646.0957.556.1436.5742.1436.0502 0 .1459-.0433.2871-.1299.1413-.0911.2803-.1367.417-.1367.155 0 .2689.057.3418.1709.0775.1139.1162.2848.1162.5127v.7998c0 .2415-.0364.417-.1093.5264-.073.1048-.1892.1572-.3487.1572-.1367 0-.3053-.1162-.5058-.3487-.1413-.1595-.2575-.2802-.3487-.3623-.2415-.2233-.499-.3828-.7724-.4785-.2735-.1002-.5948-.1504-.9639-.1504-.4284 0-.7747.0957-1.0391.2871-.2597.1869-.3896.4262-.3896.7178 0 .2871.1344.4922.4033.6153.2689.123.8477.1936 1.7363.2119.948.0228 1.6407.1891 2.0782.499.4375.3053.6562.7793.6562 1.4219 0 .6152-.2415 1.1074-.7246 1.4765-.4831.3692-1.1348.5537-1.9551.5537-.2597 0-.5491-.025-.8681-.0752-.319-.0455-.7201-.1253-1.2032-.2392-.1595.1048-.2962.1823-.4101.2324-.1139.0547-.2097.082-.2871.082-.1595 0-.2826-.0546-.3692-.164-.082-.114-.123-.2757-.123-.4854zm13.4458-5.414v-.0274c0-.1504.044-.2597.13-.3281.087-.0729.221-.1094.404-.1094.187 0 .314.0547.382.1641.073.1094.11.3349.11.6767v1.2715c0 .1686-.043.2962-.13.3828-.087.0821-.216.1231-.39.1231-.123 0-.23-.0342-.321-.1026-.087-.0729-.194-.221-.321-.4443-.219-.3691-.4856-.6471-.8-.834-.3099-.1914-.6677-.2871-1.0733-.2871-.7109 0-1.2897.2096-1.7363.6289-.4421.4193-.6631.9616-.6631 1.627 0 .679.2119 1.235.6357 1.6679.4284.4284.9776.6426 1.6475.6426.3053 0 .5947-.041.8682-.123.278-.0866.54-.2142.7861-.3828.0862-.0547.2032-.139.3482-.253.297-.2415.529-.3623.698-.3623.141 0 .255.0456.341.1367.092.0866.137.2006.137.3418 0 .3601-.342.7292-1.025 1.1075-.6792.3737-1.4015.5605-2.1672.5605-.9889 0-1.8138-.3167-2.4746-.9502-.6562-.6334-.9844-1.4241-.9844-2.3721 0-.9479.3282-1.7386.9844-2.372.6563-.638 1.4766-.9571 2.461-.9571.3463 0 .6927.0479 1.039.1436.3509.0911.7228.2347 1.1138.4307zm5.722-2.3789c0-.4922.043-.8021.13-.9297.091-.1276.283-.1914.574-.1914.283 0 .47.0546.561.164.091.1048.137.3578.137.7588 0 .3919-.044.6358-.13.7315-.082.0911-.272.1367-.568.1367-.291 0-.483-.0433-.574-.1299-.087-.0866-.13-.2666-.13-.54zm1.265 7.3212h2.194c.178 0 .308.0388.39.1163.086.0729.13.1914.13.3554 0 .1869-.041.3168-.123.3897-.078.0683-.224.1025-.438.1025h-5.305c-.182 0-.319-.041-.41-.123-.091-.0821-.136-.2051-.136-.3692 0-.1595.047-.278.143-.3554.096-.0775.239-.1163.431-.1163h2.085v-4.3818h-1.333c-.187 0-.331-.041-.431-.123-.096-.0866-.143-.2097-.143-.3692s.045-.278.136-.3554c.091-.0821.228-.1231.41-.1231h2.003c.123 0 .219.0251.287.0752.073.0501.11.1185.11.2051zm5.462-1.8935c.036.6562.257 1.1644.663 1.5244.41.3555.968.5332 1.675.5332.533 0 1.114-.1413 1.743-.4238.629-.2871 1.009-.4307 1.141-.4307.137 0 .251.0433.342.1299s.137.1937.137.3213c0 .1321-.048.2529-.144.3623-.095.1094-.248.2165-.458.3213-.455.2233-.927.3942-1.415.5127-.483.1185-.964.1777-1.442.1777-1.039 0-1.871-.2985-2.495-.8955-.625-.6016-.937-1.3968-.937-2.3857 0-1.0072.331-1.823.991-2.4473.661-.6244 1.523-.9365 2.584-.9365.962 0 1.76.2916 2.393.875.634.5833.95 1.2897.95 2.1191 0 .2552-.054.4261-.164.5127-.105.0866-.394.1299-.868.1299h-.103zm.034-.8955h4.45c-.068-.5423-.296-.9776-.683-1.3057-.383-.3327-.855-.499-1.416-.499-.606 0-1.116.1595-1.531.4785s-.688.7611-.82 1.3262zm8.141 2.789v-4.3818h-.129c-.31 0-.524-.0365-.643-.1094-.114-.0729-.171-.2005-.171-.3828 0-.1686.048-.2894.144-.3623.095-.0775.25-.1162.465-.1162h.321.656c.123 0 .219.0251.287.0752.069.0501.103.1185.103.2051v.4648c.332-.3099.661-.5377.984-.6836.328-.1504.668-.2256 1.019-.2256.688 0 1.228.2142 1.62.6426.396.4284.594 1.0209.594 1.7774v3.0966h.322c.228 0 .392.0388.492.1163.1.0729.15.1914.15.3554 0 .1778-.054.3054-.164.3828-.105.073-.294.1094-.567.1094h-1.511c-.291 0-.478-.0342-.56-.1025-.082-.0684-.123-.1983-.123-.3897 0-.1777.047-.3008.143-.3691.096-.0684.276-.1026.54-.1026h.239v-2.8437c0-.5332-.12-.9388-.362-1.2168-.241-.2826-.592-.4238-1.053-.4238-.464 0-.875.1572-1.23.4716-.356.3145-.533.7042-.533 1.169v2.8437h.239c.273 0 .458.0342.554.1026.095.0683.143.1914.143.3691 0 .1914-.041.3213-.123.3897-.082.0683-.282.1025-.601.1025h-1.245-.369c-.186 0-.328-.0387-.423-.1162-.092-.082-.137-.2074-.137-.376 0-.1823.052-.3053.157-.3691.109-.0684.319-.1026.629-.1026zm12.818-4.9697c.223 0 .385.0388.485.1162.105.0775.157.2005.157.3692 0 .1595-.047.2802-.143.3623-.096.0774-.239.1162-.431.1162h-2.768v2.2832c0 .7474.095 1.2396.287 1.4765.196.237.528.3555.998.3555.415 0 .911-.1207 1.49-.3623.579-.2415.937-.3623 1.073-.3623.128 0 .235.0456.322.1367.091.0912.136.2028.136.335 0 .1504-.057.2825-.171.3965-.109.1093-.298.2164-.567.3213-.447.1777-.85.3076-1.21.3896-.355.082-.69.1231-1.005.1231-.533 0-.982-.0844-1.346-.253-.361-.1731-.629-.4284-.807-.7656-.091-.1595-.157-.3486-.198-.5674-.037-.2187-.055-.556-.055-1.0117v-.2119-2.2832h-1.162c-.192 0-.331-.0365-.417-.1094-.087-.0775-.13-.2005-.13-.3691 0-.1869.059-.3145.178-.3828.118-.0684.371-.1026.758-.1026h.773v-1.4014-.3623c0-.1959.041-.3395.123-.4306.087-.0957.219-.1436.396-.1436.201 0 .34.057.417.1709.078.114.117.3737.117.7793v1.3877zm5.913-2.3515c0-.4922.043-.8021.13-.9297.091-.1276.282-.1914.574-.1914.283 0 .469.0546.561.164.091.1048.136.3578.136.7588 0 .3919-.043.6358-.13.7315-.082.0911-.271.1367-.567.1367-.292 0-.483-.0433-.574-.1299-.087-.0866-.13-.2666-.13-.54zm1.265 7.3212h2.194c.178 0 .308.0388.39.1163.086.0729.129.1914.129.3554 0 .1869-.041.3168-.123.3897-.077.0683-.223.1025-.437.1025h-5.305c-.182 0-.319-.041-.41-.123-.091-.0821-.137-.2051-.137-.3692 0-.1595.048-.278.144-.3554.096-.0775.239-.1163.431-.1163h2.085v-4.3818h-1.333c-.187 0-.331-.041-.431-.123-.096-.0866-.144-.2097-.144-.3692s.046-.278.137-.3554c.091-.0821.228-.1231.41-.1231h2.003c.123 0 .219.0251.287.0752.073.0501.11.1185.11.2051zm4.792.4717v-1.2168c0-.2005.036-.344.109-.4306.077-.0866.201-.1299.369-.1299.187 0 .335.1276.444.3828.073.1549.139.2712.199.3486.191.2461.474.4444.847.5948.374.1458.786.2187 1.238.2187.483 0 .87-.098 1.162-.2939.291-.196.437-.4535.437-.7725 0-.3236-.118-.5537-.355-.6904-.233-.1368-.634-.2051-1.203-.2051h-.376c-.93 0-1.639-.1618-2.126-.4854-.488-.3235-.732-.7929-.732-1.4082 0-.6015.237-1.0687.711-1.4013.479-.3327 1.149-.4991 2.01-.4991.351 0 .709.0502 1.073.1504.365.0957.556.1436.574.1436.051 0 .146-.0433.288-.1299.141-.0911.28-.1367.417-.1367.154 0 .268.057.341.1709.078.1139.117.2848.117.5127v.7998c0 .2415-.037.417-.11.5264-.073.1048-.189.1572-.348.1572-.137 0-.306-.1162-.506-.3487-.142-.1595-.258-.2802-.349-.3623-.241-.2233-.499-.3828-.772-.4785-.274-.1002-.595-.1504-.964-.1504-.429 0-.775.0957-1.039.2871-.26.1869-.39.4262-.39.7178 0 .2871.134.4922.403.6153.269.123.848.1936 1.737.2119.948.0228 1.64.1891 2.078.499.437.3053.656.7793.656 1.4219 0 .6152-.241 1.1074-.725 1.4765-.483.3692-1.134.5537-1.955.5537-.259 0-.549-.025-.868-.0752-.319-.0455-.72-.1253-1.203-.2392-.159.1048-.296.1823-.41.2324-.114.0547-.21.082-.287.082-.16 0-.283-.0546-.369-.164-.082-.114-.123-.2757-.123-.4854zm13.254-5.4414c.224 0 .386.0388.486.1162.105.0775.157.2005.157.3692 0 .1595-.048.2802-.143.3623-.096.0774-.24.1162-.431.1162h-2.769v2.2832c0 .7474.096 1.2396.287 1.4765.196.237.529.3555.998.3555.415 0 .912-.1207 1.491-.3623.578-.2415.936-.3623 1.073-.3623.128 0 .235.0456.321.1367.091.0912.137.2028.137.335 0 .1504-.057.2825-.171.3965-.109.1093-.298.2164-.567.3213-.447.1777-.85.3076-1.21.3896-.356.082-.691.1231-1.005.1231-.533 0-.982-.0844-1.347-.253-.36-.1731-.629-.4284-.807-.7656-.091-.1595-.157-.3486-.198-.5674-.036-.2187-.054-.556-.054-1.0117v-.2119-2.2832h-1.163c-.191 0-.33-.0365-.417-.1094-.086-.0775-.129-.2005-.129-.3691 0-.1869.059-.3145.177-.3828.119-.0684.372-.1026.759-.1026h.773v-1.4014-.3623c0-.1959.041-.3395.123-.4306.086-.0957.218-.1436.396-.1436.201 0 .34.057.417.1709.078.114.116.3737.116.7793v1.3877zm3.562 5.4414v-1.2168c0-.2005.036-.344.109-.4306.078-.0866.201-.1299.37-.1299.186 0 .334.1276.444.3828.073.1549.139.2712.198.3486.192.2461.474.4444.848.5948.373.1458.786.2187 1.237.2187.483 0 .871-.098 1.162-.2939.292-.196.438-.4535.438-.7725 0-.3236-.119-.5537-.356-.6904-.232-.1368-.633-.2051-1.203-.2051h-.376c-.93 0-1.638-.1618-2.126-.4854-.487-.3235-.731-.7929-.731-1.4082 0-.6015.237-1.0687.711-1.4013.478-.3327 1.148-.4991 2.009-.4991.351 0 .709.0502 1.074.1504.364.0957.556.1436.574.1436.05 0 .146-.0433.287-.1299.141-.0911.28-.1367.417-.1367.155 0 .269.057.342.1709.077.1139.116.2848.116.5127v.7998c0 .2415-.036.417-.109.5264-.073.1048-.19.1572-.349.1572-.137 0-.305-.1162-.506-.3487-.141-.1595-.257-.2802-.349-.3623-.241-.2233-.499-.3828-.772-.4785-.273-.1002-.595-.1504-.964-.1504-.428 0-.775.0957-1.039.2871-.26.1869-.39.4262-.39.7178 0 .2871.135.4922.404.6153.269.123.847.1936 1.736.2119.948.0228 1.641.1891 2.078.499.438.3053.656.7793.656 1.4219 0 .6152-.241 1.1074-.724 1.4765-.483.3692-1.135.5537-1.955.5537-.26 0-.549-.025-.868-.0752-.319-.0455-.72-.1253-1.204-.2392-.159.1048-.296.1823-.41.2324-.114.0547-.209.082-.287.082-.159 0-.282-.0546-.369-.164-.082-.114-.123-.2757-.123-.4854z" fill="#fff" fill-opacity=".7"/><rect height="71" rx="9.5" stroke="#abb8ff" width="221" x=".5" y=".616211"/><rect fill="#020013" height="45" rx="9.5" width="221" x=".5" y="166.616"/><path d="m65.5684 186.993h-.0889c-.2279 0-.3897-.036-.4854-.109-.0957-.078-.1435-.205-.1435-.383 0-.16.041-.28.123-.362.0821-.087.2006-.13.3555-.13h2.0713c.2689 0 .4489.036.54.109.0957.073.1436.201.1436.383 0 .169-.0501.294-.1504.376-.1003.077-.2598.116-.4785.116h-.752l2.3242 5.961 2.2627-5.961h-.9091c-.2142 0-.3737-.039-.4786-.116-.1002-.082-.1503-.207-.1503-.376 0-.182.0478-.31.1435-.383s.2757-.109.54-.109h2.1465c.155 0 .2712.043.3487.13.082.082.123.202.123.362 0 .178-.0478.305-.1435.383-.0957.073-.2621.109-.4991.109h-.082l-2.4609 6.44c-.1413.341-.253.556-.335.642-.082.082-.1868.123-.3144.123h-.3897c-.3008 0-.5446-.241-.7314-.724l-.0137-.041zm11.163-1.162c0-.492.0433-.802.1299-.93.0912-.127.2826-.191.5742-.191.2826 0 .4694.055.5606.164.0911.105.1367.358.1367.759 0 .392-.0433.636-.1299.731-.082.091-.2711.137-.5674.137-.2916 0-.483-.043-.5742-.13-.0866-.086-.1299-.267-.1299-.54zm1.2647 7.321h2.1943c.1778 0 .3076.039.3897.117.0866.072.1299.191.1299.355 0 .187-.0411.317-.1231.39-.0775.068-.2233.102-.4375.102h-5.3047c-.1823 0-.319-.041-.4101-.123-.0912-.082-.1367-.205-.1367-.369 0-.159.0478-.278.1435-.355.0957-.078.2393-.117.4307-.117h2.0849v-4.381h-1.333c-.1868 0-.3304-.042-.4306-.124-.0957-.086-.1436-.209-.1436-.369 0-.159.0456-.278.1367-.355.0912-.082.2279-.123.4102-.123h2.0029c.1231 0 .2188.025.2871.075.0729.05.1094.118.1094.205zm5.4619-1.893c.0365.656.2575 1.164.6631 1.524.4101.356.9684.533 1.6748.533.5332 0 1.1143-.141 1.7432-.423.6289-.288 1.0094-.431 1.1416-.431.1367 0 .2506.043.3418.13.0911.086.1367.193.1367.321 0 .132-.0479.253-.1436.362-.0957.11-.2483.217-.458.322-.4557.223-.9274.394-1.415.512-.4831.119-.9639.178-1.4424.178-1.0391 0-1.8708-.298-2.4951-.895-.6244-.602-.9365-1.397-.9365-2.386 0-1.007.3304-1.823.9912-2.447.6608-.625 1.5221-.937 2.584-.937.9615 0 1.7591.292 2.3925.875.6335.583.9502 1.29.9502 2.119 0 .255-.0547.426-.164.513-.1049.086-.3942.13-.8682.13h-.1025zm.0342-.896h4.4502c-.0684-.542-.2962-.977-.6836-1.305-.3828-.333-.8545-.499-1.415-.499-.6062 0-1.1166.159-1.5313.478s-.6882.761-.8203 1.326zm10.6435.281-.8818 3.247c-.0456.173-.1139.294-.2051.362-.0911.068-.2278.102-.4101.102-.1641 0-.2917-.043-.3828-.129-.0912-.087-.1732-.244-.2461-.472l-1.5655-4.983h-.0615c-.1914 0-.3281-.037-.4101-.11-.0866-.077-.1299-.205-.1299-.383 0-.155.0455-.273.1367-.355.0866-.082.2165-.123.3896-.123h1.8252c.2461 0 .4125.036.4991.109.0865.069.1298.192.1298.369 0 .11-.025.205-.0752.287-.0501.078-.1139.126-.1914.144-.0774.023-.1686.039-.2734.048-.1003.009-.2233.014-.3691.014h-.3965l1.1758 4.101.8818-2.98c.0501-.174.1208-.294.2119-.363.0912-.068.2256-.102.4033-.102.1641 0 .2917.045.3828.136.0957.087.1801.242.253.465l.8545 2.844 1.1279-4.101h-.1641-.2939c-.3145 0-.5264-.035-.6358-.103-.1093-.073-.164-.203-.164-.39 0-.182.041-.307.123-.376.0821-.068.2416-.102.4785-.102h1.8321c.1413 0 .2461.041.3144.123.0729.082.1094.2.1094.355 0 .173-.041.297-.123.369-.0821.073-.237.114-.4649.124l-1.5381 5.12c-.0592.173-.1344.294-.2256.362-.0865.068-.2187.102-.3964.102-.1641 0-.294-.045-.3897-.136-.0957-.087-.1754-.242-.2393-.465zm6.1383.615c.037.656.258 1.164.664 1.524.41.356.968.533 1.674.533.534 0 1.115-.141 1.743-.423.629-.288 1.01-.431 1.142-.431.137 0 .251.043.342.13.091.086.137.193.137.321 0 .132-.048.253-.144.362-.096.11-.248.217-.458.322-.456.223-.927.394-1.415.512-.483.119-.964.178-1.442.178-1.039 0-1.871-.298-2.496-.895-.6239-.602-.936-1.397-.936-2.386 0-1.007.3304-1.823.991-2.447.661-.625 1.522-.937 2.584-.937.962 0 1.759.292 2.393.875.633.583.95 1.29.95 2.119 0 .255-.055.426-.164.513-.105.086-.394.13-.868.13h-.103zm.035-.896h4.45c-.069-.542-.296-.977-.684-1.305-.383-.333-.854-.499-1.415-.499-.606 0-1.116.159-1.531.478s-.688.761-.82 1.326zm10.014 2.789h2.27c.178 0 .307.039.389.117.087.072.13.191.13.355 0 .187-.041.317-.123.39-.077.068-.223.102-.437.102h-4.471c-.178 0-.312-.041-.403-.123s-.137-.205-.137-.369c0-.159.046-.278.137-.355.095-.078.241-.117.437-.117h1.19v-4.381h-.465c-.442 0-.718-.035-.827-.103-.11-.073-.164-.203-.164-.39 0-.159.043-.278.13-.355.091-.082.227-.123.41-.123h1.558c.123 0 .217.025.281.075.063.046.095.114.095.205v1.162c.433-.542.884-.945 1.354-1.21.469-.264.975-.396 1.517-.396.406 0 .734.082.985.246.25.164.376.376.376.636 0 .168-.064.319-.192.451-.123.127-.259.191-.41.191-.105 0-.282-.068-.533-.205-.246-.141-.467-.212-.663-.212-.356 0-.732.128-1.128.383-.392.251-.827.649-1.306 1.196zm15.962-6.22v2.761h1.415c.638 0 1.117-.114 1.436-.341.323-.233.485-.577.485-1.033 0-.46-.157-.806-.472-1.039-.314-.232-.783-.348-1.408-.348zm0 6.22h.465c.264 0 .451.037.561.11.109.073.164.193.164.362 0 .182-.048.31-.144.383s-.276.109-.54.109h-2.297c-.155 0-.273-.041-.355-.123-.082-.086-.123-.209-.123-.369 0-.169.045-.289.136-.362s.242-.11.452-.11h.225.397v-6.22h-.397c-.342 0-.563-.032-.663-.096s-.15-.185-.15-.362c0-.155.038-.272.116-.349.082-.077.203-.116.362-.116h2.885c.697 0 1.217.034 1.559.102.346.064.638.176.874.335.306.205.545.477.718.814.178.337.267.699.267 1.087 0 .524-.162.975-.485 1.353-.319.374-.766.634-1.34.779.118.069.223.149.314.24.096.091.187.2.274.328l1.374 2.105h.225c.255 0 .431.037.527.11.095.068.143.189.143.362 0 .16-.041.283-.123.369-.077.082-.194.123-.349.123h-.772c-.223 0-.442-.164-.656-.492-.028-.027-.048-.05-.062-.068l-1.312-1.99c-.269-.405-.493-.667-.67-.786-.173-.118-.404-.177-.691-.177h-.909zm9.933.178c.702 0 1.276-.221 1.722-.663.452-.447.677-1.014.677-1.702s-.225-1.256-.677-1.702c-.451-.451-1.025-.677-1.722-.677s-1.272.226-1.723.677c-.446.446-.67 1.014-.67 1.702 0 .693.224 1.26.67 1.702.447.442 1.021.663 1.723.663zm3.589-2.365c0 .975-.333 1.773-.998 2.392-.666.62-1.529.93-2.591.93-1.058 0-1.919-.31-2.584-.93-.666-.619-.998-1.417-.998-2.392s.332-1.771.998-2.386c.665-.62 1.526-.93 2.584-.93 1.057 0 1.918.31 2.584.93.67.62 1.005 1.415 1.005 2.386zm4.361-4.813h-1.162c-.442 0-.72-.034-.834-.102-.11-.073-.164-.203-.164-.39 0-.164.045-.287.137-.369.095-.082.232-.123.41-.123h2.256c.123 0 .218.025.287.075.068.05.102.119.102.205v7.704h2.147c.173 0 .298.039.376.117.082.072.123.191.123.355 0 .187-.039.317-.117.39-.077.068-.223.102-.437.102h-5.045c-.178 0-.314-.041-.41-.123-.091-.082-.137-.205-.137-.369 0-.159.048-.278.144-.355.095-.078.239-.117.43-.117h1.894zm6.556 5.107c.036.656.257 1.164.663 1.524.41.356.968.533 1.675.533.533 0 1.114-.141 1.743-.423.629-.288 1.009-.431 1.141-.431.137 0 .251.043.342.13.091.086.137.193.137.321 0 .132-.048.253-.144.362-.095.11-.248.217-.458.322-.455.223-.927.394-1.415.512-.483.119-.964.178-1.442.178-1.039 0-1.871-.298-2.495-.895-.625-.602-.937-1.397-.937-2.386 0-1.007.331-1.823.991-2.447.661-.625 1.523-.937 2.584-.937.962 0 1.759.292 2.393.875.633.583.95 1.29.95 2.119 0 .255-.055.426-.164.513-.105.086-.394.13-.868.13h-.103zm.034-.896h4.45c-.068-.542-.296-.977-.684-1.305-.382-.333-.854-.499-1.415-.499-.606 0-1.116.159-1.531.478s-.688.761-.82 1.326z" fill="#fff"/><rect height="45" rx="9.5" stroke="#abb8ff" width="221" x=".5" y="166.616"/><rect fill="#020013" height="71" rx="9.5" width="221" x="141.5" y="316.616"/><path d="m195.296 336.234c.045-.123.109-.209.191-.259.082-.051.201-.076.356-.076.168 0 .287.041.355.123.069.082.103.251.103.506 0 .447.004.864.013 1.251.01.383.014.549.014.499 0 .215-.036.36-.109.438-.073.073-.203.109-.39.109-.301 0-.497-.214-.588-.642-.032-.128-.057-.226-.075-.294-.087-.342-.294-.62-.622-.834-.328-.219-.713-.328-1.155-.328-.807 0-1.454.296-1.942.888-.487.588-.731 1.379-.731 2.372 0 .994.246 1.787.738 2.379.497.588 1.151.882 1.962.882.264 0 .533-.036.807-.109.273-.078.542-.192.806-.342.123-.064.292-.171.506-.321.214-.155.367-.233.458-.233.141 0 .26.048.356.144.1.091.15.205.15.342 0 .136-.055.268-.164.396-.105.123-.303.276-.595.458-.383.251-.768.435-1.155.554-.387.118-.795.177-1.224.177-1.125 0-2.055-.396-2.789-1.189-.733-.798-1.1-1.816-1.1-3.056 0-1.226.371-2.244 1.114-3.055.743-.812 1.677-1.217 2.803-1.217.3 0 .606.036.916.109.314.073.645.183.991.328zm4.546 5.36c0 .574.121.993.362 1.258.242.264.624.396 1.149.396.496 0 .92-.157 1.271-.472.355-.314.533-.708.533-1.182v-2.823h-.936c-.178 0-.308-.037-.39-.11-.077-.077-.116-.196-.116-.355 0-.174.043-.301.13-.383.086-.082.225-.123.417-.123h1.456c.173 0 .294.039.362.116.073.073.109.255.109.547v4.689h.315c.223 0 .383.037.478.11.101.073.151.193.151.362 0 .164-.048.287-.144.369-.091.082-.225.123-.403.123h-1.039c-.123 0-.219-.025-.287-.075-.069-.05-.103-.118-.103-.205v-.465c-.437.337-.813.57-1.128.697-.31.123-.638.185-.984.185-.752 0-1.317-.198-1.695-.595-.374-.401-.561-1.005-.561-1.811v-3.076h-.143c-.31 0-.522-.037-.636-.11s-.171-.2-.171-.383c0-.159.043-.278.13-.355.091-.082.23-.123.417-.123h1.032c.159 0 .269.032.328.096.064.063.096.205.096.423zm7.13 2.03v-1.217c0-.2.036-.344.109-.43.078-.087.201-.13.369-.13.187 0 .335.127.445.382.072.155.139.272.198.349.191.246.474.444.847.595.374.146.787.219 1.238.219.483 0 .87-.098 1.162-.294s.437-.454.437-.773c0-.323-.118-.554-.355-.69-.233-.137-.634-.205-1.203-.205h-.376c-.93 0-1.639-.162-2.126-.486-.488-.323-.732-.793-.732-1.408 0-.601.237-1.069.711-1.401.479-.333 1.149-.499 2.01-.499.351 0 .709.05 1.073.15.365.096.556.144.575.144.05 0 .145-.044.287-.13.141-.091.28-.137.417-.137.155 0 .268.057.341.171.078.114.117.285.117.513v.799c0 .242-.037.417-.11.527-.073.105-.189.157-.348.157-.137 0-.306-.116-.506-.349-.142-.159-.258-.28-.349-.362-.241-.223-.499-.383-.772-.478-.274-.101-.595-.151-.964-.151-.429 0-.775.096-1.039.287-.26.187-.39.426-.39.718 0 .287.135.492.403.615.269.123.848.194 1.737.212.948.023 1.64.189 2.078.499.437.306.656.78.656 1.422 0 .615-.241 1.108-.724 1.477-.484.369-1.135.553-1.956.553-.259 0-.549-.025-.868-.075-.319-.045-.72-.125-1.203-.239-.159.105-.296.182-.41.232-.114.055-.21.082-.287.082-.16 0-.283-.054-.369-.164-.082-.114-.123-.275-.123-.485zm13.255-5.441c.223 0 .385.038.485.116.105.077.157.2.157.369 0 .159-.048.28-.143.362-.096.078-.24.116-.431.116h-2.769v2.284c0 .747.096 1.239.287 1.476.196.237.529.356.999.356.414 0 .911-.121 1.49-.363.579-.241.936-.362 1.073-.362.128 0 .235.046.321.137.091.091.137.203.137.335 0 .15-.057.282-.171.396-.109.11-.298.217-.567.322-.447.177-.85.307-1.21.389-.356.082-.691.123-1.005.123-.533 0-.982-.084-1.347-.253-.36-.173-.629-.428-.806-.765-.092-.16-.158-.349-.199-.568-.036-.218-.054-.556-.054-1.011v-.212-2.284h-1.162c-.192 0-.331-.036-.417-.109-.087-.077-.13-.2-.13-.369 0-.187.059-.314.177-.383.119-.068.372-.102.759-.102h.773v-1.402-.362c0-.196.041-.34.123-.431.086-.095.218-.143.396-.143.201 0 .34.057.417.171.078.114.116.373.116.779v1.388zm6.542 5.147c.701 0 1.276-.221 1.722-.663.451-.447.677-1.014.677-1.702s-.226-1.256-.677-1.702c-.451-.451-1.025-.677-1.722-.677-.698 0-1.272.226-1.723.677-.447.446-.67 1.014-.67 1.702 0 .693.223 1.26.67 1.702s1.021.663 1.723.663zm3.588-2.365c0 .975-.332 1.773-.998 2.392-.665.62-1.529.93-2.59.93-1.058 0-1.919-.31-2.584-.93-.666-.619-.998-1.417-.998-2.392s.332-1.771.998-2.386c.665-.62 1.526-.93 2.584-.93 1.057 0 1.918.31 2.584.93.669.62 1.004 1.415 1.004 2.386zm7.356-.656c0-.643-.059-1.076-.178-1.299-.114-.228-.312-.342-.595-.342-.337 0-.606.146-.806.437-.196.292-.294.693-.294 1.204v2.843h.123c.278 0 .462.035.554.103.095.064.143.187.143.369 0 .164-.039.287-.116.369-.078.082-.196.123-.356.123h-.868c-.196 0-.33-.045-.403-.137-.068-.091-.103-.287-.103-.587v-.199-2.884-.534c0-.341-.077-.61-.232-.806-.155-.201-.367-.301-.636-.301-.205 0-.394.061-.567.185-.169.118-.315.296-.438.533v3.766h.253c.274 0 .458.035.554.103s.144.191.144.369c0 .187-.039.317-.117.39-.077.068-.225.102-.444.102h-1.818c-.178 0-.31-.039-.397-.116-.082-.082-.123-.207-.123-.376 0-.182.053-.305.157-.369.11-.068.319-.103.629-.103h.137v-4.381h-.123c-.319 0-.538-.037-.656-.11-.114-.073-.171-.2-.171-.383 0-.159.045-.278.137-.355.091-.082.227-.123.41-.123h1.046c.15 0 .248.027.294.082.05.05.079.159.088.328.187-.201.388-.349.602-.444.214-.096.456-.144.725-.144.319 0 .581.071.786.212.209.137.364.346.465.629.191-.287.412-.499.663-.636.25-.137.537-.205.861-.205.588 0 1.016.191 1.285.574.274.383.41 1.003.41 1.86v3.096h.11c.282 0 .471.035.567.103s.144.191.144.369c0 .164-.041.287-.123.369s-.203.123-.363.123h-.827c-.182 0-.317-.054-.403-.164-.087-.109-.13-.282-.13-.519zm3.561.95c.037.656.258 1.164.664 1.524.41.356.968.533 1.674.533.534 0 1.115-.141 1.743-.423.629-.288 1.01-.431 1.142-.431.137 0 .251.043.342.13.091.086.137.193.137.321 0 .132-.048.253-.144.362-.096.11-.248.217-.458.322-.456.223-.927.394-1.415.512-.483.119-.964.178-1.442.178-1.039 0-1.871-.298-2.496-.895-.624-.602-.936-1.397-.936-2.386 0-1.007.33-1.823.991-2.447.661-.625 1.522-.937 2.584-.937.962 0 1.759.292 2.393.875.633.583.95 1.29.95 2.119 0 .255-.055.426-.164.513-.105.086-.394.13-.868.13h-.103zm.035-.896h4.45c-.069-.542-.296-.977-.684-1.305-.383-.333-.854-.499-1.415-.499-.606 0-1.116.159-1.531.478s-.688.761-.82 1.326zm10.014 2.789h2.27c.178 0 .307.039.389.117.087.072.13.191.13.355 0 .187-.041.317-.123.39-.077.068-.223.102-.437.102h-4.471c-.178 0-.312-.041-.403-.123s-.137-.205-.137-.369c0-.159.046-.278.137-.355.095-.078.241-.117.437-.117h1.19v-4.381h-.465c-.442 0-.718-.035-.827-.103-.11-.073-.164-.203-.164-.39 0-.159.043-.278.13-.355.091-.082.227-.123.41-.123h1.558c.123 0 .217.025.281.075.063.046.095.114.095.205v1.162c.433-.542.884-.945 1.354-1.21.469-.264.975-.396 1.517-.396.406 0 .734.082.985.246.25.164.376.376.376.636 0 .168-.064.319-.192.451-.123.127-.259.191-.41.191-.105 0-.282-.068-.533-.205-.246-.141-.467-.212-.663-.212-.356 0-.732.128-1.128.383-.392.251-.827.649-1.306 1.196zm15.853 0c.146.014.289.025.43.035.146.004.288.006.424.006 1.121 0 1.942-.25 2.461-.752.524-.501.786-1.292.786-2.372 0-1.084-.262-1.873-.786-2.365-.524-.497-1.362-.745-2.515-.745-.215 0-.379.002-.493.007-.109.004-.212.013-.307.027zm0 .964h-1.08-.308c-.169 0-.296-.041-.383-.123-.082-.082-.123-.205-.123-.369 0-.178.048-.301.144-.369.1-.068.287-.103.56-.103h.123v-6.159h-.109c-.273 0-.463-.036-.567-.109-.101-.073-.151-.201-.151-.383 0-.169.041-.292.123-.369.087-.082.219-.123.397-.123h.294 1.08 1.511c1.134 0 2.039.367 2.713 1.1.675.73 1.012 1.716 1.012 2.96 0 .606-.098 1.169-.294 1.689-.191.519-.472.975-.841 1.367-.341.355-.758.615-1.251.779-.487.16-1.116.24-1.886.24-.091 0-.246-.005-.465-.014-.214-.009-.381-.014-.499-.014zm10.042-.786c.702 0 1.276-.221 1.722-.663.452-.447.677-1.014.677-1.702s-.225-1.256-.677-1.702c-.451-.451-1.025-.677-1.722-.677s-1.272.226-1.723.677c-.446.446-.67 1.014-.67 1.702 0 .693.224 1.26.67 1.702.447.442 1.021.663 1.723.663zm3.589-2.365c0 .975-.333 1.773-.998 2.392-.666.62-1.529.93-2.591.93-1.058 0-1.919-.31-2.584-.93-.666-.619-.998-1.417-.998-2.392s.332-1.771.998-2.386c.665-.62 1.526-.93 2.584-.93 1.057 0 1.918.31 2.584.93.67.62 1.005 1.415 1.005 2.386zm7.355-.656c0-.643-.059-1.076-.178-1.299-.114-.228-.312-.342-.594-.342-.338 0-.606.146-.807.437-.196.292-.294.693-.294 1.204v2.843h.123c.278 0 .463.035.554.103.096.064.143.187.143.369 0 .164-.038.287-.116.369-.077.082-.196.123-.355.123h-.868c-.196 0-.331-.045-.404-.137-.068-.091-.102-.287-.102-.587v-.199-2.884-.534c0-.341-.078-.61-.233-.806-.155-.201-.367-.301-.635-.301-.206 0-.395.061-.568.185-.168.118-.314.296-.437.533v3.766h.253c.273 0 .458.035.553.103.096.068.144.191.144.369 0 .187-.039.317-.116.39-.078.068-.226.102-.445.102h-1.818c-.178 0-.31-.039-.397-.116-.082-.082-.123-.207-.123-.376 0-.182.053-.305.158-.369.109-.068.319-.103.629-.103h.136v-4.381h-.123c-.319 0-.538-.037-.656-.11-.114-.073-.171-.2-.171-.383 0-.159.046-.278.137-.355.091-.082.228-.123.41-.123h1.046c.15 0 .248.027.294.082.05.05.08.159.089.328.186-.201.387-.349.601-.444.214-.096.456-.144.725-.144.319 0 .581.071.786.212.21.137.365.346.465.629.191-.287.412-.499.663-.636s.538-.205.861-.205c.588 0 1.016.191 1.285.574.274.383.411 1.003.411 1.86v3.096h.109c.282 0 .472.035.567.103.096.068.144.191.144.369 0 .164-.041.287-.123.369s-.203.123-.363.123h-.827c-.182 0-.316-.054-.403-.164-.087-.109-.13-.282-.13-.519zm7.39.786c-.251-.082-.495-.142-.732-.178-.232-.041-.465-.062-.697-.062-.702 0-1.255.119-1.661.356s-.608.556-.608.957c0 .31.125.565.375.766.256.2.579.3.971.3.579 0 1.114-.15 1.607-.451.496-.305.745-.622.745-.95zm.054 2.153c-.373.337-.781.595-1.223.773-.438.177-.889.266-1.354.266-.679 0-1.228-.189-1.647-.567-.415-.379-.622-.871-.622-1.477 0-.72.275-1.278.827-1.675.556-.396 1.335-.594 2.338-.594.264 0 .531.018.8.054.268.032.544.085.827.158v-.048c0-.524-.126-.912-.376-1.162-.251-.251-.641-.376-1.169-.376-.356 0-.752.095-1.19.287-.437.191-.727.287-.868.287-.132 0-.241-.053-.328-.157-.086-.11-.13-.249-.13-.417 0-.269.251-.497.752-.684.506-.187 1.151-.28 1.935-.28.802 0 1.408.205 1.818.615.41.406.615 1.007.615 1.805v3.096h.335c.324 0 .54.035.65.103.109.068.164.191.164.369 0 .164-.046.287-.137.369s-.228.123-.41.123h-1.073c-.128 0-.233-.039-.315-.116s-.137-.189-.164-.335zm6.207-7.417c0-.492.044-.802.13-.93.092-.127.283-.191.575-.191.282 0 .469.055.56.164.091.105.137.358.137.759 0 .392-.043.636-.13.731-.082.091-.271.137-.567.137-.292 0-.483-.043-.575-.13-.086-.086-.13-.267-.13-.54zm1.265 7.321h2.194c.178 0 .308.039.39.117.087.072.13.191.13.355 0 .187-.041.317-.123.39-.078.068-.223.102-.438.102h-5.304c-.183 0-.319-.041-.41-.123-.092-.082-.137-.205-.137-.369 0-.159.048-.278.143-.355.096-.078.24-.117.431-.117h2.085v-4.381h-1.333c-.187 0-.33-.042-.431-.124-.095-.086-.143-.209-.143-.369 0-.159.045-.278.137-.355.091-.082.227-.123.41-.123h2.003c.123 0 .218.025.287.075.073.05.109.118.109.205zm5.23 0v-4.381h-.13c-.31 0-.524-.037-.643-.11-.114-.073-.171-.2-.171-.383 0-.168.048-.289.144-.362.096-.077.25-.116.465-.116h.321.656c.123 0 .219.025.287.075.069.05.103.118.103.205v.465c.333-.31.661-.538.984-.684.328-.15.668-.225 1.019-.225.688 0 1.228.214 1.62.642.396.429.595 1.021.595 1.778v3.096h.321c.228 0 .392.039.492.117.1.072.15.191.15.355 0 .178-.054.305-.164.383-.104.073-.294.109-.567.109h-1.511c-.291 0-.478-.034-.56-.102-.082-.069-.123-.199-.123-.39 0-.178.048-.301.143-.369.096-.068.276-.103.54-.103h.24v-2.843c0-.534-.121-.939-.363-1.217-.241-.283-.592-.424-1.052-.424-.465 0-.875.157-1.231.472-.355.314-.533.704-.533 1.169v2.843h.239c.274 0 .458.035.554.103s.143.191.143.369c0 .191-.041.321-.123.39-.082.068-.282.102-.601.102h-1.244-.37c-.186 0-.328-.039-.423-.116-.091-.082-.137-.207-.137-.376 0-.182.052-.305.157-.369.11-.068.319-.103.629-.103z" fill="#fff"/><path d="m230.214 368.619h.116c.246 0 .433.064.561.192.127.123.191.305.191.546 0 .269-.068.463-.205.581-.132.119-.353.178-.663.178h-2.058c-.314 0-.538-.057-.67-.171-.132-.118-.198-.314-.198-.588 0-.264.066-.453.198-.567s.356-.171.67-.171h.24l-.281-.8h-2.953l-.294.8h.239c.31 0 .531.059.664.178.136.114.205.301.205.56 0 .269-.069.463-.205.581-.133.119-.354.178-.664.178h-1.763c-.315 0-.538-.059-.67-.178-.132-.118-.198-.312-.198-.581 0-.241.063-.423.191-.546.128-.128.314-.192.561-.192h.116l1.832-5.099h-.547c-.31 0-.533-.06-.67-.178-.132-.119-.198-.31-.198-.574 0-.269.066-.463.198-.581.137-.119.36-.178.67-.178h2.563c.406 0 .691.219.855.656v.021zm-3.582-5.099-.991 2.884h1.982zm10.575.649c.055-.178.139-.31.253-.397.118-.091.269-.136.451-.136.246 0 .422.075.527.225.104.146.157.401.157.766v1.121c0 .278-.057.483-.171.615s-.29.199-.527.199c-.168 0-.309-.039-.423-.117-.114-.077-.235-.225-.363-.444-.182-.31-.421-.538-.717-.684-.297-.15-.659-.225-1.087-.225-.534 0-.971.175-1.313.526-.337.347-.506.791-.506 1.333 0 .57.176 1.028.527 1.374.351.347.822.52 1.415.52.537 0 1.071-.148 1.599-.445.533-.3.859-.451.978-.451.168 0 .307.066.417.198.114.128.171.29.171.486 0 .428-.326.811-.978 1.148-.647.337-1.417.506-2.31.506-1.103 0-2.001-.31-2.694-.93-.688-.619-1.032-1.417-1.032-2.392 0-.953.342-1.746 1.025-2.379.684-.634 1.545-.95 2.584-.95.351 0 .693.043 1.026.13.333.086.663.221.991.403zm8.408 0c.055-.178.139-.31.253-.397.119-.091.269-.136.451-.136.246 0 .422.075.527.225.105.146.157.401.157.766v1.121c0 .278-.057.483-.171.615s-.289.199-.526.199c-.169 0-.31-.039-.424-.117-.114-.077-.235-.225-.362-.444-.183-.31-.422-.538-.718-.684-.296-.15-.659-.225-1.087-.225-.533 0-.971.175-1.313.526-.337.347-.506.791-.506 1.333 0 .57.176 1.028.527 1.374.351.347.822.52 1.415.52.538 0 1.071-.148 1.6-.445.533-.3.859-.451.977-.451.169 0 .308.066.417.198.114.128.171.29.171.486 0 .428-.326.811-.978 1.148-.647.337-1.417.506-2.31.506-1.103 0-2.001-.31-2.694-.93-.688-.619-1.032-1.417-1.032-2.392 0-.953.342-1.746 1.026-2.379.683-.634 1.545-.95 2.584-.95.351 0 .692.043 1.025.13.333.086.663.221.991.403zm6.378.923c-.533 0-.973.175-1.319.526-.342.347-.513.791-.513 1.333 0 .547.171 1 .513 1.361.346.355.786.533 1.319.533s.973-.178 1.319-.533c.347-.361.52-.814.52-1.361 0-.542-.173-.986-.52-1.333-.341-.351-.781-.526-1.319-.526zm0-1.443c1.108 0 2.005.31 2.694.93.688.62 1.032 1.415 1.032 2.386 0 .975-.344 1.773-1.032 2.392-.689.62-1.586.93-2.694.93-1.103 0-1.998-.31-2.686-.93-.689-.619-1.033-1.417-1.033-2.392 0-.971.344-1.766 1.033-2.386.692-.62 1.588-.93 2.686-.93zm9.488 1.648h-.109c-.246 0-.433-.064-.56-.192-.124-.127-.185-.314-.185-.56 0-.269.064-.46.191-.574.128-.114.349-.171.663-.171h1.292c.123 0 .219.027.288.082.068.05.102.121.102.212v4.525h.109c.247 0 .433.064.561.192.132.127.198.309.198.546 0 .274-.066.47-.198.588-.132.114-.355.171-.67.171h-1.148c-.128 0-.228-.027-.301-.082-.068-.055-.103-.13-.103-.225v-.52c-.218.328-.487.574-.806.738-.315.164-.686.246-1.115.246-.733 0-1.278-.221-1.633-.663-.356-.442-.534-1.118-.534-2.03v-2.283h-.116c-.246 0-.433-.064-.56-.192-.128-.127-.192-.314-.192-.56 0-.269.064-.46.192-.574.132-.114.357-.171.676-.171h1.286c.123 0 .216.027.28.082.064.05.096.121.096.212v3.178c0 .561.077.955.232 1.183s.41.342.766.342c.378 0 .688-.139.929-.417.246-.283.369-.652.369-1.108zm10.2 3.308h.089c.255 0 .446.064.574.192.127.123.191.31.191.56 0 .269-.066.463-.198.581-.128.119-.346.178-.656.178h-1.682c-.305 0-.526-.059-.663-.178-.132-.118-.198-.312-.198-.581 0-.25.063-.437.191-.56.132-.128.328-.192.588-.192h.082v-1.975c0-.547-.077-.934-.232-1.162-.151-.233-.404-.349-.759-.349-.378 0-.688.139-.93.417-.237.274-.355.638-.355 1.094v1.975h.082c.259 0 .453.064.581.192.127.123.191.31.191.56 0 .269-.066.463-.198.581-.132.119-.351.178-.656.178h-1.696c-.305 0-.524-.059-.656-.178-.132-.118-.198-.312-.198-.581 0-.25.064-.437.191-.56.128-.128.322-.192.581-.192h.082v-3.308h-.116c-.246 0-.433-.062-.56-.185-.128-.127-.192-.312-.192-.553 0-.269.066-.463.198-.581.133-.119.356-.178.67-.178h1.162c.128 0 .224.025.288.075.068.05.102.123.102.219v.533c.21-.328.476-.574.8-.738.328-.169.706-.253 1.135-.253.729 0 1.271.221 1.627.663.36.442.54 1.116.54 2.023zm5.065-4.422h2.085c.315 0 .538.057.67.171.132.113.198.303.198.567 0 .269-.068.462-.205.581-.132.118-.353.178-.663.178h-2.085v1.75c0 .492.075.829.226 1.011.15.183.414.274.793.274.355 0 .774-.103 1.257-.308.484-.205.807-.307.971-.307.187 0 .347.075.479.225.136.146.205.324.205.533 0 .351-.319.673-.957.964-.634.287-1.354.431-2.16.431-.47 0-.882-.064-1.238-.191-.355-.128-.635-.31-.841-.547-.15-.183-.257-.401-.321-.657-.064-.255-.096-.681-.096-1.278v-.15-1.75h-.642c-.31 0-.531-.06-.663-.178-.128-.119-.192-.312-.192-.581s.064-.458.192-.567c.127-.114.348-.171.663-.171h.642v-1.6c0-.314.064-.535.192-.663.132-.128.348-.191.649-.191s.515.063.643.191c.132.128.198.349.198.663z" fill="#abb8ff"/><rect height="71" rx="9.5" stroke="#abb8ff" width="221" x="141.5" y="316.616"/><rect fill="#020013" height="45" rx="9.5" width="221" x="260.5" y="166.616"/><path d="m289.481 193.152c.146.014.29.025.431.035.146.004.287.006.424.006 1.121 0 1.941-.25 2.461-.752.524-.501.786-1.292.786-2.372 0-1.084-.262-1.873-.786-2.365-.524-.497-1.363-.745-2.516-.745-.214 0-.378.002-.492.007-.109.004-.212.013-.308.027zm0 .964h-1.08-.307c-.169 0-.296-.041-.383-.123-.082-.082-.123-.205-.123-.369 0-.178.048-.301.143-.369.101-.068.288-.103.561-.103h.123v-6.159h-.109c-.274 0-.463-.036-.568-.109-.1-.073-.15-.201-.15-.383 0-.169.041-.292.123-.369.087-.082.219-.123.396-.123h.294 1.08 1.511c1.135 0 2.04.367 2.714 1.1.675.73 1.012 1.716 1.012 2.96 0 .606-.098 1.169-.294 1.689-.192.519-.472.975-.841 1.367-.342.355-.759.615-1.251.779-.488.16-1.117.24-1.887.24-.091 0-.246-.005-.465-.014-.214-.009-.38-.014-.499-.014zm7.732-2.857c.036.656.257 1.164.663 1.524.41.356.968.533 1.675.533.533 0 1.114-.141 1.743-.423.629-.288 1.009-.431 1.142-.431.136 0 .25.043.341.13.091.086.137.193.137.321 0 .132-.048.253-.143.362-.096.11-.249.217-.459.322-.455.223-.927.394-1.415.512-.483.119-.963.178-1.442.178-1.039 0-1.871-.298-2.495-.895-.624-.602-.937-1.397-.937-2.386 0-1.007.331-1.823.992-2.447.66-.625 1.522-.937 2.584-.937.961 0 1.759.292 2.392.875.634.583.95 1.29.95 2.119 0 .255-.054.426-.164.513-.104.086-.394.13-.868.13h-.102zm.034-.896h4.45c-.068-.542-.296-.977-.683-1.305-.383-.333-.855-.499-1.415-.499-.606 0-1.117.159-1.532.478-.414.319-.688.761-.82 1.326zm8.921 5.503h1.641c.173 0 .303.041.389.123.087.082.13.205.13.369 0 .178-.043.303-.13.376-.082.073-.23.11-.444.11h-3.015c-.182 0-.321-.041-.417-.123-.091-.082-.136-.203-.136-.363 0-.182.057-.309.17-.382.119-.073.335-.11.65-.11h.13v-7.095h-.13c-.315 0-.531-.037-.65-.11-.113-.073-.17-.2-.17-.383 0-.159.045-.278.136-.355.096-.082.235-.123.417-.123h1.039c.137 0 .235.023.294.068.064.046.096.116.096.212v.663c.31-.319.652-.558 1.025-.718.379-.159.784-.239 1.217-.239.916 0 1.682.31 2.297.93s.923 1.397.923 2.331c0 .898-.292 1.636-.875 2.215-.583.578-1.329.868-2.235.868-.484 0-.928-.084-1.333-.253-.406-.173-.746-.419-1.019-.738zm2.119-2.741c.634 0 1.153-.198 1.559-.595.405-.401.608-.918.608-1.551 0-.62-.205-1.131-.615-1.532-.406-.405-.923-.608-1.552-.608s-1.144.2-1.545.601-.601.914-.601 1.539c0 .628.198 1.143.594 1.544.401.401.919.602 1.552.602zm9.57-2.03c-.25-.082-.494-.142-.731-.178-.232-.041-.465-.062-.697-.062-.702 0-1.256.119-1.661.356-.406.237-.609.556-.609.957 0 .31.126.565.376.766.255.2.579.3.971.3.579 0 1.114-.15 1.606-.451.497-.305.745-.622.745-.95zm.055 2.153c-.374.337-.781.595-1.224.773-.437.177-.888.266-1.353.266-.679 0-1.228-.189-1.647-.567-.415-.379-.623-.871-.623-1.477 0-.72.276-1.278.828-1.675.556-.396 1.335-.594 2.337-.594.265 0 .531.018.8.054.269.032.545.085.827.158v-.048c0-.524-.125-.912-.376-1.162-.25-.251-.64-.376-1.169-.376-.355 0-.751.095-1.189.287-.437.191-.727.287-.868.287-.132 0-.242-.053-.328-.157-.087-.11-.13-.249-.13-.417 0-.269.251-.497.752-.684.506-.187 1.151-.28 1.934-.28.802 0 1.409.205 1.819.615.41.406.615 1.007.615 1.805v3.096h.335c.324 0 .54.035.649.103.11.068.164.191.164.369 0 .164-.045.287-.136.369s-.228.123-.41.123h-1.074c-.127 0-.232-.039-.314-.116s-.137-.189-.164-.335zm6.166-.096h2.27c.177 0 .307.039.389.117.087.072.13.191.13.355 0 .187-.041.317-.123.39-.077.068-.223.102-.437.102h-4.471c-.178 0-.312-.041-.403-.123-.092-.082-.137-.205-.137-.369 0-.159.045-.278.137-.355.095-.078.241-.117.437-.117h1.19v-4.381h-.465c-.442 0-.718-.035-.827-.103-.11-.073-.164-.203-.164-.39 0-.159.043-.278.129-.355.092-.082.228-.123.411-.123h1.558c.123 0 .217.025.28.075.064.046.096.114.096.205v1.162c.433-.542.884-.945 1.354-1.21.469-.264.975-.396 1.517-.396.406 0 .734.082.985.246.25.164.376.376.376.636 0 .168-.064.319-.192.451-.123.127-.26.191-.41.191-.105 0-.283-.068-.533-.205-.246-.141-.467-.212-.663-.212-.356 0-.732.128-1.128.383-.392.251-.827.649-1.306 1.196zm10.944-4.969c.224 0 .386.038.486.116.105.077.157.2.157.369 0 .159-.048.28-.144.362-.095.078-.239.116-.43.116h-2.769v2.284c0 .747.096 1.239.287 1.476.196.237.529.356.998.356.415 0 .912-.121 1.491-.363.578-.241.936-.362 1.073-.362.128 0 .235.046.321.137.091.091.137.203.137.335 0 .15-.057.282-.171.396-.109.11-.298.217-.567.322-.447.177-.85.307-1.21.389-.356.082-.691.123-1.005.123-.533 0-.982-.084-1.347-.253-.36-.173-.629-.428-.807-.765-.091-.16-.157-.349-.198-.568-.036-.218-.054-.556-.054-1.011v-.212-2.284h-1.163c-.191 0-.33-.036-.417-.109-.086-.077-.129-.2-.129-.369 0-.187.059-.314.177-.383.119-.068.372-.102.759-.102h.773v-1.402-.362c0-.196.041-.34.123-.431.086-.095.218-.143.396-.143.201 0 .34.057.417.171.078.114.116.373.116.779v1.388zm9.079 2.126c0-.643-.06-1.076-.178-1.299-.114-.228-.312-.342-.595-.342-.337 0-.606.146-.807.437-.195.292-.293.693-.293 1.204v2.843h.123c.278 0 .462.035.553.103.096.064.144.187.144.369 0 .164-.039.287-.116.369-.078.082-.196.123-.356.123h-.868c-.196 0-.33-.045-.403-.137-.069-.091-.103-.287-.103-.587v-.199-2.884-.534c0-.341-.077-.61-.232-.806-.155-.201-.367-.301-.636-.301-.205 0-.394.061-.567.185-.169.118-.315.296-.438.533v3.766h.253c.273 0 .458.035.554.103.095.068.143.191.143.369 0 .187-.038.317-.116.39-.077.068-.225.102-.444.102h-1.819c-.177 0-.31-.039-.396-.116-.082-.082-.123-.207-.123-.376 0-.182.052-.305.157-.369.109-.068.319-.103.629-.103h.137v-4.381h-.123c-.319 0-.538-.037-.657-.11-.114-.073-.17-.2-.17-.383 0-.159.045-.278.136-.355.091-.082.228-.123.41-.123h1.046c.151 0 .249.027.294.082.05.05.08.159.089.328.187-.201.387-.349.602-.444.214-.096.455-.144.724-.144.319 0 .581.071.786.212.21.137.365.346.465.629.192-.287.413-.499.663-.636.251-.137.538-.205.862-.205.588 0 1.016.191 1.285.574.273.383.41 1.003.41 1.86v3.096h.109c.283 0 .472.035.568.103.095.068.143.191.143.369 0 .164-.041.287-.123.369s-.203.123-.362.123h-.827c-.183 0-.317-.054-.404-.164-.086-.109-.129-.282-.129-.519zm3.561.95c.037.656.258 1.164.663 1.524.41.356.969.533 1.675.533.533 0 1.114-.141 1.743-.423.629-.288 1.01-.431 1.142-.431.136 0 .25.043.342.13.091.086.136.193.136.321 0 .132-.048.253-.143.362-.096.11-.249.217-.458.322-.456.223-.928.394-1.415.512-.483.119-.964.178-1.443.178-1.039 0-1.87-.298-2.495-.895-.624-.602-.936-1.397-.936-2.386 0-1.007.33-1.823.991-2.447.661-.625 1.522-.937 2.584-.937.961 0 1.759.292 2.392.875.634.583.951 1.29.951 2.119 0 .255-.055.426-.164.513-.105.086-.395.13-.869.13h-.102zm.034-.896h4.45c-.068-.542-.296-.977-.683-1.305-.383-.333-.855-.499-1.415-.499-.606 0-1.117.159-1.531.478-.415.319-.689.761-.821 1.326zm8.142 2.789v-4.381h-.13c-.31 0-.524-.037-.643-.11-.114-.073-.17-.2-.17-.383 0-.168.047-.289.143-.362.096-.077.251-.116.465-.116h.321.656c.124 0 .219.025.288.075.068.05.102.118.102.205v.465c.333-.31.661-.538.984-.684.329-.15.668-.225 1.019-.225.688 0 1.228.214 1.62.642.397.429.595 1.021.595 1.778v3.096h.321c.228 0 .392.039.492.117.101.072.151.191.151.355 0 .178-.055.305-.164.383-.105.073-.294.109-.568.109h-1.51c-.292 0-.479-.034-.561-.102-.082-.069-.123-.199-.123-.39 0-.178.048-.301.144-.369.095-.068.275-.103.54-.103h.239v-2.843c0-.534-.121-.939-.362-1.217-.242-.283-.593-.424-1.053-.424-.465 0-.875.157-1.231.472-.355.314-.533.704-.533 1.169v2.843h.239c.274 0 .458.035.554.103s.144.191.144.369c0 .191-.041.321-.123.39-.082.068-.283.102-.602.102h-1.244-.369c-.187 0-.328-.039-.424-.116-.091-.082-.137-.207-.137-.376 0-.182.053-.305.157-.369.11-.068.319-.103.629-.103zm12.817-4.969c.224 0 .385.038.486.116.104.077.157.2.157.369 0 .159-.048.28-.144.362-.095.078-.239.116-.43.116h-2.769v2.284c0 .747.096 1.239.287 1.476.196.237.529.356.998.356.415 0 .912-.121 1.49-.363.579-.241.937-.362 1.074-.362.127 0 .234.046.321.137.091.091.137.203.137.335 0 .15-.057.282-.171.396-.11.11-.299.217-.568.322-.446.177-.849.307-1.21.389-.355.082-.69.123-1.004.123-.534 0-.983-.084-1.347-.253-.36-.173-.629-.428-.807-.765-.091-.16-.157-.349-.198-.568-.036-.218-.055-.556-.055-1.011v-.212-2.284h-1.162c-.191 0-.33-.036-.417-.109-.086-.077-.13-.2-.13-.369 0-.187.06-.314.178-.383.119-.068.372-.102.759-.102h.772v-1.402-.362c0-.196.041-.34.123-.431.087-.095.219-.143.397-.143.2 0 .339.057.417.171.077.114.116.373.116.779v1.388zm11.888 2.262h6.132c.137 0 .241.046.314.137.078.087.116.21.116.369 0 .164-.038.29-.116.376-.073.087-.177.13-.314.13h-6.132c-.141 0-.251-.043-.328-.13-.073-.086-.11-.212-.11-.376s.037-.289.11-.376c.077-.086.187-.13.328-.13zm0-2.29h6.132c.137 0 .241.044.314.13.078.087.116.21.116.369 0 .164-.038.29-.116.376-.073.087-.177.13-.314.13h-6.132c-.141 0-.251-.041-.328-.123-.073-.086-.11-.214-.11-.383 0-.164.037-.287.11-.369.077-.086.187-.13.328-.13zm20.398.978c-.027.127-.066.212-.116.253-.05.036-.132.054-.246.054h-1.23c-.055 0-.101-.011-.137-.034-.032-.027-.048-.064-.048-.109 0-.009.002-.023.007-.041.009-.023.02-.055.034-.096l1.545-3.192c.032-.064.068-.112.109-.144.046-.036.092-.054.137-.054.023 0 .053.004.089.013.009.009.018.014.027.014l.39.157c.055.023.098.053.13.089.036.036.055.077.055.123 0 .018-.003.039-.007.062-.005.018-.012.043-.021.075zm4.909 4.491v-1.217c0-.2.036-.344.109-.43.077-.087.201-.13.369-.13.187 0 .335.127.444.382.073.155.139.272.199.349.191.246.474.444.847.595.374.146.786.219 1.238.219.483 0 .87-.098 1.162-.294.291-.196.437-.454.437-.773 0-.323-.118-.554-.355-.69-.233-.137-.634-.205-1.203-.205h-.376c-.93 0-1.639-.162-2.126-.486-.488-.323-.732-.793-.732-1.408 0-.601.237-1.069.711-1.401.479-.333 1.149-.499 2.01-.499.351 0 .709.05 1.073.15.365.096.556.144.574.144.051 0 .146-.044.288-.13.141-.091.28-.137.417-.137.154 0 .268.057.341.171.078.114.117.285.117.513v.799c0 .242-.037.417-.11.527-.073.105-.189.157-.348.157-.137 0-.306-.116-.506-.349-.142-.159-.258-.28-.349-.362-.241-.223-.499-.383-.772-.478-.274-.101-.595-.151-.964-.151-.429 0-.775.096-1.039.287-.26.187-.39.426-.39.718 0 .287.134.492.403.615s.848.194 1.737.212c.948.023 1.64.189 2.078.499.437.306.656.78.656 1.422 0 .615-.241 1.108-.725 1.477-.483.369-1.134.553-1.955.553-.259 0-.549-.025-.868-.075-.319-.045-.72-.125-1.203-.239-.159.105-.296.182-.41.232-.114.055-.21.082-.287.082-.16 0-.283-.054-.369-.164-.082-.114-.123-.275-.123-.485zm12.906-2.529c-.251-.082-.495-.142-.732-.178-.232-.041-.464-.062-.697-.062-.702 0-1.255.119-1.661.356s-.608.556-.608.957c0 .31.125.565.376.766.255.2.578.3.97.3.579 0 1.115-.15 1.607-.451.496-.305.745-.622.745-.95zm.055 2.153c-.374.337-.782.595-1.224.773-.438.177-.889.266-1.354.266-.679 0-1.228-.189-1.647-.567-.415-.379-.622-.871-.622-1.477 0-.72.276-1.278.827-1.675.556-.396 1.335-.594 2.338-.594.264 0 .531.018.8.054.269.032.544.085.827.158v-.048c0-.524-.125-.912-.376-1.162-.251-.251-.64-.376-1.169-.376-.356 0-.752.095-1.19.287-.437.191-.726.287-.868.287-.132 0-.241-.053-.328-.157-.086-.11-.13-.249-.13-.417 0-.269.251-.497.752-.684.506-.187 1.151-.28 1.935-.28.802 0 1.408.205 1.818.615.41.406.615 1.007.615 1.805v3.096h.335c.324 0 .54.035.65.103.109.068.164.191.164.369 0 .164-.046.287-.137.369s-.228.123-.41.123h-1.073c-.128 0-.233-.039-.315-.116s-.136-.189-.164-.335zm6.377-7.096h-1.162c-.442 0-.72-.034-.834-.102-.109-.073-.164-.203-.164-.39 0-.164.046-.287.137-.369.096-.082.232-.123.41-.123h2.256c.123 0 .219.025.287.075.069.05.103.119.103.205v7.704h2.146c.173 0 .299.039.376.117.082.072.123.191.123.355 0 .187-.039.317-.116.39-.077.068-.223.102-.438.102h-5.044c-.178 0-.315-.041-.411-.123-.091-.082-.136-.205-.136-.369 0-.159.048-.278.143-.355.096-.078.24-.117.431-.117h1.893zm6.556 5.107c.037.656.258 1.164.663 1.524.41.356.969.533 1.675.533.533 0 1.114-.141 1.743-.423.629-.288 1.01-.431 1.142-.431.137 0 .25.043.342.13.091.086.136.193.136.321 0 .132-.048.253-.143.362-.096.11-.249.217-.458.322-.456.223-.928.394-1.415.512-.483.119-.964.178-1.443.178-1.039 0-1.87-.298-2.495-.895-.624-.602-.936-1.397-.936-2.386 0-1.007.33-1.823.991-2.447.661-.625 1.522-.937 2.584-.937.961 0 1.759.292 2.392.875.634.583.951 1.29.951 2.119 0 .255-.055.426-.164.513-.105.086-.395.13-.869.13h-.102zm.034-.896h4.451c-.069-.542-.297-.977-.684-1.305-.383-.333-.855-.499-1.415-.499-.606 0-1.117.159-1.531.478-.415.319-.689.761-.821 1.326zm7.704 3.261v-1.217c0-.2.037-.344.11-.43.077-.087.2-.13.369-.13.187 0 .335.127.444.382.073.155.139.272.199.349.191.246.473.444.847.595.374.146.786.219 1.237.219.484 0 .871-.098 1.163-.294.291-.196.437-.454.437-.773 0-.323-.118-.554-.355-.69-.233-.137-.634-.205-1.204-.205h-.375c-.93 0-1.639-.162-2.126-.486-.488-.323-.732-.793-.732-1.408 0-.601.237-1.069.711-1.401.479-.333 1.148-.499 2.01-.499.351 0 .708.05 1.073.15.365.096.556.144.574.144.05 0 .146-.044.287-.13.142-.091.281-.137.417-.137.155 0 .269.057.342.171.078.114.116.285.116.513v.799c0 .242-.036.417-.109.527-.073.105-.189.157-.349.157-.136 0-.305-.116-.506-.349-.141-.159-.257-.28-.348-.362-.242-.223-.499-.383-.773-.478-.273-.101-.594-.151-.963-.151-.429 0-.775.096-1.04.287-.259.187-.389.426-.389.718 0 .287.134.492.403.615s.848.194 1.736.212c.948.023 1.641.189 2.079.499.437.306.656.78.656 1.422 0 .615-.242 1.108-.725 1.477s-1.135.553-1.955.553c-.26 0-.549-.025-.868-.075-.319-.045-.72-.125-1.203-.239-.16.105-.296.182-.41.232-.114.055-.21.082-.287.082-.16 0-.283-.054-.37-.164-.082-.114-.123-.275-.123-.485zm10.945-7.308c.032-.127.07-.209.116-.246.05-.041.132-.061.246-.061h1.217c.055 0 .098.013.13.041.036.023.054.052.054.089 0 .027-.004.054-.013.082-.005.022-.014.045-.028.068l-1.545 3.192c-.022.06-.054.105-.095.137s-.087.048-.137.048c-.032 0-.055 0-.068 0-.014-.005-.03-.009-.048-.014l-.39-.157c-.064-.018-.114-.043-.15-.075-.032-.037-.048-.078-.048-.123 0-.027.009-.068.027-.123 0-.014 0-.023 0-.028z" fill="#fff"/><rect height="45" rx="9.5" stroke="#abb8ff" width="221" x="260.5" y="166.616"/><rect fill="#020013" height="71" rx="9.5" width="221" x="260.5" y=".616211"/><path d="m351.224 20.9932h-.11c-.273 0-.462-.0365-.567-.1094-.1-.0729-.151-.2005-.151-.3828 0-.1686.044-.2917.13-.3692.087-.082.217-.123.39-.123h.308 1.401c.369 0 .604.0364.704.1094.1.0683.15.1959.15.3828 0 .1823-.059.3099-.177.3828-.119.0729-.344.1094-.677.1094h-.294v3.7461c0 .5058.023.875.068 1.1074.051.2278.13.4375.24.6289.159.278.38.4945.663.6494.287.1549.604.2324.95.2324.652 0 1.126-.1959 1.422-.5879.301-.3919.451-1.0254.451-1.9004v-3.8759h-.362c-.356 0-.595-.0342-.718-.1026-.119-.0729-.178-.2028-.178-.3896 0-.1869.048-.3145.144-.3828.095-.073.294-.1094.594-.1094h1.511.328c.164 0 .287.041.369.123.087.0821.13.2051.13.3692 0 .1823-.05.3099-.15.3828s-.283.1094-.547.1094h-.096v4.0263c0 1.1075-.248 1.9392-.745 2.4951-.492.5515-1.235.8272-2.228.8272-.898 0-1.616-.2757-2.154-.8272-.533-.5559-.799-1.3033-.799-2.2421zm8.38 6.6308v-1.2168c0-.2005.037-.344.11-.4306.077-.0866.2-.1299.369-.1299.187 0 .335.1276.444.3828.073.1549.139.2712.199.3486.191.2461.474.4444.847.5948.374.1458.786.2187 1.238.2187.483 0 .87-.098 1.162-.2939.291-.196.437-.4535.437-.7725 0-.3236-.118-.5537-.355-.6904-.233-.1368-.634-.2051-1.203-.2051h-.376c-.93 0-1.639-.1618-2.126-.4854-.488-.3235-.732-.7929-.732-1.4082 0-.6015.237-1.0687.711-1.4013.479-.3327 1.149-.4991 2.01-.4991.351 0 .709.0502 1.073.1504.365.0957.556.1436.574.1436.05 0 .146-.0433.287-.1299.142-.0911.281-.1367.417-.1367.155 0 .269.057.342.1709.078.1139.116.2848.116.5127v.7998c0 .2415-.036.417-.109.5264-.073.1048-.189.1572-.349.1572-.136 0-.305-.1162-.505-.3487-.142-.1595-.258-.2802-.349-.3623-.242-.2233-.499-.3828-.773-.4785-.273-.1002-.594-.1504-.963-.1504-.429 0-.775.0957-1.039.2871-.26.1869-.39.4262-.39.7178 0 .2871.134.4922.403.6153.269.123.848.1936 1.737.2119.947.0228 1.64.1891 2.078.499.437.3053.656.7793.656 1.4219 0 .6152-.242 1.1074-.725 1.4765-.483.3692-1.134.5537-1.955.5537-.26 0-.549-.025-.868-.0752-.319-.0455-.72-.1253-1.203-.2392-.16.1048-.296.1823-.41.2324-.114.0547-.21.082-.287.082-.16 0-.283-.0546-.369-.164-.082-.114-.124-.2757-.124-.4854zm9.079-2.3652c.036.6562.257 1.1644.663 1.5244.41.3555.968.5332 1.675.5332.533 0 1.114-.1413 1.743-.4238.629-.2871 1.009-.4307 1.141-.4307.137 0 .251.0433.342.1299s.137.1937.137.3213c0 .1321-.048.2529-.144.3623-.095.1094-.248.2165-.458.3213-.456.2233-.927.3942-1.415.5127-.483.1185-.964.1777-1.442.1777-1.039 0-1.871-.2985-2.495-.8955-.625-.6016-.937-1.3968-.937-2.3857 0-1.0072.331-1.823.991-2.4473.661-.6244 1.523-.9365 2.584-.9365.962 0 1.759.2916 2.393.875.633.5833.95 1.2897.95 2.1191 0 .2552-.055.4261-.164.5127-.105.0866-.394.1299-.868.1299h-.103zm.034-.8955h4.45c-.068-.5423-.296-.9776-.684-1.3057-.382-.3327-.854-.499-1.415-.499-.606 0-1.116.1595-1.531.4785s-.688.7611-.82 1.3262zm10.014 2.789h2.27c.178 0 .308.0388.39.1163.086.0729.13.1914.13.3554 0 .1869-.042.3168-.124.3897-.077.0683-.223.1025-.437.1025h-4.471c-.177 0-.312-.041-.403-.123-.091-.0821-.137-.2051-.137-.3692 0-.1595.046-.278.137-.3554.096-.0775.241-.1163.437-.1163h1.19v-4.3818h-.465c-.442 0-.718-.0342-.827-.1025-.109-.0729-.164-.2028-.164-.3897 0-.1595.043-.278.13-.3554.091-.0821.228-.1231.41-.1231h1.558c.124 0 .217.0251.281.0752.064.0456.095.1139.095.2051v1.1621c.433-.5423.885-.9457 1.354-1.21s.975-.3965 1.518-.3965c.405 0 .733.0821.984.2461.251.1641.376.376.376.6358 0 .1686-.064.319-.192.4512-.123.1276-.259.1914-.41.1914-.104 0-.282-.0684-.533-.2051-.246-.1413-.467-.2119-.663-.2119-.355 0-.731.1276-1.128.3828-.392.2506-.827.6494-1.306 1.1963zm6.098.4717v-1.2168c0-.2005.037-.344.109-.4306.078-.0866.201-.1299.37-.1299.186 0 .335.1276.444.3828.073.1549.139.2712.198.3486.192.2461.474.4444.848.5948.374.1458.786.2187 1.237.2187.483 0 .871-.098 1.162-.2939.292-.196.438-.4535.438-.7725 0-.3236-.119-.5537-.356-.6904-.232-.1368-.633-.2051-1.203-.2051h-.376c-.929 0-1.638-.1618-2.126-.4854-.487-.3235-.731-.7929-.731-1.4082 0-.6015.237-1.0687.711-1.4013.478-.3327 1.148-.4991 2.009-.4991.351 0 .709.0502 1.074.1504.364.0957.556.1436.574.1436.05 0 .146-.0433.287-.1299.141-.0911.28-.1367.417-.1367.155 0 .269.057.342.1709.077.1139.116.2848.116.5127v.7998c0 .2415-.036.417-.109.5264-.073.1048-.189.1572-.349.1572-.137 0-.305-.1162-.506-.3487-.141-.1595-.257-.2802-.348-.3623-.242-.2233-.499-.3828-.773-.4785-.273-.1002-.595-.1504-.964-.1504-.428 0-.775.0957-1.039.2871-.26.1869-.389.4262-.389.7178 0 .2871.134.4922.403.6153.269.123.847.1936 1.736.2119.948.0228 1.641.1891 2.078.499.438.3053.657.7793.657 1.4219 0 .6152-.242 1.1074-.725 1.4765-.483.3692-1.135.5537-1.955.5537-.26 0-.549-.025-.868-.0752-.319-.0455-.72-.1253-1.203-.2392-.16.1048-.297.1823-.411.2324-.114.0547-.209.082-.287.082-.159 0-.282-.0546-.369-.164-.082-.114-.123-.2757-.123-.4854z" fill="#fff"/><path d="m292.339 53.624v-1.2168c0-.2005.036-.344.109-.4306.078-.0866.201-.1299.369-.1299.187 0 .335.1276.445.3828.073.1549.139.2712.198.3486.191.2461.474.4444.848.5948.373.1458.786.2187 1.237.2187.483 0 .87-.098 1.162-.2939.292-.196.438-.4535.438-.7725 0-.3236-.119-.5537-.356-.6904-.232-.1368-.633-.2051-1.203-.2051h-.376c-.93 0-1.638-.1618-2.126-.4854-.488-.3235-.731-.7929-.731-1.4082 0-.6015.237-1.0687.71-1.4013.479-.3327 1.149-.4991 2.01-.4991.351 0 .709.0502 1.073.1504.365.0957.556.1436.575.1436.05 0 .146-.0433.287-.1299.141-.0911.28-.1367.417-.1367.155 0 .269.057.342.1709.077.1139.116.2848.116.5127v.7998c0 .2415-.037.417-.11.5264-.072.1048-.189.1572-.348.1572-.137 0-.306-.1162-.506-.3487-.141-.1595-.258-.2802-.349-.3623-.241-.2233-.499-.3828-.772-.4785-.274-.1002-.595-.1504-.964-.1504-.428 0-.775.0957-1.039.2871-.26.1869-.39.4262-.39.7178 0 .2871.135.4922.404.6153.268.123.847.1936 1.736.2119.948.0228 1.641.1891 2.078.499.438.3053.656.7793.656 1.4219 0 .6152-.241 1.1074-.724 1.4765-.483.3692-1.135.5537-1.955.5537-.26 0-.55-.025-.869-.0752-.319-.0455-.72-.1253-1.203-.2392-.159.1048-.296.1823-.41.2324-.114.0547-.209.082-.287.082-.159 0-.282-.0546-.369-.164-.082-.114-.123-.2757-.123-.4854zm12.906-2.5293c-.251-.082-.494-.1412-.731-.1777-.233-.041-.465-.0615-.698-.0615-.701 0-1.255.1185-1.661.3554-.405.237-.608.556-.608.9571 0 .3099.125.5651.376.7656.255.2005.579.3008.971.3008.578 0 1.114-.1504 1.606-.4512.497-.3053.745-.6221.745-.9502zm.055 2.1533c-.374.3373-.782.5948-1.224.7725-.437.1777-.888.2666-1.353.2666-.679 0-1.229-.1891-1.648-.5674-.415-.3782-.622-.8704-.622-1.4765 0-.7201.276-1.2784.827-1.6748.556-.3965 1.336-.5948 2.338-.5948.264 0 .531.0183.8.0547.269.0319.545.0843.827.1572v-.0478c0-.5241-.125-.9115-.376-1.1621-.251-.2507-.64-.376-1.169-.376-.355 0-.752.0957-1.189.2871-.438.1914-.727.2871-.868.2871-.133 0-.242-.0524-.329-.1572-.086-.1094-.129-.2484-.129-.417 0-.2689.25-.4967.752-.6836.505-.1868 1.15-.2803 1.934-.2803.802 0 1.408.2051 1.818.6153.411.4056.616 1.0071.616 1.8047v3.0966h.335c.323 0 .54.0342.649.1026.109.0683.164.1914.164.3691 0 .1641-.045.2871-.137.3692-.091.082-.227.123-.41.123h-1.073c-.128 0-.232-.0387-.314-.1162s-.137-.1891-.165-.335zm6.378-7.0957h-1.162c-.442 0-.72-.0341-.834-.1025-.11-.0729-.164-.2028-.164-.3896 0-.1641.045-.2872.136-.3692.096-.082.233-.123.41-.123h2.256c.123 0 .219.025.287.0752.069.0501.103.1185.103.205v7.7041h2.146c.174 0 .299.0388.376.1163.082.0729.123.1914.123.3554 0 .1869-.038.3168-.116.3897-.077.0683-.223.1025-.437.1025h-5.045c-.178 0-.315-.041-.41-.123-.091-.0821-.137-.2051-.137-.3692 0-.1595.048-.278.144-.3554.095-.0775.239-.1163.43-.1163h1.894zm6.555 5.1065c.037.6562.258 1.1644.663 1.5244.411.3555.969.5332 1.675.5332.533 0 1.115-.1413 1.743-.4238.629-.2871 1.01-.4307 1.142-.4307.137 0 .251.0433.342.1299s.137.1937.137.3213c0 .1321-.048.2529-.144.3623s-.248.2165-.458.3213c-.456.2233-.927.3942-1.415.5127-.483.1185-.964.1777-1.442.1777-1.039 0-1.871-.2985-2.496-.8955-.624-.6016-.936-1.3968-.936-2.3857 0-1.0072.33-1.823.991-2.4473.661-.6244 1.522-.9365 2.584-.9365.962 0 1.759.2916 2.393.875.633.5833.95 1.2897.95 2.1191 0 .2552-.055.4261-.164.5127-.105.0866-.394.1299-.868.1299h-.103zm.035-.8955h4.45c-.069-.5423-.296-.9776-.684-1.3057-.383-.3327-.854-.499-1.415-.499-.606 0-1.116.1595-1.531.4785s-.688.7611-.82 1.3262zm7.704 3.2607v-1.2168c0-.2005.036-.344.109-.4306.078-.0866.201-.1299.369-.1299.187 0 .335.1276.445.3828.072.1549.139.2712.198.3486.191.2461.474.4444.847.5948.374.1458.787.2187 1.238.2187.483 0 .87-.098 1.162-.2939.292-.196.437-.4535.437-.7725 0-.3236-.118-.5537-.355-.6904-.233-.1368-.634-.2051-1.203-.2051h-.376c-.93 0-1.639-.1618-2.126-.4854-.488-.3235-.732-.7929-.732-1.4082 0-.6015.237-1.0687.711-1.4013.479-.3327 1.149-.4991 2.01-.4991.351 0 .709.0502 1.073.1504.365.0957.556.1436.575.1436.05 0 .145-.0433.287-.1299.141-.0911.28-.1367.417-.1367.155 0 .268.057.341.1709.078.1139.117.2848.117.5127v.7998c0 .2415-.037.417-.11.5264-.073.1048-.189.1572-.348.1572-.137 0-.306-.1162-.506-.3487-.142-.1595-.258-.2802-.349-.3623-.241-.2233-.499-.3828-.772-.4785-.274-.1002-.595-.1504-.964-.1504-.429 0-.775.0957-1.039.2871-.26.1869-.39.4262-.39.7178 0 .2871.135.4922.403.6153.269.123.848.1936 1.737.2119.948.0228 1.64.1891 2.078.499.437.3053.656.7793.656 1.4219 0 .6152-.241 1.1074-.724 1.4765-.484.3692-1.135.5537-1.956.5537-.259 0-.549-.025-.868-.0752-.319-.0455-.72-.1253-1.203-.2392-.159.1048-.296.1823-.41.2324-.114.0547-.21.082-.287.082-.16 0-.283-.0546-.369-.164-.082-.114-.123-.2757-.123-.4854zm9.625 2.2422h1.64c.173 0 .303.041.39.1231.087.082.13.205.13.3691 0 .1777-.043.3031-.13.376-.082.0729-.23.1094-.444.1094h-3.015c-.182 0-.321-.0411-.417-.1231-.091-.082-.137-.2028-.137-.3623 0-.1823.057-.3099.171-.3828.119-.0729.335-.1094.65-.1094h.129v-7.0957h-.129c-.315 0-.531-.0365-.65-.1094-.114-.0729-.171-.2005-.171-.3828 0-.1595.046-.278.137-.3554.096-.0821.235-.1231.417-.1231h1.039c.137 0 .235.0228.294.0684.064.0455.096.1162.096.2119v.6631c.31-.319.651-.5583 1.025-.7178.378-.1595.784-.2393 1.217-.2393.916 0 1.682.3099 2.297.9297s.923 1.3968.923 2.3311c0 .8978-.292 1.636-.875 2.2148-.584.5788-1.329.8682-2.236.8682-.483 0-.927-.0843-1.333-.2529-.405-.1732-.745-.4193-1.018-.7383zm2.119-2.7412c.633 0 1.153-.1982 1.558-.5947.406-.4011.609-.9183.609-1.5518 0-.6198-.205-1.1302-.615-1.5312-.406-.4056-.923-.6084-1.552-.6084s-1.144.2005-1.545.6015c-.401.4011-.602.9138-.602 1.5381 0 .6289.199 1.1439.595 1.5449.401.4011.918.6016 1.552.6016zm5.742-1.8662c.036.6562.257 1.1644.663 1.5244.41.3555.969.5332 1.675.5332.533 0 1.114-.1413 1.743-.4238.629-.2871 1.01-.4307 1.142-.4307.136 0 .25.0433.341.1299.092.0866.137.1937.137.3213 0 .1321-.048.2529-.143.3623-.096.1094-.249.2165-.458.3213-.456.2233-.928.3942-1.415.5127-.483.1185-.964.1777-1.443.1777-1.039 0-1.871-.2985-2.495-.8955-.624-.6016-.936-1.3968-.936-2.3857 0-1.0072.33-1.823.991-2.4473.661-.6244 1.522-.9365 2.584-.9365.961 0 1.759.2916 2.392.875.634.5833.951 1.2897.951 2.1191 0 .2552-.055.4261-.165.5127-.104.0866-.394.1299-.868.1299h-.102zm.034-.8955h4.45c-.068-.5423-.296-.9776-.683-1.3057-.383-.3327-.855-.499-1.415-.499-.606 0-1.117.1595-1.532.4785-.414.319-.688.7611-.82 1.3262zm10.015 2.789h2.269c.178 0 .308.0388.39.1163.087.0729.13.1914.13.3554 0 .1869-.041.3168-.123.3897-.078.0683-.223.1025-.438.1025h-4.47c-.178 0-.313-.041-.404-.123-.091-.0821-.136-.2051-.136-.3692 0-.1595.045-.278.136-.3554.096-.0775.242-.1163.438-.1163h1.189v-4.3818h-.465c-.442 0-.717-.0342-.827-.1025-.109-.0729-.164-.2028-.164-.3897 0-.1595.044-.278.13-.3554.091-.0821.228-.1231.41-.1231h1.559c.123 0 .216.0251.28.0752.064.0456.096.1139.096.2051v1.1621c.433-.5423.884-.9457 1.353-1.21.47-.2643.976-.3965 1.518-.3965.406 0 .734.0821.984.2461.251.1641.376.376.376.6358 0 .1686-.064.319-.191.4512-.123.1276-.26.1914-.41.1914-.105 0-.283-.0684-.533-.2051-.247-.1413-.468-.2119-.664-.2119-.355 0-.731.1276-1.128.3828-.391.2506-.827.6494-1.305 1.1963zm6.097.4717v-1.2168c0-.2005.037-.344.11-.4306.077-.0866.2-.1299.369-.1299.187 0 .335.1276.444.3828.073.1549.139.2712.199.3486.191.2461.474.4444.847.5948.374.1458.786.2187 1.238.2187.483 0 .87-.098 1.162-.2939.291-.196.437-.4535.437-.7725 0-.3236-.118-.5537-.355-.6904-.233-.1368-.634-.2051-1.203-.2051h-.376c-.93 0-1.639-.1618-2.126-.4854-.488-.3235-.732-.7929-.732-1.4082 0-.6015.237-1.0687.711-1.4013.479-.3327 1.149-.4991 2.01-.4991.351 0 .709.0502 1.073.1504.365.0957.556.1436.574.1436.05 0 .146-.0433.287-.1299.142-.0911.281-.1367.417-.1367.155 0 .269.057.342.1709.078.1139.116.2848.116.5127v.7998c0 .2415-.036.417-.109.5264-.073.1048-.189.1572-.349.1572-.136 0-.305-.1162-.505-.3487-.142-.1595-.258-.2802-.349-.3623-.242-.2233-.499-.3828-.773-.4785-.273-.1002-.594-.1504-.963-.1504-.429 0-.775.0957-1.039.2871-.26.1869-.39.4262-.39.7178 0 .2871.134.4922.403.6153.269.123.848.1936 1.737.2119.947.0228 1.64.1891 2.078.499.437.3053.656.7793.656 1.4219 0 .6152-.242 1.1074-.725 1.4765-.483.3692-1.134.5537-1.955.5537-.26 0-.549-.025-.868-.0752-.319-.0455-.72-.1253-1.203-.2392-.16.1048-.296.1823-.41.2324-.114.0547-.21.082-.287.082-.16 0-.283-.0546-.369-.164-.082-.114-.124-.2757-.124-.4854zm11.389-.2939c.702 0 1.276-.2211 1.723-.6631.451-.4466.677-1.014.677-1.7022 0-.6881-.226-1.2555-.677-1.7021-.451-.4512-1.026-.6768-1.723-.6768s-1.271.2256-1.722.6768c-.447.4466-.67 1.014-.67 1.7021 0 .6928.223 1.2601.67 1.7022.446.442 1.02.6631 1.722.6631zm3.589-2.3653c0 .9753-.333 1.7728-.998 2.3926s-1.529.9297-2.591.9297c-1.057 0-1.918-.3099-2.584-.9297-.665-.6198-.998-1.4173-.998-2.3926 0-.9752.333-1.7705.998-2.3857.666-.6198 1.527-.9297 2.584-.9297s1.919.3099 2.584.9297c.67.6198 1.005 1.415 1.005 2.3857zm2.276 2.1875v-4.3818h-.129c-.31 0-.525-.0365-.643-.1094-.114-.0729-.171-.2005-.171-.3828 0-.1686.048-.2894.144-.3623.095-.0775.25-.1162.464-.1162h.322.656c.123 0 .219.0251.287.0752s.103.1185.103.2051v.4648c.332-.3099.66-.5377.984-.6836.328-.1504.668-.2256 1.019-.2256.688 0 1.228.2142 1.62.6426.396.4284.594 1.0209.594 1.7774v3.0966h.322c.228 0 .392.0388.492.1163.1.0729.15.1914.15.3554 0 .1778-.054.3054-.164.3828-.105.073-.294.1094-.567.1094h-1.511c-.292 0-.478-.0342-.56-.1025-.082-.0684-.124-.1983-.124-.3897 0-.1777.048-.3008.144-.3691.096-.0684.276-.1026.54-.1026h.239v-2.8437c0-.5332-.12-.9388-.362-1.2168-.242-.2826-.592-.4238-1.053-.4238-.465 0-.875.1572-1.23.4716-.356.3145-.533.7042-.533 1.169v2.8437h.239c.273 0 .458.0342.554.1026.095.0683.143.1914.143.3691 0 .1914-.041.3213-.123.3897-.082.0683-.282.1025-.601.1025h-1.245-.369c-.187 0-.328-.0387-.424-.1162-.091-.082-.136-.2074-.136-.376 0-.1823.052-.3053.157-.3691.109-.0684.319-.1026.629-.1026zm12.23-5.4072v-.164c0-.6335-.105-1.1189-.315-1.4561-.209-.3372-.505-.5059-.888-.5059-.574 0-1.023.3487-1.347 1.0459-.319.6973-.478 1.6794-.478 2.9463 0 1.4447.184 2.5316.553 3.2608.374.7246.928 1.0869 1.661 1.0869.205 0 .445-.0433.718-.1299.274-.0866.449-.1299.527-.1299.086 0 .159.0342.218.1026.06.0638.089.1458.089.2461 0 .2233-.155.4101-.465.5605-.31.1549-.695.2324-1.155.2324-.989 0-1.75-.4375-2.283-1.3125s-.8-2.1305-.8-3.7666c0-1.5905.246-2.8209.738-3.6914.493-.8704 1.185-1.3057 2.078-1.3057.716 0 1.24.2621 1.573.7862.332.5195.499 1.3535.499 2.5019v2.7891c.1.1276.166.2256.198.2939.036.0684.055.1322.055.1914 0 .1504-.057.2849-.171.4034-.114.1139-.244.1709-.39.1709-.077 0-.157-.0228-.239-.0684-.078-.0501-.171-.1344-.28-.2529-.187.0866-.365.1481-.534.1845-.168.0365-.339.0547-.512.0547-.451 0-.827-.1754-1.128-.5263-.296-.3555-.445-.809-.445-1.3604 0-.679.206-1.2145.616-1.6064.41-.3965.966-.5948 1.668-.5948.027 0 .066.0023.116.0069.055.0045.096.0068.123.0068zm0 3.0557v-2.2696c-.037-.0045-.073-.0068-.109-.0068-.037-.0045-.089-.0068-.158-.0068-.419 0-.752.123-.998.3691-.241.2461-.362.5811-.362 1.0049 0 .3418.082.6061.246.793.169.1868.403.2802.704.2802.078 0 .173-.0136.287-.041.114-.0273.244-.0683.39-.123zm7.499 2.3652c.642 0 1.164-.2028 1.565-.6084s.602-.9319.602-1.5791c0-.6334-.205-1.1553-.615-1.5654-.406-.4102-.923-.6152-1.552-.6152-.634 0-1.153.205-1.559.6152-.401.4056-.601.9274-.601 1.5654s.2 1.1621.601 1.5723c.406.4101.925.6152 1.559.6152zm-2.133-4.3818c.255-.319.574-.5628.957-.7315.383-.1686.816-.2529 1.299-.2529.916 0 1.679.3099 2.29.9297.611.6152.916 1.3786.916 2.29 0 .8978-.314 1.6589-.943 2.2832-.625.6244-1.388.9366-2.29.9366-.479 0-.896-.0844-1.251-.253-.356-.1686-.647-.4238-.875-.7656v.5469c0 .123-.023.2119-.069.2666-.041.0547-.111.082-.212.082h-1.251c-.177 0-.31-.041-.396-.123-.087-.0821-.13-.2051-.13-.3692 0-.1823.052-.3053.157-.3691.105-.0684.312-.1026.622-.1026h.144v-7h-.13c-.31 0-.522-.0364-.636-.1093s-.171-.2006-.171-.3828c0-.1641.046-.2872.137-.3692s.226-.123.403-.123h1.039c.137 0 .235.0228.294.0683.064.0456.096.1162.096.2119zm11.69 2.3105c-.251-.082-.495-.1412-.732-.1777-.232-.041-.465-.0615-.697-.0615-.702 0-1.256.1185-1.661.3554-.406.237-.609.556-.609.9571 0 .3099.126.5651.376.7656.255.2005.579.3008.971.3008.579 0 1.114-.1504 1.606-.4512.497-.3053.746-.6221.746-.9502zm.054 2.1533c-.373.3373-.781.5948-1.223.7725-.438.1777-.889.2666-1.354.2666-.679 0-1.228-.1891-1.647-.5674-.415-.3782-.622-.8704-.622-1.4765 0-.7201.275-1.2784.827-1.6748.556-.3965 1.335-.5948 2.338-.5948.264 0 .531.0183.799.0547.269.0319.545.0843.828.1572v-.0478c0-.5241-.126-.9115-.376-1.1621-.251-.2507-.641-.376-1.169-.376-.356 0-.752.0957-1.19.2871-.437.1914-.727.2871-.868.2871-.132 0-.242-.0524-.328-.1572-.087-.1094-.13-.2484-.13-.417 0-.2689.251-.4967.752-.6836.506-.1868 1.151-.2803 1.935-.2803.802 0 1.408.2051 1.818.6153.41.4056.615 1.0071.615 1.8047v3.0966h.335c.324 0 .54.0342.65.1026.109.0683.164.1914.164.3691 0 .1641-.046.2871-.137.3692-.091.082-.228.123-.41.123h-1.074c-.127 0-.232-.0387-.314-.1162s-.137-.1891-.164-.335zm4.293-.0957v-4.3818h-.13c-.31 0-.524-.0365-.642-.1094-.114-.0729-.171-.2005-.171-.3828 0-.1686.048-.2894.143-.3623.096-.0775.251-.1162.465-.1162h.322.656c.123 0 .219.0251.287.0752s.102.1185.102.2051v.4648c.333-.3099.661-.5377.985-.6836.328-.1504.667-.2256 1.018-.2256.689 0 1.229.2142 1.62.6426.397.4284.595 1.0209.595 1.7774v3.0966h.321c.228 0 .392.0388.493.1163.1.0729.15.1914.15.3554 0 .1778-.055.3054-.164.3828-.105.073-.294.1094-.567.1094h-1.511c-.292 0-.479-.0342-.561-.1025-.082-.0684-.123-.1983-.123-.3897 0-.1777.048-.3008.144-.3691.096-.0684.276-.1026.54-.1026h.239v-2.8437c0-.5332-.121-.9388-.362-1.2168-.242-.2826-.593-.4238-1.053-.4238-.465 0-.875.1572-1.23.4716-.356.3145-.534.7042-.534 1.169v2.8437h.24c.273 0 .458.0342.553.1026.096.0683.144.1914.144.3691 0 .1914-.041.3213-.123.3897-.082.0683-.283.1025-.602.1025h-1.244-.369c-.187 0-.328-.0387-.424-.1162-.091-.082-.136-.2074-.136-.376 0-.1823.052-.3053.157-.3691.109-.0684.319-.1026.629-.1026zm9.707-1.6543v2.0166c0 .1823-.038.3282-.116.4375-.073.1094-.169.1641-.287.1641h-1.265c-.177 0-.312-.041-.403-.123-.091-.0821-.137-.2051-.137-.3692 0-.1823.053-.3053.157-.3691.11-.0684.34-.1026.691-.1026h.328v-7h-.28c-.392 0-.645-.0341-.759-.1025-.114-.0729-.171-.2028-.171-.3896 0-.1641.046-.2872.137-.3692.095-.082.232-.123.41-.123h1.306c.123 0 .218.025.287.0752.068.0501.102.1185.102.205v4.9014l1.976-1.6543c-.151-.0638-.262-.1344-.335-.2119-.068-.0775-.103-.1686-.103-.2734 0-.1368.05-.2393.151-.3077.1-.0683.246-.1025.437-.1025h1.853c.173 0 .305.0387.396.1162s.137.1937.137.3486c0 .2735-.221.433-.663.4786-.087.0091-.155.0182-.205.0273-.187.0228-.392.0957-.615.2188-.224.1184-.449.278-.677.4785l-.991.8681 2.59 2.8164h.588c.196 0 .335.0365.417.1094.087.0729.13.1937.13.3623 0 .1595-.048.2826-.143.3692-.092.082-.226.123-.404.123h-1.852c-.201 0-.347-.0342-.438-.1025-.091-.0684-.136-.1778-.136-.3282 0-.123.043-.2278.129-.3144.092-.0912.226-.1641.404-.2188l-2.031-2.2148zm8.313 1.4971c0-.3555.123-.6471.369-.875.251-.2278.574-.3418.971-.3418.405 0 .731.1117.977.335s.369.5172.369.8818-.125.6585-.376.8819c-.246.2233-.569.3349-.97.3349s-.725-.1116-.971-.3349c-.246-.2234-.369-.5173-.369-.8819zm11.265-1.9004c-.25-.082-.494-.1412-.731-.1777-.233-.041-.465-.0615-.697-.0615-.702 0-1.256.1185-1.661.3554-.406.237-.609.556-.609.9571 0 .3099.125.5651.376.7656.255.2005.579.3008.971.3008.579 0 1.114-.1504 1.606-.4512.497-.3053.745-.6221.745-.9502zm.055 2.1533c-.374.3373-.782.5948-1.224.7725-.437.1777-.888.2666-1.353.2666-.679 0-1.228-.1891-1.648-.5674-.414-.3782-.622-.8704-.622-1.4765 0-.7201.276-1.2784.828-1.6748.556-.3965 1.335-.5948 2.337-.5948.265 0 .531.0183.8.0547.269.0319.545.0843.827.1572v-.0478c0-.5241-.125-.9115-.376-1.1621-.25-.2507-.64-.376-1.169-.376-.355 0-.752.0957-1.189.2871-.438.1914-.727.2871-.868.2871-.132 0-.242-.0524-.328-.1572-.087-.1094-.13-.2484-.13-.417 0-.2689.25-.4967.752-.6836.506-.1868 1.15-.2803 1.934-.2803.802 0 1.409.2051 1.819.6153.41.4056.615 1.0071.615 1.8047v3.0966h.335c.323 0 .54.0342.649.1026.11.0683.164.1914.164.3691 0 .1641-.045.2871-.136.3692-.091.082-.228.123-.41.123h-1.074c-.127 0-.232-.0387-.314-.1162s-.137-.1891-.164-.335zm6.207-7.4169c0-.4922.043-.8021.13-.9297.091-.1276.283-.1914.574-.1914.283 0 .47.0546.561.164.091.1048.136.3578.136.7588 0 .3919-.043.6358-.129.7315-.082.0911-.272.1367-.568.1367-.291 0-.483-.0433-.574-.1299-.087-.0866-.13-.2666-.13-.54zm1.265 7.3212h2.194c.178 0 .308.0388.39.1163.086.0729.13.1914.13.3554 0 .1869-.041.3168-.123.3897-.078.0683-.224.1025-.438.1025h-5.305c-.182 0-.319-.041-.41-.123-.091-.0821-.137-.2051-.137-.3692 0-.1595.048-.278.144-.3554.096-.0775.239-.1163.431-.1163h2.085v-4.3818h-1.333c-.187 0-.331-.041-.431-.123-.096-.0866-.144-.2097-.144-.3692s.046-.278.137-.3554c.091-.0821.228-.1231.41-.1231h2.003c.123 0 .219.0251.287.0752.073.0501.11.1185.11.2051z" fill="#fff" fill-opacity=".7"/><rect height="71" rx="9.5" stroke="#abb8ff" width="221" x="260.5" y=".616211"/></svg>