<svg fill="none" height="368" viewBox="0 0 670 368" width="670" xmlns="http://www.w3.org/2000/svg"><rect fill="#abb8ff" fill-opacity=".1" height="366" rx="9.5" stroke="#abb8ff" width="438" x="118.5" y=".616211"/><rect fill="#020013" height="208" rx="9.5" stroke="#abb8ff" width="367" x="302.5" y="83.6162"/><g fill="#fff"><path d="m172.655 35.7812c-.059.0092-.105.016-.136.0206-.028.0045-.053.0068-.076.0068-.141 0-.257-.0387-.348-.1162-.087-.082-.13-.1891-.13-.3213 0-.1094.039-.2051.116-.2871.078-.082.189-.1436.335-.1846l2.03-.5469c.05-.0136.098-.0227.144-.0273.05-.0091.1-.0137.15-.0137.087 0 .155.041.205.1231.05.0774.076.1845.076.3213v7.3964h1.093c.406 0 .663.0342.773.1026.109.0638.164.1868.164.3691 0 .1641-.046.2871-.137.3692-.091.082-.228.123-.41.123h-4.088c-.182 0-.319-.041-.41-.123-.091-.0821-.137-.2051-.137-.3692 0-.1823.055-.3053.164-.3691.11-.0684.367-.1026.773-.1026h1.134v-6.6787zm8.381 4.9834c0 .4831.151.875.451 1.1758.306.3008.709.4512 1.21.4512.506 0 .909-.1458 1.21-.4375.306-.2917.458-.679.458-1.1621 0-.474-.155-.8568-.465-1.1484-.31-.2963-.711-.4444-1.203-.4444-.487 0-.886.1459-1.196.4375-.31.2871-.465.6631-.465 1.1279zm.068-4.0742c0 .4512.149.8203.445 1.1075.301.2871.683.4306 1.148.4306.47 0 .852-.1435 1.149-.4306.3-.2917.451-.6654.451-1.1211 0-.4375-.151-.7976-.451-1.0801-.297-.2871-.679-.4307-1.149-.4307-.469 0-.852.1436-1.148.4307-.296.2825-.445.6471-.445 1.0937zm.226 2.003c-.442-.2188-.775-.4945-.998-.8272-.223-.3372-.335-.7292-.335-1.1758 0-.7064.253-1.2851.759-1.7363.506-.4557 1.153-.6836 1.941-.6836.775 0 1.42.2279 1.935.6836s.772 1.0117.772 1.668c0 .4876-.109.9-.328 1.2373-.219.3372-.558.6152-1.018.834.46.1868.813.4625 1.059.8271.246.36.369.7839.369 1.2715 0 .7519-.259 1.3649-.779 1.8389-.515.4739-1.185.7109-2.01.7109s-1.495-.2393-2.009-.7178c-.515-.4785-.773-1.0983-.773-1.8594 0-.4648.123-.8772.369-1.2373.246-.3645.595-.6425 1.046-.8339z"/><path d="m172.655 58.7812c-.059.0092-.105.016-.136.0206-.028.0045-.053.0068-.076.0068-.141 0-.257-.0387-.348-.1162-.087-.082-.13-.1891-.13-.3213 0-.1094.039-.2051.116-.2871.078-.082.189-.1436.335-.1846l2.03-.5469c.05-.0136.098-.0227.144-.0273.05-.0091.1-.0137.15-.0137.087 0 .155.041.205.1231.05.0774.076.1845.076.3213v7.3964h1.093c.406 0 .663.0342.773.1026.109.0638.164.1868.164.3691 0 .1641-.046.2871-.137.3692-.091.082-.228.123-.41.123h-4.088c-.182 0-.319-.041-.41-.123-.091-.0821-.137-.2051-.137-.3692 0-.1823.055-.3053.164-.3691.11-.0684.367-.1026.773-.1026h1.134v-6.6787zm11.601 3.2061c-.246.3145-.517.5492-.814.7041-.296.155-.622.2324-.977.2324-.72 0-1.333-.2689-1.839-.8066-.501-.5423-.752-1.2077-.752-1.9961 0-.8294.242-1.5107.725-2.044.487-.5377 1.109-.8066 1.866-.8066.893 0 1.613.36 2.16 1.0801.547.7155.82 1.6657.82 2.8506 0 1.5631-.401 2.8118-1.203 3.7461-.797.9297-1.866 1.3945-3.206 1.3945-.424 0-.706-.0319-.848-.0957-.136-.0638-.205-.1823-.205-.3555 0-.2916.272-.4443.814-.458.36-.0091.645-.0342.854-.0752.72-.1321 1.304-.4899 1.75-1.0732.452-.5834.736-1.349.855-2.2969zm-.144-1.832c0-.5651-.15-1.0231-.451-1.3741-.296-.3554-.677-.5332-1.141-.5332-.443 0-.8.1664-1.074.4991-.273.3327-.41.7679-.41 1.3056 0 .556.144 1.0095.431 1.3604.287.3463.656.5195 1.107.5195.442 0 .809-.1663 1.101-.499.291-.3372.437-.7634.437-1.2783z"/><path d="m171.91 89.1162c-.241 0-.421-.0478-.54-.1435-.114-.1003-.171-.253-.171-.4581 0-.2962.438-.8522 1.313-1.6679l.198-.1914c.132-.1276.324-.3099.574-.5469 1.577-1.4857 2.365-2.568 2.365-3.2471 0-.4876-.139-.8818-.417-1.1826-.278-.3053-.638-.458-1.08-.458-.287 0-.562.0592-.827.1777-.26.1185-.469.278-.629.4786-.027.0364-.07.0979-.13.1845-.168.3054-.357.458-.567.458-.164 0-.28-.0501-.349-.1504-.068-.1002-.102-.2916-.102-.5742 0-.164.016-.2825.048-.3554.032-.0775.091-.1596.177-.2461.292-.2826.652-.5059 1.081-.67.432-.1686.875-.2529 1.326-.2529.756 0 1.387.2438 1.893.7315.511.4876.766 1.0869.766 1.7978 0 .8932-.775 2.0804-2.324 3.5615-.397.3692-.7.6586-.91.8682l-.84.8066h3.124c.018-.1959.07-.344.157-.4443.091-.1048.212-.1572.362-.1572.151 0 .269.0501.356.1504.086.1002.13.2369.13.4101 0 .0137-.003.0388-.007.0752-.005.0319-.007.0547-.007.0684l-.055.5263c-.013.1413-.054.253-.123.335-.068.0775-.157.1162-.266.1162zm10.787-7.8682c-.524 0-.932.3099-1.223.9297-.292.6198-.438 1.4948-.438 2.625 0 1.1348.146 2.0144.438 2.6387.291.6198.699.9297 1.223.9297.529 0 .939-.3099 1.231-.9297.291-.6243.437-1.5039.437-2.6387 0-1.1302-.146-2.0052-.437-2.625-.292-.6198-.702-.9297-1.231-.9297zm0 8.0938c-.857 0-1.538-.4033-2.044-1.21-.501-.8112-.752-1.9209-.752-3.3291 0-1.4036.251-2.5088.752-3.3154.506-.8112 1.187-1.2168 2.044-1.2168s1.538.4056 2.044 1.2168.759 1.9163.759 3.3154-.253 2.5065-.759 3.3223c-.506.8112-1.187 1.2168-2.044 1.2168z"/><path d="m171.91 112.116c-.241 0-.421-.048-.54-.143-.114-.101-.171-.253-.171-.458 0-.297.438-.853 1.313-1.668l.198-.192c.132-.127.324-.31.574-.547 1.577-1.485 2.365-2.568 2.365-3.247 0-.487-.139-.882-.417-1.182-.278-.306-.638-.458-1.08-.458-.287 0-.562.059-.827.177-.26.119-.469.278-.629.479-.027.036-.07.098-.13.185-.168.305-.357.458-.567.458-.164 0-.28-.051-.349-.151-.068-.1-.102-.292-.102-.574 0-.164.016-.283.048-.356.032-.077.091-.159.177-.246.292-.282.652-.505 1.081-.67.432-.168.875-.252 1.326-.252.756 0 1.387.243 1.893.731.511.488.766 1.087.766 1.798 0 .893-.775 2.08-2.324 3.561-.397.369-.7.659-.91.868l-.84.807h3.124c.018-.196.07-.344.157-.444.091-.105.212-.157.362-.157.151 0 .269.05.356.15.086.1.13.237.13.41 0 .014-.003.039-.007.075-.005.032-.007.055-.007.069l-.055.526c-.013.141-.054.253-.123.335-.068.077-.157.116-.266.116zm9.153-7.335c-.059.009-.104.016-.136.021-.028.004-.053.007-.075.007-.142 0-.258-.039-.349-.117-.087-.082-.13-.189-.13-.321 0-.109.039-.205.116-.287.078-.082.189-.144.335-.185l2.03-.546c.051-.014.098-.023.144-.028.05-.009.1-.013.15-.013.087 0 .155.041.206.123.05.077.075.184.075.321v7.396h1.093c.406 0 .664.035.773.103.109.064.164.187.164.369 0 .164-.046.287-.137.369s-.228.123-.41.123h-4.088c-.182 0-.319-.041-.41-.123s-.137-.205-.137-.369c0-.182.055-.305.164-.369.11-.068.367-.103.773-.103h1.135v-6.678z"/><path d="m171.91 135.116c-.241 0-.421-.048-.54-.143-.114-.101-.171-.253-.171-.458 0-.297.438-.853 1.313-1.668l.198-.192c.132-.127.324-.31.574-.547 1.577-1.485 2.365-2.568 2.365-3.247 0-.487-.139-.882-.417-1.182-.278-.306-.638-.458-1.08-.458-.287 0-.562.059-.827.177-.26.119-.469.278-.629.479-.027.036-.07.098-.13.185-.168.305-.357.458-.567.458-.164 0-.28-.051-.349-.151-.068-.1-.102-.292-.102-.574 0-.164.016-.283.048-.356.032-.077.091-.159.177-.246.292-.282.652-.505 1.081-.67.432-.168.875-.252 1.326-.252.756 0 1.387.243 1.893.731.511.488.766 1.087.766 1.798 0 .893-.775 2.08-2.324 3.561-.397.369-.7.659-.91.868l-.84.807h3.124c.018-.196.07-.344.157-.444.091-.105.212-.157.362-.157.151 0 .269.05.356.15.086.1.13.237.13.41 0 .014-.003.039-.007.075-.005.032-.007.055-.007.069l-.055.526c-.013.141-.054.253-.123.335-.068.077-.157.116-.266.116zm8.408 0c-.241 0-.421-.048-.54-.143-.114-.101-.171-.253-.171-.458 0-.297.438-.853 1.313-1.668l.198-.192c.132-.127.324-.31.574-.547 1.577-1.485 2.366-2.568 2.366-3.247 0-.487-.139-.882-.417-1.182-.278-.306-.638-.458-1.08-.458-.288 0-.563.059-.828.177-.259.119-.469.278-.629.479-.027.036-.07.098-.129.185-.169.305-.358.458-.568.458-.164 0-.28-.051-.348-.151-.069-.1-.103-.292-.103-.574 0-.164.016-.283.048-.356.032-.077.091-.159.178-.246.291-.282.651-.505 1.08-.67.433-.168.875-.252 1.326-.252.756 0 1.388.243 1.893.731.511.488.766 1.087.766 1.798 0 .893-.775 2.08-2.324 3.561-.397.369-.7.659-.909.868l-.841.807h3.124c.018-.196.071-.344.157-.444.091-.105.212-.157.362-.157.151 0 .269.05.356.15.086.1.13.237.13.41 0 .014-.003.039-.007.075-.005.032-.007.055-.007.069l-.055.526c-.013.141-.054.253-.123.335-.068.077-.157.116-.266.116z"/><path d="m171.91 158.116c-.241 0-.421-.048-.54-.143-.114-.101-.171-.253-.171-.458 0-.297.438-.853 1.313-1.668l.198-.192c.132-.127.324-.31.574-.547 1.577-1.485 2.365-2.568 2.365-3.247 0-.487-.139-.882-.417-1.182-.278-.306-.638-.458-1.08-.458-.287 0-.562.059-.827.177-.26.119-.469.278-.629.479-.027.036-.07.098-.13.185-.168.305-.357.458-.567.458-.164 0-.28-.051-.349-.151-.068-.1-.102-.292-.102-.574 0-.164.016-.283.048-.356.032-.077.091-.159.177-.246.292-.282.652-.505 1.081-.67.432-.168.875-.252 1.326-.252.756 0 1.387.243 1.893.731.511.488.766 1.087.766 1.798 0 .893-.775 2.08-2.324 3.561-.397.369-.7.659-.91.868l-.84.807h3.124c.018-.196.07-.344.157-.444.091-.105.212-.157.362-.157.151 0 .269.05.356.15.086.1.13.237.13.41 0 .014-.003.039-.007.075-.005.032-.007.055-.007.069l-.055.526c-.013.141-.054.253-.123.335-.068.077-.157.116-.266.116zm11.854-4.703c.533.146.945.413 1.237.8.296.383.444.852.444 1.408 0 .798-.282 1.452-.847 1.962-.565.506-1.297.759-2.195.759-.692 0-1.31-.132-1.852-.397-.538-.269-.807-.563-.807-.882 0-.136.048-.248.144-.334.1-.092.221-.137.362-.137.077 0 .358.116.841.348.487.233.941.349 1.36.349.542 0 .982-.155 1.32-.465.341-.31.512-.711.512-1.203 0-.406-.118-.747-.355-1.025-.233-.283-.554-.463-.964-.54-.123-.023-.285-.041-.485-.055-.383-.023-.575-.182-.575-.479 0-.268.187-.426.561-.471.146-.014.266-.03.362-.048.356-.055.643-.201.861-.438.219-.237.329-.524.329-.861 0-.433-.135-.786-.404-1.059-.269-.274-.61-.411-1.025-.411-.383 0-.777.119-1.183.356-.401.237-.651.355-.752.355-.127 0-.234-.041-.321-.123-.082-.082-.123-.184-.123-.307 0-.278.255-.554.766-.827.51-.278 1.075-.417 1.695-.417.711 0 1.301.216 1.77.649.474.428.711.957.711 1.586 0 .478-.114.873-.341 1.182-.224.31-.572.552-1.046.725z"/><path d="m171.91 181.116c-.241 0-.421-.048-.54-.143-.114-.101-.171-.253-.171-.458 0-.297.438-.853 1.313-1.668l.198-.192c.132-.127.324-.31.574-.547 1.577-1.485 2.365-2.568 2.365-3.247 0-.487-.139-.882-.417-1.182-.278-.306-.638-.458-1.08-.458-.287 0-.562.059-.827.177-.26.119-.469.278-.629.479-.027.036-.07.098-.13.185-.168.305-.357.458-.567.458-.164 0-.28-.051-.349-.151-.068-.1-.102-.292-.102-.574 0-.164.016-.283.048-.356.032-.077.091-.159.177-.246.292-.282.652-.505 1.081-.67.432-.168.875-.252 1.326-.252.756 0 1.387.243 1.893.731.511.488.766 1.087.766 1.798 0 .893-.775 2.08-2.324 3.561-.397.369-.7.659-.91.868l-.84.807h3.124c.018-.196.07-.344.157-.444.091-.105.212-.157.362-.157.151 0 .269.05.356.15.086.1.13.237.13.41 0 .014-.003.039-.007.075-.005.032-.007.055-.007.069l-.055.526c-.013.141-.054.253-.123.335-.068.077-.157.116-.266.116zm11.361-3.151v-4.635l-2.59 4.635zm-.738 3.151c-.219 0-.367-.034-.444-.102-.078-.073-.116-.203-.116-.39 0-.164.038-.283.116-.355.082-.078.212-.117.39-.117h.792v-1.148h-3.192c-.114 0-.203-.037-.267-.109-.063-.073-.095-.178-.095-.315v-.472c0-.182.066-.373.198-.574.023-.036.041-.066.055-.089l2.884-4.894c.064-.114.117-.187.158-.219s.095-.048.164-.048c.027 0 .075.005.143.014.019.004.037.009.055.014l.697.109c.064.009.114.045.151.109.041.06.061.139.061.24v5.195h.349c.1 0 .178-.039.232-.116.055-.082.116-.123.185-.123.091 0 .168.034.232.102s.096.153.096.253c0 .041-.002.08-.007.116-.004.032-.014.066-.027.103l-.055.28c-.032.164-.08.276-.143.335-.06.059-.155.089-.288.089h-.574v1.148h.239c.292 0 .493.037.602.11.109.068.164.189.164.362 0 .164-.045.287-.137.369-.091.082-.227.123-.41.123z"/><path d="m171.91 204.116c-.241 0-.421-.048-.54-.143-.114-.101-.171-.253-.171-.458 0-.297.438-.853 1.313-1.668l.198-.192c.132-.127.324-.31.574-.547 1.577-1.485 2.365-2.568 2.365-3.247 0-.487-.139-.882-.417-1.182-.278-.306-.638-.458-1.08-.458-.287 0-.562.059-.827.177-.26.119-.469.278-.629.479-.027.036-.07.098-.13.185-.168.305-.357.458-.567.458-.164 0-.28-.051-.349-.151-.068-.1-.102-.292-.102-.574 0-.164.016-.283.048-.356.032-.077.091-.159.177-.246.292-.282.652-.505 1.081-.67.432-.168.875-.252 1.326-.252.756 0 1.387.243 1.893.731.511.488.766 1.087.766 1.798 0 .893-.775 2.08-2.324 3.561-.397.369-.7.659-.91.868l-.84.807h3.124c.018-.196.07-.344.157-.444.091-.105.212-.157.362-.157.151 0 .269.05.356.15.086.1.13.237.13.41 0 .014-.003.039-.007.075-.005.032-.007.055-.007.069l-.055.526c-.013.141-.054.253-.123.335-.068.077-.157.116-.266.116zm9.249-5.345c.301-.11.579-.19.834-.24.255-.054.499-.082.732-.082.797 0 1.46.278 1.989.834.533.552.8 1.238.8 2.058 0 .87-.294 1.588-.882 2.153s-1.34.848-2.256.848c-.766 0-1.408-.103-1.928-.308-.515-.209-.772-.462-.772-.759 0-.118.048-.223.143-.314.096-.096.208-.144.335-.144.05 0 .317.089.8.267.488.173.939.26 1.354.26.61 0 1.105-.183 1.483-.547.383-.369.574-.843.574-1.422 0-.565-.18-1.035-.54-1.408-.36-.378-.813-.568-1.36-.568-.41 0-.814.103-1.21.308-.392.205-.629.308-.711.308-.137 0-.235-.05-.294-.151-.055-.1-.082-.282-.082-.547v-3.404c0-.15.046-.257.137-.321.095-.069.259-.103.492-.103h3.459c.219 0 .383.046.492.137.109.087.164.219.164.396 0 .169-.057.301-.171.397-.114.091-.276.137-.485.137h-3.097z"/><path d="m171.91 227.116c-.241 0-.421-.048-.54-.143-.114-.101-.171-.253-.171-.458 0-.297.438-.853 1.313-1.668l.198-.192c.132-.127.324-.31.574-.547 1.577-1.485 2.365-2.568 2.365-3.247 0-.487-.139-.882-.417-1.182-.278-.306-.638-.458-1.08-.458-.287 0-.562.059-.827.177-.26.119-.469.278-.629.479-.027.036-.07.098-.13.185-.168.305-.357.458-.567.458-.164 0-.28-.051-.349-.151-.068-.1-.102-.292-.102-.574 0-.164.016-.283.048-.356.032-.077.091-.159.177-.246.292-.282.652-.505 1.081-.67.432-.168.875-.252 1.326-.252.756 0 1.387.243 1.893.731.511.488.766 1.087.766 1.798 0 .893-.775 2.08-2.324 3.561-.397.369-.7.659-.91.868l-.84.807h3.124c.018-.196.07-.344.157-.444.091-.105.212-.157.362-.157.151 0 .269.05.356.15.086.1.13.237.13.41 0 .014-.003.039-.007.075-.005.032-.007.055-.007.069l-.055.526c-.013.141-.054.253-.123.335-.068.077-.157.116-.266.116zm9.318-2.659c0 .561.148 1.019.444 1.374.296.351.677.526 1.141.526.438 0 .796-.166 1.074-.499.282-.332.424-.768.424-1.305 0-.556-.146-1.007-.438-1.354-.287-.346-.658-.519-1.114-.519-.442 0-.809.166-1.101.499-.287.332-.43.759-.43 1.278zm-.151-1.818c.246-.319.52-.559.82-.718.301-.16.629-.239.985-.239.72 0 1.331.271 1.832.813.506.542.759 1.21.759 2.003 0 .829-.244 1.511-.732 2.044-.487.533-1.112.8-1.873.8-.898 0-1.618-.356-2.16-1.067-.538-.715-.807-1.668-.807-2.857 0-1.55.399-2.794 1.197-3.732.797-.944 1.85-1.415 3.158-1.415.442 0 .734.031.875.095s.212.185.212.363c0 .291-.269.442-.807.451-.355.004-.64.027-.854.068-.72.137-1.306.499-1.757 1.087-.447.583-.729 1.351-.848 2.304z"/><path d="m171.91 250.116c-.241 0-.421-.048-.54-.143-.114-.101-.171-.253-.171-.458 0-.297.438-.853 1.313-1.668l.198-.192c.132-.127.324-.31.574-.547 1.577-1.485 2.365-2.568 2.365-3.247 0-.487-.139-.882-.417-1.182-.278-.306-.638-.458-1.08-.458-.287 0-.562.059-.827.177-.26.119-.469.278-.629.479-.027.036-.07.098-.13.185-.168.305-.357.458-.567.458-.164 0-.28-.051-.349-.151-.068-.1-.102-.292-.102-.574 0-.164.016-.283.048-.356.032-.077.091-.159.177-.246.292-.282.652-.505 1.081-.67.432-.168.875-.252 1.326-.252.756 0 1.387.243 1.893.731.511.488.766 1.087.766 1.798 0 .893-.775 2.08-2.324 3.561-.397.369-.7.659-.91.868l-.84.807h3.124c.018-.196.07-.344.157-.444.091-.105.212-.157.362-.157.151 0 .269.05.356.15.086.1.13.237.13.41 0 .014-.003.039-.007.075-.005.032-.007.055-.007.069l-.055.526c-.013.141-.054.253-.123.335-.068.077-.157.116-.266.116zm10.89-.137c-.037.11-.071.181-.103.212-.032.032-.091.048-.177.048h-.117-.485c-.091 0-.164-.018-.219-.054-.05-.037-.075-.087-.075-.151 0-.036.002-.07.007-.102.009-.037.02-.078.034-.123l2.687-7.294h-3.473c-.014.214-.062.373-.144.478-.082.1-.202.151-.362.151-.155 0-.271-.039-.349-.117-.073-.077-.109-.198-.109-.362 0-.046 0-.08 0-.103.005-.022.009-.043.014-.061l.068-.615c.014-.128.059-.226.137-.294.082-.069.191-.103.328-.103h4.518c.133 0 .228.03.288.089.063.055.095.144.095.267v.232c0 .055-.011.128-.034.219-.023.086-.059.205-.109.355z"/><path d="m171.91 273.116c-.241 0-.421-.048-.54-.143-.114-.101-.171-.253-.171-.458 0-.297.438-.853 1.313-1.668l.198-.192c.132-.127.324-.31.574-.547 1.577-1.485 2.365-2.568 2.365-3.247 0-.487-.139-.882-.417-1.182-.278-.306-.638-.458-1.08-.458-.287 0-.562.059-.827.177-.26.119-.469.278-.629.479-.027.036-.07.098-.13.185-.168.305-.357.458-.567.458-.164 0-.28-.051-.349-.151-.068-.1-.102-.292-.102-.574 0-.164.016-.283.048-.356.032-.077.091-.159.177-.246.292-.282.652-.505 1.081-.67.432-.168.875-.252 1.326-.252.756 0 1.387.243 1.893.731.511.488.766 1.087.766 1.798 0 .893-.775 2.08-2.324 3.561-.397.369-.7.659-.91.868l-.84.807h3.124c.018-.196.07-.344.157-.444.091-.105.212-.157.362-.157.151 0 .269.05.356.15.086.1.13.237.13.41 0 .014-.003.039-.007.075-.005.032-.007.055-.007.069l-.055.526c-.013.141-.054.253-.123.335-.068.077-.157.116-.266.116zm9.126-2.351c0 .483.151.875.451 1.175.306.301.709.452 1.21.452.506 0 .909-.146 1.21-.438.306-.292.458-.679.458-1.162 0-.474-.155-.857-.465-1.148-.31-.297-.711-.445-1.203-.445-.487 0-.886.146-1.196.438-.31.287-.465.663-.465 1.128zm.068-4.075c0 .452.149.821.445 1.108.301.287.683.431 1.148.431.47 0 .852-.144 1.149-.431.3-.292.451-.666.451-1.121 0-.438-.151-.798-.451-1.08-.297-.287-.679-.431-1.149-.431-.469 0-.852.144-1.148.431-.296.282-.445.647-.445 1.093zm.226 2.003c-.442-.218-.775-.494-.998-.827-.223-.337-.335-.729-.335-1.176 0-.706.253-1.285.759-1.736.506-.456 1.153-.683 1.941-.683.775 0 1.42.227 1.935.683s.772 1.012.772 1.668c0 .488-.109.9-.328 1.237-.219.338-.558.616-1.018.834.46.187.813.463 1.059.828.246.36.369.783.369 1.271 0 .752-.259 1.365-.779 1.839-.515.474-1.185.711-2.01.711s-1.495-.239-2.009-.718c-.515-.478-.773-1.098-.773-1.859 0-.465.123-.878.369-1.238.246-.364.595-.642 1.046-.834z"/><path d="m171.91 296.116c-.241 0-.421-.048-.54-.143-.114-.101-.171-.253-.171-.458 0-.297.438-.853 1.313-1.668l.198-.192c.132-.127.324-.31.574-.547 1.577-1.485 2.365-2.568 2.365-3.247 0-.487-.139-.882-.417-1.182-.278-.306-.638-.458-1.08-.458-.287 0-.562.059-.827.177-.26.119-.469.278-.629.479-.027.036-.07.098-.13.185-.168.305-.357.458-.567.458-.164 0-.28-.051-.349-.151-.068-.1-.102-.292-.102-.574 0-.164.016-.283.048-.356.032-.077.091-.159.177-.246.292-.282.652-.505 1.081-.67.432-.168.875-.252 1.326-.252.756 0 1.387.243 1.893.731.511.488.766 1.087.766 1.798 0 .893-.775 2.08-2.324 3.561-.397.369-.7.659-.91.868l-.84.807h3.124c.018-.196.07-.344.157-.444.091-.105.212-.157.362-.157.151 0 .269.05.356.15.086.1.13.237.13.41 0 .014-.003.039-.007.075-.005.032-.007.055-.007.069l-.055.526c-.013.141-.054.253-.123.335-.068.077-.157.116-.266.116zm12.346-4.129c-.246.315-.517.549-.814.704-.296.155-.622.233-.977.233-.72 0-1.333-.269-1.839-.807-.501-.542-.752-1.207-.752-1.996 0-.829.242-1.511.725-2.044.487-.538 1.109-.806 1.866-.806.893 0 1.613.36 2.16 1.08.547.715.82 1.665.82 2.85 0 1.563-.401 2.812-1.203 3.746-.797.93-1.866 1.395-3.206 1.395-.424 0-.706-.032-.848-.096-.136-.064-.205-.182-.205-.355 0-.292.272-.445.814-.458.36-.009.645-.035.854-.076.72-.132 1.304-.489 1.75-1.073.452-.583.736-1.349.855-2.297zm-.144-1.832c0-.565-.15-1.023-.451-1.374-.296-.355-.677-.533-1.141-.533-.443 0-.8.166-1.074.499-.273.333-.41.768-.41 1.306 0 .556.144 1.009.431 1.36.287.346.656.52 1.107.52.442 0 .809-.167 1.101-.499.291-.338.437-.764.437-1.279z"/><path d="m175.355 314.413c.534.146.946.413 1.238.8.296.383.444.852.444 1.408 0 .798-.282 1.452-.848 1.962-.565.506-1.296.759-2.194.759-.693 0-1.31-.132-1.852-.397-.538-.269-.807-.563-.807-.882 0-.136.048-.248.143-.334.101-.092.222-.137.363-.137.077 0 .358.116.841.348.487.233.941.349 1.36.349.542 0 .982-.155 1.319-.465.342-.31.513-.711.513-1.203 0-.406-.118-.747-.355-1.025-.233-.283-.554-.463-.964-.54-.123-.023-.285-.041-.486-.055-.382-.023-.574-.182-.574-.479 0-.268.187-.426.561-.471.145-.014.266-.03.362-.048.355-.055.643-.201.861-.438.219-.237.328-.524.328-.861 0-.433-.134-.786-.403-1.059-.269-.274-.611-.411-1.025-.411-.383 0-.777.119-1.183.356-.401.237-.652.355-.752.355-.127 0-.235-.041-.321-.123-.082-.082-.123-.184-.123-.307 0-.278.255-.554.765-.827.511-.278 1.076-.417 1.696-.417.711 0 1.301.216 1.77.649.474.428.711.957.711 1.586 0 .478-.114.873-.342 1.182-.223.31-.572.552-1.046.725zm7.342-3.165c-.524 0-.932.31-1.223.93-.292.62-.438 1.495-.438 2.625 0 1.135.146 2.014.438 2.638.291.62.699.93 1.223.93.529 0 .939-.31 1.231-.93.291-.624.437-1.503.437-2.638 0-1.13-.146-2.005-.437-2.625-.292-.62-.702-.93-1.231-.93zm0 8.094c-.857 0-1.538-.404-2.044-1.21-.501-.811-.752-1.921-.752-3.329 0-1.404.251-2.509.752-3.316.506-.811 1.187-1.216 2.044-1.216s1.538.405 2.044 1.216c.506.812.759 1.917.759 3.316s-.253 2.506-.759 3.322c-.506.811-1.187 1.217-2.044 1.217z"/><path d="m175.355 337.413c.534.146.946.413 1.238.8.296.383.444.852.444 1.408 0 .798-.282 1.452-.848 1.962-.565.506-1.296.759-2.194.759-.693 0-1.31-.132-1.852-.397-.538-.269-.807-.563-.807-.882 0-.136.048-.248.143-.334.101-.092.222-.137.363-.137.077 0 .358.116.841.348.487.233.941.349 1.36.349.542 0 .982-.155 1.319-.465.342-.31.513-.711.513-1.203 0-.406-.118-.747-.355-1.025-.233-.283-.554-.463-.964-.54-.123-.023-.285-.041-.486-.055-.382-.023-.574-.182-.574-.479 0-.268.187-.426.561-.471.145-.014.266-.03.362-.048.355-.055.643-.201.861-.438.219-.237.328-.524.328-.861 0-.433-.134-.786-.403-1.059-.269-.274-.611-.411-1.025-.411-.383 0-.777.119-1.183.356-.401.237-.652.355-.752.355-.127 0-.235-.041-.321-.123-.082-.082-.123-.184-.123-.307 0-.278.255-.554.765-.827.511-.278 1.076-.417 1.696-.417.711 0 1.301.216 1.77.649.474.428.711.957.711 1.586 0 .478-.114.873-.342 1.182-.223.31-.572.552-1.046.725zm5.708-2.632c-.059.009-.104.016-.136.021-.028.004-.053.007-.075.007-.142 0-.258-.039-.349-.117-.087-.082-.13-.189-.13-.321 0-.109.039-.205.116-.287.078-.082.189-.144.335-.185l2.03-.546c.051-.014.098-.023.144-.028.05-.009.1-.013.15-.013.087 0 .155.041.206.123.05.077.075.184.075.321v7.396h1.093c.406 0 .664.035.773.103.109.064.164.187.164.369 0 .164-.046.287-.137.369s-.228.123-.41.123h-4.088c-.182 0-.319-.041-.41-.123s-.137-.205-.137-.369c0-.182.055-.305.164-.369.11-.068.367-.103.773-.103h1.135v-6.678z"/></g><path d="m210.5 21.1162-.5 320.9998" opacity=".5" stroke="#abb8ff"/><path d="m232.5 21.1162-.5 320.9998" opacity=".5" stroke="#abb8ff"/><path d="m255.5 21.1162-.5 320.9998" opacity=".5" stroke="#abb8ff"/><path d="m279 53.1162v288.9998" opacity=".5" stroke="#abb8ff"/><circle cx="117.5" cy="181.616" fill="#abb8ff" r="8.5"/><path d="m.333333 182.116c0 1.473 1.193907 2.667 2.666667 2.667s2.66667-1.194 2.66667-2.667-1.19391-2.666-2.66667-2.666-2.666667 1.193-2.666667 2.666zm2.666667.5h115v-1h-115z" fill="#abb8ff"/></svg>