<svg fill="none" height="368" viewBox="0 0 552 368" width="552" xmlns="http://www.w3.org/2000/svg"><rect fill="#abb8ff" fill-opacity=".1" height="366" rx="9.5" stroke="#abb8ff" width="438" x=".5" y=".616211"/><rect fill="#020013" height="208" rx="9.5" stroke="#abb8ff" width="367" x="184.5" y="83.6162"/><g fill="#fff"><path d="m54.6553 35.7812c-.0593.0092-.1048.016-.1367.0206-.0274.0045-.0525.0068-.0752.0068-.1413 0-.2575-.0387-.3487-.1162-.0866-.082-.1299-.1891-.1299-.3213 0-.1094.0388-.2051.1163-.2871.0774-.082.1891-.1436.3349-.1846l2.0303-.5469c.0501-.0136.098-.0227.1435-.0273.0502-.0091.1003-.0137.1504-.0137.0866 0 .155.041.2051.1231.0501.0774.0752.1845.0752.3213v7.3964h1.0938c.4056 0 .663.0342.7724.1026.1094.0638.1641.1868.1641.3691 0 .1641-.0456.2871-.1367.3692-.0912.082-.2279.123-.4102.123h-4.0879c-.1823 0-.319-.041-.4101-.123-.0912-.0821-.1368-.2051-.1368-.3692 0-.1823.0547-.3053.1641-.3691.1094-.0684.3669-.1026.7725-.1026h1.1347v-6.6787zm8.3808 4.9834c0 .4831.1504.875.4512 1.1758.3053.3008.7087.4512 1.21.4512.5058 0 .9091-.1458 1.2099-.4375.3054-.2917.458-.679.458-1.1621 0-.474-.1549-.8568-.4648-1.1484-.3099-.2963-.7109-.4444-1.2031-.4444-.4877 0-.8864.1459-1.1963.4375-.3099.2871-.4649.6631-.4649 1.1279zm.0684-4.0742c0 .4512.1481.8203.4443 1.1075.3008.2871.6836.4306 1.1485.4306.4694 0 .8522-.1435 1.1484-.4306.3008-.2917.4512-.6654.4512-1.1211 0-.4375-.1504-.7976-.4512-1.0801-.2962-.2871-.679-.4307-1.1484-.4307s-.8522.1436-1.1485.4307c-.2962.2825-.4443.6471-.4443 1.0937zm.2256 2.003c-.4421-.2188-.7748-.4945-.9981-.8272-.2233-.3372-.3349-.7292-.3349-1.1758 0-.7064.2529-1.2851.7588-1.7363.5058-.4557 1.153-.6836 1.9414-.6836.7747 0 1.4196.2279 1.9345.6836.515.4557.7725 1.0117.7725 1.668 0 .4876-.1094.9-.3281 1.2373-.2188.3372-.5583.6152-1.0186.834.4603.1868.8135.4625 1.0596.8271.2461.36.3691.7839.3691 1.2715 0 .7519-.2597 1.3649-.7793 1.8389-.5149.4739-1.1849.7109-2.0097.7109-.8249 0-1.4948-.2393-2.0098-.7178s-.7725-1.0983-.7725-1.8594c0-.4648.1231-.8772.3692-1.2373.2461-.3645.5947-.6425 1.0459-.8339z"/><path d="m54.6553 58.7812c-.0593.0092-.1048.016-.1367.0206-.0274.0045-.0525.0068-.0752.0068-.1413 0-.2575-.0387-.3487-.1162-.0866-.082-.1299-.1891-.1299-.3213 0-.1094.0388-.2051.1163-.2871.0774-.082.1891-.1436.3349-.1846l2.0303-.5469c.0501-.0136.098-.0227.1435-.0273.0502-.0091.1003-.0137.1504-.0137.0866 0 .155.041.2051.1231.0501.0774.0752.1845.0752.3213v7.3964h1.0938c.4056 0 .663.0342.7724.1026.1094.0638.1641.1868.1641.3691 0 .1641-.0456.2871-.1367.3692-.0912.082-.2279.123-.4102.123h-4.0879c-.1823 0-.319-.041-.4101-.123-.0912-.0821-.1368-.2051-.1368-.3692 0-.1823.0547-.3053.1641-.3691.1094-.0684.3669-.1026.7725-.1026h1.1347v-6.6787zm11.6006 3.2061c-.2461.3145-.5173.5492-.8135.7041-.2962.155-.6221.2324-.9776.2324-.72 0-1.333-.2689-1.8388-.8066-.5013-.5423-.752-1.2077-.752-1.9961 0-.8294.2416-1.5107.7246-2.044.4877-.5377 1.1097-.8066 1.8662-.8066.8933 0 1.6133.36 2.1602 1.0801.5469.7155.8203 1.6657.8203 2.8506 0 1.5631-.401 2.8118-1.2031 3.7461-.7975.9297-1.8662 1.3945-3.2061 1.3945-.4238 0-.7063-.0319-.8476-.0957-.1367-.0638-.2051-.1823-.2051-.3555 0-.2916.2712-.4443.8135-.458.36-.0091.6448-.0342.8545-.0752.72-.1321 1.3034-.4899 1.75-1.0732.4511-.5834.736-1.349.8545-2.2969zm-.1436-1.832c0-.5651-.1504-1.0231-.4512-1.3741-.2962-.3554-.6767-.5332-1.1416-.5332-.442 0-.7998.1664-1.0732.4991s-.4102.7679-.4102 1.3056c0 .556.1436 1.0095.4307 1.3604.2871.3463.6562.5195 1.1074.5195.4421 0 .8089-.1663 1.1006-.499.2917-.3372.4375-.7634.4375-1.2783z"/><path d="m53.9102 89.1162c-.2416 0-.4216-.0478-.5401-.1435-.1139-.1003-.1709-.253-.1709-.4581 0-.2962.4375-.8522 1.3125-1.6679l.1983-.1914c.1321-.1276.3235-.3099.5742-.5469 1.5768-1.4857 2.3652-2.568 2.3652-3.2471 0-.4876-.139-.8818-.417-1.1826-.278-.3053-.638-.458-1.0801-.458-.2871 0-.5628.0592-.8271.1777-.2598.1185-.4694.278-.6289.4786-.0274.0364-.0706.0979-.1299.1845-.1686.3054-.3577.458-.5674.458-.164 0-.2802-.0501-.3486-.1504-.0684-.1002-.1025-.2916-.1025-.5742 0-.164.0159-.2825.0478-.3554.0319-.0775.0911-.1596.1777-.2461.2917-.2826.6517-.5059 1.0801-.67.433-.1686.875-.2529 1.3262-.2529.7565 0 1.3877.2438 1.8935.7315.5105.4876.7657 1.0869.7657 1.7978 0 .8932-.7748 2.0804-2.3243 3.5615-.3964.3692-.6995.6586-.9091.8682l-.8409.8066h3.1241c.0182-.1959.0706-.344.1572-.4443.0911-.1048.2119-.1572.3623-.1572s.2689.0501.3555.1504c.0866.1002.1299.2369.1299.4101 0 .0137-.0023.0388-.0069.0752-.0045.0319-.0068.0547-.0068.0684l-.0547.5263c-.0137.1413-.0547.253-.1231.335-.0683.0775-.1572.1162-.2666.1162zm10.7871-7.8682c-.5241 0-.932.3099-1.2237.9297-.2916.6198-.4375 1.4948-.4375 2.625 0 1.1348.1459 2.0144.4375 2.6387.2917.6198.6996.9297 1.2237.9297.5286 0 .9388-.3099 1.2304-.9297.2917-.6243.4375-1.5039.4375-2.6387 0-1.1302-.1458-2.0052-.4375-2.625-.2916-.6198-.7018-.9297-1.2304-.9297zm0 8.0938c-.8568 0-1.5381-.4033-2.044-1.21-.5013-.8112-.7519-1.9209-.7519-3.3291 0-1.4036.2506-2.5088.7519-3.3154.5059-.8112 1.1872-1.2168 2.044-1.2168.8567 0 1.5381.4056 2.0439 1.2168.5059.8112.7588 1.9163.7588 3.3154s-.2529 2.5065-.7588 3.3223c-.5058.8112-1.1872 1.2168-2.0439 1.2168z"/><path d="m53.9102 112.116c-.2416 0-.4216-.048-.5401-.143-.1139-.101-.1709-.253-.1709-.458 0-.297.4375-.853 1.3125-1.668l.1983-.192c.1321-.127.3235-.31.5742-.547 1.5768-1.485 2.3652-2.568 2.3652-3.247 0-.487-.139-.882-.417-1.182-.278-.306-.638-.458-1.0801-.458-.2871 0-.5628.059-.8271.177-.2598.119-.4694.278-.6289.479-.0274.036-.0706.098-.1299.185-.1686.305-.3577.458-.5674.458-.164 0-.2802-.051-.3486-.151s-.1025-.292-.1025-.574c0-.164.0159-.283.0478-.356.0319-.077.0911-.159.1777-.246.2917-.282.6517-.505 1.0801-.67.433-.168.875-.252 1.3262-.252.7565 0 1.3877.243 1.8935.731.5105.488.7657 1.087.7657 1.798 0 .893-.7748 2.08-2.3243 3.561-.3964.369-.6995.659-.9091.868l-.8409.807h3.1241c.0182-.196.0706-.344.1572-.444.0911-.105.2119-.157.3623-.157s.2689.05.3555.15.1299.237.1299.41c0 .014-.0023.039-.0069.075-.0045.032-.0068.055-.0068.069l-.0547.526c-.0137.141-.0547.253-.1231.335-.0683.077-.1572.116-.2666.116zm9.1533-7.335c-.0593.009-.1048.016-.1367.021-.0274.004-.0525.007-.0752.007-.1413 0-.2575-.039-.3487-.117-.0866-.082-.1299-.189-.1299-.321 0-.109.0388-.205.1163-.287.0774-.082.1891-.144.3349-.185l2.0303-.546c.0501-.014.098-.023.1435-.028.0502-.009.1003-.013.1504-.013.0866 0 .155.041.2051.123.0501.077.0752.184.0752.321v7.396h1.0938c.4056 0 .663.035.7724.103.1094.064.1641.187.1641.369 0 .164-.0456.287-.1367.369-.0912.082-.2279.123-.4102.123h-4.0879c-.1823 0-.319-.041-.4101-.123-.0912-.082-.1368-.205-.1368-.369 0-.182.0547-.305.1641-.369.1094-.068.3669-.103.7725-.103h1.1347v-6.678z"/><path d="m53.9102 135.116c-.2416 0-.4216-.048-.5401-.143-.1139-.101-.1709-.253-.1709-.458 0-.297.4375-.853 1.3125-1.668l.1983-.192c.1321-.127.3235-.31.5742-.547 1.5768-1.485 2.3652-2.568 2.3652-3.247 0-.487-.139-.882-.417-1.182-.278-.306-.638-.458-1.0801-.458-.2871 0-.5628.059-.8271.177-.2598.119-.4694.278-.6289.479-.0274.036-.0706.098-.1299.185-.1686.305-.3577.458-.5674.458-.164 0-.2802-.051-.3486-.151s-.1025-.292-.1025-.574c0-.164.0159-.283.0478-.356.0319-.077.0911-.159.1777-.246.2917-.282.6517-.505 1.0801-.67.433-.168.875-.252 1.3262-.252.7565 0 1.3877.243 1.8935.731.5105.488.7657 1.087.7657 1.798 0 .893-.7748 2.08-2.3243 3.561-.3964.369-.6995.659-.9091.868l-.8409.807h3.1241c.0182-.196.0706-.344.1572-.444.0911-.105.2119-.157.3623-.157s.2689.05.3555.15.1299.237.1299.41c0 .014-.0023.039-.0069.075-.0045.032-.0068.055-.0068.069l-.0547.526c-.0137.141-.0547.253-.1231.335-.0683.077-.1572.116-.2666.116zm8.4082 0c-.2416 0-.4216-.048-.5401-.143-.1139-.101-.1709-.253-.1709-.458 0-.297.4375-.853 1.3125-1.668l.1983-.192c.1321-.127.3235-.31.5742-.547 1.5768-1.485 2.3652-2.568 2.3652-3.247 0-.487-.139-.882-.417-1.182-.278-.306-.638-.458-1.0801-.458-.2871 0-.5628.059-.8271.177-.2598.119-.4694.278-.6289.479-.0274.036-.0706.098-.1299.185-.1686.305-.3577.458-.5674.458-.164 0-.2802-.051-.3486-.151s-.1025-.292-.1025-.574c0-.164.0159-.283.0478-.356.0319-.077.0912-.159.1777-.246.2917-.282.6517-.505 1.0801-.67.433-.168.875-.252 1.3262-.252.7565 0 1.3877.243 1.8935.731.5105.488.7657 1.087.7657 1.798 0 .893-.7748 2.08-2.3242 3.561-.3965.369-.6996.659-.9092.868l-.8408.807h3.124c.0182-.196.0706-.344.1572-.444.0911-.105.2119-.157.3623-.157s.2689.05.3555.15.1299.237.1299.41c0 .014-.0023.039-.0069.075-.0045.032-.0068.055-.0068.069l-.0547.526c-.0137.141-.0547.253-.123.335-.0684.077-.1573.116-.2666.116z"/><path d="m53.9102 158.116c-.2416 0-.4216-.048-.5401-.143-.1139-.101-.1709-.253-.1709-.458 0-.297.4375-.853 1.3125-1.668l.1983-.192c.1321-.127.3235-.31.5742-.547 1.5768-1.485 2.3652-2.568 2.3652-3.247 0-.487-.139-.882-.417-1.182-.278-.306-.638-.458-1.0801-.458-.2871 0-.5628.059-.8271.177-.2598.119-.4694.278-.6289.479-.0274.036-.0706.098-.1299.185-.1686.305-.3577.458-.5674.458-.164 0-.2802-.051-.3486-.151s-.1025-.292-.1025-.574c0-.164.0159-.283.0478-.356.0319-.077.0911-.159.1777-.246.2917-.282.6517-.505 1.0801-.67.433-.168.875-.252 1.3262-.252.7565 0 1.3877.243 1.8935.731.5105.488.7657 1.087.7657 1.798 0 .893-.7748 2.08-2.3243 3.561-.3964.369-.6995.659-.9091.868l-.8409.807h3.1241c.0182-.196.0706-.344.1572-.444.0911-.105.2119-.157.3623-.157s.2689.05.3555.15.1299.237.1299.41c0 .014-.0023.039-.0069.075-.0045.032-.0068.055-.0068.069l-.0547.526c-.0137.141-.0547.253-.1231.335-.0683.077-.1572.116-.2666.116zm11.8535-4.703c.5332.146.9456.413 1.2373.8.2962.383.4443.852.4443 1.408 0 .798-.2825 1.452-.8476 1.962-.5651.506-1.2966.759-2.1944.759-.6927 0-1.3102-.132-1.8525-.397-.5378-.269-.8067-.563-.8067-.882 0-.136.0479-.248.1436-.334.1003-.092.221-.137.3623-.137.0775 0 .3577.116.8408.348.4877.233.9411.349 1.3604.349.5423 0 .9821-.155 1.3193-.465.3418-.31.5127-.711.5127-1.203 0-.406-.1185-.747-.3555-1.025-.2324-.283-.5537-.463-.9638-.54-.1231-.023-.2849-.041-.4854-.055-.3828-.023-.5742-.182-.5742-.479 0-.268.1868-.426.5605-.471.1459-.014.2666-.03.3623-.048.3555-.055.6426-.201.8614-.438.2187-.237.3281-.524.3281-.861 0-.433-.1344-.786-.4033-1.059-.2689-.274-.6107-.411-1.0254-.411-.3828 0-.777.119-1.1826.356-.4011.237-.6517.355-.752.355-.1276 0-.2347-.041-.3213-.123-.082-.082-.123-.184-.123-.307 0-.278.2552-.554.7656-.827.5104-.278 1.0755-.417 1.6953-.417.711 0 1.3011.216 1.7705.649.474.428.711.957.711 1.586 0 .478-.114.873-.3418 1.182-.2233.31-.572.552-1.0459.725z"/><path d="m53.9102 181.116c-.2416 0-.4216-.048-.5401-.143-.1139-.101-.1709-.253-.1709-.458 0-.297.4375-.853 1.3125-1.668l.1983-.192c.1321-.127.3235-.31.5742-.547 1.5768-1.485 2.3652-2.568 2.3652-3.247 0-.487-.139-.882-.417-1.182-.278-.306-.638-.458-1.0801-.458-.2871 0-.5628.059-.8271.177-.2598.119-.4694.278-.6289.479-.0274.036-.0706.098-.1299.185-.1686.305-.3577.458-.5674.458-.164 0-.2802-.051-.3486-.151s-.1025-.292-.1025-.574c0-.164.0159-.283.0478-.356.0319-.077.0911-.159.1777-.246.2917-.282.6517-.505 1.0801-.67.433-.168.875-.252 1.3262-.252.7565 0 1.3877.243 1.8935.731.5105.488.7657 1.087.7657 1.798 0 .893-.7748 2.08-2.3243 3.561-.3964.369-.6995.659-.9091.868l-.8409.807h3.1241c.0182-.196.0706-.344.1572-.444.0911-.105.2119-.157.3623-.157s.2689.05.3555.15.1299.237.1299.41c0 .014-.0023.039-.0069.075-.0045.032-.0068.055-.0068.069l-.0547.526c-.0137.141-.0547.253-.1231.335-.0683.077-.1572.116-.2666.116zm11.3613-3.151v-4.635l-2.5908 4.635zm-.7383 3.151c-.2187 0-.3669-.034-.4443-.102-.0775-.073-.1162-.203-.1162-.39 0-.164.0387-.283.1162-.355.082-.078.2119-.117.3896-.117h.793v-1.148h-3.1924c-.1139 0-.2028-.037-.2666-.109-.0638-.073-.0957-.178-.0957-.315v-.472c0-.182.0661-.373.1982-.574.0228-.036.0411-.066.0547-.089l2.8848-4.894c.0638-.114.1162-.187.1572-.219s.0957-.048.1641-.048c.0273 0 .0752.005.1435.014.0183.004.0365.009.0547.014l.6973.109c.0638.009.1139.045.1504.109.041.06.0615.139.0615.24v5.195h.3486c.1003 0 .1778-.039.2325-.116.0546-.082.1162-.123.1845-.123.0912 0 .1686.034.2324.102.0639.068.0958.153.0958.253 0 .041-.0023.08-.0069.116-.0045.032-.0137.066-.0273.103l-.0547.28c-.0319.164-.0798.276-.1436.335-.0592.059-.1549.089-.2871.089h-.5742v1.148h.2393c.2916 0 .4921.037.6015.11.1094.068.1641.189.1641.362 0 .164-.0456.287-.1367.369-.0912.082-.2279.123-.4102.123z"/><path d="m53.9102 204.116c-.2416 0-.4216-.048-.5401-.143-.1139-.101-.1709-.253-.1709-.458 0-.297.4375-.853 1.3125-1.668l.1983-.192c.1321-.127.3235-.31.5742-.547 1.5768-1.485 2.3652-2.568 2.3652-3.247 0-.487-.139-.882-.417-1.182-.278-.306-.638-.458-1.0801-.458-.2871 0-.5628.059-.8271.177-.2598.119-.4694.278-.6289.479-.0274.036-.0706.098-.1299.185-.1686.305-.3577.458-.5674.458-.164 0-.2802-.051-.3486-.151s-.1025-.292-.1025-.574c0-.164.0159-.283.0478-.356.0319-.077.0911-.159.1777-.246.2917-.282.6517-.505 1.0801-.67.433-.168.875-.252 1.3262-.252.7565 0 1.3877.243 1.8935.731.5105.488.7657 1.087.7657 1.798 0 .893-.7748 2.08-2.3243 3.561-.3964.369-.6995.659-.9091.868l-.8409.807h3.1241c.0182-.196.0706-.344.1572-.444.0911-.105.2119-.157.3623-.157s.2689.05.3555.15.1299.237.1299.41c0 .014-.0023.039-.0069.075-.0045.032-.0068.055-.0068.069l-.0547.526c-.0137.141-.0547.253-.1231.335-.0683.077-.1572.116-.2666.116zm9.249-5.345c.3008-.11.5788-.19.834-.24.2552-.054.499-.082.7314-.082.7975 0 1.4606.278 1.9893.834.5332.552.7998 1.238.7998 2.058 0 .87-.294 1.588-.8819 2.153s-1.3398.848-2.2558.848c-.7656 0-1.4082-.103-1.9278-.308-.5149-.209-.7724-.462-.7724-.759 0-.118.0478-.223.1435-.314.0957-.096.2074-.144.335-.144.0501 0 .3167.089.7998.267.4876.173.9388.26 1.3535.26.6107 0 1.1052-.183 1.4834-.547.3828-.369.5742-.843.5742-1.422 0-.565-.18-1.035-.54-1.408-.36-.378-.8135-.568-1.3604-.568-.4101 0-.8134.103-1.2099.308-.3919.205-.6289.308-.711.308-.1367 0-.2347-.05-.2939-.151-.0547-.1-.082-.282-.082-.547v-3.404c0-.15.0455-.257.1367-.321.0957-.069.2598-.103.4922-.103h3.459c.2187 0 .3828.046.4921.137.1094.087.1641.219.1641.396 0 .169-.057.301-.1709.397-.1139.091-.2757.137-.4853.137h-3.0967z"/><path d="m53.9102 227.116c-.2416 0-.4216-.048-.5401-.143-.1139-.101-.1709-.253-.1709-.458 0-.297.4375-.853 1.3125-1.668l.1983-.192c.1321-.127.3235-.31.5742-.547 1.5768-1.485 2.3652-2.568 2.3652-3.247 0-.487-.139-.882-.417-1.182-.278-.306-.638-.458-1.0801-.458-.2871 0-.5628.059-.8271.177-.2598.119-.4694.278-.6289.479-.0274.036-.0706.098-.1299.185-.1686.305-.3577.458-.5674.458-.164 0-.2802-.051-.3486-.151s-.1025-.292-.1025-.574c0-.164.0159-.283.0478-.356.0319-.077.0911-.159.1777-.246.2917-.282.6517-.505 1.0801-.67.433-.168.875-.252 1.3262-.252.7565 0 1.3877.243 1.8935.731.5105.488.7657 1.087.7657 1.798 0 .893-.7748 2.08-2.3243 3.561-.3964.369-.6995.659-.9091.868l-.8409.807h3.1241c.0182-.196.0706-.344.1572-.444.0911-.105.2119-.157.3623-.157s.2689.05.3555.15.1299.237.1299.41c0 .014-.0023.039-.0069.075-.0045.032-.0068.055-.0068.069l-.0547.526c-.0137.141-.0547.253-.1231.335-.0683.077-.1572.116-.2666.116zm9.3173-2.659c0 .561.1482 1.019.4444 1.374.2962.351.6767.526 1.1416.526.4375 0 .7952-.166 1.0732-.499.2826-.332.4238-.768.4238-1.305 0-.556-.1458-1.007-.4375-1.354-.2871-.346-.6585-.519-1.1142-.519-.4421 0-.8089.166-1.1006.499-.2871.332-.4307.759-.4307 1.278zm-.1504-1.818c.2461-.319.5196-.559.8204-.718.3007-.16.6289-.239.9843-.239.7201 0 1.3308.271 1.8321.813.5058.542.7588 1.21.7588 2.003 0 .829-.2439 1.511-.7315 2.044s-1.112.8-1.873.8c-.8978 0-1.6179-.356-2.1602-1.067-.5378-.715-.8066-1.668-.8066-2.857 0-1.55.3987-2.794 1.1963-3.732.7975-.944 1.8502-1.415 3.1582-1.415.442 0 .7337.031.875.095.1412.064.2119.185.2119.363 0 .291-.2689.442-.8067.451-.3554.004-.6403.027-.8545.068-.72.137-1.3056.499-1.7568 1.087-.4466.583-.7292 1.351-.8477 2.304z"/><path d="m53.9102 250.116c-.2416 0-.4216-.048-.5401-.143-.1139-.101-.1709-.253-.1709-.458 0-.297.4375-.853 1.3125-1.668l.1983-.192c.1321-.127.3235-.31.5742-.547 1.5768-1.485 2.3652-2.568 2.3652-3.247 0-.487-.139-.882-.417-1.182-.278-.306-.638-.458-1.0801-.458-.2871 0-.5628.059-.8271.177-.2598.119-.4694.278-.6289.479-.0274.036-.0706.098-.1299.185-.1686.305-.3577.458-.5674.458-.164 0-.2802-.051-.3486-.151s-.1025-.292-.1025-.574c0-.164.0159-.283.0478-.356.0319-.077.0911-.159.1777-.246.2917-.282.6517-.505 1.0801-.67.433-.168.875-.252 1.3262-.252.7565 0 1.3877.243 1.8935.731.5105.488.7657 1.087.7657 1.798 0 .893-.7748 2.08-2.3243 3.561-.3964.369-.6995.659-.9091.868l-.8409.807h3.1241c.0182-.196.0706-.344.1572-.444.0911-.105.2119-.157.3623-.157s.2689.05.3555.15.1299.237.1299.41c0 .014-.0023.039-.0069.075-.0045.032-.0068.055-.0068.069l-.0547.526c-.0137.141-.0547.253-.1231.335-.0683.077-.1572.116-.2666.116zm10.8896-.137c-.0365.11-.0706.181-.1025.212-.0319.032-.0912.048-.1778.048h-.1162-.4853c-.0912 0-.1641-.018-.2188-.054-.0501-.037-.0752-.087-.0752-.151 0-.036.0023-.07.0069-.102.0091-.037.0205-.078.0341-.123l2.6866-7.294h-3.4727c-.0137.214-.0615.373-.1435.478-.0821.1-.2028.151-.3624.151-.1549 0-.2711-.039-.3486-.117-.0729-.077-.1094-.198-.1094-.362 0-.046 0-.08 0-.103.0046-.022.0092-.043.0137-.061l.0684-.615c.0136-.128.0592-.226.1367-.294.082-.069.1914-.103.3281-.103h4.5186c.1321 0 .2278.03.2871.089.0638.055.0957.144.0957.267v.232c0 .055-.0114.128-.0342.219-.0228.086-.0592.205-.1094.355z"/><path d="m53.9102 273.116c-.2416 0-.4216-.048-.5401-.143-.1139-.101-.1709-.253-.1709-.458 0-.297.4375-.853 1.3125-1.668l.1983-.192c.1321-.127.3235-.31.5742-.547 1.5768-1.485 2.3652-2.568 2.3652-3.247 0-.487-.139-.882-.417-1.182-.278-.306-.638-.458-1.0801-.458-.2871 0-.5628.059-.8271.177-.2598.119-.4694.278-.6289.479-.0274.036-.0706.098-.1299.185-.1686.305-.3577.458-.5674.458-.164 0-.2802-.051-.3486-.151s-.1025-.292-.1025-.574c0-.164.0159-.283.0478-.356.0319-.077.0911-.159.1777-.246.2917-.282.6517-.505 1.0801-.67.433-.168.875-.252 1.3262-.252.7565 0 1.3877.243 1.8935.731.5105.488.7657 1.087.7657 1.798 0 .893-.7748 2.08-2.3243 3.561-.3964.369-.6995.659-.9091.868l-.8409.807h3.1241c.0182-.196.0706-.344.1572-.444.0911-.105.2119-.157.3623-.157s.2689.05.3555.15.1299.237.1299.41c0 .014-.0023.039-.0069.075-.0045.032-.0068.055-.0068.069l-.0547.526c-.0137.141-.0547.253-.1231.335-.0683.077-.1572.116-.2666.116zm9.1259-2.351c0 .483.1504.875.4512 1.175.3053.301.7087.452 1.21.452.5058 0 .9091-.146 1.2099-.438.3054-.292.458-.679.458-1.162 0-.474-.1549-.857-.4648-1.148-.3099-.297-.7109-.445-1.2031-.445-.4877 0-.8864.146-1.1963.438-.3099.287-.4649.663-.4649 1.128zm.0684-4.075c0 .452.1481.821.4443 1.108.3008.287.6836.431 1.1485.431.4694 0 .8522-.144 1.1484-.431.3008-.292.4512-.666.4512-1.121 0-.438-.1504-.798-.4512-1.08-.2962-.287-.679-.431-1.1484-.431s-.8522.144-1.1485.431c-.2962.282-.4443.647-.4443 1.093zm.2256 2.003c-.4421-.218-.7748-.494-.9981-.827-.2233-.337-.3349-.729-.3349-1.176 0-.706.2529-1.285.7588-1.736.5058-.456 1.153-.683 1.9414-.683.7747 0 1.4196.227 1.9345.683.515.456.7725 1.012.7725 1.668 0 .488-.1094.9-.3281 1.237-.2188.338-.5583.616-1.0186.834.4603.187.8135.463 1.0596.828.2461.36.3691.783.3691 1.271 0 .752-.2597 1.365-.7793 1.839-.5149.474-1.1849.711-2.0097.711-.8249 0-1.4948-.239-2.0098-.718-.515-.478-.7725-1.098-.7725-1.859 0-.465.1231-.878.3692-1.238.2461-.364.5947-.642 1.0459-.834z"/><path d="m53.9102 296.116c-.2416 0-.4216-.048-.5401-.143-.1139-.101-.1709-.253-.1709-.458 0-.297.4375-.853 1.3125-1.668l.1983-.192c.1321-.127.3235-.31.5742-.547 1.5768-1.485 2.3652-2.568 2.3652-3.247 0-.487-.139-.882-.417-1.182-.278-.306-.638-.458-1.0801-.458-.2871 0-.5628.059-.8271.177-.2598.119-.4694.278-.6289.479-.0274.036-.0706.098-.1299.185-.1686.305-.3577.458-.5674.458-.164 0-.2802-.051-.3486-.151s-.1025-.292-.1025-.574c0-.164.0159-.283.0478-.356.0319-.077.0911-.159.1777-.246.2917-.282.6517-.505 1.0801-.67.433-.168.875-.252 1.3262-.252.7565 0 1.3877.243 1.8935.731.5105.488.7657 1.087.7657 1.798 0 .893-.7748 2.08-2.3243 3.561-.3964.369-.6995.659-.9091.868l-.8409.807h3.1241c.0182-.196.0706-.344.1572-.444.0911-.105.2119-.157.3623-.157s.2689.05.3555.15.1299.237.1299.41c0 .014-.0023.039-.0069.075-.0045.032-.0068.055-.0068.069l-.0547.526c-.0137.141-.0547.253-.1231.335-.0683.077-.1572.116-.2666.116zm12.3457-4.129c-.2461.315-.5173.549-.8135.704s-.6221.233-.9776.233c-.72 0-1.333-.269-1.8388-.807-.5013-.542-.752-1.207-.752-1.996 0-.829.2416-1.511.7246-2.044.4877-.538 1.1097-.806 1.8662-.806.8933 0 1.6133.36 2.1602 1.08.5469.715.8203 1.665.8203 2.85 0 1.563-.401 2.812-1.2031 3.746-.7975.93-1.8662 1.395-3.2061 1.395-.4238 0-.7063-.032-.8476-.096-.1367-.064-.2051-.182-.2051-.355 0-.292.2712-.445.8135-.458.36-.009.6448-.035.8545-.076.72-.132 1.3034-.489 1.75-1.073.4511-.583.736-1.349.8545-2.297zm-.1436-1.832c0-.565-.1504-1.023-.4512-1.374-.2962-.355-.6767-.533-1.1416-.533-.442 0-.7998.166-1.0732.499s-.4102.768-.4102 1.306c0 .556.1436 1.009.4307 1.36.2871.346.6562.52 1.1074.52.4421 0 .8089-.167 1.1006-.499.2917-.338.4375-.764.4375-1.279z"/><path d="m57.3555 314.413c.5332.146.9456.413 1.2373.8.2962.383.4443.852.4443 1.408 0 .798-.2825 1.452-.8476 1.962-.5652.506-1.2966.759-2.1944.759-.6927 0-1.3102-.132-1.8525-.397-.5378-.269-.8067-.563-.8067-.882 0-.136.0479-.248.1436-.334.1003-.092.221-.137.3623-.137.0775 0 .3577.116.8408.348.4876.233.9411.349 1.3604.349.5423 0 .9821-.155 1.3193-.465.3418-.31.5127-.711.5127-1.203 0-.406-.1185-.747-.3555-1.025-.2324-.283-.5537-.463-.9638-.54-.1231-.023-.2849-.041-.4854-.055-.3828-.023-.5742-.182-.5742-.479 0-.268.1868-.426.5605-.471.1459-.014.2666-.03.3623-.048.3555-.055.6426-.201.8614-.438.2187-.237.3281-.524.3281-.861 0-.433-.1344-.786-.4033-1.059-.2689-.274-.6107-.411-1.0254-.411-.3828 0-.777.119-1.1826.356-.4011.237-.6517.355-.752.355-.1276 0-.2347-.041-.3213-.123-.082-.082-.123-.184-.123-.307 0-.278.2552-.554.7656-.827.5104-.278 1.0755-.417 1.6953-.417.711 0 1.3011.216 1.7705.649.474.428.711.957.711 1.586 0 .478-.114.873-.3418 1.182-.2233.31-.572.552-1.0459.725zm7.3418-3.165c-.5241 0-.932.31-1.2237.93-.2916.62-.4375 1.495-.4375 2.625 0 1.135.1459 2.014.4375 2.638.2917.62.6996.93 1.2237.93.5286 0 .9388-.31 1.2304-.93.2917-.624.4375-1.503.4375-2.638 0-1.13-.1458-2.005-.4375-2.625-.2916-.62-.7018-.93-1.2304-.93zm0 8.094c-.8568 0-1.5381-.404-2.044-1.21-.5013-.811-.7519-1.921-.7519-3.329 0-1.404.2506-2.509.7519-3.316.5059-.811 1.1872-1.216 2.044-1.216.8567 0 1.5381.405 2.0439 1.216.5059.812.7588 1.917.7588 3.316s-.2529 2.506-.7588 3.322c-.5058.811-1.1872 1.217-2.0439 1.217z"/><path d="m57.3555 337.413c.5332.146.9456.413 1.2373.8.2962.383.4443.852.4443 1.408 0 .798-.2825 1.452-.8476 1.962-.5652.506-1.2966.759-2.1944.759-.6927 0-1.3102-.132-1.8525-.397-.5378-.269-.8067-.563-.8067-.882 0-.136.0479-.248.1436-.334.1003-.092.221-.137.3623-.137.0775 0 .3577.116.8408.348.4876.233.9411.349 1.3604.349.5423 0 .9821-.155 1.3193-.465.3418-.31.5127-.711.5127-1.203 0-.406-.1185-.747-.3555-1.025-.2324-.283-.5537-.463-.9638-.54-.1231-.023-.2849-.041-.4854-.055-.3828-.023-.5742-.182-.5742-.479 0-.268.1868-.426.5605-.471.1459-.014.2666-.03.3623-.048.3555-.055.6426-.201.8614-.438.2187-.237.3281-.524.3281-.861 0-.433-.1344-.786-.4033-1.059-.2689-.274-.6107-.411-1.0254-.411-.3828 0-.777.119-1.1826.356-.4011.237-.6517.355-.752.355-.1276 0-.2347-.041-.3213-.123-.082-.082-.123-.184-.123-.307 0-.278.2552-.554.7656-.827.5104-.278 1.0755-.417 1.6953-.417.711 0 1.3011.216 1.7705.649.474.428.711.957.711 1.586 0 .478-.114.873-.3418 1.182-.2233.31-.572.552-1.0459.725zm5.708-2.632c-.0593.009-.1048.016-.1367.021-.0274.004-.0525.007-.0752.007-.1413 0-.2575-.039-.3487-.117-.0866-.082-.1299-.189-.1299-.321 0-.109.0388-.205.1163-.287.0774-.082.1891-.144.3349-.185l2.0303-.546c.0501-.014.098-.023.1435-.028.0502-.009.1003-.013.1504-.013.0866 0 .155.041.2051.123.0501.077.0752.184.0752.321v7.396h1.0938c.4056 0 .663.035.7724.103.1094.064.1641.187.1641.369 0 .164-.0456.287-.1367.369-.0912.082-.2279.123-.4102.123h-4.0879c-.1823 0-.319-.041-.4101-.123-.0912-.082-.1368-.205-.1368-.369 0-.182.0547-.305.1641-.369.1094-.068.3669-.103.7725-.103h1.1347v-6.678z"/></g><path d="m92.5 21.1162-.5 320.9998" opacity=".5" stroke="#abb8ff"/><path d="m114.5 21.1162-.5 320.9998" opacity=".5" stroke="#abb8ff"/><path d="m137.5 21.1162-.5 320.9998" opacity=".5" stroke="#abb8ff"/><path d="m161 53.1162v288.9998" opacity=".5" stroke="#abb8ff"/></svg>