<svg fill="none" height="82" viewBox="0 0 76 82" width="76" xmlns="http://www.w3.org/2000/svg"><rect fill="#abb8ff" height="57.8973" opacity=".3" rx="2" width="45.379" x="11.9534" y="12.0695"/><rect fill="#abb8ff" height="57.8973" opacity=".3" rx="2" width="45.379" x="1" y="23.0233"/><rect fill="#020013" height="57.8973" rx="2" width="45.379" x="22.9072" y="1.11609"/><g stroke-linecap="round"><path d="m68.0906 33.3899v19.8191c0 2.8284 0 4.2426-.8787 5.1213s-2.2929.8787-5.1213.8787h-33.1834c-2.8284 0-4.2426 0-5.1213-.8787s-.8787-2.2929-.8787-5.1213v-46.09291c0-2.82843 0-4.24264.8787-5.12132s2.2929-.87868 5.1213-.87868h16.5917" stroke="#abb8ff"/><path d="m57.1368 59.9913v4.1711c0 2.8285 0 4.2427-.8787 5.1214-.8786.8786-2.2929.8786-5.1213.8786h-33.1834c-2.8284 0-4.2426 0-5.1213-.8786-.8787-.8787-.8787-2.2929-.8787-5.1214v-46.0929c0-2.8284 0-4.2426.8787-5.1213s2.2929-.8787 5.1213-.8787h4.0734" stroke="#abb8ff" stroke-dasharray="2 2"/><path d="m46.1834 59.9915v15.1247c0 2.8285 0 4.2427-.8787 5.1213-.8787.8787-2.2929.8787-5.1213.8787h-33.1834c-2.82843 0-4.24264 0-5.12132-.8787-.87868-.8786-.87868-2.2928-.87868-5.1213v-46.0929c0-2.8284 0-4.2426.87868-5.1213s2.29289-.8787 5.12132-.8787h15.9071" stroke="#abb8ff" stroke-dasharray="2 2"/><path d="m64.863 1.11609v19.36431" stroke="#ea4040"/><path d="m74.5453 10.7984h-19.3643" stroke="#ea4040"/></g><ellipse cx="46.379" cy="23.023" fill="#abb8ff" fill-opacity=".5" rx="10.9535" ry="4.69438" stroke="#abb8ff"/><path d="m35.4254 32.4119v6.2592c0 2.5926 4.9041 4.6944 10.9535 4.6944 6.0495 0 10.9536-2.1018 10.9536-4.6944 0-1.2941 0-6.2592 0-6.2592" stroke="#abb8ff" stroke-linecap="square"/><path d="m35.4254 23.0232v7.824c0 2.5926 4.9041 4.6944 10.9535 4.6944 6.0495 0 10.9536-2.1018 10.9536-4.6944 0-1.2941 0-7.824 0-7.824" stroke="#abb8ff"/></svg>