<svg fill="none" height="496" viewBox="0 0 439 496" width="439" xmlns="http://www.w3.org/2000/svg"><rect fill="#abb8ff" fill-opacity=".1" height="494" rx="9.5" stroke="#abb8ff" width="438" x=".5" y=".616211"/><g fill="#fff"><path d="m54.751 37.7705c.3008-.1094.5788-.1891.834-.2393.2552-.0546.499-.082.7314-.082.7975 0 1.4606.278 1.9893.834.5332.5514.7998 1.2373.7998 2.0576 0 .8705-.294 1.5882-.8819 2.1533s-1.3398.8477-2.2558.8477c-.7657 0-1.4082-.1025-1.9278-.3076-.5149-.2097-.7724-.4626-.7724-.7588 0-.1185.0478-.2233.1435-.3145.0957-.0957.2074-.1435.335-.1435.0501 0 .3167.0888.7998.2666.4876.1732.9388.2598 1.3535.2598.6107 0 1.1052-.1823 1.4834-.5469.3828-.3692.5742-.8431.5742-1.4219 0-.5651-.18-1.0345-.54-1.4082-.36-.3783-.8135-.5674-1.3604-.5674-.4101 0-.8134.1026-1.2099.3076-.3919.2051-.6289.3076-.711.3076-.1367 0-.2347-.0501-.2939-.1503-.0547-.1003-.082-.2826-.082-.5469v-3.4043c0-.1504.0455-.2575.1367-.3213.0957-.0684.2597-.1025.4922-.1025h3.459c.2187 0 .3828.0455.4921.1367.1094.0866.1641.2187.1641.3965 0 .1686-.057.3007-.1709.3964-.1139.0912-.2757.1368-.4853.1368h-3.0967zm10.5205 2.1943v-4.6347l-2.5908 4.6347zm-.7383 3.1514c-.2187 0-.3669-.0342-.4443-.1025-.0775-.0729-.1162-.2028-.1162-.3897 0-.164.0387-.2825.1162-.3554.082-.0775.2119-.1163.3896-.1163h.793v-1.1484h-3.1924c-.1139 0-.2028-.0365-.2666-.1094s-.0957-.1777-.0957-.3144v-.4717c0-.1823.0661-.3737.1982-.5742.0228-.0365.0411-.0661.0547-.0889l2.8848-4.8945c.0638-.114.1162-.1869.1572-.2188s.0957-.0478.1641-.0478c.0273 0 .0752.0045.1435.0137.0183.0045.0365.0091.0547.0136l.6973.1094c.0638.0091.1139.0456.1504.1094.041.0592.0615.139.0615.2392v5.1953h.3486c.1003 0 .1778-.0387.2325-.1162.0546-.082.1162-.123.1845-.123.0912 0 .1686.0342.2324.1025.0639.0684.0958.1527.0958.253 0 .041-.0023.0797-.0069.1162-.0045.0319-.0137.066-.0273.1025l-.0547.2803c-.0319.164-.0798.2757-.1436.3349-.0592.0593-.1549.0889-.2871.0889h-.5742v1.1484h.2393c.2916 0 .4921.0365.6015.1094.1094.0684.1641.1891.1641.3623 0 .1641-.0456.2871-.1367.3692-.0912.082-.2279.123-.4102.123z"/><path d="m54.751 60.7705c.3008-.1094.5788-.1891.834-.2393.2552-.0546.499-.082.7314-.082.7975 0 1.4606.278 1.9893.834.5332.5514.7998 1.2373.7998 2.0576 0 .8705-.294 1.5882-.8819 2.1533s-1.3398.8477-2.2558.8477c-.7657 0-1.4082-.1025-1.9278-.3076-.5149-.2097-.7724-.4626-.7724-.7588 0-.1185.0478-.2233.1435-.3145.0957-.0957.2074-.1435.335-.1435.0501 0 .3167.0888.7998.2666.4876.1732.9388.2598 1.3535.2598.6107 0 1.1052-.1823 1.4834-.5469.3828-.3692.5742-.8431.5742-1.4219 0-.5651-.18-1.0345-.54-1.4082-.36-.3783-.8135-.5674-1.3604-.5674-.4101 0-.8134.1026-1.2099.3076-.3919.2051-.6289.3076-.711.3076-.1367 0-.2347-.0501-.2939-.1503-.0547-.1003-.082-.2826-.082-.5469v-3.4043c0-.1504.0455-.2575.1367-.3213.0957-.0684.2597-.1025.4922-.1025h3.459c.2187 0 .3828.0455.4921.1367.1094.0866.1641.2187.1641.3965 0 .1686-.057.3007-.1709.3964-.1139.0912-.2757.1368-.4853.1368h-3.0967zm8.4082 0c.3008-.1094.5788-.1891.834-.2393.2552-.0546.499-.082.7314-.082.7975 0 1.4606.278 1.9893.834.5332.5514.7998 1.2373.7998 2.0576 0 .8705-.294 1.5882-.8819 2.1533s-1.3398.8477-2.2558.8477c-.7656 0-1.4082-.1025-1.9278-.3076-.5149-.2097-.7724-.4626-.7724-.7588 0-.1185.0478-.2233.1435-.3145.0957-.0957.2074-.1435.335-.1435.0501 0 .3167.0888.7998.2666.4876.1732.9388.2598 1.3535.2598.6107 0 1.1052-.1823 1.4834-.5469.3828-.3692.5742-.8431.5742-1.4219 0-.5651-.18-1.0345-.54-1.4082-.36-.3783-.8135-.5674-1.3604-.5674-.4101 0-.8134.1026-1.2099.3076-.3919.2051-.6289.3076-.711.3076-.1367 0-.2347-.0501-.2939-.1503-.0547-.1003-.082-.2826-.082-.5469v-3.4043c0-.1504.0455-.2575.1367-.3213.0957-.0684.2598-.1025.4922-.1025h3.459c.2187 0 .3828.0455.4921.1367.1094.0866.1641.2187.1641.3965 0 .1686-.057.3007-.1709.3964-.1139.0912-.2757.1368-.4853.1368h-3.0967z"/><path d="m54.751 83.7705c.3008-.1094.5788-.1891.834-.2393.2552-.0546.499-.082.7314-.082.7975 0 1.4606.278 1.9893.834.5332.5514.7998 1.2373.7998 2.0576 0 .8705-.294 1.5882-.8819 2.1533s-1.3398.8477-2.2558.8477c-.7657 0-1.4082-.1025-1.9278-.3076-.5149-.2097-.7724-.4626-.7724-.7588 0-.1185.0478-.2233.1435-.3145.0957-.0957.2074-.1435.335-.1435.0501 0 .3167.0888.7998.2666.4876.1732.9388.2598 1.3535.2598.6107 0 1.1052-.1823 1.4834-.5469.3828-.3692.5742-.8431.5742-1.4219 0-.5651-.18-1.0345-.54-1.4082-.36-.3783-.8135-.5674-1.3604-.5674-.4101 0-.8134.1026-1.2099.3076-.3919.2051-.6289.3076-.711.3076-.1367 0-.2347-.0501-.2939-.1503-.0547-.1003-.082-.2826-.082-.5469v-3.4043c0-.1504.0455-.2575.1367-.3213.0957-.0684.2597-.1025.4922-.1025h3.459c.2187 0 .3828.0455.4921.1367.1094.0866.1641.2187.1641.3965 0 .1686-.057.3007-.1709.3964-.1139.0912-.2757.1368-.4853.1368h-3.0967zm8.4765 2.6865c0 .5606.1482 1.0186.4444 1.3741.2962.3509.6767.5263 1.1416.5263.4375 0 .7952-.1663 1.0732-.499.2826-.3327.4238-.7679.4238-1.3057 0-.556-.1458-1.0071-.4375-1.3535-.2871-.3463-.6585-.5195-1.1142-.5195-.4421 0-.8089.1663-1.1006.499-.2871.3327-.4307.7588-.4307 1.2783zm-.1504-1.8183c.2461-.319.5196-.5583.8204-.7178.3007-.1595.6289-.2393.9843-.2393.7201 0 1.3308.2712 1.8321.8135.5058.5423.7588 1.21.7588 2.0029 0 .8295-.2439 1.5108-.7315 2.044s-1.112.7998-1.873.7998c-.8978 0-1.6179-.3555-2.1602-1.0664-.5378-.7155-.8066-1.668-.8066-2.8574 0-1.5495.3987-2.7937 1.1963-3.7325.7975-.9433 1.8502-1.415 3.1582-1.415.442 0 .7337.0319.875.0957.1412.0638.2119.1846.2119.3623 0 .2917-.2689.4421-.8067.4512-.3554.0045-.6403.0273-.8545.0683-.72.1368-1.3056.4991-1.7568 1.087-.4466.5833-.7292 1.3512-.8477 2.3037z"/><path d="m54.751 106.771c.3008-.11.5788-.19.834-.24.2552-.054.499-.082.7314-.082.7975 0 1.4606.278 1.9893.834.5332.552.7998 1.238.7998 2.058 0 .87-.294 1.588-.8819 2.153s-1.3398.848-2.2558.848c-.7657 0-1.4082-.103-1.9278-.308-.5149-.209-.7724-.462-.7724-.759 0-.118.0478-.223.1435-.314.0957-.096.2074-.144.335-.144.0501 0 .3167.089.7998.267.4876.173.9388.26 1.3535.26.6107 0 1.1052-.183 1.4834-.547.3828-.369.5742-.843.5742-1.422 0-.565-.18-1.035-.54-1.408-.36-.378-.8135-.568-1.3604-.568-.4101 0-.8134.103-1.2099.308-.3919.205-.6289.308-.711.308-.1367 0-.2347-.05-.2939-.151-.0547-.1-.082-.282-.082-.547v-3.404c0-.15.0455-.257.1367-.321.0957-.069.2597-.103.4922-.103h3.459c.2187 0 .3828.046.4921.137.1094.087.1641.219.1641.396 0 .169-.057.301-.1709.397-.1139.091-.2757.137-.4853.137h-3.0967zm10.0488 5.208c-.0365.11-.0706.181-.1025.212-.0319.032-.0912.048-.1778.048h-.1162-.4853c-.0912 0-.1641-.018-.2188-.054-.0501-.037-.0752-.087-.0752-.151 0-.036.0023-.07.0069-.102.0091-.037.0205-.078.0341-.123l2.6866-7.294h-3.4727c-.0137.214-.0615.373-.1435.478-.0821.1-.2028.151-.3624.151-.1549 0-.2711-.039-.3486-.117-.0729-.077-.1094-.198-.1094-.362 0-.046 0-.08 0-.103.0046-.022.0092-.043.0137-.061l.0684-.615c.0136-.128.0592-.226.1367-.294.082-.069.1914-.103.3281-.103h4.5186c.1321 0 .2278.03.2871.089.0638.055.0957.144.0957.267v.232c0 .055-.0114.128-.0342.219-.0228.086-.0592.205-.1094.355z"/><path d="m54.751 129.771c.3008-.11.5788-.19.834-.24.2552-.054.499-.082.7314-.082.7975 0 1.4606.278 1.9893.834.5332.552.7998 1.238.7998 2.058 0 .87-.294 1.588-.8819 2.153s-1.3398.848-2.2558.848c-.7657 0-1.4082-.103-1.9278-.308-.5149-.209-.7724-.462-.7724-.759 0-.118.0478-.223.1435-.314.0957-.096.2074-.144.335-.144.0501 0 .3167.089.7998.267.4876.173.9388.26 1.3535.26.6107 0 1.1052-.183 1.4834-.547.3828-.369.5742-.843.5742-1.422 0-.565-.18-1.035-.54-1.408-.36-.378-.8135-.568-1.3604-.568-.4101 0-.8134.103-1.2099.308-.3919.205-.6289.308-.711.308-.1367 0-.2347-.05-.2939-.151-.0547-.1-.082-.282-.082-.547v-3.404c0-.15.0455-.257.1367-.321.0957-.069.2597-.103.4922-.103h3.459c.2187 0 .3828.046.4921.137.1094.087.1641.219.1641.396 0 .169-.057.301-.1709.397-.1139.091-.2757.137-.4853.137h-3.0967zm8.2851 2.994c0 .483.1504.875.4512 1.175.3053.301.7087.452 1.21.452.5058 0 .9091-.146 1.2099-.438.3054-.292.458-.679.458-1.162 0-.474-.1549-.857-.4648-1.148-.3099-.297-.7109-.445-1.2031-.445-.4877 0-.8864.146-1.1963.438-.3099.287-.4649.663-.4649 1.128zm.0684-4.075c0 .452.1481.821.4443 1.108.3008.287.6836.431 1.1485.431.4694 0 .8522-.144 1.1484-.431.3008-.292.4512-.666.4512-1.121 0-.438-.1504-.798-.4512-1.08-.2962-.287-.679-.431-1.1484-.431s-.8522.144-1.1485.431c-.2962.282-.4443.647-.4443 1.093zm.2256 2.003c-.4421-.218-.7748-.494-.9981-.827-.2233-.337-.3349-.729-.3349-1.176 0-.706.2529-1.285.7588-1.736.5058-.456 1.153-.683 1.9414-.683.7747 0 1.4196.227 1.9345.683.515.456.7725 1.012.7725 1.668 0 .488-.1094.9-.3281 1.237-.2188.338-.5583.616-1.0186.834.4603.187.8135.463 1.0596.828.2461.36.3691.783.3691 1.271 0 .752-.2597 1.365-.7793 1.839-.5149.474-1.1849.711-2.0097.711-.8249 0-1.4948-.239-2.0098-.718-.515-.478-.7725-1.098-.7725-1.859 0-.465.1231-.878.3692-1.238.2461-.364.5947-.642 1.0459-.834z"/><path d="m54.751 152.771c.3008-.11.5788-.19.834-.24.2552-.054.499-.082.7314-.082.7975 0 1.4606.278 1.9893.834.5332.552.7998 1.238.7998 2.058 0 .87-.294 1.588-.8819 2.153s-1.3398.848-2.2558.848c-.7657 0-1.4082-.103-1.9278-.308-.5149-.209-.7724-.462-.7724-.759 0-.118.0478-.223.1435-.314.0957-.096.2074-.144.335-.144.0501 0 .3167.089.7998.267.4876.173.9388.26 1.3535.26.6107 0 1.1052-.183 1.4834-.547.3828-.369.5742-.843.5742-1.422 0-.565-.18-1.035-.54-1.408-.36-.378-.8135-.568-1.3604-.568-.4101 0-.8134.103-1.2099.308-.3919.205-.6289.308-.711.308-.1367 0-.2347-.05-.2939-.151-.0547-.1-.082-.282-.082-.547v-3.404c0-.15.0455-.257.1367-.321.0957-.069.2597-.103.4922-.103h3.459c.2187 0 .3828.046.4921.137.1094.087.1641.219.1641.396 0 .169-.057.301-.1709.397-.1139.091-.2757.137-.4853.137h-3.0967zm11.5049 1.216c-.2461.315-.5173.549-.8135.704s-.6221.233-.9776.233c-.72 0-1.333-.269-1.8388-.807-.5013-.542-.752-1.207-.752-1.996 0-.829.2416-1.511.7246-2.044.4877-.538 1.1097-.806 1.8662-.806.8933 0 1.6133.36 2.1602 1.08.5469.715.8203 1.665.8203 2.85 0 1.563-.401 2.812-1.2031 3.746-.7975.93-1.8662 1.395-3.2061 1.395-.4238 0-.7063-.032-.8476-.096-.1367-.064-.2051-.182-.2051-.355 0-.292.2712-.445.8135-.458.36-.009.6448-.035.8545-.076.72-.132 1.3034-.489 1.75-1.073.4511-.583.736-1.349.8545-2.297zm-.1436-1.832c0-.565-.1504-1.023-.4512-1.374-.2962-.355-.6767-.533-1.1416-.533-.442 0-.7998.166-1.0732.499s-.4102.768-.4102 1.306c0 .556.1436 1.009.4307 1.36.2871.346.6562.52 1.1074.52.4421 0 .8089-.167 1.1006-.499.2917-.338.4375-.764.4375-1.279z"/><path d="m54.8193 178.457c0 .561.1481 1.019.4444 1.374.2962.351.6767.526 1.1416.526.4375 0 .7952-.166 1.0732-.499.2826-.332.4238-.768.4238-1.305 0-.556-.1458-1.007-.4375-1.354-.2871-.346-.6585-.519-1.1142-.519-.4421 0-.8089.166-1.1006.499-.2871.332-.4307.759-.4307 1.278zm-.1504-1.818c.2461-.319.5196-.559.8204-.718.3007-.16.6289-.239.9843-.239.7201 0 1.3308.271 1.8321.813.5058.542.7588 1.21.7588 2.003 0 .829-.2439 1.511-.7315 2.044s-1.112.8-1.873.8c-.8978 0-1.6179-.356-2.1602-1.067-.5378-.715-.8066-1.668-.8066-2.857 0-1.55.3987-2.794 1.1963-3.732.7975-.944 1.8502-1.415 3.1582-1.415.442 0 .7337.031.875.095.1412.064.2119.185.2119.363 0 .291-.2689.442-.8067.451-.3554.004-.6403.027-.8545.068-.72.137-1.3056.499-1.7568 1.087-.4466.583-.7292 1.351-.8477 2.304zm10.0284-3.391c-.5241 0-.932.31-1.2237.93-.2916.62-.4375 1.495-.4375 2.625 0 1.135.1459 2.014.4375 2.638.2917.62.6996.93 1.2237.93.5286 0 .9388-.31 1.2304-.93.2917-.624.4375-1.503.4375-2.638 0-1.13-.1458-2.005-.4375-2.625-.2916-.62-.7018-.93-1.2304-.93zm0 8.094c-.8568 0-1.5381-.404-2.044-1.21-.5013-.811-.7519-1.921-.7519-3.329 0-1.404.2506-2.509.7519-3.316.5059-.811 1.1872-1.216 2.044-1.216.8567 0 1.5381.405 2.0439 1.216.5059.812.7588 1.917.7588 3.316s-.2529 2.506-.7588 3.322c-.5058.811-1.1872 1.217-2.0439 1.217z"/><path d="m54.8193 201.457c0 .561.1481 1.019.4444 1.374.2962.351.6767.526 1.1416.526.4375 0 .7952-.166 1.0732-.499.2826-.332.4238-.768.4238-1.305 0-.556-.1458-1.007-.4375-1.354-.2871-.346-.6585-.519-1.1142-.519-.4421 0-.8089.166-1.1006.499-.2871.332-.4307.759-.4307 1.278zm-.1504-1.818c.2461-.319.5196-.559.8204-.718.3007-.16.6289-.239.9843-.239.7201 0 1.3308.271 1.8321.813.5058.542.7588 1.21.7588 2.003 0 .829-.2439 1.511-.7315 2.044s-1.112.8-1.873.8c-.8978 0-1.6179-.356-2.1602-1.067-.5378-.715-.8066-1.668-.8066-2.857 0-1.55.3987-2.794 1.1963-3.732.7975-.944 1.8502-1.415 3.1582-1.415.442 0 .7337.031.875.095.1412.064.2119.185.2119.363 0 .291-.2689.442-.8067.451-.3554.004-.6403.027-.8545.068-.72.137-1.3056.499-1.7568 1.087-.4466.583-.7292 1.351-.8477 2.304zm8.3946-2.858c-.0593.009-.1048.016-.1367.021-.0274.004-.0525.007-.0752.007-.1413 0-.2575-.039-.3487-.117-.0866-.082-.1299-.189-.1299-.321 0-.109.0388-.205.1163-.287.0774-.082.1891-.144.3349-.185l2.0303-.546c.0501-.014.098-.023.1435-.028.0502-.009.1003-.013.1504-.013.0866 0 .155.041.2051.123.0501.077.0752.184.0752.321v7.396h1.0938c.4056 0 .663.035.7724.103.1094.064.1641.187.1641.369 0 .164-.0456.287-.1367.369-.0912.082-.2279.123-.4102.123h-4.0879c-.1823 0-.319-.041-.4101-.123-.0912-.082-.1368-.205-.1368-.369 0-.182.0547-.305.1641-.369.1094-.068.3669-.103.7725-.103h1.1347v-6.678z"/><path d="m54.8193 224.457c0 .561.1481 1.019.4444 1.374.2962.351.6767.526 1.1416.526.4375 0 .7952-.166 1.0732-.499.2826-.332.4238-.768.4238-1.305 0-.556-.1458-1.007-.4375-1.354-.2871-.346-.6585-.519-1.1142-.519-.4421 0-.8089.166-1.1006.499-.2871.332-.4307.759-.4307 1.278zm-.1504-1.818c.2461-.319.5196-.559.8204-.718.3007-.16.6289-.239.9843-.239.7201 0 1.3308.271 1.8321.813.5058.542.7588 1.21.7588 2.003 0 .829-.2439 1.511-.7315 2.044s-1.112.8-1.873.8c-.8978 0-1.6179-.356-2.1602-1.067-.5378-.715-.8066-1.668-.8066-2.857 0-1.55.3987-2.794 1.1963-3.732.7975-.944 1.8502-1.415 3.1582-1.415.442 0 .7337.031.875.095.1412.064.2119.185.2119.363 0 .291-.2689.442-.8067.451-.3554.004-.6403.027-.8545.068-.72.137-1.3056.499-1.7568 1.087-.4466.583-.7292 1.351-.8477 2.304zm7.6495 4.477c-.2416 0-.4216-.048-.5401-.143-.1139-.101-.1709-.253-.1709-.458 0-.297.4375-.853 1.3125-1.668l.1983-.192c.1321-.127.3235-.31.5742-.547 1.5768-1.485 2.3652-2.568 2.3652-3.247 0-.487-.139-.882-.417-1.182-.278-.306-.638-.458-1.0801-.458-.2871 0-.5628.059-.8271.177-.2598.119-.4694.278-.6289.479-.0274.036-.0706.098-.1299.185-.1686.305-.3577.458-.5674.458-.164 0-.2802-.051-.3486-.151s-.1025-.292-.1025-.574c0-.164.0159-.283.0478-.356.0319-.077.0912-.159.1777-.246.2917-.282.6517-.505 1.0801-.67.433-.168.875-.252 1.3262-.252.7565 0 1.3877.243 1.8935.731.5105.488.7657 1.087.7657 1.798 0 .893-.7748 2.08-2.3242 3.561-.3965.369-.6996.659-.9092.868l-.8408.807h3.124c.0182-.196.0706-.344.1572-.444.0911-.105.2119-.157.3623-.157s.2689.05.3555.15.1299.237.1299.41c0 .014-.0023.039-.0069.075-.0045.032-.0068.055-.0068.069l-.0547.526c-.0137.141-.0547.253-.123.335-.0684.077-.1573.116-.2666.116z"/><path d="m54.8193 247.457c0 .561.1481 1.019.4444 1.374.2962.351.6767.526 1.1416.526.4375 0 .7952-.166 1.0732-.499.2826-.332.4238-.768.4238-1.305 0-.556-.1458-1.007-.4375-1.354-.2871-.346-.6585-.519-1.1142-.519-.4421 0-.8089.166-1.1006.499-.2871.332-.4307.759-.4307 1.278zm-.1504-1.818c.2461-.319.5196-.559.8204-.718.3007-.16.6289-.239.9843-.239.7201 0 1.3308.271 1.8321.813.5058.542.7588 1.21.7588 2.003 0 .829-.2439 1.511-.7315 2.044s-1.112.8-1.873.8c-.8978 0-1.6179-.356-2.1602-1.067-.5378-.715-.8066-1.668-.8066-2.857 0-1.55.3987-2.794 1.1963-3.732.7975-.944 1.8502-1.415 3.1582-1.415.442 0 .7337.031.875.095.1412.064.2119.185.2119.363 0 .291-.2689.442-.8067.451-.3554.004-.6403.027-.8545.068-.72.137-1.3056.499-1.7568 1.087-.4466.583-.7292 1.351-.8477 2.304zm11.0948-.226c.5332.146.9456.413 1.2373.8.2962.383.4443.852.4443 1.408 0 .798-.2825 1.452-.8476 1.962-.5651.506-1.2966.759-2.1944.759-.6927 0-1.3102-.132-1.8525-.397-.5378-.269-.8067-.563-.8067-.882 0-.136.0479-.248.1436-.334.1003-.092.221-.137.3623-.137.0775 0 .3577.116.8408.348.4877.233.9411.349 1.3604.349.5423 0 .9821-.155 1.3193-.465.3418-.31.5127-.711.5127-1.203 0-.406-.1185-.747-.3555-1.025-.2324-.283-.5537-.463-.9638-.54-.1231-.023-.2849-.041-.4854-.055-.3828-.023-.5742-.182-.5742-.479 0-.268.1868-.426.5605-.471.1459-.014.2666-.03.3623-.048.3555-.055.6426-.201.8614-.438.2187-.237.3281-.524.3281-.861 0-.433-.1344-.786-.4033-1.059-.2689-.274-.6107-.411-1.0254-.411-.3828 0-.777.119-1.1826.356-.4011.237-.6517.355-.752.355-.1276 0-.2347-.041-.3213-.123-.082-.082-.123-.184-.123-.307 0-.278.2552-.554.7656-.827.5104-.278 1.0755-.417 1.6953-.417.711 0 1.3011.216 1.7705.649.474.428.711.957.711 1.586 0 .478-.114.873-.3418 1.182-.2233.31-.572.552-1.0459.725z"/><path d="m54.8193 270.457c0 .561.1481 1.019.4444 1.374.2962.351.6767.526 1.1416.526.4375 0 .7952-.166 1.0732-.499.2826-.332.4238-.768.4238-1.305 0-.556-.1458-1.007-.4375-1.354-.2871-.346-.6585-.519-1.1142-.519-.4421 0-.8089.166-1.1006.499-.2871.332-.4307.759-.4307 1.278zm-.1504-1.818c.2461-.319.5196-.559.8204-.718.3007-.16.6289-.239.9843-.239.7201 0 1.3308.271 1.8321.813.5058.542.7588 1.21.7588 2.003 0 .829-.2439 1.511-.7315 2.044s-1.112.8-1.873.8c-.8978 0-1.6179-.356-2.1602-1.067-.5378-.715-.8066-1.668-.8066-2.857 0-1.55.3987-2.794 1.1963-3.732.7975-.944 1.8502-1.415 3.1582-1.415.442 0 .7337.031.875.095.1412.064.2119.185.2119.363 0 .291-.2689.442-.8067.451-.3554.004-.6403.027-.8545.068-.72.137-1.3056.499-1.7568 1.087-.4466.583-.7292 1.351-.8477 2.304zm10.6026 1.326v-4.635l-2.5908 4.635zm-.7383 3.151c-.2187 0-.3669-.034-.4443-.102-.0775-.073-.1162-.203-.1162-.39 0-.164.0387-.283.1162-.355.082-.078.2119-.117.3896-.117h.793v-1.148h-3.1924c-.1139 0-.2028-.037-.2666-.109-.0638-.073-.0957-.178-.0957-.315v-.472c0-.182.0661-.373.1982-.574.0228-.036.0411-.066.0547-.089l2.8848-4.894c.0638-.114.1162-.187.1572-.219s.0957-.048.1641-.048c.0273 0 .0752.005.1435.014.0183.004.0365.009.0547.014l.6973.109c.0638.009.1139.045.1504.109.041.06.0615.139.0615.24v5.195h.3486c.1003 0 .1778-.039.2325-.116.0546-.082.1162-.123.1845-.123.0912 0 .1686.034.2324.102.0639.068.0958.153.0958.253 0 .041-.0023.08-.0069.116-.0045.032-.0137.066-.0273.103l-.0547.28c-.0319.164-.0798.276-.1436.335-.0592.059-.1549.089-.2871.089h-.5742v1.148h.2393c.2916 0 .4921.037.6015.11.1094.068.1641.189.1641.362 0 .164-.0456.287-.1367.369-.0912.082-.2279.123-.4102.123z"/><path d="m54.8193 293.457c0 .561.1481 1.019.4444 1.374.2962.351.6767.526 1.1416.526.4375 0 .7952-.166 1.0732-.499.2826-.332.4238-.768.4238-1.305 0-.556-.1458-1.007-.4375-1.354-.2871-.346-.6585-.519-1.1142-.519-.4421 0-.8089.166-1.1006.499-.2871.332-.4307.759-.4307 1.278zm-.1504-1.818c.2461-.319.5196-.559.8204-.718.3007-.16.6289-.239.9843-.239.7201 0 1.3308.271 1.8321.813.5058.542.7588 1.21.7588 2.003 0 .829-.2439 1.511-.7315 2.044s-1.112.8-1.873.8c-.8978 0-1.6179-.356-2.1602-1.067-.5378-.715-.8066-1.668-.8066-2.857 0-1.55.3987-2.794 1.1963-3.732.7975-.944 1.8502-1.415 3.1582-1.415.442 0 .7337.031.875.095.1412.064.2119.185.2119.363 0 .291-.2689.442-.8067.451-.3554.004-.6403.027-.8545.068-.72.137-1.3056.499-1.7568 1.087-.4466.583-.7292 1.351-.8477 2.304zm8.4903-.868c.3008-.11.5788-.19.834-.24.2552-.054.499-.082.7314-.082.7975 0 1.4606.278 1.9893.834.5332.552.7998 1.238.7998 2.058 0 .87-.294 1.588-.8819 2.153s-1.3398.848-2.2558.848c-.7656 0-1.4082-.103-1.9278-.308-.5149-.209-.7724-.462-.7724-.759 0-.118.0478-.223.1435-.314.0957-.096.2074-.144.335-.144.0501 0 .3167.089.7998.267.4876.173.9388.26 1.3535.26.6107 0 1.1052-.183 1.4834-.547.3828-.369.5742-.843.5742-1.422 0-.565-.18-1.035-.54-1.408-.36-.378-.8135-.568-1.3604-.568-.4101 0-.8134.103-1.2099.308-.3919.205-.6289.308-.711.308-.1367 0-.2347-.05-.2939-.151-.0547-.1-.082-.282-.082-.547v-3.404c0-.15.0455-.257.1367-.321.0957-.069.2598-.103.4922-.103h3.459c.2187 0 .3828.046.4921.137.1094.087.1641.219.1641.396 0 .169-.057.301-.1709.397-.1139.091-.2757.137-.4853.137h-3.0967z"/><path d="m54.8193 316.457c0 .561.1481 1.019.4444 1.374.2962.351.6767.526 1.1416.526.4375 0 .7952-.166 1.0732-.499.2826-.332.4238-.768.4238-1.305 0-.556-.1458-1.007-.4375-1.354-.2871-.346-.6585-.519-1.1142-.519-.4421 0-.8089.166-1.1006.499-.2871.332-.4307.759-.4307 1.278zm-.1504-1.818c.2461-.319.5196-.559.8204-.718.3007-.16.6289-.239.9843-.239.7201 0 1.3308.271 1.8321.813.5058.542.7588 1.21.7588 2.003 0 .829-.2439 1.511-.7315 2.044s-1.112.8-1.873.8c-.8978 0-1.6179-.356-2.1602-1.067-.5378-.715-.8066-1.668-.8066-2.857 0-1.55.3987-2.794 1.1963-3.732.7975-.944 1.8502-1.415 3.1582-1.415.442 0 .7337.031.875.095.1412.064.2119.185.2119.363 0 .291-.2689.442-.8067.451-.3554.004-.6403.027-.8545.068-.72.137-1.3056.499-1.7568 1.087-.4466.583-.7292 1.351-.8477 2.304zm8.5586 1.818c0 .561.1482 1.019.4444 1.374.2962.351.6767.526 1.1416.526.4375 0 .7952-.166 1.0732-.499.2826-.332.4238-.768.4238-1.305 0-.556-.1458-1.007-.4375-1.354-.2871-.346-.6585-.519-1.1142-.519-.4421 0-.8089.166-1.1006.499-.2871.332-.4307.759-.4307 1.278zm-.1504-1.818c.2461-.319.5196-.559.8204-.718.3007-.16.6289-.239.9843-.239.7201 0 1.3308.271 1.8321.813.5058.542.7588 1.21.7588 2.003 0 .829-.2439 1.511-.7315 2.044s-1.112.8-1.873.8c-.8978 0-1.6179-.356-2.1602-1.067-.5378-.715-.8066-1.668-.8066-2.857 0-1.55.3987-2.794 1.1963-3.732.7975-.944 1.8502-1.415 3.1582-1.415.442 0 .7337.031.875.095.1412.064.2119.185.2119.363 0 .291-.2689.442-.8067.451-.3554.004-.6403.027-.8545.068-.72.137-1.3056.499-1.7568 1.087-.4466.583-.7292 1.351-.8477 2.304z"/><path d="m54.8193 339.457c0 .561.1481 1.019.4444 1.374.2962.351.6767.526 1.1416.526.4375 0 .7952-.166 1.0732-.499.2826-.332.4238-.768.4238-1.305 0-.556-.1458-1.007-.4375-1.354-.2871-.346-.6585-.519-1.1142-.519-.4421 0-.8089.166-1.1006.499-.2871.332-.4307.759-.4307 1.278zm-.1504-1.818c.2461-.319.5196-.559.8204-.718.3007-.16.6289-.239.9843-.239.7201 0 1.3308.271 1.8321.813.5058.542.7588 1.21.7588 2.003 0 .829-.2439 1.511-.7315 2.044s-1.112.8-1.873.8c-.8978 0-1.6179-.356-2.1602-1.067-.5378-.715-.8066-1.668-.8066-2.857 0-1.55.3987-2.794 1.1963-3.732.7975-.944 1.8502-1.415 3.1582-1.415.442 0 .7337.031.875.095.1412.064.2119.185.2119.363 0 .291-.2689.442-.8067.451-.3554.004-.6403.027-.8545.068-.72.137-1.3056.499-1.7568 1.087-.4466.583-.7292 1.351-.8477 2.304zm10.1309 4.34c-.0365.11-.0706.181-.1025.212-.0319.032-.0912.048-.1778.048h-.1162-.4853c-.0912 0-.1641-.018-.2188-.054-.0501-.037-.0752-.087-.0752-.151 0-.036.0023-.07.0069-.102.0091-.037.0205-.078.0341-.123l2.6866-7.294h-3.4727c-.0137.214-.0615.373-.1435.478-.0821.1-.2028.151-.3624.151-.1549 0-.2711-.039-.3486-.117-.0729-.077-.1094-.198-.1094-.362 0-.046 0-.08 0-.103.0046-.022.0092-.043.0137-.061l.0684-.615c.0136-.128.0592-.226.1367-.294.082-.069.1914-.103.3281-.103h4.5186c.1321 0 .2278.03.2871.089.0638.055.0957.144.0957.267v.232c0 .055-.0114.128-.0342.219-.0228.086-.0592.205-.1094.355z"/><path d="m54.8193 362.457c0 .561.1481 1.019.4444 1.374.2962.351.6767.526 1.1416.526.4375 0 .7952-.166 1.0732-.499.2826-.332.4238-.768.4238-1.305 0-.556-.1458-1.007-.4375-1.354-.2871-.346-.6585-.519-1.1142-.519-.4421 0-.8089.166-1.1006.499-.2871.332-.4307.759-.4307 1.278zm-.1504-1.818c.2461-.319.5196-.559.8204-.718.3007-.16.6289-.239.9843-.239.7201 0 1.3308.271 1.8321.813.5058.542.7588 1.21.7588 2.003 0 .829-.2439 1.511-.7315 2.044s-1.112.8-1.873.8c-.8978 0-1.6179-.356-2.1602-1.067-.5378-.715-.8066-1.668-.8066-2.857 0-1.55.3987-2.794 1.1963-3.732.7975-.944 1.8502-1.415 3.1582-1.415.442 0 .7337.031.875.095.1412.064.2119.185.2119.363 0 .291-.2689.442-.8067.451-.3554.004-.6403.027-.8545.068-.72.137-1.3056.499-1.7568 1.087-.4466.583-.7292 1.351-.8477 2.304zm8.3672 2.126c0 .483.1504.875.4512 1.175.3053.301.7087.452 1.21.452.5058 0 .9091-.146 1.2099-.438.3054-.292.458-.679.458-1.162 0-.474-.1549-.857-.4648-1.148-.3099-.297-.7109-.445-1.2031-.445-.4877 0-.8864.146-1.1963.438-.3099.287-.4649.663-.4649 1.128zm.0684-4.075c0 .452.1481.821.4443 1.108.3008.287.6836.431 1.1485.431.4694 0 .8522-.144 1.1484-.431.3008-.292.4512-.666.4512-1.121 0-.438-.1504-.798-.4512-1.08-.2962-.287-.679-.431-1.1484-.431s-.8522.144-1.1485.431c-.2962.282-.4443.647-.4443 1.093zm.2256 2.003c-.4421-.218-.7748-.494-.9981-.827-.2233-.337-.3349-.729-.3349-1.176 0-.706.2529-1.285.7588-1.736.5058-.456 1.153-.683 1.9414-.683.7747 0 1.4196.227 1.9345.683.515.456.7725 1.012.7725 1.668 0 .488-.1094.9-.3281 1.237-.2188.338-.5583.616-1.0186.834.4603.187.8135.463 1.0596.828.2461.36.3691.783.3691 1.271 0 .752-.2597 1.365-.7793 1.839-.5149.474-1.1849.711-2.0097.711-.8249 0-1.4948-.239-2.0098-.718-.515-.478-.7725-1.098-.7725-1.859 0-.465.1231-.878.3692-1.238.2461-.364.5947-.642 1.0459-.834z"/><path d="m54.8193 385.457c0 .561.1481 1.019.4444 1.374.2962.351.6767.526 1.1416.526.4375 0 .7952-.166 1.0732-.499.2826-.332.4238-.768.4238-1.305 0-.556-.1458-1.007-.4375-1.354-.2871-.346-.6585-.519-1.1142-.519-.4421 0-.8089.166-1.1006.499-.2871.332-.4307.759-.4307 1.278zm-.1504-1.818c.2461-.319.5196-.559.8204-.718.3007-.16.6289-.239.9843-.239.7201 0 1.3308.271 1.8321.813.5058.542.7588 1.21.7588 2.003 0 .829-.2439 1.511-.7315 2.044s-1.112.8-1.873.8c-.8978 0-1.6179-.356-2.1602-1.067-.5378-.715-.8066-1.668-.8066-2.857 0-1.55.3987-2.794 1.1963-3.732.7975-.944 1.8502-1.415 3.1582-1.415.442 0 .7337.031.875.095.1412.064.2119.185.2119.363 0 .291-.2689.442-.8067.451-.3554.004-.6403.027-.8545.068-.72.137-1.3056.499-1.7568 1.087-.4466.583-.7292 1.351-.8477 2.304zm11.587.348c-.2461.315-.5173.549-.8135.704s-.6221.233-.9776.233c-.72 0-1.333-.269-1.8388-.807-.5013-.542-.752-1.207-.752-1.996 0-.829.2416-1.511.7246-2.044.4877-.538 1.1097-.806 1.8662-.806.8933 0 1.6133.36 2.1602 1.08.5469.715.8203 1.665.8203 2.85 0 1.563-.401 2.812-1.2031 3.746-.7975.93-1.8662 1.395-3.2061 1.395-.4238 0-.7063-.032-.8476-.096-.1367-.064-.2051-.182-.2051-.355 0-.292.2712-.445.8135-.458.36-.009.6448-.035.8545-.076.72-.132 1.3034-.489 1.75-1.073.4511-.583.736-1.349.8545-2.297zm-.1436-1.832c0-.565-.1504-1.023-.4512-1.374-.2962-.355-.6767-.533-1.1416-.533-.442 0-.7998.166-1.0732.499s-.4102.768-.4102 1.306c0 .556.1436 1.009.4307 1.36.2871.346.6562.52 1.1074.52.4421 0 .8089-.167 1.1006-.499.2917-.338.4375-.764.4375-1.279z"/><path d="m56.3916 410.979c-.0365.11-.0706.181-.1025.212-.0319.032-.0912.048-.1778.048h-.1162-.4853c-.0912 0-.1641-.018-.2188-.054-.0501-.037-.0752-.087-.0752-.151 0-.036.0023-.07.0069-.102.0091-.037.0205-.078.0341-.123l2.6866-7.294h-3.4727c-.0137.214-.0615.373-.1436.478-.082.1-.2028.151-.3623.151-.1549 0-.2711-.039-.3486-.117-.0729-.077-.1094-.198-.1094-.362 0-.046 0-.08 0-.103.0046-.022.0092-.043.0137-.061l.0684-.615c.0136-.128.0592-.226.1367-.294.082-.069.1914-.103.3281-.103h4.5186c.1321 0 .2278.03.2871.089.0638.055.0957.144.0957.267v.232c0 .055-.0114.128-.0342.219-.0228.086-.0592.205-.1094.355zm8.3057-7.731c-.5241 0-.932.31-1.2237.93-.2916.62-.4375 1.495-.4375 2.625 0 1.135.1459 2.014.4375 2.638.2917.62.6996.93 1.2237.93.5286 0 .9388-.31 1.2304-.93.2917-.624.4375-1.503.4375-2.638 0-1.13-.1458-2.005-.4375-2.625-.2916-.62-.7018-.93-1.2304-.93zm0 8.094c-.8568 0-1.5381-.404-2.044-1.21-.5013-.811-.7519-1.921-.7519-3.329 0-1.404.2506-2.509.7519-3.316.5059-.811 1.1872-1.216 2.044-1.216.8567 0 1.5381.405 2.0439 1.216.5059.812.7588 1.917.7588 3.316s-.2529 2.506-.7588 3.322c-.5058.811-1.1872 1.217-2.0439 1.217z"/><path d="m56.3916 433.979c-.0365.11-.0706.181-.1025.212-.0319.032-.0912.048-.1778.048h-.1162-.4853c-.0912 0-.1641-.018-.2188-.054-.0501-.037-.0752-.087-.0752-.151 0-.036.0023-.07.0069-.102.0091-.037.0205-.078.0341-.123l2.6866-7.294h-3.4727c-.0137.214-.0615.373-.1436.478-.082.1-.2028.151-.3623.151-.1549 0-.2711-.039-.3486-.117-.0729-.077-.1094-.198-.1094-.362 0-.046 0-.08 0-.103.0046-.022.0092-.043.0137-.061l.0684-.615c.0136-.128.0592-.226.1367-.294.082-.069.1914-.103.3281-.103h4.5186c.1321 0 .2278.03.2871.089.0638.055.0957.144.0957.267v.232c0 .055-.0114.128-.0342.219-.0228.086-.0592.205-.1094.355zm6.6719-7.198c-.0593.009-.1048.016-.1367.021-.0274.004-.0525.007-.0752.007-.1413 0-.2575-.039-.3487-.117-.0866-.082-.1299-.189-.1299-.321 0-.109.0388-.205.1163-.287.0774-.082.1891-.144.3349-.185l2.0303-.546c.0501-.014.098-.023.1435-.028.0502-.009.1003-.013.1504-.013.0866 0 .155.041.2051.123.0501.077.0752.184.0752.321v7.396h1.0938c.4056 0 .663.035.7724.103.1094.064.1641.187.1641.369 0 .164-.0456.287-.1367.369-.0912.082-.2279.123-.4102.123h-4.0879c-.1823 0-.319-.041-.4101-.123-.0912-.082-.1368-.205-.1368-.369 0-.182.0547-.305.1641-.369.1094-.068.3669-.103.7725-.103h1.1347v-6.678z"/><path d="m56.3916 456.979c-.0365.11-.0706.181-.1025.212-.0319.032-.0912.048-.1778.048h-.1162-.4853c-.0912 0-.1641-.018-.2188-.054-.0501-.037-.0752-.087-.0752-.151 0-.036.0023-.07.0069-.102.0091-.037.0205-.078.0341-.123l2.6866-7.294h-3.4727c-.0137.214-.0615.373-.1436.478-.082.1-.2028.151-.3623.151-.1549 0-.2711-.039-.3486-.117-.0729-.077-.1094-.198-.1094-.362 0-.046 0-.08 0-.103.0046-.022.0092-.043.0137-.061l.0684-.615c.0136-.128.0592-.226.1367-.294.082-.069.1914-.103.3281-.103h4.5186c.1321 0 .2278.03.2871.089.0638.055.0957.144.0957.267v.232c0 .055-.0114.128-.0342.219-.0228.086-.0592.205-.1094.355zm5.9268.137c-.2416 0-.4216-.048-.5401-.143-.1139-.101-.1709-.253-.1709-.458 0-.297.4375-.853 1.3125-1.668l.1983-.192c.1321-.127.3235-.31.5742-.547 1.5768-1.485 2.3652-2.568 2.3652-3.247 0-.487-.139-.882-.417-1.182-.278-.306-.638-.458-1.0801-.458-.2871 0-.5628.059-.8271.177-.2598.119-.4694.278-.6289.479-.0274.036-.0706.098-.1299.185-.1686.305-.3577.458-.5674.458-.164 0-.2802-.051-.3486-.151s-.1025-.292-.1025-.574c0-.164.0159-.283.0478-.356.0319-.077.0912-.159.1777-.246.2917-.282.6517-.505 1.0801-.67.433-.168.875-.252 1.3262-.252.7565 0 1.3877.243 1.8935.731.5105.488.7657 1.087.7657 1.798 0 .893-.7748 2.08-2.3242 3.561-.3965.369-.6996.659-.9092.868l-.8408.807h3.124c.0182-.196.0706-.344.1572-.444.0911-.105.2119-.157.3623-.157s.2689.05.3555.15.1299.237.1299.41c0 .014-.0023.039-.0069.075-.0045.032-.0068.055-.0068.069l-.0547.526c-.0137.141-.0547.253-.123.335-.0684.077-.1573.116-.2666.116z"/></g><path d="m92.5 21.1162-.559 435.8838" opacity=".5" stroke="#abb8ff"/><path d="m114.5 21.1162-.559 435.8838" opacity=".5" stroke="#abb8ff"/><path d="m137.5 21.1162-.559 435.8838" opacity=".5" stroke="#abb8ff"/></svg>