<svg fill="none" height="496" viewBox="0 0 557 496" width="557" xmlns="http://www.w3.org/2000/svg"><rect fill="#abb8ff" fill-opacity=".1" height="494" rx="9.5" stroke="#abb8ff" width="438" x="118.5" y=".616211"/><g fill="#fff"><path d="m172.751 37.7705c.301-.1094.579-.1891.834-.2393.255-.0546.499-.082.731-.082.798 0 1.461.278 1.99.834.533.5514.799 1.2373.799 2.0576 0 .8705-.293 1.5882-.881 2.1533s-1.34.8477-2.256.8477c-.766 0-1.408-.1025-1.928-.3076-.515-.2097-.772-.4626-.772-.7588 0-.1185.047-.2233.143-.3145.096-.0957.207-.1435.335-.1435.05 0 .317.0888.8.2666.488.1732.939.2598 1.353.2598.611 0 1.106-.1823 1.484-.5469.383-.3692.574-.8431.574-1.4219 0-.5651-.18-1.0345-.54-1.4082-.36-.3783-.813-.5674-1.36-.5674-.411 0-.814.1026-1.21.3076-.392.2051-.629.3076-.711.3076-.137 0-.235-.0501-.294-.1503-.055-.1003-.082-.2826-.082-.5469v-3.4043c0-.1504.045-.2575.136-.3213.096-.0684.26-.1025.493-.1025h3.459c.218 0 .382.0455.492.1367.109.0866.164.2187.164.3965 0 .1686-.057.3007-.171.3964-.114.0912-.276.1368-.485.1368h-3.097zm10.52 2.1943v-4.6347l-2.59 4.6347zm-.738 3.1514c-.219 0-.367-.0342-.444-.1025-.078-.0729-.116-.2028-.116-.3897 0-.164.038-.2825.116-.3554.082-.0775.212-.1163.39-.1163h.792v-1.1484h-3.192c-.114 0-.203-.0365-.267-.1094-.063-.0729-.095-.1777-.095-.3144v-.4717c0-.1823.066-.3737.198-.5742.023-.0365.041-.0661.055-.0889l2.884-4.8945c.064-.114.117-.1869.158-.2188s.095-.0478.164-.0478c.027 0 .075.0045.143.0137.019.0045.037.0091.055.0136l.697.1094c.064.0091.114.0456.151.1094.041.0592.061.139.061.2392v5.1953h.349c.1 0 .178-.0387.232-.1162.055-.082.116-.123.185-.123.091 0 .168.0342.232.1025.064.0684.096.1527.096.253 0 .041-.002.0797-.007.1162-.004.0319-.014.066-.027.1025l-.055.2803c-.032.164-.08.2757-.143.3349-.06.0593-.155.0889-.288.0889h-.574v1.1484h.239c.292 0 .493.0365.602.1094.109.0684.164.1891.164.3623 0 .1641-.045.2871-.137.3692-.091.082-.227.123-.41.123z"/><path d="m172.751 60.7705c.301-.1094.579-.1891.834-.2393.255-.0546.499-.082.731-.082.798 0 1.461.278 1.99.834.533.5514.799 1.2373.799 2.0576 0 .8705-.293 1.5882-.881 2.1533s-1.34.8477-2.256.8477c-.766 0-1.408-.1025-1.928-.3076-.515-.2097-.772-.4626-.772-.7588 0-.1185.047-.2233.143-.3145.096-.0957.207-.1435.335-.1435.05 0 .317.0888.8.2666.488.1732.939.2598 1.353.2598.611 0 1.106-.1823 1.484-.5469.383-.3692.574-.8431.574-1.4219 0-.5651-.18-1.0345-.54-1.4082-.36-.3783-.813-.5674-1.36-.5674-.411 0-.814.1026-1.21.3076-.392.2051-.629.3076-.711.3076-.137 0-.235-.0501-.294-.1503-.055-.1003-.082-.2826-.082-.5469v-3.4043c0-.1504.045-.2575.136-.3213.096-.0684.26-.1025.493-.1025h3.459c.218 0 .382.0455.492.1367.109.0866.164.2187.164.3965 0 .1686-.057.3007-.171.3964-.114.0912-.276.1368-.485.1368h-3.097zm8.408 0c.301-.1094.579-.1891.834-.2393.255-.0546.499-.082.732-.082.797 0 1.46.278 1.989.834.533.5514.8 1.2373.8 2.0576 0 .8705-.294 1.5882-.882 2.1533s-1.34.8477-2.256.8477c-.766 0-1.408-.1025-1.928-.3076-.515-.2097-.772-.4626-.772-.7588 0-.1185.048-.2233.143-.3145.096-.0957.208-.1435.335-.1435.05 0 .317.0888.8.2666.488.1732.939.2598 1.354.2598.61 0 1.105-.1823 1.483-.5469.383-.3692.574-.8431.574-1.4219 0-.5651-.18-1.0345-.54-1.4082-.36-.3783-.813-.5674-1.36-.5674-.41 0-.814.1026-1.21.3076-.392.2051-.629.3076-.711.3076-.137 0-.235-.0501-.294-.1503-.055-.1003-.082-.2826-.082-.5469v-3.4043c0-.1504.046-.2575.137-.3213.095-.0684.259-.1025.492-.1025h3.459c.219 0 .383.0455.492.1367.109.0866.164.2187.164.3965 0 .1686-.057.3007-.171.3964-.114.0912-.276.1368-.485.1368h-3.097z"/><path d="m172.751 83.7705c.301-.1094.579-.1891.834-.2393.255-.0546.499-.082.731-.082.798 0 1.461.278 1.99.834.533.5514.799 1.2373.799 2.0576 0 .8705-.293 1.5882-.881 2.1533s-1.34.8477-2.256.8477c-.766 0-1.408-.1025-1.928-.3076-.515-.2097-.772-.4626-.772-.7588 0-.1185.047-.2233.143-.3145.096-.0957.207-.1435.335-.1435.05 0 .317.0888.8.2666.488.1732.939.2598 1.353.2598.611 0 1.106-.1823 1.484-.5469.383-.3692.574-.8431.574-1.4219 0-.5651-.18-1.0345-.54-1.4082-.36-.3783-.813-.5674-1.36-.5674-.411 0-.814.1026-1.21.3076-.392.2051-.629.3076-.711.3076-.137 0-.235-.0501-.294-.1503-.055-.1003-.082-.2826-.082-.5469v-3.4043c0-.1504.045-.2575.136-.3213.096-.0684.26-.1025.493-.1025h3.459c.218 0 .382.0455.492.1367.109.0866.164.2187.164.3965 0 .1686-.057.3007-.171.3964-.114.0912-.276.1368-.485.1368h-3.097zm8.477 2.6865c0 .5606.148 1.0186.444 1.3741.296.3509.677.5263 1.141.5263.438 0 .796-.1663 1.074-.499.282-.3327.424-.7679.424-1.3057 0-.556-.146-1.0071-.438-1.3535-.287-.3463-.658-.5195-1.114-.5195-.442 0-.809.1663-1.101.499-.287.3327-.43.7588-.43 1.2783zm-.151-1.8183c.246-.319.52-.5583.82-.7178.301-.1595.629-.2393.985-.2393.72 0 1.331.2712 1.832.8135.506.5423.759 1.21.759 2.0029 0 .8295-.244 1.5108-.732 2.044-.487.5332-1.112.7998-1.873.7998-.898 0-1.618-.3555-2.16-1.0664-.538-.7155-.807-1.668-.807-2.8574 0-1.5495.399-2.7937 1.197-3.7325.797-.9433 1.85-1.415 3.158-1.415.442 0 .734.0319.875.0957s.212.1846.212.3623c0 .2917-.269.4421-.807.4512-.355.0045-.64.0273-.854.0683-.72.1368-1.306.4991-1.757 1.087-.447.5833-.729 1.3512-.848 2.3037z"/><path d="m172.751 106.771c.301-.11.579-.19.834-.24.255-.054.499-.082.731-.082.798 0 1.461.278 1.99.834.533.552.799 1.238.799 2.058 0 .87-.293 1.588-.881 2.153s-1.34.848-2.256.848c-.766 0-1.408-.103-1.928-.308-.515-.209-.772-.462-.772-.759 0-.118.047-.223.143-.314.096-.096.207-.144.335-.144.05 0 .317.089.8.267.488.173.939.26 1.353.26.611 0 1.106-.183 1.484-.547.383-.369.574-.843.574-1.422 0-.565-.18-1.035-.54-1.408-.36-.378-.813-.568-1.36-.568-.411 0-.814.103-1.21.308-.392.205-.629.308-.711.308-.137 0-.235-.05-.294-.151-.055-.1-.082-.282-.082-.547v-3.404c0-.15.045-.257.136-.321.096-.069.26-.103.493-.103h3.459c.218 0 .382.046.492.137.109.087.164.219.164.396 0 .169-.057.301-.171.397-.114.091-.276.137-.485.137h-3.097zm10.049 5.208c-.037.11-.071.181-.103.212-.032.032-.091.048-.177.048h-.117-.485c-.091 0-.164-.018-.219-.054-.05-.037-.075-.087-.075-.151 0-.036.002-.07.007-.102.009-.037.02-.078.034-.123l2.687-7.294h-3.473c-.014.214-.062.373-.144.478-.082.1-.202.151-.362.151-.155 0-.271-.039-.349-.117-.073-.077-.109-.198-.109-.362 0-.046 0-.08 0-.103.005-.022.009-.043.014-.061l.068-.615c.014-.128.059-.226.137-.294.082-.069.191-.103.328-.103h4.518c.133 0 .228.03.288.089.063.055.095.144.095.267v.232c0 .055-.011.128-.034.219-.023.086-.059.205-.109.355z"/><path d="m172.751 129.771c.301-.11.579-.19.834-.24.255-.054.499-.082.731-.082.798 0 1.461.278 1.99.834.533.552.799 1.238.799 2.058 0 .87-.293 1.588-.881 2.153s-1.34.848-2.256.848c-.766 0-1.408-.103-1.928-.308-.515-.209-.772-.462-.772-.759 0-.118.047-.223.143-.314.096-.096.207-.144.335-.144.05 0 .317.089.8.267.488.173.939.26 1.353.26.611 0 1.106-.183 1.484-.547.383-.369.574-.843.574-1.422 0-.565-.18-1.035-.54-1.408-.36-.378-.813-.568-1.36-.568-.411 0-.814.103-1.21.308-.392.205-.629.308-.711.308-.137 0-.235-.05-.294-.151-.055-.1-.082-.282-.082-.547v-3.404c0-.15.045-.257.136-.321.096-.069.26-.103.493-.103h3.459c.218 0 .382.046.492.137.109.087.164.219.164.396 0 .169-.057.301-.171.397-.114.091-.276.137-.485.137h-3.097zm8.285 2.994c0 .483.151.875.451 1.175.306.301.709.452 1.21.452.506 0 .909-.146 1.21-.438.306-.292.458-.679.458-1.162 0-.474-.155-.857-.465-1.148-.31-.297-.711-.445-1.203-.445-.487 0-.886.146-1.196.438-.31.287-.465.663-.465 1.128zm.068-4.075c0 .452.149.821.445 1.108.301.287.683.431 1.148.431.47 0 .852-.144 1.149-.431.3-.292.451-.666.451-1.121 0-.438-.151-.798-.451-1.08-.297-.287-.679-.431-1.149-.431-.469 0-.852.144-1.148.431-.296.282-.445.647-.445 1.093zm.226 2.003c-.442-.218-.775-.494-.998-.827-.223-.337-.335-.729-.335-1.176 0-.706.253-1.285.759-1.736.506-.456 1.153-.683 1.941-.683.775 0 1.42.227 1.935.683s.772 1.012.772 1.668c0 .488-.109.9-.328 1.237-.219.338-.558.616-1.018.834.46.187.813.463 1.059.828.246.36.369.783.369 1.271 0 .752-.259 1.365-.779 1.839-.515.474-1.185.711-2.01.711s-1.495-.239-2.009-.718c-.515-.478-.773-1.098-.773-1.859 0-.465.123-.878.369-1.238.246-.364.595-.642 1.046-.834z"/><path d="m172.751 152.771c.301-.11.579-.19.834-.24.255-.054.499-.082.731-.082.798 0 1.461.278 1.99.834.533.552.799 1.238.799 2.058 0 .87-.293 1.588-.881 2.153s-1.34.848-2.256.848c-.766 0-1.408-.103-1.928-.308-.515-.209-.772-.462-.772-.759 0-.118.047-.223.143-.314.096-.096.207-.144.335-.144.05 0 .317.089.8.267.488.173.939.26 1.353.26.611 0 1.106-.183 1.484-.547.383-.369.574-.843.574-1.422 0-.565-.18-1.035-.54-1.408-.36-.378-.813-.568-1.36-.568-.411 0-.814.103-1.21.308-.392.205-.629.308-.711.308-.137 0-.235-.05-.294-.151-.055-.1-.082-.282-.082-.547v-3.404c0-.15.045-.257.136-.321.096-.069.26-.103.493-.103h3.459c.218 0 .382.046.492.137.109.087.164.219.164.396 0 .169-.057.301-.171.397-.114.091-.276.137-.485.137h-3.097zm11.505 1.216c-.246.315-.517.549-.814.704-.296.155-.622.233-.977.233-.72 0-1.333-.269-1.839-.807-.501-.542-.752-1.207-.752-1.996 0-.829.242-1.511.725-2.044.487-.538 1.109-.806 1.866-.806.893 0 1.613.36 2.16 1.08.547.715.82 1.665.82 2.85 0 1.563-.401 2.812-1.203 3.746-.797.93-1.866 1.395-3.206 1.395-.424 0-.706-.032-.848-.096-.136-.064-.205-.182-.205-.355 0-.292.272-.445.814-.458.36-.009.645-.035.854-.076.72-.132 1.304-.489 1.75-1.073.452-.583.736-1.349.855-2.297zm-.144-1.832c0-.565-.15-1.023-.451-1.374-.296-.355-.677-.533-1.141-.533-.443 0-.8.166-1.074.499-.273.333-.41.768-.41 1.306 0 .556.144 1.009.431 1.36.287.346.656.52 1.107.52.442 0 .809-.167 1.101-.499.291-.338.437-.764.437-1.279z"/><path d="m172.819 178.457c0 .561.148 1.019.445 1.374.296.351.676.526 1.141.526.438 0 .796-.166 1.074-.499.282-.332.423-.768.423-1.305 0-.556-.145-1.007-.437-1.354-.287-.346-.659-.519-1.114-.519-.442 0-.809.166-1.101.499-.287.332-.431.759-.431 1.278zm-.15-1.818c.246-.319.519-.559.82-.718.301-.16.629-.239.985-.239.72 0 1.33.271 1.832.813.506.542.758 1.21.758 2.003 0 .829-.243 1.511-.731 2.044s-1.112.8-1.873.8c-.898 0-1.618-.356-2.16-1.067-.538-.715-.807-1.668-.807-2.857 0-1.55.399-2.794 1.196-3.732.798-.944 1.851-1.415 3.159-1.415.442 0 .733.031.875.095.141.064.212.185.212.363 0 .291-.269.442-.807.451-.356.004-.64.027-.855.068-.72.137-1.305.499-1.756 1.087-.447.583-.73 1.351-.848 2.304zm10.028-3.391c-.524 0-.932.31-1.223.93-.292.62-.438 1.495-.438 2.625 0 1.135.146 2.014.438 2.638.291.62.699.93 1.223.93.529 0 .939-.31 1.231-.93.291-.624.437-1.503.437-2.638 0-1.13-.146-2.005-.437-2.625-.292-.62-.702-.93-1.231-.93zm0 8.094c-.857 0-1.538-.404-2.044-1.21-.501-.811-.752-1.921-.752-3.329 0-1.404.251-2.509.752-3.316.506-.811 1.187-1.216 2.044-1.216s1.538.405 2.044 1.216c.506.812.759 1.917.759 3.316s-.253 2.506-.759 3.322c-.506.811-1.187 1.217-2.044 1.217z"/><path d="m172.819 201.457c0 .561.148 1.019.445 1.374.296.351.676.526 1.141.526.438 0 .796-.166 1.074-.499.282-.332.423-.768.423-1.305 0-.556-.145-1.007-.437-1.354-.287-.346-.659-.519-1.114-.519-.442 0-.809.166-1.101.499-.287.332-.431.759-.431 1.278zm-.15-1.818c.246-.319.519-.559.82-.718.301-.16.629-.239.985-.239.72 0 1.33.271 1.832.813.506.542.758 1.21.758 2.003 0 .829-.243 1.511-.731 2.044s-1.112.8-1.873.8c-.898 0-1.618-.356-2.16-1.067-.538-.715-.807-1.668-.807-2.857 0-1.55.399-2.794 1.196-3.732.798-.944 1.851-1.415 3.159-1.415.442 0 .733.031.875.095.141.064.212.185.212.363 0 .291-.269.442-.807.451-.356.004-.64.027-.855.068-.72.137-1.305.499-1.756 1.087-.447.583-.73 1.351-.848 2.304zm8.394-2.858c-.059.009-.104.016-.136.021-.028.004-.053.007-.075.007-.142 0-.258-.039-.349-.117-.087-.082-.13-.189-.13-.321 0-.109.039-.205.116-.287.078-.082.189-.144.335-.185l2.03-.546c.051-.014.098-.023.144-.028.05-.009.1-.013.15-.013.087 0 .155.041.206.123.05.077.075.184.075.321v7.396h1.093c.406 0 .664.035.773.103.109.064.164.187.164.369 0 .164-.046.287-.137.369s-.228.123-.41.123h-4.088c-.182 0-.319-.041-.41-.123s-.137-.205-.137-.369c0-.182.055-.305.164-.369.11-.068.367-.103.773-.103h1.135v-6.678z"/><path d="m172.819 224.457c0 .561.148 1.019.445 1.374.296.351.676.526 1.141.526.438 0 .796-.166 1.074-.499.282-.332.423-.768.423-1.305 0-.556-.145-1.007-.437-1.354-.287-.346-.659-.519-1.114-.519-.442 0-.809.166-1.101.499-.287.332-.431.759-.431 1.278zm-.15-1.818c.246-.319.519-.559.82-.718.301-.16.629-.239.985-.239.72 0 1.33.271 1.832.813.506.542.758 1.21.758 2.003 0 .829-.243 1.511-.731 2.044s-1.112.8-1.873.8c-.898 0-1.618-.356-2.16-1.067-.538-.715-.807-1.668-.807-2.857 0-1.55.399-2.794 1.196-3.732.798-.944 1.851-1.415 3.159-1.415.442 0 .733.031.875.095.141.064.212.185.212.363 0 .291-.269.442-.807.451-.356.004-.64.027-.855.068-.72.137-1.305.499-1.756 1.087-.447.583-.73 1.351-.848 2.304zm7.649 4.477c-.241 0-.421-.048-.54-.143-.114-.101-.171-.253-.171-.458 0-.297.438-.853 1.313-1.668l.198-.192c.132-.127.324-.31.574-.547 1.577-1.485 2.366-2.568 2.366-3.247 0-.487-.139-.882-.417-1.182-.278-.306-.638-.458-1.08-.458-.288 0-.563.059-.828.177-.259.119-.469.278-.629.479-.027.036-.07.098-.129.185-.169.305-.358.458-.568.458-.164 0-.28-.051-.348-.151-.069-.1-.103-.292-.103-.574 0-.164.016-.283.048-.356.032-.077.091-.159.178-.246.291-.282.651-.505 1.08-.67.433-.168.875-.252 1.326-.252.756 0 1.388.243 1.893.731.511.488.766 1.087.766 1.798 0 .893-.775 2.08-2.324 3.561-.397.369-.7.659-.909.868l-.841.807h3.124c.018-.196.071-.344.157-.444.091-.105.212-.157.362-.157.151 0 .269.05.356.15.086.1.13.237.13.41 0 .014-.003.039-.007.075-.005.032-.007.055-.007.069l-.055.526c-.013.141-.054.253-.123.335-.068.077-.157.116-.266.116z"/><path d="m172.819 247.457c0 .561.148 1.019.445 1.374.296.351.676.526 1.141.526.438 0 .796-.166 1.074-.499.282-.332.423-.768.423-1.305 0-.556-.145-1.007-.437-1.354-.287-.346-.659-.519-1.114-.519-.442 0-.809.166-1.101.499-.287.332-.431.759-.431 1.278zm-.15-1.818c.246-.319.519-.559.82-.718.301-.16.629-.239.985-.239.72 0 1.33.271 1.832.813.506.542.758 1.21.758 2.003 0 .829-.243 1.511-.731 2.044s-1.112.8-1.873.8c-.898 0-1.618-.356-2.16-1.067-.538-.715-.807-1.668-.807-2.857 0-1.55.399-2.794 1.196-3.732.798-.944 1.851-1.415 3.159-1.415.442 0 .733.031.875.095.141.064.212.185.212.363 0 .291-.269.442-.807.451-.356.004-.64.027-.855.068-.72.137-1.305.499-1.756 1.087-.447.583-.73 1.351-.848 2.304zm11.095-.226c.533.146.945.413 1.237.8.296.383.444.852.444 1.408 0 .798-.282 1.452-.847 1.962-.565.506-1.297.759-2.195.759-.692 0-1.31-.132-1.852-.397-.538-.269-.807-.563-.807-.882 0-.136.048-.248.144-.334.1-.092.221-.137.362-.137.077 0 .358.116.841.348.487.233.941.349 1.36.349.542 0 .982-.155 1.32-.465.341-.31.512-.711.512-1.203 0-.406-.118-.747-.355-1.025-.233-.283-.554-.463-.964-.54-.123-.023-.285-.041-.485-.055-.383-.023-.575-.182-.575-.479 0-.268.187-.426.561-.471.146-.014.266-.03.362-.048.356-.055.643-.201.861-.438.219-.237.329-.524.329-.861 0-.433-.135-.786-.404-1.059-.269-.274-.61-.411-1.025-.411-.383 0-.777.119-1.183.356-.401.237-.651.355-.752.355-.127 0-.234-.041-.321-.123-.082-.082-.123-.184-.123-.307 0-.278.255-.554.766-.827.51-.278 1.075-.417 1.695-.417.711 0 1.301.216 1.77.649.474.428.711.957.711 1.586 0 .478-.114.873-.341 1.182-.224.31-.572.552-1.046.725z"/><path d="m172.819 270.457c0 .561.148 1.019.445 1.374.296.351.676.526 1.141.526.438 0 .796-.166 1.074-.499.282-.332.423-.768.423-1.305 0-.556-.145-1.007-.437-1.354-.287-.346-.659-.519-1.114-.519-.442 0-.809.166-1.101.499-.287.332-.431.759-.431 1.278zm-.15-1.818c.246-.319.519-.559.82-.718.301-.16.629-.239.985-.239.72 0 1.33.271 1.832.813.506.542.758 1.21.758 2.003 0 .829-.243 1.511-.731 2.044s-1.112.8-1.873.8c-.898 0-1.618-.356-2.16-1.067-.538-.715-.807-1.668-.807-2.857 0-1.55.399-2.794 1.196-3.732.798-.944 1.851-1.415 3.159-1.415.442 0 .733.031.875.095.141.064.212.185.212.363 0 .291-.269.442-.807.451-.356.004-.64.027-.855.068-.72.137-1.305.499-1.756 1.087-.447.583-.73 1.351-.848 2.304zm10.602 1.326v-4.635l-2.59 4.635zm-.738 3.151c-.219 0-.367-.034-.444-.102-.078-.073-.116-.203-.116-.39 0-.164.038-.283.116-.355.082-.078.212-.117.39-.117h.792v-1.148h-3.192c-.114 0-.203-.037-.267-.109-.063-.073-.095-.178-.095-.315v-.472c0-.182.066-.373.198-.574.023-.036.041-.066.055-.089l2.884-4.894c.064-.114.117-.187.158-.219s.095-.048.164-.048c.027 0 .075.005.143.014.019.004.037.009.055.014l.697.109c.064.009.114.045.151.109.041.06.061.139.061.24v5.195h.349c.1 0 .178-.039.232-.116.055-.082.116-.123.185-.123.091 0 .168.034.232.102s.096.153.096.253c0 .041-.002.08-.007.116-.004.032-.014.066-.027.103l-.055.28c-.032.164-.08.276-.143.335-.06.059-.155.089-.288.089h-.574v1.148h.239c.292 0 .493.037.602.11.109.068.164.189.164.362 0 .164-.045.287-.137.369-.091.082-.227.123-.41.123z"/><path d="m172.819 293.457c0 .561.148 1.019.445 1.374.296.351.676.526 1.141.526.438 0 .796-.166 1.074-.499.282-.332.423-.768.423-1.305 0-.556-.145-1.007-.437-1.354-.287-.346-.659-.519-1.114-.519-.442 0-.809.166-1.101.499-.287.332-.431.759-.431 1.278zm-.15-1.818c.246-.319.519-.559.82-.718.301-.16.629-.239.985-.239.72 0 1.33.271 1.832.813.506.542.758 1.21.758 2.003 0 .829-.243 1.511-.731 2.044s-1.112.8-1.873.8c-.898 0-1.618-.356-2.16-1.067-.538-.715-.807-1.668-.807-2.857 0-1.55.399-2.794 1.196-3.732.798-.944 1.851-1.415 3.159-1.415.442 0 .733.031.875.095.141.064.212.185.212.363 0 .291-.269.442-.807.451-.356.004-.64.027-.855.068-.72.137-1.305.499-1.756 1.087-.447.583-.73 1.351-.848 2.304zm8.49-.868c.301-.11.579-.19.834-.24.255-.054.499-.082.732-.082.797 0 1.46.278 1.989.834.533.552.8 1.238.8 2.058 0 .87-.294 1.588-.882 2.153s-1.34.848-2.256.848c-.766 0-1.408-.103-1.928-.308-.515-.209-.772-.462-.772-.759 0-.118.048-.223.143-.314.096-.096.208-.144.335-.144.05 0 .317.089.8.267.488.173.939.26 1.354.26.61 0 1.105-.183 1.483-.547.383-.369.574-.843.574-1.422 0-.565-.18-1.035-.54-1.408-.36-.378-.813-.568-1.36-.568-.41 0-.814.103-1.21.308-.392.205-.629.308-.711.308-.137 0-.235-.05-.294-.151-.055-.1-.082-.282-.082-.547v-3.404c0-.15.046-.257.137-.321.095-.069.259-.103.492-.103h3.459c.219 0 .383.046.492.137.109.087.164.219.164.396 0 .169-.057.301-.171.397-.114.091-.276.137-.485.137h-3.097z"/><path d="m172.819 316.457c0 .561.148 1.019.445 1.374.296.351.676.526 1.141.526.438 0 .796-.166 1.074-.499.282-.332.423-.768.423-1.305 0-.556-.145-1.007-.437-1.354-.287-.346-.659-.519-1.114-.519-.442 0-.809.166-1.101.499-.287.332-.431.759-.431 1.278zm-.15-1.818c.246-.319.519-.559.82-.718.301-.16.629-.239.985-.239.72 0 1.33.271 1.832.813.506.542.758 1.21.758 2.003 0 .829-.243 1.511-.731 2.044s-1.112.8-1.873.8c-.898 0-1.618-.356-2.16-1.067-.538-.715-.807-1.668-.807-2.857 0-1.55.399-2.794 1.196-3.732.798-.944 1.851-1.415 3.159-1.415.442 0 .733.031.875.095.141.064.212.185.212.363 0 .291-.269.442-.807.451-.356.004-.64.027-.855.068-.72.137-1.305.499-1.756 1.087-.447.583-.73 1.351-.848 2.304zm8.559 1.818c0 .561.148 1.019.444 1.374.296.351.677.526 1.141.526.438 0 .796-.166 1.074-.499.282-.332.424-.768.424-1.305 0-.556-.146-1.007-.438-1.354-.287-.346-.658-.519-1.114-.519-.442 0-.809.166-1.101.499-.287.332-.43.759-.43 1.278zm-.151-1.818c.246-.319.52-.559.82-.718.301-.16.629-.239.985-.239.72 0 1.331.271 1.832.813.506.542.759 1.21.759 2.003 0 .829-.244 1.511-.732 2.044-.487.533-1.112.8-1.873.8-.898 0-1.618-.356-2.16-1.067-.538-.715-.807-1.668-.807-2.857 0-1.55.399-2.794 1.197-3.732.797-.944 1.85-1.415 3.158-1.415.442 0 .734.031.875.095s.212.185.212.363c0 .291-.269.442-.807.451-.355.004-.64.027-.854.068-.72.137-1.306.499-1.757 1.087-.447.583-.729 1.351-.848 2.304z"/><path d="m172.819 339.457c0 .561.148 1.019.445 1.374.296.351.676.526 1.141.526.438 0 .796-.166 1.074-.499.282-.332.423-.768.423-1.305 0-.556-.145-1.007-.437-1.354-.287-.346-.659-.519-1.114-.519-.442 0-.809.166-1.101.499-.287.332-.431.759-.431 1.278zm-.15-1.818c.246-.319.519-.559.82-.718.301-.16.629-.239.985-.239.72 0 1.33.271 1.832.813.506.542.758 1.21.758 2.003 0 .829-.243 1.511-.731 2.044s-1.112.8-1.873.8c-.898 0-1.618-.356-2.16-1.067-.538-.715-.807-1.668-.807-2.857 0-1.55.399-2.794 1.196-3.732.798-.944 1.851-1.415 3.159-1.415.442 0 .733.031.875.095.141.064.212.185.212.363 0 .291-.269.442-.807.451-.356.004-.64.027-.855.068-.72.137-1.305.499-1.756 1.087-.447.583-.73 1.351-.848 2.304zm10.131 4.34c-.037.11-.071.181-.103.212-.032.032-.091.048-.177.048h-.117-.485c-.091 0-.164-.018-.219-.054-.05-.037-.075-.087-.075-.151 0-.036.002-.07.007-.102.009-.037.02-.078.034-.123l2.687-7.294h-3.473c-.014.214-.062.373-.144.478-.082.1-.202.151-.362.151-.155 0-.271-.039-.349-.117-.073-.077-.109-.198-.109-.362 0-.046 0-.08 0-.103.005-.022.009-.043.014-.061l.068-.615c.014-.128.059-.226.137-.294.082-.069.191-.103.328-.103h4.518c.133 0 .228.03.288.089.063.055.095.144.095.267v.232c0 .055-.011.128-.034.219-.023.086-.059.205-.109.355z"/><path d="m172.819 362.457c0 .561.148 1.019.445 1.374.296.351.676.526 1.141.526.438 0 .796-.166 1.074-.499.282-.332.423-.768.423-1.305 0-.556-.145-1.007-.437-1.354-.287-.346-.659-.519-1.114-.519-.442 0-.809.166-1.101.499-.287.332-.431.759-.431 1.278zm-.15-1.818c.246-.319.519-.559.82-.718.301-.16.629-.239.985-.239.72 0 1.33.271 1.832.813.506.542.758 1.21.758 2.003 0 .829-.243 1.511-.731 2.044s-1.112.8-1.873.8c-.898 0-1.618-.356-2.16-1.067-.538-.715-.807-1.668-.807-2.857 0-1.55.399-2.794 1.196-3.732.798-.944 1.851-1.415 3.159-1.415.442 0 .733.031.875.095.141.064.212.185.212.363 0 .291-.269.442-.807.451-.356.004-.64.027-.855.068-.72.137-1.305.499-1.756 1.087-.447.583-.73 1.351-.848 2.304zm8.367 2.126c0 .483.151.875.451 1.175.306.301.709.452 1.21.452.506 0 .909-.146 1.21-.438.306-.292.458-.679.458-1.162 0-.474-.155-.857-.465-1.148-.31-.297-.711-.445-1.203-.445-.487 0-.886.146-1.196.438-.31.287-.465.663-.465 1.128zm.068-4.075c0 .452.149.821.445 1.108.301.287.683.431 1.148.431.47 0 .852-.144 1.149-.431.3-.292.451-.666.451-1.121 0-.438-.151-.798-.451-1.08-.297-.287-.679-.431-1.149-.431-.469 0-.852.144-1.148.431-.296.282-.445.647-.445 1.093zm.226 2.003c-.442-.218-.775-.494-.998-.827-.223-.337-.335-.729-.335-1.176 0-.706.253-1.285.759-1.736.506-.456 1.153-.683 1.941-.683.775 0 1.42.227 1.935.683s.772 1.012.772 1.668c0 .488-.109.9-.328 1.237-.219.338-.558.616-1.018.834.46.187.813.463 1.059.828.246.36.369.783.369 1.271 0 .752-.259 1.365-.779 1.839-.515.474-1.185.711-2.01.711s-1.495-.239-2.009-.718c-.515-.478-.773-1.098-.773-1.859 0-.465.123-.878.369-1.238.246-.364.595-.642 1.046-.834z"/><path d="m172.819 385.457c0 .561.148 1.019.445 1.374.296.351.676.526 1.141.526.438 0 .796-.166 1.074-.499.282-.332.423-.768.423-1.305 0-.556-.145-1.007-.437-1.354-.287-.346-.659-.519-1.114-.519-.442 0-.809.166-1.101.499-.287.332-.431.759-.431 1.278zm-.15-1.818c.246-.319.519-.559.82-.718.301-.16.629-.239.985-.239.72 0 1.33.271 1.832.813.506.542.758 1.21.758 2.003 0 .829-.243 1.511-.731 2.044s-1.112.8-1.873.8c-.898 0-1.618-.356-2.16-1.067-.538-.715-.807-1.668-.807-2.857 0-1.55.399-2.794 1.196-3.732.798-.944 1.851-1.415 3.159-1.415.442 0 .733.031.875.095.141.064.212.185.212.363 0 .291-.269.442-.807.451-.356.004-.64.027-.855.068-.72.137-1.305.499-1.756 1.087-.447.583-.73 1.351-.848 2.304zm11.587.348c-.246.315-.517.549-.814.704-.296.155-.622.233-.977.233-.72 0-1.333-.269-1.839-.807-.501-.542-.752-1.207-.752-1.996 0-.829.242-1.511.725-2.044.487-.538 1.109-.806 1.866-.806.893 0 1.613.36 2.16 1.08.547.715.82 1.665.82 2.85 0 1.563-.401 2.812-1.203 3.746-.797.93-1.866 1.395-3.206 1.395-.424 0-.706-.032-.848-.096-.136-.064-.205-.182-.205-.355 0-.292.272-.445.814-.458.36-.009.645-.035.854-.076.72-.132 1.304-.489 1.75-1.073.452-.583.736-1.349.855-2.297zm-.144-1.832c0-.565-.15-1.023-.451-1.374-.296-.355-.677-.533-1.141-.533-.443 0-.8.166-1.074.499-.273.333-.41.768-.41 1.306 0 .556.144 1.009.431 1.36.287.346.656.52 1.107.52.442 0 .809-.167 1.101-.499.291-.338.437-.764.437-1.279z"/><path d="m174.392 410.979c-.037.11-.071.181-.103.212-.032.032-.091.048-.178.048h-.116-.485c-.091 0-.164-.018-.219-.054-.05-.037-.075-.087-.075-.151 0-.036.002-.07.007-.102.009-.037.02-.078.034-.123l2.686-7.294h-3.472c-.014.214-.062.373-.144.478-.082.1-.203.151-.362.151-.155 0-.271-.039-.349-.117-.073-.077-.109-.198-.109-.362 0-.046 0-.08 0-.103.004-.022.009-.043.014-.061l.068-.615c.014-.128.059-.226.137-.294.082-.069.191-.103.328-.103h4.518c.132 0 .228.03.287.089.064.055.096.144.096.267v.232c0 .055-.011.128-.034.219-.023.086-.059.205-.109.355zm8.305-7.731c-.524 0-.932.31-1.223.93-.292.62-.438 1.495-.438 2.625 0 1.135.146 2.014.438 2.638.291.62.699.93 1.223.93.529 0 .939-.31 1.231-.93.291-.624.437-1.503.437-2.638 0-1.13-.146-2.005-.437-2.625-.292-.62-.702-.93-1.231-.93zm0 8.094c-.857 0-1.538-.404-2.044-1.21-.501-.811-.752-1.921-.752-3.329 0-1.404.251-2.509.752-3.316.506-.811 1.187-1.216 2.044-1.216s1.538.405 2.044 1.216c.506.812.759 1.917.759 3.316s-.253 2.506-.759 3.322c-.506.811-1.187 1.217-2.044 1.217z"/><path d="m174.392 433.979c-.037.11-.071.181-.103.212-.032.032-.091.048-.178.048h-.116-.485c-.091 0-.164-.018-.219-.054-.05-.037-.075-.087-.075-.151 0-.036.002-.07.007-.102.009-.037.02-.078.034-.123l2.686-7.294h-3.472c-.014.214-.062.373-.144.478-.082.1-.203.151-.362.151-.155 0-.271-.039-.349-.117-.073-.077-.109-.198-.109-.362 0-.046 0-.08 0-.103.004-.022.009-.043.014-.061l.068-.615c.014-.128.059-.226.137-.294.082-.069.191-.103.328-.103h4.518c.132 0 .228.03.287.089.064.055.096.144.096.267v.232c0 .055-.011.128-.034.219-.023.086-.059.205-.109.355zm6.671-7.198c-.059.009-.104.016-.136.021-.028.004-.053.007-.075.007-.142 0-.258-.039-.349-.117-.087-.082-.13-.189-.13-.321 0-.109.039-.205.116-.287.078-.082.189-.144.335-.185l2.03-.546c.051-.014.098-.023.144-.028.05-.009.1-.013.15-.013.087 0 .155.041.206.123.05.077.075.184.075.321v7.396h1.093c.406 0 .664.035.773.103.109.064.164.187.164.369 0 .164-.046.287-.137.369s-.228.123-.41.123h-4.088c-.182 0-.319-.041-.41-.123s-.137-.205-.137-.369c0-.182.055-.305.164-.369.11-.068.367-.103.773-.103h1.135v-6.678z"/><path d="m174.392 456.979c-.037.11-.071.181-.103.212-.032.032-.091.048-.178.048h-.116-.485c-.091 0-.164-.018-.219-.054-.05-.037-.075-.087-.075-.151 0-.036.002-.07.007-.102.009-.037.02-.078.034-.123l2.686-7.294h-3.472c-.014.214-.062.373-.144.478-.082.1-.203.151-.362.151-.155 0-.271-.039-.349-.117-.073-.077-.109-.198-.109-.362 0-.046 0-.08 0-.103.004-.022.009-.043.014-.061l.068-.615c.014-.128.059-.226.137-.294.082-.069.191-.103.328-.103h4.518c.132 0 .228.03.287.089.064.055.096.144.096.267v.232c0 .055-.011.128-.034.219-.023.086-.059.205-.109.355zm5.926.137c-.241 0-.421-.048-.54-.143-.114-.101-.171-.253-.171-.458 0-.297.438-.853 1.313-1.668l.198-.192c.132-.127.324-.31.574-.547 1.577-1.485 2.366-2.568 2.366-3.247 0-.487-.139-.882-.417-1.182-.278-.306-.638-.458-1.08-.458-.288 0-.563.059-.828.177-.259.119-.469.278-.629.479-.027.036-.07.098-.129.185-.169.305-.358.458-.568.458-.164 0-.28-.051-.348-.151-.069-.1-.103-.292-.103-.574 0-.164.016-.283.048-.356.032-.077.091-.159.178-.246.291-.282.651-.505 1.08-.67.433-.168.875-.252 1.326-.252.756 0 1.388.243 1.893.731.511.488.766 1.087.766 1.798 0 .893-.775 2.08-2.324 3.561-.397.369-.7.659-.909.868l-.841.807h3.124c.018-.196.071-.344.157-.444.091-.105.212-.157.362-.157.151 0 .269.05.356.15.086.1.13.237.13.41 0 .014-.003.039-.007.075-.005.032-.007.055-.007.069l-.055.526c-.013.141-.054.253-.123.335-.068.077-.157.116-.266.116z"/></g><path d="m210.5 21.1162-.559 435.8838" opacity=".5" stroke="#abb8ff"/><path d="m232.5 21.1162-.559 435.8838" opacity=".5" stroke="#abb8ff"/><path d="m255.5 21.1162-.559 435.8838" opacity=".5" stroke="#abb8ff"/><circle cx="117.5" cy="218.616" fill="#abb8ff" r="8.5"/><path d="m.333333 219.116c0 1.473 1.193907 2.667 2.666667 2.667s2.66667-1.194 2.66667-2.667-1.19391-2.666-2.66667-2.666-2.666667 1.193-2.666667 2.666zm2.666667.5h115v-1h-115z" fill="#abb8ff"/></svg>