<svg fill="none" height="81" viewBox="0 0 63 81" width="63" xmlns="http://www.w3.org/2000/svg"><rect height="62" rx="3.5" stroke="#abb8ff" stroke-dasharray="2 2" width="62" x=".5" y=".616211"/><circle cx="31.5525" cy="38.8823" fill="#abb8ff" fill-opacity=".3" r="10.8035" stroke="#abb8ff" stroke-linecap="round"/><path d="m13.0946 58.1913c1.5299-3.3089 5.0376-4.9607 8.683-4.9607h19.5496c3.6454 0 7.153 1.6518 8.6829 4.9606 1.2863 2.782 2.5478 6.5801 2.7171 10.9942.0212.5518-.4285 1.0004-.9808 1.0004h-40.3881c-.5522 0-1.0019-.4486-.9807-1.0005.1693-4.414 1.4308-8.2121 2.717-10.994z" fill="#020013" stroke="#abb8ff" stroke-linecap="round"/><path d="m22.5695 32.3175-3.1391-14.6175 8.1113 5.6571 3.7376-8.1983 3.7581 7.8718 7.7031-5.3306-2.7989 14.6175s-4.4723 1.0817-8.8561.864-8.516-.864-8.516-.864z" fill="#020013" stroke="#abb8ff" stroke-miterlimit="10"/><g fill="#abb8ff"><path d="m31.2792 17.0674c1.0537 0 1.9079-.8544 1.9079-1.9084s-.8542-1.9084-1.9079-1.9084c-1.0538 0-1.908.8544-1.908 1.9084s.8542 1.9084 1.908 1.9084z"/><path d="m42.7405 19.6082c1.0537 0 1.9079-.8544 1.9079-1.9084s-.8542-1.9084-1.9079-1.9084-1.9079.8544-1.9079 1.9084.8542 1.9084 1.9079 1.9084z"/><path d="m19.4304 19.6082c1.0537 0 1.9079-.8544 1.9079-1.9084s-.8542-1.9084-1.9079-1.9084-1.9079.8544-1.9079 1.9084.8542 1.9084 1.9079 1.9084z"/><path d="m25.348 16.8464c.5823 0 1.0543-.4721 1.0543-1.0545 0-.5825-.472-1.0546-1.0543-1.0546s-1.0543.4721-1.0543 1.0546c0 .5824.472 1.0545 1.0543 1.0545z"/><path d="m37.1594 16.8464c.5823 0 1.0543-.4721 1.0543-1.0545 0-.5825-.472-1.0546-1.0543-1.0546s-1.0543.4721-1.0543 1.0546c0 .5824.472 1.0545 1.0543 1.0545z"/></g><path d="m23.2463 20.3601 2.1018-4.2964 2.7445 6.079" stroke="#abb8ff" stroke-miterlimit="10"/><path d="m34.3572 21.6086 2.8024-5.5449 2.0678 4.0651" stroke="#abb8ff" stroke-miterlimit="10"/><path d="m21.9776 29.5758c7.5297 1.2315 11.0871 1.2178 18.4876 0" stroke="#abb8ff" stroke-miterlimit="10"/><path d="m33.2208 60.0238 7.4399 1.984c.4377.1167.7423.5132.7423.9662v7.9609c0 2.0062-1.0026 3.8795-2.6718 4.9923l-5.7287 3.8192c-.3359.2239-.7735.2239-1.1094 0l-5.7287-3.8192c-1.6692-1.1127-2.6718-2.9861-2.6718-4.9923v-7.9609c0-.453.3045-.8495.7423-.9662l7.4399-1.984c.5065-.135 1.0395-.135 1.546 0z" fill="#020013"/><path d="m33.2208 60.0238 7.4399 1.984c.4377.1167.7423.5132.7423.9662v7.9609c0 2.0062-1.0026 3.8795-2.6718 4.9923l-5.7287 3.8192c-.3359.2239-.7735.2239-1.1094 0l-5.7287-3.8192c-1.6692-1.1127-2.6718-2.9861-2.6718-4.9923v-7.9609c0-.453.3045-.8495.7423-.9662l7.4399-1.984c.5065-.135 1.0395-.135 1.546 0z" fill="#abb8ff" fill-opacity=".3"/><path d="m33.2208 60.0238 7.4399 1.984c.4377.1167.7423.5132.7423.9662v7.9609c0 2.0062-1.0026 3.8795-2.6718 4.9923l-5.7287 3.8192c-.3359.2239-.7735.2239-1.1094 0l-5.7287-3.8192c-1.6692-1.1127-2.6718-2.9861-2.6718-4.9923v-7.9609c0-.453.3045-.8495.7423-.9662l7.4399-1.984c.5065-.135 1.0395-.135 1.546 0z" stroke="#abb8ff" stroke-linecap="round"/><path d="m30.0599 69.9668 2.2112 2.2112c.0977.0977.256.0977.3536 0l4.0023-4.0023" stroke="#ea4040" stroke-linecap="round"/></svg>