<svg fill="none" height="385" viewBox="0 0 383 385" width="383" xmlns="http://www.w3.org/2000/svg"><circle cx="178.395" cy="195" fill="#abb8ff" fill-opacity=".1" r="161"/><path d="m64.7306 71.7921h4.5595l-2.4193-3.8499-4.42 7.0042h-2.0006l5.3443-8.3899c.2328-.3244.6051-.5565 1.0701-.5565.4186 0 .7904.1847 1.0238.5109l5.3968 8.3955h-1.9951l-.9306-1.5771h-4.6064zm20.8906 1.531v-7.2825h-1.7221v7.9781c0 .2321.0926.4174.2328.6033.1852.1847.3723.2783.6051.2783h7.7698l1.0238-1.5772zm-28.1955-1.2927c1.6753 0 2.9775-1.3451 2.9775-2.9684 0-1.6701-1.3492-2.9684-2.9775-2.9684h-7.445v8.8596h1.7216v-7.3299h5.6296c.3818.0023.7474.1545 1.0174.4237.2701.2692.4228.6337.425 1.0144-.0022.3805-.1549.7449-.4247 1.0141-.2699.2692-.6353.4215-1.0171.4239h-4.7917l5.0714 4.4064h2.4662l-3.443-2.876zm-18.0058 2.876c-2.4662 0-4.4199-1.9945-4.4199-4.4064 0-2.4587 2.0006-4.4064 4.4199-4.4064h5.1647c2.4662 0 4.4199 1.9945 4.4199 4.4064 0 2.4587-2.0006 4.4064-4.4199 4.4064zm5.0714-1.5771c.7637-.0045 1.4949-.309 2.0349-.8474.5401-.5384.8455-1.2673.85-2.0287-.0045-.7614-.3099-1.4903-.85-2.0287-.54-.5384-1.2712-.8428-2.0349-.8473h-4.9318c-.7637.0045-1.4949.3089-2.0349.8473-.5401.5384-.8455 1.2673-.85 2.0287.0045.7614.3099 1.4903.85 2.0287.54.5384 1.2712.8429 2.0349.8474zm32.3827 1.5771c-2.4662 0-4.42-1.9945-4.42-4.4064 0-2.4587 2.0007-4.4064 4.42-4.4064h6.1415l-1.0238 1.5771h-5.0251c-.7637.0045-1.4949.309-2.0349.8474s-.8454 1.2673-.85 2.0287c.0046.7614.31 1.4903.85 2.0287s1.2712.8428 2.0349.8473h6.1415l-1.0238 1.5772h-5.2116zm20.8907-1.5771c-1.2968 0-2.4193-.8816-2.7454-2.0869h7.3047l1.024-1.5771h-8.2817c.3254-1.2066 1.4424-2.0869 2.7453-2.0869h5.0254l1.023-1.5772h-6.1417c-2.4662 0-4.4199 1.9946-4.4199 4.4065 0 2.4586 2.0006 4.4064 4.4199 4.4064h5.2577l1.024-1.5772h-6.2347z" fill="#fff"/><path d="m159.068 380.799v-4.27c0-.112-.07-.182-.182-.182h-1.4v-1.665h1.4c.112 0 .182-.07.182-.182v-2.674h1.988v2.674c0 .112.07.182.182.182h1.959v1.665h-1.959c-.112 0-.182.07-.182.182v3.78c0 1.777.63 1.931 1.442 1.931.294 0 .741-.042.993-.07v1.736c-.336.042-.881.112-1.511.112-.77-.042-2.912-.042-2.912-3.219zm54.101 1.035 1.624-.853c.364.853 1.064 1.413 1.876 1.413.629 0 1.329-.266 1.329-1.035 0-.518-.336-.812-1.105-1.078l-1.106-.364c-1.554-.476-2.324-1.372-2.324-2.632 0-1.595 1.33-2.785 3.136-2.785 1.441 0 2.659.784 3.247 2.001l-1.624.896c-.364-.784-.952-1.218-1.651-1.218-.7 0-1.176.364-1.176.924 0 .476.364.854 1.106 1.078l1.105.364c1.624.518 2.394 1.414 2.394 2.632 0 1.931-1.652 2.925-3.317 2.925-1.666-.042-2.996-.896-3.514-2.268zm-6.117-1.665c-.042.042-.07.07-.07.112v3.555h-2.029v-13.158h2.029v7.195c0 .07.042.154.112.154.07.042.154 0 .182-.042l3.276-3.331h2.463l-3.821 3.877c-.07.07-.07.154 0 .224l4.157 5.081h-2.463l-3.206-4.003c-.042-.042-.07-.07-.112-.07s-.07 0-.112.042zm-3.093-4.27-1.288 1.218c-.742-.56-1.47-.812-2.282-.812-1.693 0-2.953 1.26-2.953 2.968s1.26 2.967 2.953 2.967c.742 0 1.512-.266 2.324-.811l1.148 1.217c-1.652 1.218-2.548 1.442-3.682 1.442-1.357 0-2.575-.476-3.457-1.372-.854-.854-1.33-2.113-1.33-3.443 0-2.786 2.03-4.815 4.829-4.815.896 0 2.268.14 3.738 1.441zm-9.505-3.961c0 .672-.546 1.218-1.218 1.218-.657 0-1.217-.56-1.217-1.218 0-.672.546-1.218 1.217-1.218.658-.014 1.218.546 1.218 1.218zm-.196 11.898h-2.029v-9.154h2.029zm-6.439-4.003v4.045h-2.029v-9.154h1.987v1.105c0 .07.042.154.112.182.07.042.154 0 .182-.07.518-.853 1.47-1.413 2.506-1.413.154 0 .252 0 .336.042v2.071c-.112-.042-.294-.042-.476-.042-1.624-.028-2.618 1.232-2.618 3.234zm-10.876-.56c0-1.666 1.26-2.968 2.87-2.968 1.623 0 2.869 1.302 2.869 2.968s-1.26 2.967-2.869 2.967c-1.61 0-2.87-1.301-2.87-2.967zm.182 3.485h.07c.042 0 .112.042.154.07.7.812 1.736 1.26 2.912 1.26 2.505 0 4.423-2.114 4.423-4.815 0-1.33-.448-2.52-1.288-3.444-.812-.895-1.96-1.371-3.163-1.371-1.148 0-2.212.476-2.912 1.329-.042.042-.112.07-.182.042-.07-.042-.112-.07-.112-.153v-4.97h-2.029v13.158h2.029v-.924c-.014-.112.028-.14.098-.182zm-8.398-.518c-1.582 0-2.87-1.301-2.87-2.967s1.26-2.968 2.87-2.968c1.623 0 2.869 1.302 2.869 2.968s-1.288 2.967-2.869 2.967zm4.759 1.596v-9.154h-1.988v.924c0 .07-.042.153-.112.153-.07.042-.154 0-.182-.041-.658-.812-1.694-1.26-2.911-1.26-2.506 0-4.424 2.113-4.424 4.815 0 2.701 1.96 4.815 4.424 4.815 1.147 0 2.211-.476 2.911-1.33.042-.07.112-.07.182-.042.07.042.112.07.112.154v1.008h1.988zm-21.823-1.596c-1.581 0-2.869-1.301-2.869-2.967s1.26-2.968 2.869-2.968c1.582 0 2.87 1.302 2.87 2.968s-1.288 2.967-2.87 2.967zm4.76 1.596v-9.154h-1.988v.924c0 .07-.042.153-.112.153-.07.042-.154 0-.182-.041-.658-.812-1.694-1.26-2.912-1.26-2.505 0-4.423 2.113-4.423 4.815 0 2.701 1.96 4.815 4.423 4.815 1.148 0 2.212-.476 2.912-1.33.042-.07.112-.07.182-.042.07.042.112.07.112.154v1.008h1.988zm-15.524-1.596c-1.624 0-2.869-1.301-2.869-2.967s1.259-2.968 2.869-2.968c1.582 0 2.87 1.302 2.87 2.968.014 1.666-1.288 2.967-2.87 2.967zm4.759 1.596v-13.13h-2.029v4.928c0 .07-.042.153-.112.153-.07.042-.154 0-.182-.042-.7-.811-1.736-1.259-2.912-1.259-2.505 0-4.423 2.113-4.423 4.815 0 1.33.448 2.519 1.288 3.443.812.896 1.959 1.372 3.163 1.372 1.148 0 2.212-.476 2.912-1.33.042-.042.112-.07.182-.042.07.042.112.07.112.154v.966h1.987v-.028z" fill="#fff"/><path d="m188.183 347.974-10.988 6.229-11.674-6.635-.546.294v4.815l12.234 6.971 10.988-6.229v2.562l-10.988 6.229-11.688-6.635-.546.294v.812l12.234 6.971 12.276-6.971v-4.815l-.546-.294-11.744 6.634-10.946-6.228v-2.52l10.946 6.187 12.276-6.971v-4.745l-.63-.336-11.646 6.593-10.358-5.893 10.358-5.851 8.553 4.815.77-.406v-.588l-9.323-5.263-12.234 6.943v.742l12.234 6.971 10.988-6.229z" fill="#fff"/><path d="m7.49608 203.882c0 2.012-1.62598 3.638-3.6378 3.638-2.01181 0-3.63779-1.626-3.63779-3.638s1.62598-3.638 3.63779-3.638h3.6378zm1.8189 0c0-2.012 1.62602-3.638 3.63782-3.638s3.6378 1.626 3.6378 3.638v9.094c0 2.012-1.626 3.638-3.6378 3.638s-3.63782-1.626-3.63782-3.638z" fill="#fff"/><path d="m12.9528 189.276c-2.0118 0-3.63782-1.626-3.63782-3.638s1.62602-3.638 3.63782-3.638 3.6378 1.626 3.6378 3.638v3.638zm0 1.846c2.0118 0 3.6378 1.626 3.6378 3.638s-1.626 3.638-3.6378 3.638h-9.12207c-2.01181 0-3.637798-1.626-3.637798-3.638s1.625988-3.638 3.637798-3.638z" fill="#fff"/><path d="m27.5315 194.76c0-2.012 1.626-3.638 3.6378-3.638s3.6378 1.626 3.6378 3.638-1.626 3.638-3.6378 3.638h-3.6378zm-1.8189 0c0 2.012-1.626 3.638-3.6378 3.638s-3.6378-1.626-3.6378-3.638v-9.122c0-2.012 1.626-3.638 3.6378-3.638s3.6378 1.626 3.6378 3.638z" fill="#fff"/><path d="m22.0748 209.339c2.0118 0 3.6378 1.625 3.6378 3.637s-1.626 3.638-3.6378 3.638-3.6378-1.626-3.6378-3.638v-3.637zm0-1.819c-2.0118 0-3.6378-1.626-3.6378-3.638s1.626-3.638 3.6378-3.638h9.1221c2.0118 0 3.6378 1.626 3.6378 3.638s-1.626 3.638-3.6378 3.638z" fill="#fff"/><path d="m244.733 80.7445h-1.922c-.068-3.2445-.255-6.2947-.561-9.1529h-.017l-2.927 9.1529h-1.463l-2.909-9.1529h-.017c-.216 2.7442-.352 5.7951-.408 9.1529h-1.752c.113-4.0832.397-7.9112.85-11.4844h2.382l2.773 8.4386h.017l2.79-8.4386h2.28c.499 4.1854.794 8.0137.884 11.4844zm8.336-8.4732c-.782 4.247-1.815 7.3329-3.096 9.2592-.999 1.4827-2.092 2.2248-3.284 2.2248-.317 0-.709-.0958-1.173-.286v-1.024c.227.0327.493.0513.799.0513.556 0 1.004-.1531 1.345-.4599.407-.3736.611-.7937.611-1.2584 0-.3187-.159-.9702-.476-1.9567l-2.109-6.5506h1.888l1.514 4.8992c.34 1.1124.482 1.8891.425 2.3315.828-2.2112 1.407-4.6221 1.736-7.2311h1.82z" fill="#fff"/><path d="m278.656 80.7446h-5.46v-11.4844h1.836v10.0707h3.624zm-6.89.2774-2.111-1.0418c.187-.1538.366-.3202.528-.513.897-1.0541 1.344-2.613 1.344-4.6778 0-3.7994-1.49-5.7-4.473-5.7-1.463 0-2.604.4821-3.42 1.4467-.897 1.0549-1.344 2.6082-1.344 4.6619 0 2.0187.396 3.4996 1.19 4.439.726.8509 1.821 1.277 3.285 1.277.546 0 1.047-.0669 1.503-.2017l2.749 1.6001zm-6.839-2.5755c-.465-.748-.697-1.9493-.697-3.6055 0-2.8916.878-4.3391 2.637-4.3391.919 0 1.593.3462 2.024 1.0371.464.7491.698 1.9396.698 3.5728 0 2.9154-.88 4.3733-2.637 4.3733-.92.0003-1.594-.3447-2.025-1.0386zm-3.438-.8851c0 .9739-.357 1.7729-1.071 2.3987-.715.6233-1.673.9357-2.874.9357-1.123 0-2.212-.3588-3.266-1.0727l.493-.9862c.907.4543 1.729.6801 2.466.6801.692 0 1.233-.1534 1.625-.4576.392-.3053.625-.7336.625-1.2751 0-.6824-.475-1.2655-1.348-1.754-.805-.442-2.415-1.3661-2.415-1.3661-.872-.6359-1.309-1.3186-1.309-2.4433 0-.9308.326-1.6822.977-2.2538.653-.5739 1.495-.8599 2.527-.8599 1.066 0 2.035.2856 2.908.8509l-.443.9866c-.746-.3172-1.483-.4758-2.21-.4758-.589 0-1.043.1415-1.359.4256-.319.2831-.516.6452-.516 1.0894 0 .679.486 1.2696 1.383 1.7677.816.4427 2.465 1.3828 2.465 1.3828.895.6348 1.342 1.3112 1.342 2.427z" fill="#fff"/><path d="m280.962 65.4136c-1.111-.0282-1.971.0836-2.693.3889-.208.0832-.539.0832-.568.3466.112.1114.125.2912.223.4449.166.2775.456.6508.721.8454.291.2229.583.4435.889.6378.54.3339 1.152.5282 1.678.861.306.1935.611.4438.917.6522.151.1111.248.2912.443.3607v-.0424c-.098-.1248-.125-.3053-.222-.4442l-.416-.4019c-.403-.5408-.903-1.0129-1.443-1.4007-.444-.306-1.416-.7221-1.596-1.2339l-.028-.0282c.305-.0286.667-.1393.957-.2244.472-.1244.903-.0962 1.387-.2206.223-.0557.444-.1255.668-.1943v-.1251c-.251-.25-.43-.5821-.695-.8183-.706-.6103-1.485-1.2072-2.289-1.7067-.431-.2782-.985-.4573-1.444-.6939-.165-.0835-.444-.1248-.541-.2637-.249-.3053-.389-.7072-.569-1.0686-.402-.7626-.791-1.6087-1.137-2.4151-.251-.5408-.403-1.0808-.708-1.5812-1.43-2.3586-2.983-3.7871-5.37-5.1893-.513-.2919-1.123-.4164-1.775-.5694l-1.041-.055c-.223-.0973-.445-.3614-.639-.4862-.792-.4992-2.831-1.5812-3.413-.1526-.375.9029.555 1.7907.874 2.2486.236.318.542.6798.707 1.0408.098.2359.125.4862.223.7354.222.6107.429 1.29.721 1.8598.153.2905.319.5958.513.8588.112.1537.306.2217.348.4724-.194.2764-.209.6935-.32 1.0404-.499 1.5678-.304 3.5101.404 4.6623.221.3469.749 1.1105 1.456.8179.625-.2496.487-1.0404.666-1.7339.042-.1675.014-.2775.098-.3874v.0271c.193.3882.389.7622.568 1.1515.43.6793 1.18 1.3873 1.804 1.8579.333.2511.596.6804 1.013.8338v-.0416h-.028c-.084-.1244-.208-.1801-.318-.2767-.251-.25-.528-.5553-.722-.8324-.582-.7774-1.096-1.638-1.553-2.5261-.224-.4309-.417-.9018-.597-1.332-.084-.166-.084-.4163-.223-.4999-.209.3049-.513.569-.665.9427-.264.5976-.292 1.3327-.39 2.0971l-.055.0268c-.442-.1111-.595-.5683-.763-.9565-.416-.9858-.486-2.5681-.125-3.7054.097-.2908.514-1.2068.348-1.4839-.084-.2656-.362-.4167-.514-.6259-.179-.2629-.375-.5957-.5-.8877-.333-.7767-.5-1.6373-.859-2.4136-.167-.3617-.458-.7361-.694-1.0693-.264-.3744-.555-.6381-.764-1.082-.069-.1527-.166-.4023-.055-.5683.027-.1114.084-.153.194-.1809.18-.1519.694.0412.874.1248.514.208.944.4023 1.374.6935.194.1393.402.403.652.4724h.292c.443.0966.942.0268 1.359.1523.736.2363 1.401.5828 1.999.9568 1.817 1.1526 3.316 2.7903 4.328 4.7462.166.3187.236.6107.388.9431.292.6805.654 1.3743.944 2.0403.291.6519.569 1.3175.985 1.859.208.2912 1.042.4439 1.416.5965.277.1245.708.2352.958.3878.472.2908.942.6248 1.386.9446.221.1664.915.5133.957.7911zm-14.154-12.0582c-.192-.002-.383.0215-.568.0698v.0279h.027c.111.2217.306.3755.444.569.112.2225.209.4431.318.6653l.027-.0275c.196-.1386.293-.3607.293-.6939-.084-.098-.097-.1939-.167-.2912-.082-.1389-.262-.208-.374-.3194z" fill="#fff"/><path d="m282.283 80.7427h.288v-1.407h-.432l-.351.9602-.383-.9602h-.415v1.407h.272v-1.0705h.015l.4 1.0705h.207l.399-1.0705zm-2.316 0h.304v-1.1685h.399v-.2389h-1.118v.2389h.414z" fill="#fff"/><path d="m64.935 342.154v-3.134c0-.083-.0514-.134-.1336-.134h-1.0276v-1.223h1.0276c.0822 0 .1336-.051.1336-.133v-1.963h1.4592v1.963c0 .082.0514.133.1336.133h1.4386v1.223h-1.4386c-.0822 0-.1336.051-.1336.134v2.774c0 1.305.4624 1.418 1.0584 1.418.2158 0 .5446-.031.7296-.051v1.274c-.2466.031-.6474.082-1.1098.082-.5652-.03-2.1374-.03-2.1374-2.363zm39.717.76 1.192-.627c.267.627.781 1.038 1.377 1.038.462 0 .976-.195.976-.76 0-.38-.246-.596-.812-.791l-.811-.268c-1.141-.349-1.706-1.007-1.706-1.931 0-1.172.976-2.045 2.302-2.045 1.058 0 1.952.575 2.384 1.469l-1.192.658c-.268-.576-.699-.894-1.213-.894s-.863.267-.863.678c0 .349.267.627.812.791l.812.267c1.192.381 1.757 1.038 1.757 1.932 0 1.418-1.213 2.148-2.436 2.148-1.223-.031-2.199-.658-2.579-1.665zm-4.491-1.223c-.03.031-.051.052-.051.083v2.61h-1.4901v-9.66h1.4901v5.282c0 .052.031.113.082.113.052.031.113 0 .134-.031l2.404-2.445h1.809l-2.805 2.846c-.052.052-.052.113 0 .165l3.052 3.73h-1.809l-2.353-2.939c-.031-.031-.052-.052-.082-.052-.031 0-.052 0-.083.031zm-2.2707-3.134-.9454.894c-.5446-.411-1.079-.596-1.675-.596-1.2434 0-2.1682.925-2.1682 2.179 0 1.253.9248 2.178 2.1682 2.178.5447 0 1.1099-.195 1.7059-.596l.8426.894c-1.2126.894-1.8702 1.059-2.7026 1.059-.9968 0-1.8908-.35-2.5382-1.007-.6268-.627-.9762-1.552-.9762-2.528 0-2.045 1.49-3.535 3.5452-3.535.6577 0 1.6647.103 2.7437 1.058zm-6.9774-2.908c0 .493-.4008.894-.894.894-.483 0-.8941-.411-.8941-.894 0-.493.4008-.894.8941-.894.4829-.01.894.401.894.894zm-.1439 8.735h-1.49v-6.721h1.49zm-4.727-2.939v2.97h-1.49v-6.721h1.4592v.812c0 .051.0308.113.0822.133.0514.031.113 0 .1336-.051.3802-.627 1.079-1.038 1.8394-1.038.113 0 .185 0 .2466.031v1.521c-.0822-.031-.2158-.031-.3494-.031-1.192-.021-1.9216.904-1.9216 2.374zm-7.9845-.411c0-1.223.9249-2.179 2.1066-2.179 1.192 0 2.1066.956 2.1066 2.179s-.9248 2.178-2.1066 2.178c-1.1817 0-2.1066-.955-2.1066-2.178zm.1336 2.558h.0514c.0308 0 .0822.031.113.052.5138.596 1.2743.925 2.1374.925 1.8395 0 3.2473-1.552 3.2473-3.535 0-.976-.3288-1.85-.9454-2.528-.596-.658-1.4387-1.007-2.3224-1.007-.8426 0-1.6236.349-2.1374.976-.0309.031-.0822.051-.1336.031-.0514-.031-.0822-.052-.0822-.113v-3.648h-1.4901v9.659h1.4901v-.678c-.0103-.082.0205-.103.0719-.134zm-6.1656-.38c-1.1612 0-2.1066-.955-2.1066-2.178s.9248-2.179 2.1066-2.179c1.192 0 2.1066.956 2.1066 2.179s-.9454 2.178-2.1066 2.178zm3.4938 1.172v-6.721h-1.4592v.678c0 .052-.0308.113-.0822.113-.0514.031-.113 0-.1336-.03-.483-.596-1.2434-.925-2.1374-.925-1.8394 0-3.2472 1.551-3.2472 3.535 0 1.983 1.4386 3.535 3.2472 3.535.8426 0 1.6236-.35 2.1374-.977.0309-.051.0822-.051.1336-.03.0514.03.0822.051.0822.113v.74h1.4592zm-16.0204-1.172c-1.1612 0-2.1066-.955-2.1066-2.178s.9249-2.179 2.1066-2.179c1.1612 0 2.1066.956 2.1066 2.179s-.9454 2.178-2.1066 2.178zm3.4939 1.172v-6.721h-1.4592v.678c0 .052-.0308.113-.0822.113-.0514.031-.1131 0-.1336-.03-.483-.596-1.2434-.925-2.1374-.925-1.8394 0-3.2473 1.551-3.2473 3.535 0 1.983 1.4387 3.535 3.2473 3.535.8426 0 1.6236-.35 2.1374-.977.0308-.051.0822-.051.1336-.03.0514.03.0822.051.0822.113v.74h1.4592zm-11.3962-1.172c-1.192 0-2.1066-.955-2.1066-2.178s.9249-2.179 2.1066-2.179c1.1612 0 2.1066.956 2.1066 2.179.0103 1.223-.9454 2.178-2.1066 2.178zm3.4939 1.172v-9.639h-1.49v3.617c0 .051-.0309.113-.0822.113-.0514.031-.1131 0-.1336-.031-.5138-.596-1.2743-.925-2.1375-.925-1.8394 0-3.2472 1.552-3.2472 3.535 0 .977.3288 1.85.9454 2.528.596.658 1.4386 1.007 2.3224 1.007.8426 0 1.6236-.349 2.1374-.976.0308-.031.0822-.051.1336-.031.0514.031.0822.052.0822.113v.709h1.4592v-.02z" fill="#fff"/><path d="m86.3092 318.056-8.0667 4.573-8.5703-4.871-.4007.216v3.535l8.9813 5.118 8.0667-4.573v1.88l-8.0667 4.573-8.5806-4.871-.4007.216v.596l8.9813 5.118 9.0121-5.118v-3.535l-.4008-.216-8.6216 4.871-8.0359-4.573v-1.849l8.0359 4.542 9.0121-5.118v-3.483l-.4624-.247-8.5497 4.84-7.6043-4.326 7.6043-4.296 6.2787 3.535.5652-.298v-.431l-6.8439-3.864-8.9813 5.097v.545l8.9813 5.117 8.0667-4.573z" fill="#fff"/><path d="m313.487 185.126c-.388-.39-.928-.63-1.529-.63-.599 0-1.134.24-1.518.63h-.01c-.387.388-.627.928-.627 1.525 0 .601.24 1.138.627 1.522l.01.011c.384.386.919.623 1.518.623.601 0 1.141-.237 1.529-.623l.005-.011c.389-.384.626-.921.626-1.522 0-.597-.237-1.137-.626-1.525zm-1.529 29.511c.601 0 1.141-.245 1.529-.628l.005-.011c.389-.382.626-.923.626-1.517 0-.601-.237-1.139-.626-1.528h-.005c-.388-.394-.928-.632-1.529-.632-.599 0-1.134.238-1.518.632h-.01c-.387.389-.627.927-.627 1.528 0 .594.24 1.135.627 1.517l.01.011c.384.383.919.628 1.518.628zm11.746-6.532c.534-.14 1.017-.483 1.313-1.001l.039-.076c.263-.491.311-1.058.171-1.562-.142-.538-.488-1.015-1.006-1.311l-.03-.021c-.504-.277-1.078-.337-1.605-.193-.536.134-1.018.491-1.311 1.004-.298.511-.36 1.098-.217 1.638.146.532.49 1.012 1.004 1.313h.003c.516.296 1.098.349 1.639.209zm-9.534-10.748c-.566-.564-1.347-.918-2.212-.918-.863 0-1.642.354-2.206.918-.563.564-.91 1.341-.91 2.206 0 .864.347 1.645.91 2.215.564.561 1.343.912 2.206.912.865 0 1.646-.351 2.212-.912.564-.57.911-1.351.911-2.215 0-.865-.347-1.642-.911-2.206zm-1.244-3.674c1.255.207 2.381.808 3.243 1.675h.006c.137.137.27.287.394.437l2.153-1.245c-.29-.874-.303-1.788-.07-2.646.306-1.148 1.051-2.176 2.167-2.82l.036-.023c1.104-.624 2.358-.754 3.491-.448 1.146.308 2.181 1.056 2.825 2.17v.003c.641 1.108.771 2.38.465 3.524-.305 1.148-1.052 2.183-2.167 2.823l-.294.174h-.03c-1.031.49-2.164.567-3.206.293-.855-.226-1.639-.704-2.253-1.381l-2.149 1.242c.247.653.384 1.357.384 2.102 0 .74-.137 1.455-.384 2.112l2.149 1.238c.614-.688 1.398-1.155 2.253-1.382 1.148-.313 2.419-.18 3.53.468l.071.033v.003c1.074.651 1.794 1.656 2.096 2.79.306 1.138.176 2.41-.465 3.52l-.039.078-.004-.007c-.644 1.071-1.659 1.796-2.779 2.103-1.149.302-2.421.173-3.53-.465v-.009c-1.116-.645-1.861-1.675-2.167-2.821-.233-.854-.22-1.768.07-2.642l-2.153-1.242c-.124.15-.257.294-.394.431l-.006.006c-.862.865-1.988 1.465-3.243 1.665v2.487c.894.187 1.695.634 2.322 1.261l.003.007c.841.837 1.361 2.003 1.361 3.284 0 1.277-.52 2.436-1.361 3.277l-.003.013c-.847.841-2.008 1.362-3.29 1.362-1.274 0-2.439-.521-3.283-1.362h-.004v-.013c-.841-.841-1.363-2-1.363-3.277 0-1.281.522-2.447 1.363-3.284v-.007h.004c.626-.627 1.428-1.074 2.319-1.261v-2.487c-1.254-.2-2.379-.8-3.239-1.665l-.009-.006c-1.074-1.078-1.746-2.563-1.746-4.208 0-1.642.672-3.127 1.746-4.205h.009c.86-.867 1.985-1.468 3.239-1.675v-2.477c-.891-.193-1.693-.64-2.319-1.264h-.004v-.007c-.841-.844-1.363-2.002-1.363-3.284 0-1.274.522-2.442 1.363-3.283l.004-.004c.844-.844 2.009-1.364 3.283-1.364 1.282 0 2.443.52 3.29 1.364v.004h.003c.841.841 1.361 2.009 1.361 3.283 0 1.282-.52 2.44-1.361 3.284l-.003.007c-.627.624-1.428 1.071-2.322 1.264zm12.091-1.652-.019-.027c-.296-.5-.77-.834-1.294-.978-.541-.143-1.123-.083-1.642.214h.003c-.517.294-.863.774-1.007 1.312-.143.534-.081 1.124.217 1.638l.01.013c.297.508.772.848 1.301.985.532.15 1.125.087 1.635-.211l.028-.013c.503-.3.838-.774.978-1.295.142-.537.085-1.124-.21-1.638z" fill="#fff"/><path d="m334.567 192.758h2.402v7.332l3.463-3.831h2.88l-4.181 4.438 4.199 5.626h-2.75l-3.611-5.025v5.025h-2.402zm11.535 8.576c0 1.249.898 3.064 3.061 3.064 1.339 0 2.22-.698 2.677-1.612.239-.444.349-.918.386-1.411.017-.478-.073-.974-.276-1.415-.421-.951-1.356-1.776-2.804-1.776-1.943 0-3.044 1.575-3.044 3.134zm8.507 4.989h-2.403v-1.448c-.64 1.171-1.979 1.759-3.391 1.759-3.227 0-5.114-2.513-5.114-5.353 0-3.17 2.291-5.333 5.114-5.333 1.833 0 2.951.972 3.391 1.779v-1.468h2.403zm2.719-8.212h-1.245v-1.852h1.245v-.567c0-2.991 2.274-3.171 3.998-3.191v1.849c-.606 0-1.595 0-1.595 1.415v.494h1.595v1.852h-1.595v8.212h-2.403zm5.631-5.353h2.401v7.332l3.465-3.831h2.879l-4.181 4.438 4.198 5.626h-2.75l-3.611-5.025v5.025h-2.401zm11.535 8.576c0 1.249.898 3.064 3.062 3.064 1.336 0 2.217-.698 2.675-1.612.24-.444.35-.918.386-1.411.017-.478-.073-.974-.276-1.415-.421-.951-1.355-1.776-2.803-1.776-1.943 0-3.044 1.575-3.044 3.134zm8.506 4.989h-2.402v-1.448c-.641 1.171-1.979 1.759-3.391 1.759-3.227 0-5.113-2.513-5.113-5.353 0-3.17 2.291-5.333 5.113-5.333 1.832 0 2.951.972 3.391 1.779v-1.468h2.402z" fill="#fff"/><circle cx="178.395" cy="195" opacity=".25" r="45.5" stroke="#abb8ff"/><circle cx="177.895" cy="195.5" r="114" stroke="#abb8ff"/><path clip-rule="evenodd" d="m328.613 139.601v8.924h2.191v-4.101l.452.008v4.093h2.215v-8.924h-2.215v3.311h-.452v-3.311z" fill="#fff" fill-rule="evenodd"/><path clip-rule="evenodd" d="m336.198 139.601h-2.134v8.924h2.134z" fill="#fff" fill-rule="evenodd"/><path clip-rule="evenodd" d="m336.547 139.601 1.686 8.924h2.544l1.686-8.924h-2.265l-.558 3.818c-.047.147-.204.147-.232 0l-.558-3.818z" fill="#fff" fill-rule="evenodd"/><path clip-rule="evenodd" d="m347.152 139.601h-4.236v8.924h4.236v-2.34l-2.355-.02v-1.003h1.122v-2.324h-1.122v-.897h2.355z" fill="#fff" fill-rule="evenodd"/><path clip-rule="evenodd" d="m324.278 112.539c-.356-.977-12.628-5.748-12.785-5.225-2.254.588-3.171 3.185-4.721 4.83l-3.443-.197c-1.516 1.95-2.312 3.943-1.77 6.013 1.944 2.634 4.2 4.874 5.606 8.182.111 1.559 6.748.163 8.17-.145-1.943 1.391-3.635 3.547-2.908 9.756.664 2.916 1.118 6.172 7.006 9.469.775.435 2.379.936 3.37 1.301.949.435 2.058.613 5.186-.343 1.811-.781 3.765-1.251 5.537-2.029l-2.13.1c-2.932.064-5.196.282-5.894-.537l-2.699-4.659 1.574-3.056c2.177.224 2.9 1.989 4.819 2.662l2.262-1.676c6.571 3.879 9.185-2.458 9.934-7.393-.08-2.008-4.348.63-4.089-.309.1-2.158-1.659-4.982-2.796-7.183l1.316-5.09c.597-.532-2.764-6.194-5.508-6.9-2.407-.62-6.037 2.429-6.037 2.429z" fill="#fff" fill-rule="evenodd"/><path clip-rule="evenodd" d="m335.072 123.357c.024.547.021 1.212.074 1.627-.009.316-.246.328-.443.394l1.279.468c.254.427.458.855.664 1.282.239 1.051.06 1.081-.099 1.158-.464.005-.926.006-1.358-.086.193.102.236.176.256.307.038.241-.117.571-.373.888.378.21 1.068.415 1.58.61l.584-1.3c-.265-1.91-1.066-3.67-2.164-5.348z" fill="#fff" fill-rule="evenodd"/><path clip-rule="evenodd" d="m337.458 129.763c.71.295 1.689.209 3.048-.491.201-.144.39-.058.028.178-1.781 1.599-2.634.799-3.076.313z" fill="#fff" fill-rule="evenodd"/><path clip-rule="evenodd" d="m340.642 129.062c.21.404.083.732.012 1.072-.22 1.733-.76 3.103-1.82 4.535-3.446 5.541-6.925 2.074-9.699-.183l-1.148 2.875c-.061.253-.314.449 1.478 1.238l1.826-1.29c6.962 5.298 11.895-7.415 9.35-8.247z" fill="#fff" fill-rule="evenodd"/><path clip-rule="evenodd" d="m329.974 134.013c-.469.034-1.867.509-1.93.785l.644-.959z" fill="#fff" fill-rule="evenodd"/><path clip-rule="evenodd" d="m329.061 128.138c.086 0 .499.111.455.086-.064-.035-.007.58.123.9l-.504 1.097c.965-1.114 2.492-1.04 3.909-1.183l-.676-.419c.117-.392-.021-.702-.086-1.035z" fill="#fff" fill-rule="evenodd"/><path clip-rule="evenodd" d="m331.433 124.836c-1.036.318-2.027.837-2.693 1.943.508-1.823.611-1.754.775-1.844.711-.318 1.292-.12 1.918-.099z" fill="#fff" fill-rule="evenodd"/><path clip-rule="evenodd" d="m325.901 146.202c-1.252 1.383-4.047-.104-6.368-.862-5.898-3.751-7.051-7.281-7.131-10.745-.303-4.961 1.221-7.844 3.148-8.527-1.276 2.459-1.87 6.872-1.279 10.154.477 1.825.487 4.905 3.542 6.553 1.496.842 1.091 1.498 2.102 2.286 1.109.865 4.199 1.686 5.986 1.141z" fill="#fff" fill-rule="evenodd"/><path clip-rule="evenodd" d="m327.773 123.273c-2.121-3.007-5.104-4.136-8.467-4.259.674-.22 1.348-.334 2.022-.659.165-.174.111-.479.049-.789-3.238-.845-5.281-1.89-7.868-2.859l6.983 1.676c4.716.179 4.311 1.343 7.281 6.891z" fill="#fff" fill-rule="evenodd"/><path clip-rule="evenodd" d="m330.043 121.823c-1.567-2.237-3.087-4.952-5.15-6.679-4.981-2.248-9.909-3.918-15.683-5.437l1.843-2.37c6.127 1.398 11.883 3.739 17.038 7.597.872 2.206 1.454 4.414 1.952 6.889z" fill="#fff" fill-rule="evenodd"/><path clip-rule="evenodd" d="m333.203 117.87s-.879-1.971-1.307-2.724c-.992-1.1-1.494-3.149-3.526-4.115.643.174 1.082-.033 2.395 1.157l2.067 3.921z" fill="#fff" fill-rule="evenodd"/><path clip-rule="evenodd" d="m334.296 121.285c.202-1.708.587-4.448.146-5.53-1.229-1.648-2.466-3.352-3.704-4.934-.205-.191-.353-.45-.514-.652 1.74.451 3.556 1.661 6.006 6.438z" fill="#fff" fill-rule="evenodd"/><path clip-rule="evenodd" d="m326.979 121.486c-.693-.545-1.311-2.475-2.361-2.876-.973-.081-1.329-.387-2.608-.127.464-.232.902-.529 1.395-.688.334-.079.647.008.965.052.079-.037.131-.083.111-.153-1.287-.796-3.927-.807-5.709-1.261 2.069.069 4.357-.045 5.912.453 1.25 1.109 1.656 3.199 2.295 4.6z" fill="#000" fill-rule="evenodd"/><path clip-rule="evenodd" d="m330.769 112.181c.287.026 1.831 2.469 1.904 2.875.128.889.445 1.885.53 2.815-.254-.892-.531-1.784-.878-2.675-.101-.246-.357-.801-1.069-1.586-.331-.553-.403-.988-.487-1.429z" fill="#000" fill-rule="evenodd"/><path clip-rule="evenodd" d="m336.002 125.486h-.66l.73.191z" fill="#000" fill-rule="evenodd"/><path clip-rule="evenodd" d="m331.494 124.826c-.664-.082-1.346-.093-2.01.054-.271.363-.29.733-.408 1.075.808-.89 1.128-.944 2.418-1.129z" fill="#000" fill-rule="evenodd"/><path clip-rule="evenodd" d="m340.556 129.42c-.37.295-.407.573-1.5.906-.797.188-1.248-.131-1.623-.561.569.163.66.593 2.185.111z" fill="#000" fill-rule="evenodd"/><path clip-rule="evenodd" d="m337.242 129.605c-.266.731-.552 1.471-.842 2.156-.688.808-.395.347-1.426 1.602.33-.509.759-.998.984-1.528.157-.349.354-.719.441-1.029-.274-.137-.833-.148-.909-.099-.917.541-1.082 1.113-1.622 1.67.391-.626.726-1.309 1.18-1.873.052-.073.388-.087.595-.13-.322-.055-.916-.171-.964-.166-.598.144-.933.665-1.377 1.011.324-.467.622-.954 1.033-1.356.041-.047 1.151.05 1.727.28l.011.229.327.132.246-.616z" fill="#000" fill-rule="evenodd"/><path clip-rule="evenodd" d="m329.989 134.016c-.147-.051-1.451-.218-1.451-.179-.5.356-.576.697-.565.992.832-.819.801-.821 2.016-.813z" fill="#000" fill-rule="evenodd"/><path clip-rule="evenodd" d="m328.999 128.126s.941-.137.922-.049c-.068.326.115 1.121.136 1.01l-.529.432c1.107-.557 2.273-.445 3.455-.53 0 0-.996-.275-.935-.284.222-.031-.059-1.038-.135-1.059.189-.064.374-.113.565-.16-1.423-.373-2.246-.153-3.479.64z" fill="#000" fill-rule="evenodd"/><path clip-rule="evenodd" d="m337.138 128.828-.209.105c-.03-.612-.687-.567-1.242-.573l-.455-.111c.139.128.566.118.394.394-.145.078-.212.411-.295.69l-.246.013c.434.169.837.318 1.315.517l.283.043.676-.363z" fill="#000" fill-rule="evenodd"/><path clip-rule="evenodd" d="m330.905 128.415c-.106-.209-.638-.179-.753-.044-.094.11-.006.817.114.697.172-.152.398-.215.67-.203.034-.13.022-.271-.031-.45z" fill="#fff" fill-rule="evenodd"/><path clip-rule="evenodd" d="m336.011 129.468c.05-.037.156-.391.122-.497-.07-.25-.565-.197-.565-.197-.121.071-.227.461-.183.589.021.109.547.144.626.105z" fill="#fff" fill-rule="evenodd"/><path clip-rule="evenodd" d="m314.838 141.686.313.03c1.854.911 4.907 2.261 9.327 1.535l.693 1.092c-1.946.945-4.04.728-6.002.794z" fill="#000" fill-rule="evenodd"/><path clip-rule="evenodd" d="m312.176 134.488.929 3.9c2.486 1.554 6.734 3.335 10.275 3.191l-.782-1.795c-7.392-1.57-8.017-3.554-10.422-5.296z" fill="#000" fill-rule="evenodd"/><path clip-rule="evenodd" d="m314.487 126.501c.454 3.022 1.06 5.313 3.688 7.232 1.61 1.158 3.209 2.311 5.153 3.263 0 0-.17.887-.313.871-5.786-.643-10.023-5.441-10.536-7.632.497-1.681 1.21-2.731 2.008-3.734z" fill="#000" fill-rule="evenodd"/><path clip-rule="evenodd" d="m317.269 124.789c.771 3.349 2.609 6.741 4.437 9.818.67.85.845 1.225 1.877 1.743 1.396.442 2.383.329 3.396.262-.278-.513-.524-1.05-.843-1.533-2.268-1.794-1.22-3.427-.618-4.461-1.261-.319-2.932-.996-3.162-1.887-.37-2.882-.182-3.796.188-5.276-1.708.36-3.438.717-5.276 1.334z" fill="#000" fill-rule="evenodd"/><path clip-rule="evenodd" d="m311.003 107c-.561.367-1.102.891-1.684 1.487-.964.998-1.605 1.972-2.587 2.694-.197.17-.748.442-1.44.483-.327.016-.539.07-1.139-.005-.529-.287-1.031-.101-1.521.486-.538.773-1.219 2.241-1.502 3.166-.584 2.357.904 4.299 2.331 5.795 1.269 1.24 2.001 2.015 2.522 3.152.395.737.687 1.749 1.003 2.458.115.225.091.224.398.292.663.141 1.583.142 2.402.213.355.005.841-.008 1.302-.056.636-.12 1.382-.238 2.008-.454.611-.151 1.156-.359 1.647-.551-.063.215-.531.421-.706.694-1.665 2.382-2.121 4.503-1.831 7.848.164 1.482.504 2.712 1.018 4.118.235.644.735 1.663 1.214 2.34 1.424 2.013 4.612 4.598 9.049 5.593.774.106 1.653.05 2.479-.17 2.19-.664 6.653-2.234 6.653-2.234s-3.962.328-5.776.148c-.42-.066-.883-.088-1.176-.374-.049-.063-.227-.423-.112-.426.157-.004.608-.191 1.304-.254-1.486-.16-1.465-.158-1.574-.429-.168-.42-.427-.995-.693-1.497.654.055 2.1.136 2.591-.371 0 0-.856.099-1.612.011-.255-.03-.69-.185-.82-.233-.34-.132-.619-.174-.684-.26-.118-.3-.198-.401-.34-.803-.193-.532-.208-1.126-.245-1.67.495.61 1.125 1.124 1.96 1.386.011-.023 1.083.466 1.861.215l.162-.052c0 .014-.516.045-.705-.049-1.584-.673-1.822-1.262-2.078-1.555l-.684-1.024c.208-.414.326-.43.601-.434.834.093 1.196.164 1.704.041.342.706.435 1.415 1.215 1.928 2.599.772 3.164-.229 3.793-1.113 1.87 1.372 4.914 1.796 7.029.024 2.687-3.11 3.538-8.013 3.3-8.293-.336-.57-.776-1.157-1.154-1.076-1.348.368-1.845 1.052-3.181.896.159-.009.427-.013.429-.028.103-1.131-.009-1.679-.058-1.773-.405-.893-.938-1.834-1.309-2.539-.095-.146-.376-1.257-.847-1.696-.202-.172-.696-.627-.696-.627l-.042.483s.193.029.267.329c.279 1.134 1.698 3.817 1.802 3.945.503.812.051 1.823.433 2.391.037.072.78-.007 1.356.029.948-.204.908-.621 1.726-.684.551-.042.607.993.599 1.073-.102 1.143-.45 2.472-.982 3.686-1.107 2.132-2.346 4.047-4.103 4.314-2.144.374-3.258-.563-4.42-1.16l-.445.379c-1.51 1.504-3.303 1.371-4.036-.594-.365-.763-.841-1.23-1.249-1.884l-2.16 1.556c-.18.369-.401.951-.67 1.601-.186.451-.343 1.227-.333 1.872-.277.471.959 2.385 1.741 3.548.23.344.66.944.675.981.155.402.494.757.514.8 1.45 1.891-1.829 1.456-2.506 1.341-1.336-.213-2.643-.771-3.872-1.517-.071-.043-.142-.087-.213-.132-1.46-.919-2.803-2.095-3.945-3.259-.681-.771-1.33-2.351-1.809-3.472-.718-2.694-1.748-7.365 1.043-10.903.177-.203.368-.54.53-.606.829-.561 1.73-.943 2.698-1.155l-.098-.628c-.483.11-2.112.705-2.572.955-1.047.303-1.915.62-3.249.954-.434.053-.861.054-1.276-.003-.96-.13-2.596-.014-2.7-.11-.65-.907-.828-2.53-1.421-3.399l-.007-.009-.008-.008c-.345-.465-.748-.844-1.145-1.238-1.421-1.412-2.637-2.777-2.978-4.224-.085-.427-.306-.869-.188-2.133l.002-.006.002-.006c.342-1.181.898-2.143 1.842-3.108.982.016 1.954.038 2.712.183.347.058 1.07.152 1.816.43 1.889.704 4.385 1.861 4.385 1.861-1.874-1.029-3.969-2.366-5.292-2.635-.196-.028-.317-.118-.376-.275 1.99-1.169 2.354-2.545 3.663-3.78.598-.26.831-.393 1.339-.448 4.7.743 7.659 2.615 9.999 3.867.95.516 1.814.907 2.639 1.378.723.237 2.904 1.884 3.543 2.772.648 1.37 1.122 2.849 1.554 4.277.309 1.451.581 2.04.581 2.04s-.263-1.214-.219-1.432c.273.102.918.303 1.185.272 0 0-1.194-.618-1.351-1.163-.502-1.752-1.006-4.478-1.142-4.62-.383-.482-1.979-1.704-2.959-2.269-.37-.214-.57-.346-.586-.44.313-.316.699-.734 1.046-1 .332-.255.634-.542 1.097-.714 2.034-.916 3.198.353 3.474.096 0 0-.438-.502-.244-.419.199.108.848.235.919.301.742.58 2.68 2.7 3.848 4.936.281.548.395.909.265 1.569s-.231 1.023-.374 1.464c-.128.295-.856 2.313-.853 2.584-.146 1.108.475 2.494.475 2.494.006-.376-.023-.577.011-.846l.042-.481s-.027-.128-.022-.178c.032-.333.113-.612.137-.803.234-1.446.64-2.487 1.1-3.756.137-.321.316-.499.307-.743.008-.432-.38-1.013-.659-1.581-.283-.573-.62-1.212-1.063-1.886-1.009-1.452-1.87-2.588-3.446-3.298-.441-.194-2.176-.383-2.776-.271-.727.152-1.352.301-1.85.62-.784.502-1.401 1.28-2.124 1.738-1.599-.799-2.371-1.398-2.515-1.48-.95-.51-2.091-1.101-3.319-1.661-.588-.549-4.243-1.862-7.59-2.124zm20.457 29.827c-.986-.77-1.816-1.563-2.363-2.38-.178.961-.826 1.645-1.327 2.318-.1.157-.172.373.319 1.058.133.183.611.214.935.197-.329-.248-.829-.511-.91-.739.578.394 1.114.507 1.598.444.111-.013.248-.13.354-.311.216-.463.385-.575.556-.7l.393.493z" fill="#000" fill-rule="evenodd" stroke="#000" stroke-width=".11397"/><path d="m174.457 165.588c-.108.321.538 2.996 1.506 5.885.968 2.888 1.775 5.563 1.775 5.884 0 .374-2.797 2.14-6.777 4.333-3.712 2.033-6.777 3.958-6.777 4.279 0 .482 1.667.696 7.637.963l7.638.375v2.407c.269 8.398.645 12.678 1.237 12.678.323 0 2.205-2.836 4.195-6.366 1.937-3.477 3.766-6.526 3.981-6.794.322-.321 2.044 0 6.293 1.391 3.711 1.177 5.916 1.765 6.185 1.498.323-.321-1.129-2.461-3.926-6.098l-4.411-5.671 2.905-5.777c3.603-7.221 3.496-7.382-3.765-3.637-2.851 1.444-5.379 2.674-5.648 2.621-.215 0-2.904-1.926-5.916-4.28-3.013-2.353-5.594-4.279-5.702-4.279-.107 0-.323.321-.43.642z" fill="#ea4040"/><path d="m148.047 203.889c-6.239 6.634-11.241 12.143-11.08 12.304.162.16 5.702-4.815 12.371-11.02 9.144-8.505 12.049-11.447 11.941-12.143-.108-.481-.538-.909-.968-.963-.699-.107-3.658 2.782-12.21 11.876z" fill="#ea4040"/><path d="m169.993 193.512c-3.658 3.37-37.813 40.12-37.597 40.44.107.214.968-.32 1.828-1.069.861-.803 9.198-8.559 18.557-17.225 21.568-19.953 21.622-20.06 21.299-21.29-.376-1.177-.591-1.445-1.828-1.819-.7-.214-1.291 0-2.259.909z" fill="#ea4040"/><path d="m161.387 217.156c-6.24 6.633-11.242 12.143-11.08 12.303.161.16 5.701-4.814 12.37-11.02 9.144-8.505 12.049-11.447 11.941-12.142-.107-.482-.538-.91-.968-.963-.699-.107-3.658 2.781-12.21 11.875z" fill="#ea4040"/><g fill="#fff"><path d="m190.497 17.5133-7.51 2.4533-6.533 2.8844-1.827.483c-.466.443-.954.892-1.482 1.3461-.579.5-1.119.9541-1.533 1.2832-.459.3631-1.14 1.045-1.487 1.4762-.517.6471-.926 1.3342-1.102 1.8622-.312.9541-.159 1.9193.443 2.8113.772 1.1361 2.31 2.2943 4.104 3.0834.914.4031 2.452.9201 3.61 1.2092 1.924.4881 5.647 1.0162 7.697 1.0961.414.017.97.017.993 0 .045-.0289.363-.6361.733-1.3912 1.26-2.5723 2.168-4.9856 2.662-7.0468.295-1.2492.528-2.9134.681-4.8836.04-.5511.057-2.3963.023-3.0213-.051-1.0222-.142-1.8513-.284-2.6633-.023-.1191-.029-.2271-.017-.233.023-.017.091-.04 1.016-.307l-.187-.443zm-1.715 1.0051c.068 0 .25 1.7432.295 2.8453.011.233.006.3861-.006.3861-.045 0-.959-.5392-1.611-.9482-.568-.358-1.647-1.0731-1.817-1.2092-.057-.04-.051-.0451.414-.2041.789-.267 2.663-.869 2.725-.869zm-3.825 1.2611c.051 0 .181.074.493.267 1.17.7322 2.759 1.6182 3.44 1.9141.21.091.233.057-.25.3861-1.032.7041-2.321 1.3971-3.899 2.0953-.278.125-.511.2211-.517.2211-.011 0 .023-.142.068-.3121.38-1.4141.596-2.8453.608-3.9924.004-.3787.023-.5737.057-.5851-.011.006-.006.006 0 .006zm-.789.301c.034.034.011 1.3062-.034 1.6523-.102.829-.261 1.6012-.522 2.4702-.062.2101-.119.3861-.131.3971-.023.0281-.801-.7321-1.056-1.028-.443-.5111-.789-1.0222-1.044-1.5222-.131-.2559-.335-.7551-.318-.7721.091-.0621 3.082-1.2211 3.105-1.1981zm-3.712 1.4592c.006 0 .011 0 .017.006.011.011.051.102.085.2041.182.494.59 1.2211.942 1.6862.386.5111.89 1.0562 1.311 1.4142.136.1139.261.221.278.238.034.0341.045.0281-.88.3802-1.072.409-2.242.818-3.582 1.2491-.319.1029-.64.2075-.958.3121-.051.017-.034-.0111.113-.244.664-1.0392 1.674-3.0775 2.242-4.5205.097-.25.193-.5.21-.5562.023-.0799.051-.108.125-.1479.04-.0111.08-.023.097-.023zm-1.135.4711c.017.0111-.273.6191-.557 1.1752-.55 1.0732-1.152 2.1293-1.958 3.4125-.136.2211-.267.426-.284.449-.028.0399-.04.028-.131-.148-.193-.3801-.352-.8691-.437-1.3172-.085-.443-.068-1.2152.028-1.6922.074-.352.068-.3461.238-.432.727-.369 3.076-1.4711 3.099-1.4481zm9.791.398v.2381c0 1.2662-.136 3.0043-.335 4.2705-.034.2211-.063.403-.068.409 0 0-.165-.0451-.358-.1021-.851-.267-1.776-.659-2.611-1.1182-.551-.301-1.35-.7951-1.328-.818.006-.006.244-.131.522-.2781 1.112-.5791 2.179-1.2041 3.105-1.8231.346-.233.868-.6072.981-.7101l.091-.068zm-14.077 1.6811c.023 0 .017.0451-.017.25-.023.148-.051.4201-.062.6072-.046.8291.091 1.4422.5 2.2832.114.233.204.426.199.4311-.04.034-3.797 1.1361-4.978 1.4592-.352.0961-.659.182-.681.1871-.04.0111-.045.006-.028-.091.131-.835.766-1.9252 1.651-2.8453.591-.6131 1.062-.9711 1.868-1.4311.579-.3291 1.47-.8232 1.538-.8461 0-.006.006-.006.011-.006zm8.856 1.5842c.006-.0059.142.0681.307.165 1.214.7041 2.906 1.3572 4.347 1.6922l.131.0281-.182.102c-.755.4201-3.235 1.4541-5.772 2.4023-.369.136-.732.2729-.801.301-.068.0281-.131.0451-.131.04s.102-.2041.233-.449c.71-1.3291 1.425-2.9474 1.789-4.0715.046-.108.074-.2041.08-.2101zm-.903.2951c.006.006-.04.125-.097.2611-.494 1.1981-1.141 2.5043-1.969 3.9694-.21.375-.386.6761-.392.6761s-.176-.1021-.38-.2271c-1.204-.7381-2.271-1.6471-2.968-2.5272l-.102-.125.516-.1421c1.851-.5051 3.423-1.0501 4.984-1.7202.221-.091.403-.165.409-.165zm5.608 1.9592c.006.131-.284 1.3002-.522 2.1463-.199.7101-.369 1.2662-.68 2.2484-.136.4319-.255.7891-.261.7891s-.04-.006-.074-.017c-1.686-.307-3.196-.733-4.615-1.3002-.398-.159-.965-.415-.999-.443-.011-.0111.329-.1701.761-.358 2.582-1.1302 5.261-2.4134 6.181-2.9644.108-.068.193-.102.21-.102zm-12.947.4431c.011.011-.71 1.0501-1.719 2.4643-.352.494-.761 1.0731-.914 1.2891s-.386.5562-.517.7611l-.239.369-.256-.2159c-.301-.2501-.823-.7841-1.055-1.0791-.488-.6072-.818-1.2492-.948-1.8343-.062-.2729-.062-.409-.006-.426.085-.0229 1.6-.3801 3.02-.71.789-.182 1.702-.3971 2.032-.4771.329-.0799.596-.142.602-.142zm.727.278.182.2041c.817.9141 1.651 1.5902 2.662 2.1803.182.1021.318.193.307.199-.04.0281-3.508 1.2602-5.115 1.8172-.902.318-1.646.5731-1.651.5731s-.057-.034-.114-.0739l-.102-.074.165-.2381c.534-.7721 1.203-1.6182 2.662-3.3785l1.005-1.2092zm4.529 3.2424c.006-.0059.255.0851.562.199.738.2781 1.323.4541 2.107.6531.964.244 2.361.483 3.184.551.125.0111.193.023.17.04-.04.0229-.874.301-1.488.494-.976.307-3.957 1.1871-6.386 1.8853-.449.1309-.835.2381-.857.244-.057.0111-.244-.04-.244-.0621 0-.011.136-.187.301-.3801.818-.977 1.63-2.0672 2.305-3.1004.187-.284.346-.517.346-.5221zm-.998.0281c.006.0059-.397.6531-1.101 1.7662-.301.4711-.636 1.0051-.755 1.1922-.114.1819-.284.466-.38.625l-.165.2899-.085-.0229c-.204-.057-1.64-.5621-2.02-.7152-.471-.187-.96-.4141-1.323-.6071-.454-.2441-1.021-.608-.976-.6191.011-.0059.788-.216 1.725-.4711 2.486-.676 3.866-1.0672 4.769-1.3512.165-.051.306-.091.312-.085zm7.067 1.6582h.006c.023.0569-.897 2.6123-1.232 3.4184-.074.182-.102.227-.142.2211-.097-.006-1.431-.193-2.242-.3121-1.414-.216-3.786-.6301-4.382-.767l-.136-.0281.846-.193c1.816-.409 2.69-.6301 3.576-.9031 1.118-.341 2.225-.767 3.343-1.2891.176-.0799.324-.142.363-.148z"/><path d="m182.754.00029297c-.125-.01700707-2.14.71004503-3.44 1.23811703-1.754.71599-3.116 1.39713-3.956 1.98727-.312.22195-.703.61311-.765.76702-.023.05698-.034.125-.034.19303l.76.7211 1.811.57909 4.308.77212 4.927.84611.051-.42603c-.017 0-.028-.00595-.045-.00595l-.647-.10205-.13-.23299c-.67-1.18115-1.408-2.6463-1.839-3.63441-.335-.76702-.653-1.65224-.829-2.288305-.097-.3860604-.108-.40901991-.17-.41412203zm-.091.28997003h.006c.006.005953.028.164969.051.352047.096.79508.273 1.56125.551 2.39034.21.62501.21.591-.034.51702-.579-.15902-3.173-.60715-5.052-.86906-.3-.03997-.555-.07909-.555-.08504-.023-.02296 1.356-.74406 1.964-1.02808.778-.35799 2.912-1.249165 3.071-1.278077zm-5.471 2.544257.222.07398c1.203.40902 4.228.98811 5.897 1.12417.187.01701.346.03401.352.03401.006.00595-.153.09099-.358.18708-.806.40307-1.691.89712-2.304 1.27808-.182.1131-.346.20409-.369.20409s-.142-.02296-.267-.03997l-.227-.03401-.568-.55614c-.999-.9711-1.782-1.72026-2.083-2.00428zm-.227.17602.801.99917c.436.55103.879 1.09015.976 1.2092.096.11905.176.21599.17.22194-.023.01701-1.157-.20408-1.759-.34099-.619-.14201-.874-.21004-1.255-.32909l-.312-.10204v-.07993c.006-.38011.488-.94814 1.306-1.52724l.074-.05102zm6.8 1.36312c.023 0 .051.05102.119.20408.193.42603.795 1.57316.942 1.79425.046.07398.125.07993-.676-.05102-1.924-.31208-2.543-.41412-2.543-.42603 0-.00595.057-.04507.131-.08503.595-.32909 1.197-.74916 1.731-1.19815.131-.108.25-.21004.272-.22705.006-.01105.017-.017.023-.01105z"/><path d="m174.632 3.91271s-.125.19898-.006.49406c.074.18197.29.40306.533.63011 0 0 2.527 2.46432 2.833 2.81637 1.396 1.61227 2.003 3.20245 2.06 5.39465.034 1.4082-.233 2.6463-.897 4.0825-1.18 2.5783-3.673 5.4227-7.515 8.5801l.561-.1871c.363-.2729.857-.5621 2.016-1.1981 2.673-1.4652 5.682-2.8113 9.371-4.1965 5.313-1.9992 14.049-4.3385 19.021-5.0996l.516-.0799-.08-.125c-.453-.7041-.766-1.1412-1.14-1.6072-1.09-1.3512-2.413-2.4473-4.03-3.3563-2.225-1.24325-5.104-2.21435-8.747-2.93545-.687-.13606-2.197-.39712-3.423-.58505-2.601-.40306-4.28-.68113-6.131-.99916-.663-.11395-1.657-.28402-2.316-.42603-.341-.07398-.994-.22704-1.504-.40307-.409-.15901-.999-.31803-1.124-.80103zm1.464 1.42009c.006-.00595.096.02806.216.06803.216.07398.494.15902.823.25.249.06888.499.13521.749.19899.341.08503.624.16497.63.16497.04.03996.612 1.87417.805 2.57827.074.26701.131.49405.125.49405-.006.00595-.068-.09099-.142-.22109-.663-1.17009-1.714-2.35633-2.929-3.31043-.159-.11309-.278-.21599-.278-.22109zm2.792.77212c.028 0 .153.01701.307.05102.965.21599 2.696.54508 3.803.73216.187.02806.335.06292.335.07398 0 .01105-.068.05102-.153.09694-.187.09609-.942.54507-1.192.71515-.629.42007-1.197.87416-1.606 1.28318-.165.16497-.307.30102-.307.30102s-.034-.09609-.062-.21599c-.204-.78912-.63-1.95921-1.016-2.78235-.062-.13096-.114-.25001-.114-.26106 0 .01105 0 .00595.006.00595zm4.916.93709c.034.01106.091.20409.204.63011.21.82315.307 1.74323.273 2.60128-.011.2381-.023.46-.034.4881l-.017.0569-.295-.0961c-.608-.193-1.595-.483-2.44-.7211-.483-.13091-.874-.24996-.874-.26102 0-.03401.704-.7381 1.004-1.00512.573-.5051 2.129-1.70921 2.18-1.6922zm.392.05698c.017-.01701 2.35.38606 3.411.59099.789.15306 1.935.39201 2.003.42008.034.01105-.085.07908-.465.25-1.499.67603-2.612 1.28318-3.718 2.02124-.29.1931-.534.3521-.539.3521s-.011-.165-.011-.3631c0-1.0791-.216-2.16926-.613-3.08934-.04-.09099-.074-.17602-.068-.18197zm6.034 1.19219c.017.01701-.057.47705-.125.74916-.204.8461-.755 2.10126-1.431 3.28236-.119.21-.226.3801-.238.3861-.011.0059-.165-.08-.341-.182-.659-.3861-1.408-.7492-2.226-1.0902-.226-.0961-.425-.176-.43-.187-.04-.0341 1.787-1.2441 2.753-1.8232.766-.46599 2.015-1.15818 2.037-1.13607zm.431.06803c.051 0 1.085.28402 1.623.44303 1.334.39712 2.867.96005 3.866 1.41416l.414.1871-.289.068c-2.44.5621-4.529 1.2092-6.545 2.0272-.165.0681-.312.125-.324.125s.045-.1309.119-.2899c.608-1.2892.999-2.63529 1.096-3.78241.006-.108.023-.19303.04-.19303zm-10.285 2.36229c.017-.017.806.1701 1.232.2891.646.182 2.02.642 2.02.676 0 .006-.153.1361-.335.2951-.744.6191-1.458 1.2721-2.316 2.1012-.256.2441-.471.4431-.483.4431s-.017-.034-.011-.08c.131-.9541.102-2.1803-.079-3.4243-.017-.1591-.034-.2951-.028-.3011zm16.58.017c.011.0111-.363.602-.602.9371-.341.4881-.84 1.1361-1.969 2.5553-.596.7492-1.266 1.5953-1.487 1.8793-.227.284-.415.5221-.42.5221s-.079-.102-.159-.227c-.635-.9541-1.396-1.7892-2.299-2.5384-.17-.142-.358-.295-.42-.3409-.062-.0451-.114-.091-.114-.0961 0-.017.965-.432 1.698-.7271 1.282-.5221 3.031-1.1471 4.342-1.5502.687-.216 1.42-.426 1.431-.4141zm.437.1131c.023-.006.159.0629.324.159 1.379.7891 2.73 1.8062 3.798 2.8504.3.2951 1.044 1.0672 1.032 1.0731 0 0-.261.023-.567.0451-2.39.182-5.45.6871-8.39 1.3971-.199.0451-.375.0851-.386.0851s.21-.2211.488-.4881c1.726-1.6642 2.514-2.7144 3.445-4.5885.131-.2781.244-.517.255-.5341-.004 0-.004 0 0 0zm-12.641 1.2951c.08.017.817.3631 1.373.642.511.2551 1.278.6641 1.317.6981.006.006-.267.148-.602.3121-1.067.534-1.981 1.0392-2.935 1.6182-.273.165-.5.3011-.505.3011-.023 0-.017-.023.136-.3011.511-.9311.92-2.0442 1.153-3.1284.023-.085.045-.142.062-.142zm-.738.136c.017.017-.176.7152-.295 1.0961-.233.7211-.625 1.6242-1.005 2.3054-.091.159-.227.392-.301.5221l-.142.227-.317-.307c-.369-.358-.67-.5791-1.056-.778-.153-.0791-.273-.148-.273-.1591 0-.045.971-.9251 1.714-1.5612.534-.46 1.658-1.3631 1.675-1.3461zm4.513 1.8572.278.182c.635.415 1.384.9651 1.958 1.4481.324.267.948.8291 1.073.9652l.068.074-.46.1309c-2.6.7211-4.609 1.3631-6.953 2.2262-.261.0961-.483.1761-.5.1761-.034 0-.062.028.522-.5111 1.498-1.3801 2.827-2.9014 3.815-4.3836l.199-.3069zm-1.187.2951c.011.011-.767 1.1071-1.232 1.7262-.556.7381-1.543 1.9762-2.225 2.7824-.284.335-.528.6131-.539.619-.017.006-.023-.0791-.023-.21 0-.6871-.176-1.4201-.483-2.0443-.131-.261-.153-.324-.125-.352.108-.097 1.76-1.0392 2.805-1.6012.703-.375 1.804-.9312 1.822-.9201zm-7.175 1.7602c.017 0 .148.068.295.148.363.199.687.4201.977.659.011.0111-.136.131-.329.2721-.539.3861-1.357 1.0051-1.834 1.3852-.499.3972-.516.4091-.46.324.375-.5731.562-.8971.761-1.3121.176-.369.352-.8061.477-1.1871.045-.1649.102-.2899.114-.2899zm1.913 1.4992c.029-.006.063.0451.216.273.324.483.573 1.1301.636 1.6522l.011.1139-.778.3011c-1.39.5391-2.673 1.0731-3.541 1.4702-.244.114-.67.3181-.948.4541-.278.142-.505.25-.505.2441 0-.006.176-.1361.392-.2951 1.697-1.2322 3.167-2.5834 4.268-3.9354.119-.1421.227-.273.238-.2781zm-.879.216c.023.0229-.625.7551-1.067 1.2041-1.096 1.119-2.179 1.9932-3.525 2.8453-.17.108-.324.204-.341.2159-.04.023.011-.034.602-.676.375-.403.659-.744.982-1.1641.216-.2781.256-.318.568-.5391.834-.6021 2.758-1.9082 2.781-1.8853z"/><path d="m156.619 41.4236c-.104 0-.209.0102-.313.0102-2.115.1131-3.541 1.0442-4.376 2.8622-.713 1.6446-.636 3.7943.008 5.4491.748 1.6165 1.957 2.4703 3.975 2.7926.427.0697.713.3044 1.54 1.2704l1.018 1.193h1.845l-1.227-1.2372c-.679-.6786-1.228-1.2696-1.228-1.3215 0-.0518.259-.1658.574-.261 1.035-.3138 1.895-1.114 2.497-2.3402.487-.9847.557-1.2891.627-2.5145.182-3.648-1.74-5.9278-4.941-5.9023zm1.619 9.5384c-.898.4353-2.202.5221-3.053.2092-.879-.3232-1.731-1.2373-2.114-2.2722-.426-1.1318-.366-3.2194.121-4.1599.783-1.4966 1.819-2.1854 3.332-2.1854 2.245 0 3.522 1.375 3.688 3.9601.132 2.1573-.59 3.7764-1.973 4.4473zm31.88-6.4228c-.775 0-1.367.3138-1.766.9312l-.313.4889v-1.2712h-1.34v7.6242h1.339v-2.4371c0-2.2288.028-2.489.339-3.0987.429-.8359 1.167-1.2534 1.88-1.0536l.479.1395v-1.3215h-.619v-.0017zm-7.871-.0697c-.263 0-.541.0349-.818.0961-1.793.4686-2.803 2.1854-2.741 3.9516 0 1.4788.287 2.2186 1 2.9941 1.461 1.1998 2.783 1.2951 4.567.6514.305-.1301.636-.2798.636-.2798v-1.1998l-.636.329c-1.443.6284-2.53.6284-3.401-.1122-.556-.5655-.8-1.2449-.913-2.0187h5.401v-1.0281c0-2.0961-1.26-3.4193-3.096-3.3853h.001zm-2.185 3.3436s.2-1.307.94-1.8206c.357-.2517.765-.3733 1.166-.3733.4 0 .8.1301 1.131.3827.678.5221.792 1.801.792 1.801h-4.028v.0102zm-32.298-1.375c-1.453-.8801-2.097-1.5153-2.018-2.2637.225-2.0706 2.783-1.784 4.2-1.0008l.01-1.3929s-.783-.3393-1.906-.3571c-1.722-.0264-2.834.5391-3.356 1.6888-.766 1.6964-.088 2.9762 2.365 4.4031 1.377.801 1.984 1.4966 1.984 2.2551 0 1.5672-1.888 2.114-3.837 1.131-.401-.1998-.74-.3665-.758-.3665-.07.4439-.034 1.5068-.034 1.5068s.599.2517 1.496.4252c2.226.4439 4.253-.6004 4.444-2.2977.167-1.5927-.409-2.4277-2.591-3.7322v.0009zm54.211-1.9864c-.262 0-.539.0357-.828.0969-1.791.4694-2.799 2.1854-2.73 3.9524 0 1.4771.287 2.2093 1 2.9839 1.461 1.2007 2.783 1.2977 4.575.6531.304-.1301.634-.2772.634-.2772v-1.2016l-.634.3317c-1.447.6267-2.534.6267-3.402-.114-.559-.5646-.801-1.2355-.914-2.0187h5.393v-1.0281c0-2.0859-1.261-3.4099-3.096-3.375l.003-.0017zm-2.184 3.3435s.201-1.3052.941-1.8282c.355-.2526.764-.3742 1.164-.3742.401 0 .801.1301 1.132.3835.678.5222.792 1.8104.792 1.8104h-4.028v.0094zm-24.557-1.3401c-1.452-.8784-2.095-1.5153-2.017-2.2636.226-2.0715 2.783-1.7841 4.2-1.0009l.01-1.3929s-.783-.3393-1.905-.3554c-1.722-.0256-2.835.5391-3.358 1.6888-.765 1.6964-.078 2.9762 2.367 4.4031 1.374.8002 1.983 1.4873 1.983 2.2458 0 1.5672-1.887 2.1225-3.837 1.1309-.398-.1998-.737-.3639-.758-.3639-.069.4439-.034 1.5068-.034 1.5068s.592.2424 1.487.4252c2.229.4447 4.256-.5987 4.446-2.2951.166-1.5851-.409-2.4201-2.584-3.7254v-.0017zm34.613-1.9329c-.774 0-1.373.3147-1.765.932l-.314.4873v-1.2696h-1.34v7.6226h1.339v-2.4371c0-2.228.027-2.489.339-3.0979.43-.835 1.167-1.2534 1.881-1.0527l.478.1394v-1.324h-.619zm-45.267 1.8895v-4.8563h-1.35v10.7561h5.68v-1.2705h-4.33v-4.6301zm31.236 1.5137-1.113 2.898-1.07-2.9142-1.088-3.2296h-1.383c.896 2.5408 1.87 5.1259 2.854 7.6319.426.0102.852 0 1.278 0l1.504-3.7764 1.531-3.8547h-1.322s-.584 1.5306-1.192 3.2458h.001zm-28.124-9.3012c.218 0 .399-.0697.549-.2194.147-.148.225-.3214.225-.5391s-.078-.3988-.225-.5391c-.15-.1395-.323-.2101-.539-.2101-.217 0-.402.0697-.549.2177-.149.148-.217.3291-.217.5391 0 .2101.069.4014.217.5392.14.1394.322.2091.539.2091v.0017zm-.478-1.2373c.13-.1301.287-.1896.488-.1896.19 0 .347.0604.479.1896.13.1301.2.2874.2.4788 0 .1913-.07.3571-.2.4872-.132.1293-.289.1914-.479.1914-.189 0-.349-.0596-.478-.1914-.13-.1301-.2-.295-.2-.4872s.06-.3495.19-.4788zm.322.5494h.087c.062 0 .123.0595.175.1734l.104.2356h.165l-.13-.2619c-.053-.1046-.104-.1659-.166-.1829.077-.0178.138-.0442.182-.0961.044-.045.06-.1054.06-.1743 0-.0799-.025-.1394-.078-.1837-.059-.0501-.155-.0765-.279-.0765h-.277v.9754h.139v-.409h.017zm0-.4533h.121c.088 0 .15.0179.184.0442.033.0264.042.0604.042.1216 0 .1131-.07.1659-.2.1659h-.15v-.3317h.002zm-22.312.3665c0-.3393-.01-.5918-.018-.7406h.008c.035.1751.078.3061.113.3928l1.297 2.898h.218l1.297-2.9243c.035-.08.07-.1999.113-.3665h.01c-.025.2891-.035.5408-.035.7415v2.5578h.444v-3.8019h-.557l-1.191 2.6446c-.045.1046-.105.2619-.183.4694h-.018c-.026-.1029-.087-.2594-.173-.4515l-1.166-2.6719h-.591v3.802h.426v-2.5485l.007-.0017zm4.419.0068h.383v2.3683h-.383zm.191-.8682c.08 0 .148-.0272.199-.0799.053-.0519.088-.1199.088-.1999 0-.0799-.026-.1479-.087-.1998-.053-.0527-.122-.0799-.201-.0799s-.148.0272-.2.0799c-.053.0519-.087.1216-.087.1998 0 .0868.027.148.087.1999.061.0527.122.0799.2.0799zm2.923 3.2883v-.4175c-.21.1565-.435.2347-.668.2347-.28 0-.506-.0961-.672-.2798-.165-.1819-.252-.4345-.252-.7483s.087-.591.269-.7908c.175-.1913.402-.2874.679-.2874.226 0 .443.0697.644.21v-.4439c-.183-.0961-.391-.1394-.627-.1394-.435 0-.774.1394-1.027.409-.252.2696-.381.6361-.381 1.0774 0 .3929.113.7236.347.9762.244.2594.557.3912.94.3912.296-.0085.539-.0698.748-.1922zm1.096-1.2627c0-.3121.07-.5647.2-.739.122-.1565.27-.2356.444-.2356.148 0 .252.0273.329.0876v-.4532c-.06-.0255-.146-.0349-.259-.0349-.157 0-.296.0528-.419.1497-.131.1029-.234.2593-.295.4592h-.01v-.5561h-.434v2.7143h.435v-1.3929h.009zm2.498 1.4473c.409 0 .738-.1319.982-.3929.243-.2594.365-.6089.365-1.0442 0-.4354-.111-.7832-.339-1.0358-.225-.2525-.539-.3741-.948-.3741s-.739.1216-.983.3571c-.26.2594-.398.6259-.398 1.0961 0 .409.111.7483.347 1.0009.243.261.565.392.973.392v.0009zm-.619-2.2118c.166-.1743.383-.2619.653-.2619.269 0 .488.0867.644.2619.156.1828.235.443.235.7917 0 .3486-.07.5918-.218.7661-.148.1829-.365.2798-.653.2798s-.495-.0969-.661-.2798c-.165-.1836-.243-.4354-.243-.7661-.017-.3291.07-.5987.243-.7917zm3.871 1.9754c.166-.148.253-.3291.253-.557 0-.1999-.07-.3648-.2-.4958-.105-.1046-.269-.1998-.505-.2951-.21-.0875-.34-.1658-.409-.2262-.07-.0697-.113-.1564-.113-.2797 0-.1131.044-.1998.13-.2696.087-.0697.2-.1037.349-.1037.235 0 .435.0621.619.1922v-.4354c-.176-.0876-.366-.1293-.584-.1293-.28 0-.515.0766-.689.2254-.182.1479-.269.3393-.269.5646 0 .1998.06.3657.173.4873.096.1037.26.21.487.3044.218.0961.366.1828.444.2525.078.0698.113.1565.113.2594 0 .2534-.173.3844-.512.3844-.262 0-.496-.0859-.706-.2594v.4685c.19.114.418.1659.668.1659.322-.017.575-.0961.748-.2526h.003zm2.07-2.6106c-.408 0-.738.1216-.982.3571-.259.2594-.399.6259-.399 1.0961 0 .409.113.7483.347 1.0009.245.261.565.392.975.392s.739-.1318.983-.3929c.244-.2593.366-.6088.366-1.0442s-.114-.7832-.339-1.0357c-.236-.2526-.549-.3742-.948-.3742h-.002v.0009zm.844 1.4269c0 .3316-.069.5918-.217.7661-.148.1829-.366.2798-.653.2798s-.495-.0969-.661-.2798c-.165-.1836-.243-.4354-.243-.7661 0-.3495.086-.6191.261-.8002.165-.1735.383-.2619.653-.2619.271 0 .486.0876.643.2619.139.1913.217.4524.217.8002zm1.176 1.358h.434v-2.3504h.636v-.3657h-.636v-.4192c0-.3809.148-.5731.453-.5731.103 0 .208.0255.286.0697v-.392c-.078-.0349-.183-.0425-.314-.0425-.234 0-.425.0697-.582.2177-.183.1734-.28.3988-.28.7049v.4448h-.459v.3648h.459v2.341l.004-.0017zm1.782-.7407c0 .5306.235.8011.714.8011.173 0 .304-.0281.408-.0902v-.3733c-.079.0595-.174.0876-.279.0876-.148 0-.252-.0349-.312-.114-.062-.0773-.097-.2091-.097-.3911v-1.5315h.688v-.3657h-.688v-.8001c-.15.0518-.297.0961-.435.1394v.6607h-.469v.3657h.469v1.6097h.001zm46.687 5.0035c-.148-.1395-.322-.2092-.539-.2092s-.401.0697-.549.2194c-.148.1471-.218.3291-.218.5391 0 .2101.07.3988.217.5392.148.1394.329.21.549.21s.399-.0697.549-.2177c.147-.1497.224-.3223.224-.5391-.007-.2194-.086-.4014-.234-.5409h.001zm-.07 1.0281c-.13.1301-.287.1896-.479.1896-.191 0-.346-.0595-.478-.1896-.13-.1318-.2-.2968-.2-.489s.06-.3469.191-.4787c.13-.1293.287-.1897.487-.1897.19 0 .348.0604.479.1897.13.1318.2.2891.2.4787 0 .2016-.06.3572-.2.489zm-.391-.4439c.078-.0179.139-.0527.183-.0961.044-.0451.06-.1063.06-.1752 0-.0782-.025-.1394-.078-.1828-.06-.0502-.157-.0765-.28-.0765h-.277v.9736h.14v-.409h.086c.061 0 .12.0595.174.1735l.103.2347h.166l-.13-.2619c-.045-.114-.097-.1659-.15-.1829l.002.0026zm-.096-.0876h-.15v-.3291h.123c.086 0 .148.0162.182.0425.035.0255.043.0596.043.1216 0 .1131-.07.165-.2.165h.001zm-24.27-7.5877h.121v-.9754h.323v-.1216h-.766v.1216h.322zm.738-.7322c0-.0952 0-.1726-.007-.2168.008.0519.026.0867.034.1131l.374.8359h.059l.375-.8444c.01-.0255.018-.0595.035-.1046-.008.0867-.008.1565-.008.2092v.739h.13v-1.0962h-.156l-.339.7569c-.008.0272-.035.0799-.052.1394h-.01c-.007-.0348-.025-.0697-.05-.1301l-.339-.7662h-.176v1.0979h.122v-.7322h.007v-.0009z"/><path d="m308.822 278.812-4.389-2.53c-.616-.355-1.405-.144-1.761.471-.139.243-.193.509-.167.768v4.945c0 .706.576 1.28 1.286 1.28.708 0 1.283-.574 1.283-1.28v-2.843l2.459 1.416c.616.357 1.406.144 1.761-.471.357-.615.146-1.402-.472-1.756z"/><path d="m297.908 273.39c.007-.457-.234-.882-.63-1.111l-4.388-2.528c-.191-.11-.409-.168-.628-.168-.45 0-.869.241-1.093.628-.347.601-.14 1.371.462 1.717l2.529 1.456-2.529 1.458c-.292.168-.501.438-.587.763-.088.324-.043.664.125.954.224.388.643.629 1.091.629.221 0 .439-.058.63-.168l4.388-2.528c.392-.228.633-.649.63-1.102z"/><path d="m293.885 267.959 4.389 2.528c.512.297 1.143.2 1.547-.194.256-.235.415-.57.415-.943v-5.067c0-.709-.576-1.283-1.284-1.283-.71 0-1.285.574-1.285 1.283v2.884l-2.492-1.436c-.617-.356-1.405-.145-1.762.47s-.144 1.402.472 1.758z"/><path d="m303.753 273.595c0 .097-.056.231-.125.302l-1.739 1.736c-.069.069-.206.125-.303.125h-.443c-.097 0-.233-.056-.302-.125l-1.741-1.736c-.069-.071-.126-.205-.126-.302v-.442c0-.099.057-.233.126-.302l1.741-1.737c.069-.069.205-.125.302-.125h.443c.097 0 .234.056.303.125l1.739 1.737c.069.069.125.203.125.302zm-1.552-.212v-.019c0-.071-.041-.17-.092-.222l-.513-.511c-.051-.052-.15-.093-.223-.093h-.018c-.071 0-.17.041-.223.093l-.512.511c-.05.05-.091.149-.091.222v.019c0 .072.041.171.091.221l.512.513c.053.05.152.091.223.091h.018c.073 0 .172-.041.223-.091l.513-.513c.051-.05.092-.149.092-.221z"/><path d="m304.433 270.487 4.389-2.528c.616-.354.829-1.143.472-1.758-.356-.615-1.145-.826-1.761-.47l-2.459 1.417v-2.865c0-.709-.575-1.283-1.283-1.283-.71 0-1.286.574-1.286 1.283v4.966c-.024.258.027.526.167.768.356.616 1.145.826 1.761.47z"/><path d="m299.154 276.132c-.292-.055-.604-.009-.88.15l-4.389 2.53c-.616.354-.829 1.14-.472 1.756.357.617 1.145.827 1.762.471l2.492-1.435v2.862c0 .706.575 1.28 1.285 1.28.708 0 1.284-.574 1.284-1.28v-5.068c0-.639-.469-1.169-1.082-1.266z"/><path d="m311.564 270.196c-.355-.617-1.145-.827-1.761-.471l-4.389 2.528c-.42.242-.652.686-.644 1.137-.004.449.228.887.644 1.126l4.389 2.53c.616.354 1.405.143 1.761-.472.357-.615.144-1.402-.472-1.758l-2.485-1.432 2.485-1.431c.618-.355.829-1.141.472-1.757z"/><path d="m378.999 273.088v.002.046c0 .239-.2.416-.446.416h-6.165c.011.146.029.287.059.427.286 1.333 1.429 2.325 2.788 2.336h.179.05.129c.028 0 .056 0 .086-.002.026 0 .053-.002.079-.003.002 0 .004 0 .005-.002.451-.036.905-.217 1.31-.507h.002c.02-.015.043-.032.063-.049.004-.002.008-.005.013-.009.017-.013.036-.028.055-.043.007-.006.013-.011.02-.017.015-.011.03-.024.045-.037.009-.008.021-.017.03-.024.011-.012.022-.023.035-.032.012-.011.025-.022.036-.034.009-.007.019-.016.028-.026.015-.013.028-.026.043-.039.007-.007.015-.017.022-.024.015-.015.03-.03.045-.045.008-.007.013-.013.021-.02l.045-.051c.007-.005.013-.013.018-.02.017-.017.032-.034.047-.051.006-.007.013-.014.019-.022.015-.019.028-.035.043-.052.007-.009.015-.019.022-.028.013-.017.026-.032.037-.047.012-.015.021-.028.03-.041.01-.013.019-.024.028-.037.015-.021.03-.041.043-.062.006-.007.01-.013.013-.018.038-.054.073-.11.109-.168 0 0 0-.002.002-.004.007-.013.016-.024.026-.037.003-.006.007-.011.013-.015.005-.009.013-.015.018-.022.006-.006.012-.011.017-.017.008-.006.013-.011.021-.017.005-.005.011-.011.019-.015.009-.007.02-.015.031-.02.008-.006.017-.011.025-.015.009-.004.016-.008.024-.011.007-.004.015-.006.02-.01.012-.003.021-.005.032-.009.006-.002.009-.004.015-.006.036-.007.073-.013.108-.013.04 0 .081.006.118.017h.004c.015.006.032.009.047.017.003.002.007.002.011.004.017.007.032.015.047.024l.007.004c.205.149.269.41.144.624l-.002.002c-.015.024-.03.049-.045.071-.004.005-.007.011-.011.017-.437.663-1.031 1.193-1.695 1.51-.014.005-.028.013-.043.02-.001 0-.005.002-.007.002-.306.142-.635.241-.986.282-.008 0-.015.002-.023.002-.03.003-.06.007-.089.009-.017 0-.034.002-.053.004-.02 0-.043.001-.063.003-.041 0-.083.002-.124.002-.005 0-.16 0-.265 0-.06 0-.093 0-.097 0-2.074-.015-3.744-1.741-3.744-3.855 0-2.15 1.681-3.886 3.772-3.886.062 0 .123.002.185.004.729.037 1.401.285 1.96.692.002.002.003.004.005.004.032.022.062.046.092.069.015.013.032.026.048.039.015.011.03.024.045.035.787.654 1.317 1.637 1.405 2.774zm-6.552-.414h5.581c-.277-1.342-1.433-2.314-2.769-2.314-1.36 0-2.507.953-2.812 2.314z"/><path d="m363.237 269.598c.069.069.116.162.127.27 0 .015.002.03.002.045v6.848c0 .244-.206.447-.448.447-.243 0-.447-.203-.447-.447v-.91c-.17.205-.357.391-.56.554-.006.005-.012.009-.017.015-.019.014-.039.029-.058.042-.617.474-1.366.746-2.149.746-1.261 0-2.37-.669-3.032-1.683-.005-.008-.013-.017-.018-.025-.019-.031-.038-.063-.058-.097-.013-.02-.025-.041-.038-.061-.013-.021-.024-.043-.035-.065-.019-.032-.037-.066-.054-.097-.006-.011-.01-.023-.015-.034-.245-.485-.396-1.031-.422-1.611-.004-.065-.006-.13-.006-.197s.002-.133.006-.198c.026-.58.177-1.126.422-1.612.005-.01.009-.021.015-.032.017-.032.035-.065.054-.097.011-.023.022-.045.035-.065.012-.021.025-.041.038-.062.018-.032.039-.065.058-.097.005-.007.013-.017.018-.024.662-1.014 1.771-1.684 3.032-1.684.852 0 1.658.312 2.298.854.176.148.339.31.486.489v-.897c0-.015 0-.03.002-.045.011-.108.058-.201.127-.27 0 0 0 0 0-.002.007-.007.017-.013.024-.02.002-.002.006-.006.008-.008.005-.006.013-.009.018-.013.006-.004.012-.009.017-.013.004-.002.008-.004.011-.007.01-.004.017-.01.027-.015.001 0 .003-.002.005-.002.011-.006.023-.011.034-.017h.002c.026-.011.054-.019.082-.024.002 0 .006-.002.007-.002.012-.002.025-.004.038-.006.015 0 .03-.002.045-.002.016 0 .031.002.046.002.013.002.025.004.038.006.002 0 .003.002.007.002.028.005.056.013.082.024h.002c.011.006.023.011.032.017.004 0 .006.002.007.002.008.005.017.011.025.015.003.003.009.005.013.007.005.004.011.009.017.013.005.004.011.007.016.013.004.002.006.006.01.008.007.007.017.013.022.02.002.002.002.002.002.002zm-3.55 6.717c1.534 0 2.784-1.335 2.784-2.977 0-1.65-1.25-2.992-2.784-2.992-1.522 0-2.783 1.34-2.783 2.992 0 .052.002.102.004.153 0 .022.003.043.003.063.002.03.004.06.008.088.002.024.005.046.007.069.004.026.006.054.01.08.003.02.007.039.009.058.006.029.009.059.015.089.004.015.007.028.009.041.008.036.015.069.023.105.002.007.003.014.007.022.318 1.275 1.409 2.209 2.688 2.209z"/><path d="m352.007 266.238h-.121c-.015 0-.032 0-.047.002-.017-.002-.032-.002-.048-.002-.043 0-.086 0-.129.002-.008 0-.017.002-.025.002-.033 0-.067.002-.101.006-.005 0-.013 0-.018 0-.036.003-.069.005-.103.009-.004.002-.007.002-.011.002-.038.006-.073.009-.107.015-.002 0-.003 0-.003 0-.226.035-.43.099-.611.188 0 .002-.002.002-.004.002-.026.015-.054.03-.08.045-.006.002-.01.005-.015.009-.023.013-.045.026-.068.041-.009.006-.016.013-.024.019-.019.011-.035.024-.054.037-.013.011-.026.022-.039.032-.011.009-.023.018-.034.028-.02.018-.039.035-.058.054-.004.003-.007.007-.011.011-.022.024-.045.047-.067.071-.004.005-.008.011-.011.015-.019.02-.038.041-.055.061-.005.01-.013.019-.018.028-.015.019-.028.036-.041.054-.004.008-.008.013-.013.019-.015.022-.03.045-.043.067-.002.004-.004.006-.006.009-.122.2-.207.435-.262.718 0 .004 0 .009-.001.013-.008.036-.014.073-.019.11-.002.011-.004.023-.004.034-.006.031-.009.063-.013.097-.002.018-.004.037-.006.057-.003.027-.007.051-.009.079s-.004.056-.006.085c-.001.019-.001.038-.003.058-.002.039-.004.08-.006.121 0 .012-.002.019-.002.028-.002.053-.002.107-.002.159v.736h-.93c-.058-.002-.116.01-.168.028-.168.062-.288.22-.288.405 0 .173.086.321.221.406.067.043.145.069.231.073h.004v.002h.93v6.503c-.001.009 0 .016 0 .026v.017c.006.104.049.199.118.272l.002.002c.009.009.021.018.03.028.002.001.004.001.005.003.008.008.017.013.025.019.003.004.009.007.013.009.004.004.007.006.013.008.073.046.159.072.25.072.015 0 .03-.001.043-.003.088-.008.168-.045.234-.099l.002-.002c.009-.007.016-.015.024-.024.002-.002.005-.004.007-.006.008-.007.013-.015.019-.02.071-.086.11-.192.105-.302v-6.503h1.001v-.002h.004c.265-.013.459-.22.452-.477 0-.002 0-.002 0-.004.002-.009 0-.019 0-.028 0-.004 0-.007 0-.009-.008-.099-.051-.189-.118-.258 0 0 0 0 0-.001-.002 0-.002 0-.002 0-.009-.01-.017-.017-.026-.025-.004-.003-.007-.005-.009-.009-.008-.006-.013-.009-.021-.015-.005-.004-.013-.009-.018-.013-.004-.002-.01-.006-.014-.007-.009-.006-.018-.012-.028-.015-.001-.002-.005-.004-.007-.004-.011-.006-.022-.011-.034-.015-.002-.002-.003-.002-.007-.004-.011-.003-.023-.007-.034-.011-.003 0-.007-.002-.011-.002-.011-.002-.02-.005-.032-.007-.005 0-.011 0-.017-.002-.007-.002-.016-.002-.026-.004-.007 0-.015 0-.02 0-.006 0-.011-.002-.017-.002s-.013 0-.015 0h-1.001v-.734c0-.006 0-.011 0-.015.002-.037.002-.075.003-.11 0-.009 0-.021.002-.03 0-.032.002-.063.004-.093 0-.006.002-.013.002-.019.002-.035.005-.071.009-.104.036-.364.114-.593.196-.733.002-.004.002-.006.004-.009.006-.01.013-.019.019-.028.004-.008.009-.015.015-.023.002-.003.005-.011.009-.014.009-.014.019-.025.03-.036.118-.132.301-.212.566-.244.004 0 .006-.002.011-.002.015-.002.032-.004.047-.004.007-.002.017-.002.024-.003.015 0 .028-.002.043-.002.011 0 .021-.002.034-.002.013-.002.026-.002.039-.002s.026-.002.039-.002h.04.056.001c.015 0 .028-.002.043-.004.017.002.034.004.051.004h.121c.251 0 .456-.205.456-.457 0-.251-.205-.455-.456-.455z"/><path d="m354.417 266.251s-.002-.001-.004-.001c-.009-.004-.016-.008-.028-.01-.003-.002-.009-.004-.014-.005-.008-.002-.015-.004-.023-.006-.007-.002-.015-.006-.02-.006-.01-.001-.017-.003-.027-.003-.007-.002-.013-.002-.02-.004-.015-.002-.032-.002-.047-.002-.243 0-.448.203-.448.446v10.101c0 .244.205.447.448.447.015 0 .032 0 .047-.002.002 0 .005-.002.007-.002.013-.001.026-.003.04-.005.001 0 .005-.002.009-.002.011-.004.022-.006.034-.009.001 0 .003 0 .005-.002.172-.054.299-.2.318-.379.002-.015.003-.03.003-.046v-10.101c0-.015-.001-.03-.003-.045-.017-.164-.125-.3-.277-.364z"/><path d="m320.115 274.831c-.004-.026-.004-.05-.007-.074-.002-.019-.004-.036-.006-.053-.004-.02-.006-.039-.009-.059-.004-.019-.008-.038-.012-.058-.001-.015-.005-.032-.009-.047-.005-.022-.009-.043-.015-.065-.004-.011-.007-.024-.011-.035-.006-.025-.013-.047-.022-.069-.002-.01-.006-.019-.008-.026-.009-.027-.019-.051-.03-.077-.002-.004-.004-.009-.005-.015-.013-.026-.025-.054-.038-.08-.002-.002-.002-.004-.004-.006-.106-.214-.257-.393-.442-.544 0-.002 0-.002-.002-.002-.026-.02-.052-.043-.08-.063 0 0-.002-.002-.004-.004-.002 0-.004-.002-.006-.004-.017-.011-.033-.024-.048-.035-.23-.162-.484-.291-.854-.433-.006-.001-.011-.003-.017-.005-.006-.004-.013-.006-.019-.01-.209-.078-.426-.152-.648-.225 0 0 0 0-.002 0 0 0-.002 0-.002-.002-.003 0-.007-.002-.013-.004-.02-.007-.043-.015-.073-.024-.015-.004-.026-.007-.037-.011-.075-.026-.151-.05-.228-.077-.054-.018-.112-.037-.181-.059-.019-.006-.064-.021-.101-.032-.002 0-.002-.002-.004-.002-.022-.007-.045-.015-.069-.022-.187-.06-.34-.112-.471-.161-.213-.078-.407-.162-.566-.262-.003-.002-.007-.004-.009-.006-.217-.138-.366-.308-.402-.529l-.002-.002c-.001-.015-.003-.032-.003-.047-.002-.004-.002-.006-.002-.007-.002-.019-.002-.036-.002-.054 0-.027.002-.053.004-.077 0-.007 0-.013.002-.019.001-.02.003-.039.005-.057.002-.006.002-.012.004-.017.004-.021.007-.039.011-.06.002-.002.002-.005.004-.009.005-.022.011-.043.019-.063 0-.002 0-.002 0-.002.097-.289.326-.504.597-.655.019-.009.038-.018.055-.028.018-.009.035-.018.052-.026.028-.013.056-.026.084-.037.017-.008.032-.015.048-.021.03-.011.06-.022.09-.033.015-.006.032-.011.049-.017.03-.009.058-.019.088-.026.018-.006.035-.011.054-.015.028-.007.056-.013.082-.02.019-.004.037-.008.056-.012.03-.005.058-.011.084-.015.017-.001.032-.003.049-.007.031-.004.065-.007.099-.009.007-.002.015-.002.024-.004.041-.002.082-.004.121-.004.047 0 .094.002.139.004h.02c.331.02.598.101.818.207.017.007.034.017.051.024.009.006.019.011.028.015.02.011.041.022.063.035l.012.006c.022.013.044.028.067.041.002.002.004.002.004.002.024.015.048.032.072.047 0 .001.002.001.002.003.025.015.047.03.069.047.01.007.017.013.027.019.052.039.134.102.209.164.009.005.017.011.022.016.056.047.109.088.159.125.009.008.017.013.022.017.002.002.004.004.006.004.006.004.011.007.017.011.013.009.028.019.041.028.006.004.011.006.017.009.013.008.026.015.039.023l.015.005c.015.008.028.013.043.019.004.002.006.002.009.004.017.005.034.011.051.013 0 0 0 0 .002.002.037.005.072.007.11-.002.004 0 .007-.002.011-.002.009-.002.021-.006.03-.008.004-.002.006-.003.009-.005.004 0 .008-.002.011-.004.015-.007.03-.015.045-.024.004 0 .006-.002.008-.004.017-.011.032-.022.047-.035.001-.002.001-.002.001-.002.013-.011.025-.024.036-.038.007-.009.015-.02.02-.031.002-.002.004-.004.004-.006.079-.13.034-.302-.104-.488-.002-.004-.004-.008-.008-.011-.006-.008-.009-.014-.015-.021-.317-.41-1.04-.859-1.711-1.003-.004 0-.008 0-.011-.002-.028-.005-.058-.011-.086-.017-.008 0-.017-.001-.025-.003-.024-.004-.048-.008-.072-.01-.01-.002-.019-.003-.028-.003-.023-.002-.047-.004-.07-.006-.009-.002-.018-.002-.026-.004-.032 0-.061-.002-.091-.002-.049 0-.097 0-.144.002-.026 0-.052.002-.08.004-.019.002-.042.002-.06.002-.038.004-.073.005-.109.009-.009 0-.02 0-.03.002-.041.004-.082.008-.121.013-.006 0-.009 0-.013 0-.043.006-.084.011-.125.019-.002 0-.006 0-.008 0-.041.005-.082.013-.121.02-.002 0-.004.002-.008.002-.084.015-.166.034-.244.054-.002 0-.002.002-.002.002-.039.009-.079.021-.118.032-.037.011-.073.024-.106.035-.004 0-.006.002-.01.002-.033.013-.067.024-.101.037-.003.002-.007.004-.009.004-.034.013-.063.026-.095.041-.004.002-.01.002-.013.006-.028.011-.058.026-.084.039-.008.004-.013.005-.019.009-.028.013-.054.026-.08.041-.008.004-.013.008-.021.011-.024.013-.048.028-.073.043-.007.004-.015.008-.022.013-.032.019-.062.039-.092.058-.035.026-.071.05-.102.076-.004 0-.006.002-.006.004-.159.118-.295.243-.407.388-.004.006-.01.011-.013.017-.014.02-.028.039-.042.058-.009.014-.018.029-.028.044-.007.012-.015.023-.02.034-.015.024-.028.048-.041.074-.002.004-.004.006-.006.01-.101.199-.159.429-.181.706 0 .004 0 .008-.002.012-.002.048-.006.096-.007.149 0 .039 0 .078.001.117v.017c.021.533.264.934.703 1.245.004.002.007.006.011.008.019.013.038.026.056.039.013.009.028.017.041.026.004.004.01.006.013.007.434.275.964.431 1.407.556.217.063.411.118.469.134.013.004.026.008.037.013.266.088.469.159.637.226.014.004.025.009.038.013.004.002.009.004.015.007.095.04.188.081.278.125.075.038.144.077.213.118.178.11.314.229.406.36.003.003.005.007.007.011.009.011.017.022.022.035.006.008.01.013.013.021.006.009.012.018.015.028.006.009.01.02.015.03.004.007.008.014.012.022.003.011.009.022.013.035.002.006.005.013.007.021.004.013.008.026.011.039.002.006.004.011.006.019.004.013.007.028.009.041.002.005.004.013.004.018.002.015.004.03.006.045.002.006.002.011.002.017.001.022.003.043.003.065 0 .034-.002.065-.003.097 0 .009-.002.019-.002.028-.002.024-.006.048-.012.073 0 .007-.001.015-.003.022-.012.065-.03.127-.054.188-.002.002-.002.004-.002.006-.013.028-.027.058-.041.084-.002.004-.002.005-.004.007-.032.06-.069.118-.116.172-.022.028-.047.054-.071.08-.002 0-.002 0-.002.002-.05.05-.106.097-.164.14-.002.002-.004.002-.004.003-.028.019-.056.04-.084.056-.004.004-.008.006-.011.008-.049.03-.101.059-.153.086-.019.009-.038.018-.058.028-.021.009-.043.02-.066.029-.018.008-.035.015-.054.023-.05.018-.099.037-.149.054-.008.002-.015.004-.023.007-.03.01-.06.017-.09.026-.007.002-.016.006-.024.008-.099.026-.196.046-.288.061-.001 0-.003 0-.005 0-.047.008-.092.013-.135.019-.016.002-.031.004-.048.004-.015.002-.03.002-.047.003-.035.002-.073.004-.106.004-.07 0-.137-.002-.202-.005-.026 0-.052-.002-.079-.004-.035-.004-.072-.006-.106-.009-.032-.002-.065-.006-.095-.01-.028-.004-.055-.007-.081-.011-.058-.009-.112-.017-.166-.028-.024-.006-.05-.009-.075-.015-.028-.007-.056-.013-.084-.02-.032-.008-.061-.015-.091-.025-.021-.005-.043-.011-.062-.016-.05-.015-.101-.032-.149-.051-.012-.003-.023-.007-.034-.011-.108-.041-.215-.086-.32-.138-.003-.002-.009-.005-.014-.007-.068-.034-.182-.097-.29-.159-.009-.005-.021-.011-.03-.017-.077-.044-.142-.082-.204-.111-.005-.004-.009-.006-.013-.008-.003-.002-.007-.004-.009-.004-.017-.007-.03-.015-.045-.02-.005-.002-.009-.004-.013-.006-.039-.015-.075-.026-.11-.03-.011-.001-.023-.001-.034-.001-.003-.002-.007-.002-.011-.002-.071 0-.133.024-.191.078-.013.011-.024.022-.035.035-.002.004-.006.008-.009.012-.008.009-.013.016-.019.024-.004.005-.008.011-.009.015-.006.007-.012.015-.015.022-.004.006-.006.011-.008.017-.004.007-.007.015-.011.022-.002.006-.004.01-.006.015-.003.01-.005.017-.007.024-.002.006-.004.01-.004.015-.002.01-.004.019-.005.028 0 .004-.002.008-.002.012-.002.013-.002.024-.002.035v.006c0 .014.002.027.005.042v.008c.004.011.006.024.01.035.002.006.004.011.005.017.004.009.006.021.012.03.001.005.003.009.005.013.024.056.064.114.114.17.054.059.123.119.204.18.002 0 .002 0 .002.002.022.015.044.032.069.049.005.004.009.007.015.009.065.045.134.088.213.132.018.012.037.023.056.032.018.011.037.021.056.03.022.013.048.026.073.039.016.008.031.017.048.024.038.019.077.038.116.056.006.004.009.006.015.008.043.02.086.039.129.056.019.007.035.015.054.022.004.002.008.004.011.004.4.156.893.261 1.329.279.031.002.065.004.097.004h.002c.015 0 .028 0 .043-.002h.1c.004 0 .008 0 .012-.002.708-.022 1.289-.205 1.784-.566 0-.002 0-.002 0-.002.549-.414.852-.998.852-1.641 0-.041-.002-.082-.004-.121 0-.015-.002-.03-.002-.043z"/><path d="m324.683 269.482c-.002 0-.004 0-.006 0-.87 0-1.692.355-2.286.981v-.533c0-.246-.191-.448-.432-.448-.017 0-.032.002-.047.002-.106.011-.2.058-.269.127-.002 0-.002 0-.003.002-.006.007-.013.015-.019.022-.004.002-.008.006-.009.009-.006.006-.01.012-.014.017-.003.006-.007.011-.013.017-.001.004-.003.008-.005.011-.006.01-.011.019-.017.026 0 .002 0 .004-.002.006-.005.011-.011.022-.017.033-.009.028-.018.056-.024.084 0 .002 0 .004-.002.004-.002.015-.004.028-.005.041 0 .015-.002.03-.002.047v6.924l-.006.03.022.018c0 .01.002.023.008.036 0 .002.002.005.002.007.004.01.009.021.019.03.057.11.164.194.289.231l.009.002h.105c.017 0 .034 0 .05-.002.012-.002.023-.005.034-.007.006 0 .009 0 .015-.002.015-.004.03-.007.045-.013h.002c.078-.028.145-.077.19-.142.002-.002.004-.004.006-.005.03-.032.047-.066.063-.112.002-.006.004-.01.004-.013.002-.002.002-.002.002-.004.008-.022.013-.045.019-.067l.002-.008v-4.191c.029-1.249 1.053-2.265 2.283-2.267h.003c1.252 0 2.27 1.016 2.27 2.266v4.12c0 .016.002.031.004.046.009.108.056.202.125.271 0 0 .002 0 .002.002.007.007.015.013.022.02.004.004.006.006.01.007.005.006.011.01.017.014.005.005.011.009.016.013.006.001.01.003.013.007.008.006.017.009.025.015.002 0 .003.002.007.002.009.005.021.011.032.017h.002c.026.011.054.018.082.024.004 0 .006.002.007.002.014.002.025.003.038.005.015.002.03.002.047.002.014 0 .029 0 .044-.002.013-.002.027-.003.038-.005.002 0 .005-.002.007-.002.03-.006.056-.013.084-.024.011-.006.023-.012.034-.017.002 0 .004-.002.005-.002.01-.006.017-.009.027-.015.003-.004.007-.006.011-.007.005-.004.011-.008.017-.013.005-.004.013-.008.018-.014.002-.001.006-.003.008-.007.007-.007.017-.013.024-.02 0-.002 0-.002 0-.002.071-.069.118-.163.127-.271.002-.015.002-.03.002-.046v-4.12c0-1.74-1.416-3.155-3.159-3.159z"/><path d="m332.742 269.467c2.029 0 3.679 1.736 3.679 3.871 0 2.134-1.65 3.87-3.679 3.87-.063 0-.125-.002-.187-.005-.009 0-.016 0-.026-.002-.054-.002-.108-.008-.16-.013-.002 0-.004 0-.006 0-.801-.088-1.551-.453-2.147-1.052-.024-.024-.05-.048-.072-.074-.002 0-.002-.002-.004-.002-.013-.013-.024-.028-.037-.043-.028-.03-.057-.062-.085-.093-.022-.025-.043-.053-.065-.079-.015-.02-.032-.041-.048-.061-.034-.041-.066-.084-.096-.127-.004-.006-.007-.011-.011-.017-.364-.509-.602-1.096-.691-1.719-.01-.057-.015-.115-.021-.173-.002-.006-.002-.013-.004-.021-.005-.054-.009-.106-.011-.16-.002-.011-.002-.022-.002-.035-.003-.064-.005-.129-.005-.194s.002-.131.005-.194c0-.013 0-.024.002-.036.002-.054.006-.108.011-.16.002-.007.002-.015.004-.02.006-.058.011-.116.021-.174.089-.622.327-1.21.691-1.719.002-.005.006-.011.009-.015.032-.044.064-.087.098-.13.014-.019.031-.037.046-.058.023-.028.045-.054.067-.082.027-.03.053-.058.081-.088.013-.014.028-.031.041-.046.002 0 .002-.002.004-.002.02-.024.044-.047.067-.069.596-.6 1.347-.969 2.152-1.057h.006c.052-.006.106-.009.16-.013.01 0 .017-.002.026-.002.062-.004.124-.006.187-.006zm2.769 3.567c0-.002 0-.002 0-.004-.065-.671-.342-1.277-.755-1.745-.018-.02-.035-.041-.054-.061-.011-.012-.022-.023-.034-.034-.022-.022-.043-.045-.065-.067-.021-.021-.043-.039-.063-.058-.014-.011-.025-.024-.038-.035-.033-.03-.067-.058-.101-.086 0 0-.002 0-.002-.002-.39-.315-.859-.522-1.363-.58-.006 0-.01-.002-.013-.002-.04-.005-.077-.007-.116-.009-.01-.002-.017-.002-.025-.002-.046-.003-.093-.003-.14-.003-.046 0-.093 0-.14.003-.007 0-.015 0-.024.002-.039.002-.077.004-.116.009-.004 0-.007.002-.013.002-.504.058-.973.265-1.364.58 0 .002-.002.002-.002.002-.033.028-.067.056-.101.086-.013.011-.024.022-.037.033-.02.021-.043.039-.063.06-.021.02-.042.043-.064.065-.011.011-.022.023-.035.036-.017.018-.034.039-.053.059-.413.468-.691 1.076-.756 1.747v.004c-.004.043-.008.086-.01.13 0 .008-.002.015-.002.023-.001.05-.003.1-.003.151 0 1.639 1.263 2.977 2.783 2.977 1.521 0 2.784-1.338 2.784-2.977 0-.051-.002-.101-.004-.151 0-.008-.002-.015-.002-.023-.002-.044-.005-.087-.009-.13z"/><path d="m347.232 269.659c-.004-.003-.005-.007-.009-.011-.045-.056-.105-.1-.172-.128 0 0 0 0-.002 0-.007-.006-.017-.008-.024-.012-.004 0-.008-.001-.013-.003-.06-.021-.126-.025-.189-.015h-.002c-.129.02-.252.099-.321.214 0 0 0 0-.002 0-.009.019-.021.038-.028.056l-.002.002v.002l-2.141 5.848-1.681-3.993c-.017-.037-.04-.071-.066-.103-.091-.106-.231-.173-.375-.173-.023 0-.043 0-.066.006-.001 0-.003 0-.007 0-.15.026-.29.13-.353.27v.002l-1.682 3.993-.814-2.209-1.341-3.641c-.008-.021-.015-.037-.025-.056-.002-.002-.002-.002-.004-.004-.041-.076-.106-.136-.184-.173 0 0-.002 0-.002-.002-.04-.017-.081-.03-.124-.037-.003 0-.005 0-.009-.002-.021-.002-.043-.004-.063-.004h-.002c-.006 0-.01 0-.013 0-.01 0-.019 0-.028.002-.006 0-.014.002-.019.002-.009.002-.017.002-.024.004-.006.001-.012.001-.017.003-.01.002-.019.004-.028.008-.004.002-.008.002-.011.003-.01.004-.019.006-.028.012 0 0 0 0-.002 0-.077.033-.139.091-.183.158-.002.004-.004.006-.006.009-.002.004-.004.008-.006.012-.033.056-.054.121-.061.186-.008.069.002.142.03.209l1.552 4.163.996 2.67v.002c.041.1.101.169.183.207.002.001.006.003.007.005.002.002.004.004.008.006 0 .002.002.002.004.003.003.002.005.004.009.008h.004c.015.009.033.017.058.019.001 0 .003.001.005.001.008.002.015.006.023.008.003 0 .007.002.011.002.047.015.076.02.114.02.02 0 .039-.002.06-.005.014-.002.031-.006.046-.012.004-.001.008-.001.011-.003.015-.004.03-.01.045-.017.006-.002.012-.004.017-.008.009-.005.021-.011.032-.016.007-.006.017-.011.026-.017.006-.004.011-.009.017-.013.013-.009.024-.019.037-.03.002-.002.004-.004.006-.007.013-.013.026-.027.039-.041 0-.002.002-.004.004-.006.011-.015.022-.032.032-.049.009-.018.018-.039.026-.059l.002-.006.005-.007.006-.013 1.687-4.02 1.702 4.035c.013.041.033.078.061.113.004.006.008.01.012.015.009.011.018.023.029.034.006.004.012.009.017.013.01.009.021.019.032.028.006.004.009.007.015.009.013.01.026.019.039.026.004.002.008.004.011.006.015.007.028.015.045.02.004.002.008.004.013.004.013.006.026.011.041.015.019.004.038.007.055.011h.056c.022 0 .043-.002.063-.005.006 0 .01 0 .015-.002.019-.004.036-.008.052-.013.006-.002.01-.004.014-.006.018-.005.037-.015.054-.024.002 0 .003-.002.005-.002.021-.013.041-.026.058-.039.075-.056.129-.129.166-.218v-.002l1.052-2.826 1.48-3.977c.058-.14.035-.293-.045-.412-.004-.008-.009-.015-.015-.023z"/><path d="m370.99 269.784c0-.007-.002-.016-.004-.024 0-.005-.001-.011-.003-.017-.002-.009-.004-.018-.006-.026-.002-.005-.004-.011-.006-.015-.001-.011-.005-.02-.011-.03 0-.003-.002-.005-.003-.009-.006-.013-.012-.024-.019-.035 0-.002 0-.002 0-.002-.023-.039-.051-.073-.082-.103-.002-.002-.002-.002-.002-.002-.002-.001-.002-.001-.002-.001-.159-.159-.383-.179-.559-.056-.005.003-.009.007-.015.009-.007.006-.015.011-.022.017-.011.011-.022.02-.034.031 0 0-.002 0-.002.002l-4.377 4.258v-7.121c0-.015 0-.03-.002-.045-.016-.164-.127-.3-.276-.364-.002 0-.002-.001-.004-.001-.009-.004-.019-.008-.028-.01-.004-.002-.009-.004-.015-.005-.007-.002-.015-.004-.024-.006-.006-.002-.013-.004-.021-.006-.007-.001-.016-.003-.024-.003-.007-.002-.013-.002-.021-.004-.016-.002-.031-.002-.046-.002-.245 0-.449.203-.449.446v10.101c0 .244.204.447.449.447.015 0 .032 0 .046-.002.002 0 .004-.002.008-.002.013-.001.026-.001.037-.005.004 0 .008-.002.012-.002.011-.004.022-.006.033-.009.002 0 .004-.002.006-.002.172-.054.299-.202.317-.379.002-.015.002-.03.002-.046v-1.704l1.474-1.469 2.864 3.449c.019.029.039.056.066.076.005.006.009.009.015.013.007.006.014.011.022.015.009.008.019.011.028.017.004.002.009.005.013.007.013.006.024.01.037.015.004.002.008.002.01.004.015.004.028.007.043.011.002 0 .005.002.009.002.015.004.028.006.045.007.004 0 .007 0 .011.002.019 0 .037.002.058.002.03 0 .058-.002.084-.005h.002c.052-.008.101-.025.146-.047.002 0 .002-.002.002-.002.02-.011.041-.024.061-.039l.006-.006c.17-.169.196-.4.073-.593-.012-.016-.023-.033-.036-.05l-2.909-3.525 2.889-2.786c.076-.078.123-.173.134-.276 0-.001 0-.003.002-.005 0-.009 0-.021 0-.03 0-.006.002-.011.002-.015s0-.006 0-.007c0-.008-.002-.013-.002-.021 0-.005-.002-.011-.002-.017z"/><path d="m14.7366 250h-5.30002v26.5h5.30002z" fill-opacity=".9"/><path d="m9.43659 250-3.68415 2.004v22.557l3.68415 1.939z"/><path d="m14.8012 250v26.5l3.6842-1.939v-22.557z" fill-opacity=".75"/><path d="m22.1695 253.684 2.0683 1.099v16.934l-2.0683 1.099z" fill-opacity=".75"/><path d="m22.1695 272.816-3.6841-1.099v-16.934l3.6841-1.099z"/><path d="m0 254.783v16.934l2.06829 1.099v-19.132z"/><path d="m2.0683 253.684 3.68414 1.099v16.934l-3.68414 1.099z" fill-opacity=".75"/><path d="m51.5545 256.975v-.841c0-.129.1293-.258.2586-.258h3.9426c.1293 0 .2586.064.2586.258v.711c0 .13-.1293.324-.3232.582l-2.0036 2.909c.7109 0 1.5512.129 2.1975.517.1293.064.1939.258.1939.387v.905c0 .13-.1293.259-.3232.194-1.228-.646-2.8439-.646-4.1365 0-.1293.065-.3232-.064-.3232-.194v-.84c0-.129 0-.388.1293-.646l2.3268-3.361h-2.0037c-.0646-.065-.1939-.194-.1939-.323z"/><path d="m37.2057 262.468h-1.1634c-.1292 0-.1939-.129-.1939-.193v-6.141c0-.129.1293-.258.2586-.258h1.0987c.1293 0 .1939.129.2586.194v.775c.3231-.775.8402-1.099 1.5512-1.099s1.228.388 1.5512 1.099c.3232-.775.9049-1.099 1.6805-1.099.5171 0 1.0341.194 1.3573.647.3878.517.3232 1.228.3232 1.939v3.878c0 .129-.1293.258-.2585.258h-1.1635c-.1292 0-.2585-.129-.2585-.258v-3.296c0-.259 0-.905-.0646-1.164-.0647-.452-.3878-.582-.6464-.582-.2585 0-.6463.194-.711.517-.0646.324-.1292.776-.1292 1.164v3.296c0 .13-.1293.259-.2586.259h-1.1634c-.1292 0-.2585-.129-.2585-.259v-3.296c0-.646.1293-1.681-.711-1.681-.8402 0-.7756.97-.7756 1.681v3.296c-.0646.194-.1939.323-.3232.323z"/><path d="m59.3753 257.039c-.8403 0-.9049 1.164-.9049 2.004 0 .711 0 2.327.9049 2.327s.9695-1.293.9695-2.069c0-.517 0-1.098-.1939-1.616-.1293-.517-.3878-.646-.7756-.646zm-.0647-1.293c1.8098 0 2.7147 1.552 2.7147 3.426s-1.0342 3.361-2.7147 3.361c-1.7451 0-2.7146-1.551-2.7146-3.426.0646-1.809.9695-3.361 2.7146-3.361z"/><path d="m64.3521 262.468h-1.1634c-.1293 0-.2585-.129-.2585-.258v-6.14c0-.13.1292-.194.2585-.194h1.0988c.1292 0 .1939.064.1939.194v.905c.3231-.841.7756-1.229 1.6158-1.229.5817 0 1.0342.194 1.422.711.3232.518.3232 1.293.3232 1.939v3.879c0 .129-.1293.193-.2586.193h-1.1634c-.1293 0-.1939-.064-.1939-.193v-3.361c0-.647.0646-1.681-.711-1.681-.3231 0-.5817.194-.711.517-.1939.388-.1939.711-.1939 1.164v3.361c0 .064-.1292.193-.2585.193z"/><path d="m48.1936 260.788c-.1939.323-.5171.582-.7756.582-.4525 0-.711-.388-.711-.841 0-1.034.9049-1.228 1.8097-1.228v.259c-.0646.452-.0646.776-.3231 1.228zm2.3914.582c-.2585-.323-.4524-.582-.4524-1.099v-1.874c0-.776.0646-1.552-.5817-2.069-.4525-.452-1.2281-.646-1.8098-.646-1.0987 0-2.3914.452-2.65 1.874 0 .13.0647.259.1939.259l1.1634.129c.1293 0 .194-.129.194-.258.1292-.518.517-.711.9695-.711.2585 0 .5817.064.6463.323.1939.258.1293.581.1293.84v.129c-.711.065-1.6159.13-2.2622.453-.711.323-1.2927.969-1.2927 2.003 0 1.228.7756 1.875 1.8098 1.875.8402 0 1.2926-.194 2.0036-.841.2585.324.3232.518.6464.776.0646.065.1939.065.3231 0 .2586-.194.6464-.646.9049-.776.1293-.129.1293-.323.0646-.387z"/><path d="m32.5521 260.788c-.1939.323-.5171.582-.8402.582-.4525 0-.711-.388-.711-.841 0-1.034.9049-1.228 1.8097-1.228v.259c-.0646.452 0 .776-.2585 1.228zm1.8744-.517v-1.874c0-.776.0646-1.552-.5817-2.069-.5171-.452-1.2281-.646-1.8098-.646-1.0987 0-2.3914.452-2.65 1.874 0 .13.0647.259.1939.259l1.1635.129c.1292 0 .1939-.129.1939-.258.1292-.518.517-.711.9695-.711.2585 0 .5817.064.7109.323.1939.258.1293.581.1293.84v.129c-.6463.065-1.6158.13-2.2622.453-.711.323-1.2927.969-1.2927 2.003 0 1.228.7756 1.875 1.8098 1.875.8402 0 1.2927-.194 2.0036-.841.2586.324.3232.518.711.776.0647.065.1939.065.3232 0 .2585-.194.6463-.646.9049-.776.1292-.064.0646-.193 0-.323-.3232-.387-.5171-.646-.5171-1.163z"/><path d="m29.9667 267.704h.711c.7756 0 1.2927-.453 1.2927-1.099 0-.711-.5817-1.034-1.3573-1.099-.3878 0-.6464.065-.711.065zm-.7756-2.65c.3878-.065.9049-.129 1.422-.129.7756 0 1.2926.129 1.6805.517.3231.258.4524.646.4524 1.098 0 .711-.5171 1.293-1.0988 1.487.4525.194.711.582.8403 1.163.1939.776.3231 1.358.4524 1.616h-.7756c-.1293-.194-.2585-.646-.3878-1.422-.1939-.775-.5171-1.098-1.1634-1.098h-.711v2.52h-.711z"/><path d="m37.4878 268.098h-2.2622v2.068h2.5207v.646h-3.2963v-5.817h3.1671v.646h-2.3915v1.81h2.2622z"/><path d="m40.0967 270.236c.1939.065.5171.065.711.065 1.6158 0 2.4561-.905 2.4561-2.456 0-1.358-.711-2.198-2.3269-2.198-.3878 0-.6463.065-.8402.065zm-.7756-5.17c.4524-.065.9695-.13 1.6158-.13 1.0988 0 1.8744.259 2.3269.711.517.517.7756 1.164.7756 2.069 0 .904-.3232 1.745-.8403 2.262-.5817.581-1.4219.84-2.5853.84-.5818 0-.9696 0-1.3574-.065z"/><path d="m45.526 269.913c.3231.194.7756.388 1.3573.388.7109 0 1.228-.452 1.228-.97 0-.517-.3232-.84-1.0988-1.163-.9048-.323-1.5512-.776-1.5512-1.68 0-.905.711-1.616 1.939-1.616.6464 0 1.0342.129 1.2927.323l-.1939.646c-.1939-.129-.5817-.258-1.0988-.258-.7756 0-1.0987.517-1.0987.84 0 .582.3878.776 1.1634 1.099.9695.388 1.4866.84 1.4866 1.745s-.6464 1.68-2.0037 1.68c-.5817 0-1.1634-.194-1.4866-.387z"/><path d="m51.3195 264.995v2.456h2.8439v-2.456h.711v5.817h-.711v-2.714h-2.8439v2.714h-.7756v-5.817z"/><path d="m57.5244 264.995h-.711v5.817h.711z"/><path d="m59.4634 264.995h3.1024v.646h-2.3914v1.939h2.1975v.647h-2.1975v2.585h-.711z"/><path d="m63.6 264.995v.646h1.7451v5.171h.7756v-5.171h1.7452v-.646z"/></g></svg>