<svg fill="none" height="343" viewBox="0 0 341 343" width="341" xmlns="http://www.w3.org/2000/svg"><circle cx="169.765" cy="174.125" fill="#abb8ff" fill-opacity=".1" r="143.765"/><path d="m60.5482 62.1721h4.0714l-2.1603-3.4378-3.9468 6.2545h-1.7865l4.7722-7.4919c.2079-.2897.5404-.4969.9556-.4969.3738 0 .7057.1649.9142.4563l4.8191 7.4968h-1.7815l-.831-1.4084h-4.1133zm18.6545 1.3671v-6.5029h-1.5378v7.1241c0 .2072.0827.3727.2079.5387.1654.1649.3324.2485.5403.2485h6.9381l.9142-1.4084zm-25.1774-1.1543c1.4959 0 2.6588-1.2011 2.6588-2.6507 0-1.4913-1.2048-2.6506-2.6588-2.6506h-6.6481v7.9113h1.5373v-6.5453h5.027c.3409.002.6674.1379.9085.3783s.3775.5658.3795.9058c-.002.3398-.1383.6652-.3793.9055-.241.2404-.5673.3764-.9082.3786h-4.2788l4.5286 3.9347h2.2022l-3.0745-2.5682zm-16.0785 2.5682c-2.2022 0-3.9468-1.7811-3.9468-3.9348 0-2.1955 1.7865-3.9347 3.9468-3.9347h4.6118c2.2023 0 3.9469 1.781 3.9469 3.9347 0 2.1955-1.7865 3.9348-3.9469 3.9348zm4.5286-1.4084c.6819-.004 1.3348-.2759 1.8171-.7566.4822-.4808.7549-1.1317.7589-1.8116-.004-.6798-.2767-1.3307-.7589-1.8115-.4823-.4808-1.1352-.7526-1.8171-.7567h-4.404c-.6819.0041-1.3348.2759-1.817.7567-.4823.4808-.755 1.1317-.759 1.8115.004.6799.2767 1.3308.759 1.8116.4822.4807 1.1351.7526 1.817.7566zm28.9164 1.4084c-2.2023 0-3.9469-1.7811-3.9469-3.9348 0-2.1955 1.7865-3.9347 3.9469-3.9347h5.484l-.9142 1.4083h-4.4871c-.682.004-1.3349.2759-1.8171.7567-.4823.4807-.755 1.1316-.759 1.8115.004.6799.2767 1.3308.759 1.8115.4822.4808 1.1351.7527 1.8171.7567h5.4841l-.9142 1.4083h-4.6537zm18.6545-1.4084c-1.1579 0-2.1604-.7871-2.4515-1.8634h6.5229l.9142-1.4084h-7.3952c.2906-1.0774 1.2881-1.8635 2.4515-1.8635h4.4872l.9142-1.4083h-5.4847c-2.2022 0-3.9468 1.781-3.9468 3.9348 0 2.1955 1.7865 3.9347 3.9468 3.9347h4.6951l.9142-1.4083h-5.5674z" fill="#fff"/><path d="m8.58068 123.868s1.84152 4.508-.66853 7.064-7.079432.919-7.079432.919l9.295682 9.527h.9437c.7065-.001 1.3593-.386 1.7197-1.011l4.3838-7.75z" fill="#000" opacity=".1"/><path d="m13.2333 132.158-2.1564-1.957c-.0232-.022-.0498-.041-.079-.056.9112-1.076 1.3382-2.429 1.194-3.783-.1441-1.353-.8486-2.606-1.9699-3.503-1.12136-.896-2.57525-1.369-4.06565-1.323-1.49041.047-2.90528.61-3.95653 1.575-2.1814838 2.004-2.2779156 5.216-.21868 7.319.99284 1.015 2.3721 1.647 3.85759 1.768s2.9658-.278 4.14019-1.116c.01566.025.03478.048.05698.069l2.1564 1.966c.0313.029.0685.052.1094.067s.0848.023.129.023c.0892 0 .1748-.033.2384-.09l.5718-.521c.0313-.029.0561-.062.0729-.1.0168-.037.0253-.077.0251-.117-.0003-.082-.0355-.16-.098-.218zm-6.86944-1.271c-.87225 0-1.72486-.236-2.45007-.678s-1.29048-1.07-1.62437-1.805c-.68337-1.503-.30524-3.234.95673-4.383.617-.562 1.40282-.945 2.2582-1.1.85537-.155 1.74191-.075 2.54762.229.80572.304 1.49445.82 1.97923 1.481.4847.661.7437 1.438.7442 2.234-.0015 2.22-1.97417 4.02-4.41002 4.021zm-2.81855-4.237v1.662c.28095.452.68718.828 1.17845 1.092v-2.758zm2.20199-1.378v4.492c.38953.065.78968.065 1.17845 0v-4.499zm3.41081 3.038v-.984h-1.17845v2.074c.49052-.264.89598-.637 1.17845-1.089z" fill="#fff"/><path d="m36.3135 119.653h-5.155v1.537h3.6636c-.1823 2.16-1.9708 3.08-3.6563 3.08-1.0699.007-2.0995-.414-2.8606-1.169-.7611-.756-1.1913-1.785-1.1942-2.86v-.069c-.0184-1.088.4-2.138 1.1604-2.913s1.8002-1.211 2.8841-1.207c1.0318.001 2.0223.404 2.7636 1.126l1.0736-1.11c-1.0407-1.01-2.4382-1.563-3.885-1.537-4.4289-.094-7.2272 4.746-4.9505 8.562 1.0549 1.765 2.9817 2.815 5.0307 2.742 3.0033-.006 5.2212-2.079 5.2212-5.145.0065-.343-.025-.686-.0941-1.022zm4.2409-1.11c-1.9796-.041-3.6153 1.542-3.6475 3.53v.077c-.0117 2.016 1.6068 3.66 3.6144 3.672s3.6446-1.614 3.6563-3.63c0-2.407-1.8825-3.649-3.6158-3.649zm.0199 1.433c1.042 0 2.0223.833 2.0223 2.219 0 1.387-.984 2.204-2.0334 2.204-1.1545 0-2.059-.923-2.059-2.22s.8891-2.198 2.0613-2.198zm7.8774-1.433c-1.9754-.035-3.6043 1.546-3.6365 3.53v.077c-.0118 2.016 1.6068 3.66 3.6144 3.672s3.6445-1.614 3.6563-3.63c0-2.399-1.8848-3.645-3.6306-3.645zm.022 1.433c1.042 0 2.0223.833 2.0223 2.219 0 1.387-.9839 2.204-2.0333 2.204-1.1546 0-2.0591-.923-2.0591-2.22s.8891-2.198 2.0606-2.198zm7.7362-1.433c-1.934 0-3.4732 1.709-3.4732 3.633-.0294 1.95 1.4987 3.567 3.4401 3.638.7649.041 1.5027-.29 1.9841-.888v.719c0 1.255-.7575 2.008-1.901 2.008-.8221-.01-1.5553-.523-1.8517-1.292l-1.3825.577c.4905 1.047 1.4759 2.151 3.243 2.151 1.9341 0 3.4122-1.224 3.4122-3.789v-6.535h-1.5193v.611c-.4998-.548-1.212-.851-1.9517-.833zm.1412 1.418c.953 0 1.934.818 1.934 2.22 0 1.401-.978 2.189-1.9561 2.189-1.042 0-2.0002-.833-2.0002-2.186 0-1.388 1.0031-2.219 2.026-2.219zm10.0747-1.418c-1.8348 0-3.371 1.465-3.371 3.629-.0718 2.01 1.5477 3.671 3.5504 3.641 1.2134.006 2.3512-.592 3.0393-1.595l-1.2516-.833c-.3677.628-1.0413 1.008-1.7649.999-.7618.03-1.4648-.41-1.7737-1.11l4.852-2.019-.2449-.591c-.478-1.261-1.6737-2.102-3.0172-2.119zm.064 1.388c.5589-.023 1.081.279 1.3406.777l-3.2482 1.366c-.1412-1.054.853-2.137 1.901-2.137zm-5.7536 5.667h1.5935v-10.709h-1.5943zm-35.0761 12.332v-7.02h2.5311c.5297-.012 1.0422.188 1.4259.555.3912.343.6104.843.5972 1.366.0327.642-.35 1.232-.948 1.462v.039c.3435.108.645.323.859.613.2143.287.3278.638.3228.997.0132.544-.2103 1.067-.6126 1.432-.4083.373-.9444.572-1.4957.556h-2.6724zm.8971-6.155v2.154h1.6303c.3002.008.5904-.109.8009-.324.4133-.399.4294-1.056.0367-1.473l-.0279-.028c-.2-.213-.4802-.331-.7707-.325h-1.6568zm0 2.994v2.304h1.809c.6354.006 1.1561-.505 1.1634-1.144.0012-.305-.1232-.596-.3434-.805-.2269-.228-.5376-.353-.8589-.344h-1.7723zm5.9147-3.298c-.0021.695-.9557.882-1.2178.238-.2656-.643.5447-1.185 1.0332-.69.1213.118.1882.282.1853.452zm-.1854 1.664v4.8h-.9008v-4.8zm3.2357 7.076c-.2544.002-.5147-.033-.7515-.104-.226-.061-.4419-.154-.6413-.277-.1882-.124-.3561-.277-.4978-.453-.1353-.165-.2405-.354-.3118-.555l.8581-.355c.0924.275.2709.513.5089.677.2427.17.5332.259.8295.256.4266.024.8435-.135 1.1443-.442.289-.336.4368-.771.4118-1.215v-.474h-.039c-.1729.258-.4103.465-.6883.602-.2927.147-.6155.223-.9413.221-.6192.003-1.2082-.266-1.6134-.735-.4418-.501-.6796-1.151-.6663-1.82-.0167-.668.2205-1.318.6634-1.816.4022-.476.9927-.749 1.6134-.746.3271-.002.65.074.942.222.278.137.5154.344.6883.602h.039v-.674h.8589v4.6c.0368.67-.1985 1.326-.6545 1.815-.4687.447-1.0975.685-1.7436.66zm.0309-2.944c.4145.011.8121-.165 1.0832-.48.5835-.73.5835-1.768 0-2.498-.2684-.319-.667-.5-1.0832-.491-.4155-.006-.8126.175-1.0832.491-.3067.345-.4581.8-.4398 1.251-.0188.457.1387.903.4398 1.246.2721.315.6677.493 1.0832.487z" fill="#fff"/><path d="m45.9009 138.078-.7165.46-.4863-.716c-.5282.262-1.1103.4-1.701.402-.9682.021-1.9155-.365-2.5918-1.063-1.4001-1.464-1.4001-3.757 0-5.22 1.4297-1.425 3.7561-1.425 5.1858 0 .6947.687 1.0741 1.627 1.0493 2.6.0031.529-.1065 1.053-.3217 1.537-.2092.477-.5182.905-.9064 1.255zm-2.8986-.716c.4137 0 .8218-.095 1.1923-.278l-.8251-1.23.7164-.48.8192 1.226c.5488-.536.8435-1.277.8111-2.04.0275-.747-.248-1.473-.7805-2.009-.5006-.523-1.2012-.811-1.9282-.793-.7301-.017-1.434.27-1.9393.793-1.0278 1.145-1.0278 2.88 0 4.018.5062.527 1.2137.817 1.9475.799zm8.8141.711h-.8713v-.672h-.0395c-.1542.251-.3746.456-.6383.591-.2733.153-.5818.234-.8959.235-.5086.033-1.0071-.151-1.3711-.505-.3411-.399-.5124-.916-.4751-1.437v-3.019h.9086v2.954c.0208.788.418 1.182 1.1916 1.182.3541 0 .6886-.161.9063-.438.2458-.294.3762-.665.3672-1.047v-2.648h.9086v4.8zm3.2352.158c-.6643.019-1.3055-.246-1.7606-.727-.4654-.497-.7134-1.156-.6911-1.834-.0209-.672.2219-1.328.6762-1.828.9361-.959 2.4813-.976 3.4393-.039.4588.541.6881 1.238.6383 1.942v.098h-3.8109c-.0049.427.1668.838.4751 1.137.7513.726 1.9997.507 2.454-.431l.8117.392c-.207.393-.5198.724-.9041.952-.3992.231-.8542.348-1.3152.339zm-1.4552-3.139h2.7779c-.0194-.321-.1676-.62-.4118-.833-.2778-.221-.6331-.345-.9935-.327-.3233-.007-.6383.105-.8848.313-.2532.22-.4245.517-.4901.844zm5.4933 2.981h-.9086v-4.8h.8698v.785h.0395c.1065-.274.3106-.504.5601-.652.248-.17.5384-.266.84-.277.2298-.006.4583.035.6718.119l-.2793.875c-.1716-.058-.3531-.082-.534-.07-.3455.002-.6725.152-.8959.414-.2465.26-.3828.603-.3806.96v2.651zm7.1146-4.8-3.0312 6.938h-.9406l1.1194-2.422-1.9863-4.515h.9905l1.4449 3.455h.0201l1.4001-3.455h.9831z" fill="#fff"/><path d="m232.951 305.827h-2.365v-2.163h2.498c.914 0 1.372.365 1.372 1.098 0 .71-.5 1.065-1.5 1.065m1.703-2.183c-.325-.264-.779-.396-1.363-.396l-3.394.017v5.179h.684l-.006-2.203h2.525c.633 0 1.132-.132 1.495-.396s.546-.629.546-1.098-.162-.834-.487-1.098zm4.426 3.704c-.068.173-.18.324-.325.44-.306.271-.773.406-1.401.406-.568 0-1.004-.132-1.307-.396-.304-.264-.456-.616-.456-1.058 0-.23.039-.435.119-.613.078-.176.196-.331.345-.452.315-.26.747-.39 1.299-.39 1.22 0 1.831.485 1.831 1.454 0 .231-.036.433-.104.608m.123-1.91c-.416-.345-1.033-.517-1.85-.517-.772 0-1.369.176-1.79.528-.379.318-.569.748-.569 1.289s.196.972.589 1.302c.222.18.48.312.757.386.288.08.626.119 1.014.119.812 0 1.432-.17 1.857-.512.379-.311.569-.743.569-1.295 0-.556-.192-.99-.576-1.302zm5.172 2.06c0 .697-.687 1.045-2.063 1.045-.42 0-.774-.025-1.062-.073s-.521-.129-.701-.241c-.138-.085-.253-.196-.33-.333-.086-.16-.14-.336-.159-.517l.64-.005c0 .274.112.476.336.606.241.156.667.233 1.277.233.961 0 1.442-.218 1.442-.66 0-.255-.161-.431-.483-.528-.066-.019-.454-.067-1.166-.152l-1.332-.213c-.379-.138-.568-.384-.568-.74 0-.348.169-.607.508-.778.168-.071.377-.124.629-.164.251-.039.542-.058.873-.058 1.323 0 1.98.377 1.98 1.131h-.609c0-.53-.465-.795-1.397-.795-.473 0-.826.054-1.059.161-.232.107-.349.272-.349.495 0 .203.153.357.472.449.183.049.606.105 1.267.167.592.048.998.117 1.219.206.42.148.63.4.63.755zm2.512.944-.26.033-.162.011c-.417 0-.717-.055-.902-.165-.184-.109-.276-.301-.276-.576v-2.361h-.759v-.347h.753l.006-1.116h.584v1.116h1.015v.353l-1.015-.005v2.297c0 .171.05.289.15.354.101.065.28.097.536.097.037.004.078.003.122-.003s.112-.02.202-.042l.006.355zm4.035-.783c-.164.121-.349.213-.544.272-.204.063-.439.094-.704.094-1.22 0-1.83-.457-1.83-1.371 0-.425.156-.759.468-.999s.752-.355 1.319-.355c.571 0 1.005.122 1.3.363.294.242.443.567.443.975 0 .444-.15.787-.453 1.027m1.036-2.62h-.581l-.006.584c-.257-.237-.441-.387-.551-.45-.327-.162-.749-.243-1.267-.243-.76 0-1.339.152-1.739.472-.38.289-.57.707-.57 1.255 0 .27.048.512.144.725.095.211.239.397.42.541.406.303.967.455 1.699.455.878 0 1.503-.218 1.87-.66v.61c0 .385-.134.683-.406.894s-.707.317-1.32.317c-.576 0-.986-.072-1.231-.216-.183-.11-.304-.302-.379-.575h-.601c.066.381.244.657.534.828.335.196.9.294 1.696.294 1.524 0 2.285-.514 2.285-1.541v-3.301zm3.157.343c-.162-.025-.326-.037-.49-.038-.958 0-1.438.477-1.438 1.431v1.66h-.576l-.006-3.396.583.006v.605h.031c.089-.228.253-.42.465-.543.233-.119.579-.179 1.041-.179h.391v.455zm.542 1.134c.074-.385.239-.684.496-.896.167-.122.357-.214.568-.275.212-.062.451-.092.711-.092.518 0 .941.129 1.269.387s.493.55.493.877h-3.544m3.601-1.048c-.204-.185-.457-.323-.76-.412-.302-.089-.66-.134-1.059-.134-.762 0-1.342.16-1.759.478-.417.319-.625.753-.625 1.302s.2.984.6 1.306c.433.356 1.044.533 1.832.533.315 0 .605-.032.873-.101s.501-.156.701-.274c.351-.229.574-.512.668-.847h-.631c-.216.58-.755.87-1.616.87-.608 0-1.077-.142-1.402-.426-.281-.244-.422-.559-.422-.946h4.163c0-.576-.185-1.028-.557-1.355z" fill="#fff"/><path d="m265.983 307.047c0 1.008-.895 1.512-2.688 1.512-1.074 0-1.857-.174-2.351-.521-.404-.285-.606-.721-.606-1.306h.721c0 .941.745 1.412 2.236 1.412.714 0 1.231-.102 1.55-.29.269-.17.404-.436.404-.799 0-.359-.184-.611-.551-.755-.203-.078-.717-.176-1.526-.295-1.017-.141-1.675-.281-1.978-.421-.437-.208-.66-.559-.66-1.055 0-.457.186-.813.557-1.033.4-.248 1.087-.372 2.059-.372 1.756 0 2.634.529 2.634 1.587h-.728c0-.793-.652-1.189-1.956-1.189-.654 0-1.132.08-1.435.239-.286.17-.429.42-.429.75 0 .346.184.588.552.728.196.082.772.195 1.727.34.899.121 1.505.265 1.82.428.429.2.643.546.643 1.039zm5.86.514c-.277.2-.586.349-.914.441-.339.098-.719.153-1.14.153-.863 0-1.552-.21-2.082-.63s-.789-.985-.789-1.684c0-.729.263-1.296.787-1.703.525-.408 1.222-.611 2.088-.611.879 0 1.57.214 2.073.639.251.192.453.441.589.727.132.277.19.594.19.949 0 .725-.266 1.298-.797 1.72m.383.343c.376-.241.654-.532.834-.874.179-.343.27-.738.27-1.186 0-.803-.295-1.447-.883-1.932-.315-.267-.694-.465-1.139-.594-.445-.13-.955-.195-1.525-.195-1.111 0-1.983.244-2.616.733-.633.49-.95 1.151-.95 1.988-.009.381.072.759.239 1.102s.414.641.719.869c.639.5 1.513.75 2.619.75.379.004.757-.023 1.132-.08.322-.053.596-.135.821-.245l1.066.67.445-.37-1.032-.635zm6.501.528h-4.929v-5.179l.678-.011v4.757h4.257z" fill="#fff"/><path d="m254.205 288.391c-.095 3.393.024 6.804.355 7.64.332.835 1.043 2.445 3.488 1.921 2.043-.437 2.786-1.284 3.108-3.155.237-1.371.695-5.197.754-5.98m-10.63-17.434s-11.067-4.519-10.552 5.762c.11 2.184 3.137 16.559 6.753 12.219 1.32-1.588 2.513-2.833 2.513-2.833m7.259-15.974c-.383.12 6.157-2.39 9.873 2.358 1.312 1.677-.203 8.532-3.848 13.932" stroke="#fff" stroke-linecap="round" stroke-linejoin="round" stroke-width=".7"/><path d="m263.278 286.847s.237 1.167 3.684.456c1.51-.312.601.875-.93 1.586-1.258.584-4.076.733-4.122-.073-.119-2.08 1.483-1.448 1.368-1.969zm0 0c-.105-.469-.821-.93-1.295-2.079-.413-1.002-5.673-8.692 1.459-7.55.262-.053-1.86-6.783-8.534-6.892s-6.448 8.206-6.448 8.206" stroke="#fff" stroke-linecap="round" stroke-linejoin="bevel" stroke-width=".7"/><path d="m252.338 287.559c-.93 1.039-.657 1.221-2.516 1.604-1.882.388-.776 1.078-.055 1.258.875.218 2.899.529 4.266-1.386.416-.583-.003-1.513-.574-1.751-.276-.114-.646-.258-1.121.275z" stroke="#fff" stroke-linejoin="round" stroke-width=".7"/><path d="m252.276 287.54c-.093-.611.202-1.338.517-2.188.474-1.276 1.569-2.553.693-6.601-.653-3.017-5.029-.628-5.032-.218s.203 2.074-.073 4.011c-.354 2.529 1.61 4.668 3.87 4.449" stroke="#fff" stroke-linecap="round" stroke-linejoin="round" stroke-width=".7"/><path d="m251.236 278.471c-.021.139.256.512.614.562s.665-.241.685-.381c.021-.139-.255-.293-.614-.343-.358-.051-.666.022-.685.162z" fill="#fff" stroke="#fff" stroke-width=".561"/><path d="m262.159 278.186c.019.139-.256.508-.615.562-.358.055-.665-.241-.685-.38-.021-.14.256-.294.615-.344s.665.023.686.162z" fill="#fff" stroke="#fff" stroke-width=".28"/><path d="m263.442 277.219c.059 1.095-.236 1.843-.273 3.009-.056 1.696.808 3.636-.493 5.58" stroke="#fff" stroke-linecap="round" stroke-linejoin="round" stroke-width=".5"/><path d="m153.503 340.037v-3.812c0-.1-.063-.163-.163-.163h-1.25v-1.487h1.25c.1 0 .163-.063.163-.163v-2.387h1.775v2.387c0 .1.062.163.162.163h1.75v1.487h-1.75c-.1 0-.162.063-.162.163v3.375c0 1.587.562 1.725 1.287 1.725.263 0 .663-.038.888-.063v1.55c-.3.038-.788.1-1.35.1-.688-.037-2.6-.037-2.6-2.875zm48.313.925 1.45-.762c.325.762.95 1.262 1.675 1.262.563 0 1.188-.237 1.188-.925 0-.462-.3-.725-.988-.962l-.987-.325c-1.388-.425-2.075-1.225-2.075-2.35 0-1.425 1.187-2.488 2.8-2.488 1.287 0 2.375.7 2.9 1.788l-1.45.8c-.325-.7-.85-1.088-1.475-1.088s-1.05.325-1.05.825c0 .425.325.763.987.963l.988.325c1.45.462 2.138 1.262 2.138 2.35 0 1.725-1.476 2.612-2.963 2.612-1.488-.037-2.675-.8-3.138-2.025zm-5.462-1.487c-.038.037-.063.062-.063.1v3.175h-1.812v-11.751h1.812v6.426c0 .062.038.137.1.137.063.038.138 0 .163-.037l2.925-2.975h2.2l-3.413 3.462c-.062.063-.062.138 0 .2l3.713 4.538h-2.2l-2.863-3.575c-.037-.038-.062-.063-.1-.063-.037 0-.062 0-.1.038zm-2.763-3.813-1.15 1.088c-.662-.5-1.312-.725-2.037-.725-1.513 0-2.638 1.125-2.638 2.65s1.125 2.65 2.638 2.65c.662 0 1.35-.238 2.075-.725l1.025 1.087c-1.475 1.088-2.275 1.288-3.288 1.288-1.212 0-2.3-.425-3.088-1.225-.762-.763-1.187-1.888-1.187-3.075 0-2.488 1.812-4.3 4.313-4.3.8 0 2.025.125 3.337 1.287zm-8.488-3.537c0 .6-.487 1.087-1.087 1.087-.588 0-1.088-.5-1.088-1.087 0-.601.488-1.088 1.088-1.088.587-.013 1.087.487 1.087 1.088zm-.175 10.625h-1.812v-8.175h1.812zm-5.75-3.575v3.612h-1.812v-8.175h1.775v.988c0 .062.037.137.1.162.062.038.137 0 .162-.062.463-.763 1.313-1.263 2.238-1.263.137 0 .225 0 .3.038v1.85c-.1-.038-.263-.038-.425-.038-1.45-.025-2.338 1.1-2.338 2.888zm-9.712-.5c0-1.488 1.125-2.65 2.562-2.65 1.45 0 2.563 1.162 2.563 2.65 0 1.487-1.125 2.65-2.563 2.65-1.437 0-2.562-1.163-2.562-2.65zm.162 3.112h.063c.037 0 .1.038.137.063.625.725 1.55 1.125 2.6 1.125 2.238 0 3.95-1.888 3.95-4.3 0-1.188-.4-2.25-1.15-3.075-.725-.8-1.75-1.225-2.825-1.225-1.025 0-1.975.425-2.6 1.187-.037.038-.1.063-.162.038-.063-.038-.1-.063-.1-.138v-4.438h-1.813v11.751h1.813v-.825c-.013-.1.025-.125.087-.163zm-7.5-.462c-1.413 0-2.563-1.163-2.563-2.65 0-1.488 1.125-2.65 2.563-2.65 1.45 0 2.562 1.162 2.562 2.65 0 1.487-1.15 2.65-2.562 2.65zm4.25 1.425v-8.175h-1.775v.825c0 .062-.038.137-.1.137-.063.038-.138 0-.163-.037-.587-.725-1.512-1.125-2.6-1.125-2.237 0-3.95 1.887-3.95 4.3 0 2.412 1.75 4.3 3.95 4.3 1.025 0 1.975-.425 2.6-1.188.038-.062.1-.062.163-.037.062.037.1.062.1.137v.9h1.775zm-19.488-1.425c-1.413 0-2.563-1.163-2.563-2.65 0-1.488 1.125-2.65 2.563-2.65 1.413 0 2.563 1.162 2.563 2.65 0 1.487-1.15 2.65-2.563 2.65zm4.25 1.425v-8.175h-1.775v.825c0 .062-.037.137-.1.137-.062.038-.137 0-.162-.037-.588-.725-1.513-1.125-2.601-1.125-2.237 0-3.95 1.887-3.95 4.3 0 2.412 1.75 4.3 3.95 4.3 1.025 0 1.976-.425 2.601-1.188.037-.062.1-.062.162-.037.063.037.1.062.1.137v.9h1.775zm-13.863-1.425c-1.45 0-2.562-1.163-2.562-2.65 0-1.488 1.125-2.65 2.562-2.65 1.413 0 2.563 1.162 2.563 2.65.012 1.487-1.15 2.65-2.563 2.65zm4.25 1.425v-11.726h-1.812v4.401c0 .062-.038.137-.1.137-.063.038-.138 0-.163-.037-.625-.725-1.55-1.125-2.6-1.125-2.237 0-3.95 1.887-3.95 4.3 0 1.187.4 2.25 1.15 3.075.725.8 1.75 1.225 2.825 1.225 1.025 0 1.975-.425 2.6-1.188.038-.037.1-.062.163-.037.062.037.1.062.1.137v.863h1.775v-.025z" fill="#fff"/><path d="m179.503 310.724-9.813 5.563-10.425-5.925-.488.262v4.3l10.926 6.226 9.813-5.563v2.287l-9.813 5.563-10.438-5.925-.488.262v.725l10.926 6.226 10.963-6.226v-4.3l-.488-.262-10.488 5.925-9.775-5.563v-2.25l9.775 5.525 10.963-6.225v-4.237l-.562-.3-10.401 5.887-9.25-5.262 9.25-5.225 7.638 4.3.687-.363v-.525l-8.325-4.7-10.925 6.2v.663l10.925 6.225 9.813-5.563z" fill="#fff"/><path d="m39.0586 201.135c.0331-.016.0662-.03.0993-.043l.2018-.069-2.7725-7.941-.0397-.082h-.0893c-.4169 0-.8338.036-1.2473.099l-.1655.026 3.8974 8.06.1092-.053h.0066z" fill="#fff"/><path d="m38.536 201.529c.043-.046.0893-.093.1389-.136l.0927-.082-6.3953-7.177-.0661-.072-.0861.049c-.3937.222-.7708.477-1.1282.758l-.1157.093 7.4771 6.663.0827-.093z" fill="#fff"/><path d="m38.2084 202.095c.0198-.06.0463-.119.0728-.179l.0529-.112-9.353-4.526-.0563.099c-.2315.404-.4301.83-.5922 1.267l-.043.119 9.8791 3.448z" fill="#fff"/><path d="m38.1157 202.743c0-.023 0-.046-.0066-.069v-.033s0-.027.0033-.04c0-.02.0066-.04.0066-.06v-.119l-10.3356-.595v.135c.0165.46.0661.927.1522 1.38l.0198.106 10.1603-.586v-.116z" fill="#fff"/><path d="m38.2812 203.372c-.0265-.06-.0529-.119-.0728-.179l-.0397-.116-9.1016 3.166.0861.133c.2382.37.5061.724.8006 1.055l.0629.07 8.3174-4.02z" fill="#fff"/><path d="m38.6748 203.891c-.0496-.043-.0926-.089-.1356-.135l-.0827-.093-6.2762 5.591.1555.083c.3573.189.7312.354 1.1084.493l.0794.03 5.2439-5.886z" fill="#fff"/><path d="m39.2407 204.219c-.0595-.02-.1191-.046-.1786-.073l-.1125-.053-3.0273 6.266h.1952c.0596 0 .1125 0 .1688.007.0595 0 .1191.01.1786.01.2349 0 .4698-.017.6948-.033l.0794-.007 2.1207-6.077z" fill="#fff"/><path d="m39.8891 204.311c-.0231 0-.0463 0-.0694.007-.0232 0-.0497 0-.0728 0-.0199 0-.0397-.007-.0596-.007h-.1191l-.3242 5.605.1753-.063c.2746-.099.5492-.215.8106-.341l.0728-.036-.2978-5.165z" fill="#fff"/><path d="m41.0373 203.755c-.0431.05-.0894.093-.1357.136l-.0926.083 2.6037 2.921.0894-.125c.1257-.173.2448-.351.354-.533l.0529-.089-2.7923-2.488-.0827.092z" fill="#fff"/><path d="m41.4572 202.422v.116c0 .023 0 .046.0066.07v.033.039c0 .02-.0066.04-.0066.06v.119l3.5764.205.0166-.112c.0331-.225.0529-.424.0695-.603l.0099-.142-3.6724.212z" fill="#fff"/><path d="m40.8983 201.39c.0496.043.0926.089.1356.135l.0827.093 3.4408-3.067-.0331-.079c-.0926-.238-.2018-.48-.3275-.718l-.0827-.159-3.3118 3.715.0927.083h.0033z" fill="#fff"/><path d="m39.6873 200.97c.0232 0 .0463 0 .0695-.007.0232-.003.0496 0 .0728 0 .0198 0 .0397.007.0595.007h.1191l.4037-7.014-.0728-.036c-.3342-.166-.6816-.315-1.0323-.434l-.1753-.059.4334 7.546h.1224z" fill="#fff"/><path d="m40.5143 204.149c-.0562.027-.1158.053-.1786.073l-.1158.04 1.5086 4.334.1357-.109c.1886-.149.3573-.305.536-.467l.086-.076-1.8594-3.848-.1092.053z" fill="#fff"/><path d="m41.3648 203.193c-.0199.06-.0464.119-.0728.179l-.053.109 3.2324 1.568.0496-.122c.0596-.149.139-.351.2052-.563l.0364-.116-3.3581-1.174z" fill="#fff"/><path d="m41.2952 201.913c.0265.056.0529.115.0728.178l.0397.119 3.7121-1.283-.0099-.096c-.0232-.225-.0596-.444-.0993-.665l-.0298-.159-3.7385 1.797.0529.112z" fill="#fff"/><path d="m40.3357 201.062c.0595.02.1191.047.1786.073l.1092.053 2.4681-5.101-.0529-.063c-.2051-.239-.4268-.467-.6584-.682l-.1389-.129-2.0215 5.806.1158.04z" fill="#fff"/><path d="m4.37198 224.509c.27791.417.63522.728 1.06863.923.43341.198.88005.298 1.34324.298.25806 0 .51943-.04.78741-.123.26799-.079.51281-.202.73117-.361.21836-.158.40033-.357.53928-.595.13896-.235.20844-.51.20844-.821 0-.44-.13896-.774-.41687-1.005-.27791-.232-.6253-.424-1.03886-.579-.41356-.156-.86351-.305-1.34985-.45-.48965-.146-.9396-.348-1.34985-.602-.41356-.258-.75764-.603-1.03886-1.039-.27791-.434-.41687-1.023-.41687-1.76 0-.331.07279-.685.21836-1.062.14557-.374.37386-.718.68154-1.029.30769-.311.71132-.569 1.19767-.781.48965-.209 1.07525-.314 1.7601-.314.62199 0 1.21751.086 1.78657.258s1.06537.519 1.49547 1.045l-1.25395 1.142c-.19189-.301-.4665-.543-.8205-.725-.35401-.182-.75764-.271-1.20759-.271s-.78411.056-1.06863.168c-.28453.113-.51281.259-.68155.434-.17204.179-.29114.367-.36062.572s-.10587.391-.10587.563c0 .483.13896.853.41687 1.108.27791.258.6253.466 1.03885.625.41356.162.86351.305 1.34986.434.48965.129.9396.307 1.34985.539.41356.232.75764.543 1.03888.933.2779.39.4168.93.4168 1.618 0 .546-.1058 1.039-.3143 1.479-.2084.44-.48961.81-.84362 1.108-.354.301-.77087.529-1.25391.692-.48303.158-.99584.241-1.54505.241-.72786 0-1.41933-.129-2.0744-.384-.65508-.258-1.17451-.655-1.5616-1.191l1.27045-1.095v.007z" fill="#fff"/><path d="m16.6893 220.522h-2.0744v3.457c0 .215.0066.427.0166.635.0099.209.0496.398.1191.563.0694.165.1753.301.3209.4.1456.103.3573.152.6352.152.1721 0 .3474-.016.5294-.049.1819-.033.3474-.09.4995-.179v1.32c-.172.096-.3937.162-.6683.202-.2713.036-.4863.056-.6352.056-.5591 0-.9892-.079-1.2936-.231-.3044-.156-.5294-.358-.6749-.602-.1456-.245-.2316-.523-.2581-.828-.0265-.304-.0397-.612-.0397-.923v-3.973h-1.6741v-1.254h1.6741v-2.141h1.4491v2.141h2.0744z" fill="#fff"/><path d="m18.5885 220.198c.4069-.374.8801-.655 1.416-.844.536-.189 1.072-.281 1.6079-.281.536 0 1.0389.069 1.4392.208.4037.139.7312.328.9893.563.258.235.4466.506.569.81.1224.305.1853.626.1853.956v3.891c0 .268.0066.516.0165.741.01.225.0265.44.0497.642h-1.287c-.0331-.387-.0497-.771-.0497-1.158h-.033c-.321.493-.7014.84-1.1415 1.046-.44.205-.9495.304-1.5285.304-.354 0-.6914-.05-1.0124-.146-.3209-.096-.6021-.241-.8436-.433s-.4334-.43-.5724-.715c-.1389-.284-.2084-.615-.2084-.989 0-.493.1092-.906.3308-1.237.2184-.331.5195-.602.8999-.811.3805-.208.8238-.36 1.3333-.45.5095-.089 1.0521-.135 1.6311-.135h1.062v-.321c0-.192-.0364-.387-.1125-.579s-.1885-.368-.3374-.523c-.1489-.156-.3375-.278-.5625-.371-.2249-.089-.4929-.135-.8039-.135-.2779 0-.5228.026-.7312.079s-.4003.123-.569.202c-.1721.079-.3276.175-.4665.281-.139.106-.2746.209-.4037.305zm4.086 3.024c-.3441 0-.6948.019-1.0521.056-.3607.036-.6849.109-.9793.215-.2945.106-.536.258-.7246.45s-.2812.44-.2812.741c0 .44.1489.754.4433.949.2945.192.6948.288 1.1977.288.397 0 .7345-.066 1.0124-.201.2779-.133.5029-.308.6749-.523s.2945-.453.3706-.715c.076-.261.1124-.523.1124-.781v-.483h-.7741z" fill="#fff"/><path d="m26.9026 219.268h1.4491v1.175h.0331c.096-.206.225-.388.3871-.556.1621-.169.3408-.308.5393-.427s.4168-.212.6517-.281c.2349-.07.4698-.106.7081-.106.2382 0 .4499.033.6418.096l-.0629 1.558c-.1191-.033-.2349-.06-.354-.079-.1191-.02-.2349-.033-.354-.033-.708 0-1.2506.198-1.6244.595-.3772.397-.5625 1.012-.5625 1.85v3.827h-1.4491v-7.619z" fill="#fff"/><path d="m32.8513 214.732h1.4491v5.628h.0331c.258-.397.6286-.712 1.1083-.94.483-.231.9959-.344 1.5451-.344.5889 0 1.1215.103 1.6013.305.4764.205.8833.486 1.2208.843.3374.361.5988.784.7808 1.271.1819.486.2746 1.015.2746 1.584s-.0893 1.095-.2746 1.575-.4434.907-.7808 1.271c-.3375.364-.7444.648-1.2208.853-.4765.205-1.0124.305-1.6013.305-.5128 0-1.0157-.113-1.5054-.338-.4863-.225-.8701-.542-1.1513-.949h-.0331v1.095h-1.4491v-12.159zm3.9569 11.001c.3871 0 .7345-.066 1.0455-.202.311-.132.5723-.318.7874-.546.215-.232.3805-.509.4996-.837s.1786-.685.1786-1.069c0-.383-.0595-.741-.1786-1.068-.1191-.328-.2846-.606-.4996-.837-.2151-.232-.4764-.414-.7874-.546-.311-.133-.6584-.202-1.0455-.202s-.7345.066-1.0455.202c-.311.135-.5723.317-.7874.546-.215.231-.3805.509-.4996.837-.1191.327-.1753.685-.1753 1.068 0 .384.0595.741.1753 1.069s.2846.605.4996.837c.2151.232.4764.414.7874.546.311.136.6584.202 1.0455.202z" fill="#fff"/><path d="m49.4333 226.891h-1.4491v-1.175h-.0331c-.182.407-.4996.738-.9495.989-.45.252-.9694.378-1.5616.378-.3739 0-.7279-.057-1.0621-.169-.3341-.113-.6253-.288-.8767-.523s-.4533-.539-.6021-.91c-.1489-.37-.225-.807-.225-1.31v-4.906h1.4491v4.503c0 .354.0496.658.1456.909.0959.252.2249.457.3871.612.1621.156.344.268.5558.338.2084.069.4268.106.6517.106.3011 0 .579-.05.8371-.146.258-.096.483-.248.6749-.456.1919-.209.3441-.473.45-.798.1058-.321.1621-.701.1621-1.141v-3.924h1.4491v7.623z" fill="#fff"/><path d="m51.6201 219.268h1.4491v1.175h.0331c.0959-.206.2249-.388.3871-.556.1621-.169.3407-.308.5392-.427s.4169-.212.6518-.281c.2349-.07.4698-.106.708-.106s.45.033.6419.096l-.0629 1.558c-.1191-.033-.2349-.06-.354-.079-.1191-.02-.2349-.033-.354-.033-.708 0-1.2506.198-1.6245.595-.3771.397-.5624 1.012-.5624 1.85v3.827h-1.4491v-7.619z" fill="#fff"/><path d="m61.6217 221.18c-.1721-.215-.3838-.393-.6352-.539-.2515-.145-.5625-.218-.9264-.218-.3441 0-.6419.073-.8933.218-.2514.146-.3772.357-.3772.635 0 .225.0728.407.2184.546s.3176.252.5128.338.4103.149.6352.192c.225.043.4169.079.579.112.311.076.6022.166.8768.271.2746.106.5095.249.708.417.1985.172.354.381.4665.629s.1687.546.1687.9c0 .43-.0893.797-.2746 1.102-.182.304-.4169.555-.708.747-.2912.192-.6187.331-.9893.417-.3705.086-.741.129-1.1182.129-.6319 0-1.1877-.096-1.6642-.288-.4764-.192-.9032-.546-1.277-1.062l1.0951-.9c.2349.235.4995.444.7874.629.2878.182.6418.275 1.062.275.182 0 .3672-.02.5558-.057.1886-.036.354-.096.4996-.178.1456-.083.2647-.182.354-.305.0893-.122.1357-.264.1357-.426 0-.216-.0662-.391-.2019-.53-.1356-.139-.2944-.248-.483-.331-.1886-.079-.3838-.145-.5955-.192-.2085-.046-.3937-.089-.5558-.119-.311-.076-.6055-.162-.8834-.258s-.526-.225-.7411-.387c-.215-.162-.3871-.364-.5128-.612-.129-.248-.1919-.552-.1919-.916 0-.397.0827-.741.2481-1.039.1655-.295.3838-.539.6584-.731s.5856-.338.933-.434.6981-.145 1.0521-.145c.5161 0 1.0091.096 1.4789.287.4731.192.8469.517 1.1249.967l-1.1249.853h.0033z" fill="#fff"/><path d="m68.7946 220.522h-2.0744v3.457c0 .215.0067.427.0166.635.0099.209.0496.398.1191.563s.1753.301.3209.4c.1456.103.3573.152.6352.152.1721 0 .3474-.016.5294-.049s.3474-.09.4996-.179v1.32c-.1721.096-.3937.162-.6683.202-.2713.036-.4864.056-.6353.056-.5591 0-.9892-.079-1.2936-.231-.3044-.156-.5293-.358-.6749-.602-.1456-.245-.2316-.523-.2581-.828-.0264-.304-.0397-.612-.0397-.923v-3.973h-1.6741v-1.254h1.6741v-2.141h1.4491v2.141h2.0744z" fill="#fff"/><path d="m242.309 72.49h-1.716c-.061-2.8972-.228-5.6209-.501-8.1731h-.016l-2.613 8.1731h-1.307l-2.597-8.1731h-.015c-.193 2.4504-.314 5.1748-.365 8.1731h-1.564c.101-3.6461.354-7.0644.759-10.2551h2.127l2.476 7.5354h.015l2.492-7.5354h2.035c.446 3.7373.709 7.1559.79 10.2551zm7.444-7.5662c-.699 3.7924-1.621 6.548-2.765 8.268-.892 1.3241-1.868 1.9868-2.932 1.9868-.284 0-.634-.0856-1.048-.2554v-.9145c.202.0292.44.0458.714.0458.496 0 .896-.1366 1.2-.4106.364-.3337.546-.7088.546-1.1237 0-.2846-.142-.8664-.425-1.7473l-1.883-5.8494h1.686l1.352 4.3748c.304.9934.43 1.6869.38 2.0819.739-1.9745 1.255-4.1274 1.549-6.457h1.626z" fill="#fff"/><path d="m272.6 72.4898h-4.876v-10.2551h1.641v8.9927h3.235zm-6.152.2478-1.885-.9304c.167-.1373.327-.2859.471-.458.801-.9413 1.201-2.3334 1.201-4.1772 0-3.3927-1.331-5.0898-3.995-5.0898-1.306 0-2.325.4305-3.054 1.2918-.801.942-1.2 2.3291-1.2 4.1629 0 1.8026.354 3.125 1.063 3.9638.648.7599 1.626 1.1403 2.933 1.1403.487 0 .935-.0597 1.342-.1801l2.455 1.4289zm-6.107-2.2999c-.415-.668-.623-1.7406-.623-3.2196 0-2.582.785-3.8746 2.355-3.8746.821 0 1.423.3091 1.807.9261.415.6689.624 1.732.624 3.1903 0 2.6034-.786 3.9052-2.355 3.9052-.821.0003-1.423-.3078-1.808-.9274zm-3.07-.7904c0 .8697-.319 1.5831-.956 2.142-.639.5566-1.494.8355-2.567.8355-1.003 0-1.975-.3204-2.916-.9579l.44-.8806c.81.4057 1.544.6073 2.202.6073.618 0 1.101-.137 1.451-.4086.35-.2727.559-.6551.559-1.1387 0-.6092-.425-1.13-1.205-1.5661-.718-.3947-2.156-1.2199-2.156-1.2199-.779-.5679-1.169-1.1775-1.169-2.1818 0-.8312.291-1.5021.873-2.0126.583-.5124 1.335-.7678 2.256-.7678.952 0 1.818.255 2.597.7598l-.395.881c-.667-.2833-1.325-.4249-1.974-.4249-.526 0-.932.1264-1.214.3801-.285.2527-.46.5761-.46.9728 0 .6063.434 1.1337 1.234 1.5784.729.3954 2.202 1.2349 2.202 1.2349.799.5668 1.198 1.1708 1.198 2.1671z" fill="#fff"/><path d="m274.659 58.8c-.992-.0252-1.759.0747-2.404.3473-.186.0743-.482.0743-.508.3095.101.0995.112.26.2.3973.148.2478.407.5811.644.7549.26.199.52.396.794.5695.481.2982 1.028.4716 1.497.7688.274.1728.546.3964.82.5824.135.0992.221.2601.396.3221v-.0378c-.088-.1115-.113-.2727-.199-.3967l-.372-.3589c-.359-.4829-.806-.9045-1.288-1.2507-.397-.2733-1.264-.6448-1.425-1.1018l-.026-.0253c.273-.0255.597-.1243.856-.2003.421-.1111.806-.0859 1.238-.197.199-.0498.396-.1121.596-.1735v-.1117c-.224-.2233-.384-.5198-.62-.7307-.631-.545-1.326-1.078-2.044-1.5241-.385-.2484-.88-.4083-1.29-.6195-.147-.0747-.396-.1115-.483-.2355-.222-.2727-.347-.6315-.508-.9543-.358-.6809-.706-1.4365-1.015-2.1565-.224-.4829-.36-.9652-.633-1.412-1.277-2.1061-2.663-3.3817-4.795-4.6338-.458-.2607-1.003-.3718-1.585-.5085l-.929-.049c-.199-.0869-.397-.3228-.571-.4342-.707-.4458-2.527-1.412-3.047-.1363-.335.8063.495 1.599.78 2.0079.211.284.484.607.631.9294.087.2106.112.4342.199.6567.199.5453.384 1.1519.645 1.6607.136.2594.284.532.458.7668.099.1374.272.1981.31.4219-.173.2468-.186.6193-.285.9291-.446 1.4-.272 3.1343.36 4.1631.197.3098.669.9918 1.3.7304.559-.2229.435-.929.595-1.5483.037-.1496.013-.2477.087-.3459v.0242c.173.3466.347.6806.508 1.0282.384.6066 1.053 1.2388 1.611 1.659.297.2243.532.6077.904.7447v-.0372h-.025c-.075-.1111-.185-.1609-.284-.2471-.224-.2232-.471-.4958-.644-.7433-.52-.6942-.98-1.4627-1.388-2.2557-.199-.3847-.371-.8053-.532-1.1894-.075-.1482-.075-.3718-.2-.4464-.186.2723-.458.5081-.594.8418-.235.5336-.26 1.19-.347 1.8726l-.049.0239c-.395-.0992-.532-.5075-.682-.8541-.371-.8802-.434-2.2932-.112-3.3088.087-.2597.46-1.0776.311-1.325-.075-.2372-.323-.3722-.459-.5589-.16-.2348-.335-.532-.446-.7927-.297-.6935-.447-1.462-.767-2.1552-.15-.3231-.409-.6574-.62-.9549-.236-.3343-.496-.5698-.682-.9662-.062-.1363-.149-.3592-.049-.5074.024-.0995.074-.1367.173-.1616.161-.1356.619.0368.78.1115.46.1857.844.3592 1.227.6192.174.1244.36.3599.582.4219h.261c.396.0862.842.0239 1.214.136.656.2109 1.251.5204 1.785.8544 1.622 1.0292 2.961 2.4915 3.864 4.2381.148.2846.211.5453.347.8422.261.6076.584 1.2272.843 1.8218.26.5821.508 1.1765.88 1.6601.185.26.93.3963 1.264.5327.247.1111.632.2099.855.3462.421.2597.841.5579 1.238.8435.197.1486.817.4584.854.7064zm-12.639-10.7675c-.171-.0017-.341.0192-.507.0624v.0249h.024c.1.198.273.3353.397.5081.1.1987.186.3957.284.594l.024-.0245c.175-.1237.262-.3221.262-.6196-.075-.0876-.087-.1731-.15-.26-.073-.1241-.234-.1858-.334-.2853z" fill="#fff"/><path d="m275.839 72.488h.257v-1.2563h-.385l-.314.8573-.342-.8573h-.371v1.2563h.243v-.9558h.014l.357.9558h.185l.356-.9558zm-2.068 0h.272v-1.0434h.355v-.2133h-.997v.2133h.369z" fill="#fff"/><path d="m292.017 168.139c-.265-.267-.633-.431-1.044-.431-.41 0-.775.164-1.037.431h-.007c-.265.265-.429.634-.429 1.042 0 .411.164.778.429 1.04l.007.007c.262.264.627.426 1.037.426.411 0 .779-.162 1.044-.426l.004-.007c.265-.262.427-.629.427-1.04 0-.408-.162-.777-.427-1.042zm-1.044 20.162c.411 0 .779-.167 1.044-.428l.004-.008c.265-.261.427-.631.427-1.037 0-.41-.162-.778-.427-1.044h-.004c-.265-.269-.633-.431-1.044-.431-.41 0-.775.162-1.037.431h-.007c-.265.266-.429.634-.429 1.044 0 .406.164.776.429 1.037l.007.008c.262.261.627.428 1.037.428zm8.025-4.462c.365-.096.695-.33.897-.684l.027-.052c.179-.336.212-.723.116-1.067-.097-.368-.333-.693-.687-.896l-.02-.014c-.345-.189-.737-.231-1.097-.132-.366.091-.695.335-.896.686-.203.349-.245.75-.148 1.119.1.363.335.692.686.897h.002c.352.202.75.238 1.12.143zm-6.514-7.343c-.387-.386-.92-.628-1.511-.628-.59 0-1.122.242-1.508.628-.384.385-.621.916-.621 1.506 0 .591.237 1.125.621 1.514.386.383.918.623 1.508.623.591 0 1.124-.24 1.511-.623.385-.389.623-.923.623-1.514 0-.59-.238-1.121-.623-1.506zm-.85-2.511c.858.141 1.627.552 2.216 1.145h.004c.094.093.185.196.269.298l1.471-.85c-.198-.598-.207-1.222-.048-1.808.21-.785.718-1.487 1.481-1.927l.024-.015c.755-.427 1.612-.516 2.385-.306.784.21 1.491.721 1.931 1.482v.002c.438.757.526 1.626.317 2.408-.208.784-.718 1.491-1.48 1.928l-.201.119h-.02c-.705.335-1.479.388-2.191.201-.584-.155-1.12-.481-1.539-.944l-1.469.848c.169.447.263.928.263 1.436 0 .506-.094.995-.263 1.443l1.469.846c.419-.47.955-.788 1.539-.944.784-.214 1.653-.123 2.412.32l.049.023v.002c.733.444 1.225 1.131 1.431 1.906.209.777.121 1.646-.317 2.405l-.027.053-.003-.005c-.44.732-1.133 1.227-1.898 1.437-.785.207-1.654.118-2.412-.318v-.006c-.763-.441-1.271-1.144-1.481-1.927-.159-.583-.15-1.208.048-1.805l-1.471-.849c-.084.103-.175.201-.269.294l-.004.005c-.589.59-1.358 1.001-2.216 1.137v1.7c.611.127 1.158.433 1.586.861l.003.005c.574.571.93 1.368.93 2.243 0 .873-.356 1.665-.93 2.24l-.003.009c-.578.574-1.371.93-2.247.93-.871 0-1.666-.356-2.244-.93h-.002v-.009c-.575-.575-.931-1.367-.931-2.24 0-.875.356-1.672.931-2.243v-.005h.002c.429-.428.977-.734 1.585-.861v-1.7c-.857-.136-1.625-.547-2.213-1.137l-.006-.005c-.734-.736-1.193-1.75-1.193-2.875 0-1.121.459-2.136 1.193-2.872h.006c.588-.593 1.356-1.004 2.213-1.145v-1.692c-.608-.132-1.156-.437-1.585-.864h-.002v-.004c-.575-.577-.931-1.368-.931-2.244 0-.871.356-1.669.931-2.243l.002-.003c.578-.576 1.373-.932 2.244-.932.876 0 1.669.356 2.247.932v.003h.003c.574.574.93 1.372.93 2.243 0 .876-.356 1.667-.93 2.244l-.003.004c-.428.427-.975.732-1.586.864zm8.261-1.128-.013-.019c-.202-.342-.526-.57-.884-.668-.37-.098-.768-.057-1.122.146h.002c-.353.201-.589.529-.688.896-.097.365-.055.768.148 1.12l.007.009c.203.346.527.579.889.672.363.103.768.06 1.117-.143l.019-.009c.344-.206.573-.529.668-.885.098-.367.059-.768-.143-1.119z" fill="#fff"/><path d="m306.42 173.354h1.641v5.009l2.366-2.618h1.968l-2.857 3.033 2.868 3.843h-1.878l-2.467-3.433v3.433h-1.641zm7.881 5.859c0 .853.613 2.093 2.091 2.093.915 0 1.517-.477 1.829-1.101.163-.303.239-.627.264-.964.011-.327-.05-.666-.189-.967-.288-.65-.926-1.213-1.916-1.213-1.327 0-2.079 1.076-2.079 2.141zm5.812 3.408h-1.642v-.989c-.437.8-1.352 1.202-2.317 1.202-2.204 0-3.494-1.717-3.494-3.657 0-2.166 1.565-3.644 3.494-3.644 1.253 0 2.017.664 2.317 1.215v-1.003h1.642zm1.858-5.61h-.851v-1.266h.851v-.387c0-2.043 1.553-2.166 2.731-2.18v1.263c-.414 0-1.09 0-1.09.967v.337h1.09v1.266h-1.09v5.61h-1.641zm3.847-3.657h1.64v5.009l2.367-2.618h1.968l-2.857 3.033 2.868 3.843h-1.879l-2.467-3.433v3.433h-1.64zm7.881 5.859c0 .853.613 2.093 2.091 2.093.914 0 1.516-.477 1.828-1.101.164-.303.24-.627.264-.964.012-.327-.05-.666-.189-.967-.287-.65-.925-1.213-1.915-1.213-1.327 0-2.079 1.076-2.079 2.141zm5.811 3.408h-1.641v-.989c-.438.8-1.352 1.202-2.316 1.202-2.205 0-3.494-1.717-3.494-3.657 0-2.166 1.565-3.644 3.494-3.644 1.251 0 2.016.664 2.316 1.215v-1.003h1.641z" fill="#fff"/><circle cx="170.076" cy="174.126" opacity=".25" r="40.5761" stroke="#abb8ff"/><circle cx="170.243" cy="174.572" r="101.743" stroke="#abb8ff"/><path clip-rule="evenodd" d="m308.559 125.111v7.969h1.956v-3.663l.404.008v3.655h1.978v-7.969h-1.978v2.957h-.404v-2.957z" fill="#fff" fill-rule="evenodd"/><path clip-rule="evenodd" d="m315.332 125.111h-1.905v7.969h1.905z" fill="#fff" fill-rule="evenodd"/><path clip-rule="evenodd" d="m315.644 125.111 1.506 7.969h2.271l1.506-7.969h-2.023l-.499 3.41c-.041.13-.181.13-.207 0l-.498-3.41z" fill="#fff" fill-rule="evenodd"/><path clip-rule="evenodd" d="m325.114 125.111h-3.783v7.969h3.783v-2.09l-2.104-.018v-.896h1.002v-2.074h-1.002v-.801h2.104z" fill="#fff" fill-rule="evenodd"/><path clip-rule="evenodd" d="m304.689 100.946c-.319-.873-11.277-5.1331-11.417-4.6653-2.013.5245-2.832 2.8439-4.216 4.3133l-3.074-.176c-1.354 1.741-2.064 3.52-1.581 5.369 1.736 2.352 3.751 4.352 5.006 7.306.1 1.392 6.026.146 7.296-.13-1.735 1.242-3.246 3.168-2.597 8.712.593 2.604.998 5.511 6.256 8.456.692.388 2.124.835 3.01 1.161.847.389 1.837.548 4.63-.306 1.617-.697 3.362-1.117 4.944-1.812l-1.901.089c-2.618.057-4.64.253-5.263-.479l-2.41-4.16 1.405-2.729c1.944.2 2.589 1.776 4.303 2.377l2.02-1.497c5.867 3.464 8.201-2.194 8.87-6.601-.071-1.793-3.882.562-3.651-.276.09-1.928-1.481-4.449-2.496-6.414l1.174-4.546c.533-.474-2.467-5.5307-4.918-6.1612-2.149-.5534-5.39 2.1692-5.39 2.1692z" fill="#fff" fill-rule="evenodd"/><path clip-rule="evenodd" d="m314.327 110.606c.021.489.019 1.082.066 1.453-.008.282-.22.293-.395.352l1.141.418c.227.381.409.763.593 1.144.214.939.054.965-.088 1.035-.414.004-.827.005-1.213-.077.173.091.211.157.229.274.034.215-.105.509-.333.793.338.187.953.37 1.411.544l.521-1.16c-.236-1.706-.952-3.277-1.932-4.776z" fill="#fff" fill-rule="evenodd"/><path clip-rule="evenodd" d="m316.458 116.326c.633.264 1.508.187 2.721-.438.18-.129.348-.052.025.159-1.59 1.428-2.352.713-2.746.279z" fill="#fff" fill-rule="evenodd"/><path clip-rule="evenodd" d="m319.3 115.701c.188.36.074.653.011.957-.196 1.547-.678 2.771-1.624 4.049-3.078 4.948-6.185 1.852-8.662-.163l-1.025 2.567c-.054.225-.28.401 1.32 1.105l1.63-1.151c6.217 4.73 10.623-6.621 8.35-7.364z" fill="#fff" fill-rule="evenodd"/><path clip-rule="evenodd" d="m309.775 120.122c-.42.03-1.668.454-1.724.7l.575-.856z" fill="#fff" fill-rule="evenodd"/><path clip-rule="evenodd" d="m308.959 114.875c.077 0 .446.099.406.077-.056-.031-.006.518.11.804l-.45.979c.862-.994 2.225-.928 3.491-1.056l-.604-.374c.105-.35-.018-.627-.077-.925z" fill="#fff" fill-rule="evenodd"/><path clip-rule="evenodd" d="m311.078 111.927c-.925.283-1.811.747-2.405 1.734.453-1.628.546-1.566.692-1.646.634-.284 1.154-.107 1.713-.088z" fill="#fff" fill-rule="evenodd"/><path clip-rule="evenodd" d="m306.138 131.006c-1.119 1.234-3.614-.093-5.687-.77-5.267-3.349-6.295-6.502-6.367-9.595-.271-4.43 1.09-7.004 2.81-7.614-1.138 2.196-1.669 6.136-1.141 9.067.426 1.63.435 4.38 3.163 5.852 1.335.752.973 1.337 1.877 2.041.99.772 3.749 1.506 5.345 1.019z" fill="#fff" fill-rule="evenodd"/><path clip-rule="evenodd" d="m307.809 110.532c-1.894-2.686-4.557-3.694-7.561-3.804.602-.196 1.204-.298 1.806-.589.147-.155.099-.427.044-.704-2.891-.755-4.716-1.688-7.026-2.553l6.236 1.497c4.211.16 3.849 1.199 6.501 6.153z" fill="#fff" fill-rule="evenodd"/><path clip-rule="evenodd" d="m309.837 109.237c-1.4-1.998-2.757-4.423-4.6-5.965-4.447-2.007-8.847-3.4984-14.004-4.8551l1.646-2.1162c5.472 1.2489 10.611 3.339 15.215 6.7843.778 1.969 1.298 3.941 1.742 6.151z" fill="#fff" fill-rule="evenodd"/><path clip-rule="evenodd" d="m312.658 105.706s-.785-1.76-1.167-2.432c-.886-.982-1.334-2.812-3.149-3.6745.574.1551.967-.0296 2.139 1.0325l1.845 3.501z" fill="#fff" fill-rule="evenodd"/><path clip-rule="evenodd" d="m313.634 108.756c.18-1.525.524-3.972.13-4.938-1.097-1.472-2.202-2.994-3.307-4.4061-.184-.1704-.315-.4016-.46-.5819 1.554.4026 3.176 1.483 5.363 5.749z" fill="#fff" fill-rule="evenodd"/><path clip-rule="evenodd" d="m307.1 108.936c-.619-.487-1.17-2.21-2.108-2.569-.868-.072-1.187-.345-2.328-.113.414-.207.805-.473 1.245-.615.298-.07.578.008.862.047.07-.033.116-.074.099-.137-1.149-.71-3.507-.72-5.098-1.126 1.847.062 3.891-.04 5.279.405 1.116.991 1.479 2.856 2.049 4.108z" fill="#000" fill-rule="evenodd"/><path clip-rule="evenodd" d="m310.485 100.627c.256.023 1.635 2.204 1.7 2.567.114.794.397 1.683.473 2.513-.227-.796-.474-1.592-.784-2.388-.09-.22-.319-.715-.955-1.416-.296-.495-.359-.883-.434-1.276z" fill="#000" fill-rule="evenodd"/><path clip-rule="evenodd" d="m315.158 112.507h-.59l.652.171z" fill="#000" fill-rule="evenodd"/><path clip-rule="evenodd" d="m311.132 111.918c-.593-.073-1.202-.083-1.795.048-.242.324-.259.655-.364.96.721-.795 1.007-.843 2.159-1.008z" fill="#000" fill-rule="evenodd"/><path clip-rule="evenodd" d="m319.223 116.02c-.33.263-.363.511-1.339.809-.712.168-1.114-.117-1.449-.501.508.145.589.529 1.951.099z" fill="#000" fill-rule="evenodd"/><path clip-rule="evenodd" d="m316.265 116.185c-.238.653-.494 1.313-.752 1.925-.615.721-.353.311-1.274 1.431.295-.455.678-.891.879-1.365.141-.311.316-.642.394-.919-.245-.122-.744-.131-.812-.088-.818.483-.966.994-1.449 1.491.35-.559.649-1.169 1.054-1.672.047-.065.347-.078.531-.117-.287-.049-.817-.152-.86-.147-.534.128-.833.593-1.23.902.289-.417.556-.852.923-1.21.036-.042 1.028.045 1.542.25l.01.204.292.118.219-.55z" fill="#000" fill-rule="evenodd"/><path clip-rule="evenodd" d="m309.788 120.124c-.132-.045-1.295-.195-1.295-.16-.447.318-.515.623-.505.886.743-.731.715-.733 1.8-.726z" fill="#000" fill-rule="evenodd"/><path clip-rule="evenodd" d="m308.904 114.865s.84-.123.824-.044c-.061.291.102 1.001.12.902l-.472.385c.989-.497 2.03-.397 3.085-.473 0 0-.889-.245-.834-.253.198-.028-.053-.927-.121-.946.169-.058.334-.101.505-.143-1.271-.333-2.006-.137-3.107.572z" fill="#000" fill-rule="evenodd"/><path clip-rule="evenodd" d="m316.171 115.491-.186.094c-.027-.547-.614-.507-1.109-.512l-.406-.099c.123.115.505.106.351.352-.129.07-.189.367-.263.617l-.22.011c.388.151.748.284 1.175.462l.252.038.604-.324z" fill="#000" fill-rule="evenodd"/><path clip-rule="evenodd" d="m310.606 115.123c-.095-.187-.57-.161-.673-.04-.083.099-.005.729.102.623.154-.136.356-.192.598-.182.031-.116.02-.242-.027-.401z" fill="#fff" fill-rule="evenodd"/><path clip-rule="evenodd" d="m315.165 116.062c.045-.032.14-.348.109-.443-.062-.223-.505-.176-.505-.176-.107.063-.202.411-.163.526.019.097.488.128.559.093z" fill="#fff" fill-rule="evenodd"/><path clip-rule="evenodd" d="m296.259 126.973.279.027c1.656.813 4.382 2.018 8.329 1.37l.619.975c-1.738.845-3.608.65-5.36.71z" fill="#000" fill-rule="evenodd"/><path clip-rule="evenodd" d="m293.881 120.546.83 3.482c2.22 1.388 6.014 2.978 9.175 2.849l-.698-1.603c-6.6-1.402-7.159-3.173-9.306-4.729z" fill="#000" fill-rule="evenodd"/><path clip-rule="evenodd" d="m295.946 113.414c.405 2.698.946 4.744 3.292 6.457 1.438 1.034 2.866 2.064 4.602 2.914 0 0-.152.792-.279.778-5.167-.574-8.95-4.858-9.409-6.815.444-1.501 1.081-2.439 1.793-3.334z" fill="#000" fill-rule="evenodd"/><path clip-rule="evenodd" d="m298.429 111.885c.689 2.99 2.331 6.019 3.962 8.767.599.759.755 1.094 1.677 1.556 1.246.395 2.128.294 3.032.235-.248-.459-.468-.939-.753-1.37-2.025-1.601-1.089-3.06-.551-3.983-1.126-.285-2.618-.89-2.824-1.685-.331-2.573-.163-3.389.168-4.711-1.525.322-3.07.64-4.711 1.191z" fill="#000" fill-rule="evenodd"/><path clip-rule="evenodd" d="m292.835 96c-.502.3275-.985.7957-1.504 1.3278-.861.8915-1.434 1.7611-2.311 2.4058-.175.1512-.667.3944-1.286.4304-.291.015-.481.063-1.016-.004-.472-.2557-.921-.089-1.359.434-.48.691-1.088 2.002-1.341 2.827-.521 2.105.808 3.839 2.082 5.175 1.133 1.108 1.787 1.799 2.252 2.814.352.659.613 1.562.896 2.196.102.201.081.2.355.26.592.127 1.414.128 2.145.19.316.005.751-.007 1.163-.05.567-.107 1.234-.212 1.792-.405.546-.135 1.033-.321 1.471-.492-.056.192-.474.376-.631.62-1.486 2.127-1.893 4.02-1.634 7.008.146 1.324.45 2.421.908 3.677.21.575.657 1.485 1.084 2.089 1.273 1.798 4.119 4.106 8.081 4.995.691.095 1.476.044 2.214-.152 1.955-.593 5.941-1.995 5.941-1.995s-3.538.293-5.158.132c-.376-.058-.789-.078-1.05-.334-.044-.056-.203-.377-.1-.38.14-.004.543-.171 1.164-.226-1.327-.143-1.308-.142-1.405-.384-.151-.375-.381-.888-.619-1.337.583.049 1.875.122 2.313-.331 0 0-.764.089-1.439.009-.228-.026-.616-.165-.732-.207-.303-.119-.553-.155-.611-.232-.105-.268-.177-.358-.304-.717-.172-.476-.186-1.006-.218-1.491.441.544 1.004 1.003 1.75 1.237.009-.02.967.416 1.662.192l.144-.047c0 .013-.461.041-.63-.043-1.414-.601-1.626-1.127-1.855-1.388l-.61-.915c.185-.37.29-.384.536-.388.745.083 1.068.147 1.521.037.306.63.389 1.263 1.086 1.722 2.32.689 2.825-.205 3.387-.994 1.67 1.225 4.388 1.603 6.276.021 2.4-2.777 3.16-7.155 2.947-7.405-.3-.509-.693-1.033-1.031-.961-1.203.329-1.647.939-2.84.8.142-.008.381-.012.383-.025.092-1.01-.008-1.499-.052-1.583-.362-.798-.837-1.638-1.168-2.268-.086-.13-.337-1.122-.757-1.514-.18-.154-.621-.56-.621-.56l-.038.432s.173.026.238.293c.249 1.013 1.516 3.408 1.609 3.523.449.725.046 1.628.387 2.135.033.064.697-.006 1.211.026.846-.182.811-.555 1.541-.611.493-.038.542.887.536.958-.092 1.021-.403 2.208-.878 3.292-.988 1.904-2.094 3.613-3.664 3.852-1.914.334-2.909-.503-3.946-1.036l-.397.339c-1.349 1.343-2.95 1.224-3.605-.531-.326-.681-.751-1.098-1.115-1.682l-1.929 1.39c-.16.329-.358.848-.598 1.429-.166.403-.306 1.096-.297 1.671-.248.421.856 2.13 1.554 3.169.206.307.59.842.603.876.138.359.441.675.459.714 1.295 1.689-1.633 1.3-2.238 1.198-1.193-.19-2.36-.689-3.457-1.355-.064-.039-.127-.078-.19-.118-1.304-.821-2.504-1.871-3.524-2.91-.608-.688-1.187-2.1-1.614-3.101-.641-2.405-1.561-6.576.931-9.736.158-.18.328-.481.473-.541.74-.5 1.544-.842 2.409-1.031l-.087-.561c-.432.098-1.886.63-2.297.853-.935.271-1.71.554-2.901.852-.388.047-.769.048-1.14-.002-.857-.117-2.318-.013-2.411-.099-.58-.81-.739-2.259-1.269-3.035l-.006-.008-.007-.008c-.308-.414-.668-.753-1.022-1.105-1.269-1.261-2.355-2.48-2.659-3.771-.077-.382-.274-.777-.169-1.905l.002-.006.002-.005c.305-1.054.802-1.914 1.645-2.775.877.014 1.745.034 2.421.163.311.052.956.136 1.622.384 1.687.629 3.916 1.662 3.916 1.662-1.673-.919-3.544-2.112-4.725-2.353-.176-.025-.284-.105-.336-.245 1.777-1.0442 2.102-2.2733 3.27-3.3756.534-.2324.742-.3511 1.196-.4004 4.197.6636 6.839 2.3352 8.929 3.453.848.461 1.62.81 2.356 1.23.646.213 2.594 1.683 3.164 2.476.579 1.223 1.002 2.544 1.388 3.819.276 1.296.519 1.822.519 1.822s-.235-1.084-.196-1.279c.244.091.82.271 1.059.243 0 0-1.067-.552-1.207-1.039-.449-1.564-.899-3.998-1.02-4.125-.342-.43-1.767-1.522-2.642-2.026-.331-.191-.51-.31-.523-.393.279-.283.624-.656.933-.8933.297-.2274.567-.4838.98-.6372 1.817-.8182 2.855.3147 3.102.0853 0 0-.391-.4479-.217-.3742.177.0963.757.2098.82.269.662.5179 2.393 2.4104 3.437 4.4084.25.489.352.811.236 1.4-.117.59-.207.914-.334 1.308-.115.263-.764 2.065-.762 2.307-.131.989.424 2.227.424 2.227.006-.336-.02-.515.01-.755l.037-.43s-.023-.114-.019-.159c.028-.297.101-.547.122-.717.209-1.291.572-2.221.983-3.354.122-.286.282-.445.274-.663.007-.386-.339-.905-.589-1.412-.252-.512-.553-1.082-.949-1.684-.901-1.296-1.67-2.3107-3.077-2.9456-.394-.1728-1.944-.3417-2.479-.2413-.649.1352-1.207.2686-1.652.5536-.7.4485-1.251 1.1433-1.896 1.5523-1.428-.7144-2.118-1.2488-2.246-1.3225-.849-.4548-1.868-.9825-2.964-1.483-.526-.4901-3.789-1.6624-6.778-1.8963zm18.266 26.635c-.88-.688-1.621-1.397-2.109-2.126-.159.858-.738 1.469-1.185 2.07-.089.14-.154.333.285.945.118.163.545.191.834.176-.294-.222-.74-.457-.812-.66.516.351.995.452 1.427.396.099-.011.221-.116.316-.277.193-.414.344-.514.496-.625l.352.44z" fill="#000" fill-rule="evenodd" stroke="#000" stroke-width=".11397"/><path d="m156.462 153.529c-.096.286.48 2.675 1.345 5.254.864 2.579 1.585 4.968 1.585 5.254 0 .335-2.498 1.911-6.052 3.869-3.314 1.816-6.052 3.535-6.052 3.822 0 .43 1.489.621 6.821.86l6.82.334v2.15c.24 7.499.576 11.32 1.104 11.32.289 0 1.97-2.531 3.747-5.684 1.729-3.105 3.362-5.828 3.554-6.066.288-.287 1.825 0 5.619 1.242 3.314 1.05 5.284 1.576 5.524 1.337.288-.287-1.009-2.197-3.506-5.445l-3.939-5.064 2.594-5.159c3.218-6.448 3.122-6.591-3.362-3.248-2.546 1.29-4.803 2.389-5.043 2.341-.193 0-2.594-1.72-5.284-3.821-2.689-2.102-4.995-3.822-5.091-3.822s-.288.287-.384.573z" fill="#ea4040"/><path d="m132.88 187.73c-5.572 5.923-10.039 10.843-9.894 10.986.144.144 5.091-4.299 11.046-9.84 8.165-7.595 10.759-10.222 10.663-10.843-.096-.43-.48-.812-.865-.86-.624-.095-3.266 2.484-10.902 10.605z" fill="#ea4040"/><path d="m152.476 178.463c-3.266 3.009-33.765 35.825-33.573 36.112.096.191.865-.287 1.633-.955.769-.717 8.213-7.643 16.57-15.381 19.26-17.818 19.308-17.913 19.02-19.012-.336-1.051-.529-1.289-1.633-1.624-.625-.191-1.153 0-2.017.812z" fill="#ea4040"/><path d="m144.791 199.576c-5.572 5.923-10.038 10.843-9.894 10.986.144.144 5.091-4.299 11.047-9.84 8.165-7.595 10.758-10.222 10.662-10.843-.096-.43-.48-.812-.864-.859-.625-.096-3.266 2.483-10.903 10.604z" fill="#ea4040"/><g fill="#fff"><path d="m181.069 15.6385-6.706 2.1906-5.834 2.5757-1.631.4313c-.416.3956-.852.7965-1.323 1.202-.517.4465-.999.852-1.369 1.1458-.411.3243-1.019.9332-1.328 1.3182-.462.5779-.827 1.1914-.984 1.663-.278.8519-.142 1.7138.396 2.5103.689 1.0145 2.063 2.0487 3.664 2.7533.816.36 2.19.8216 3.224 1.0798 1.718.4359 5.042.9074 6.872.9788.37.0152.867.0152.888 0 .04-.0258.324-.568.654-1.2423 1.125-2.297 1.936-4.4519 2.377-6.2926.264-1.1154.472-2.6014.608-4.3608.036-.492.051-2.1398.021-2.6979-.046-.9127-.127-1.6531-.254-2.3782-.02-.1063-.026-.2028-.015-.2081.021-.0152.081-.0357.907-.2741l-.167-.3956zm-1.531.8975c.061 0 .223 1.5566.264 2.5407.009.2081.005.3447-.006.3447-.04 0-.857-.4814-1.439-.8466-.507-.3197-1.47-.9583-1.622-1.0798-.051-.0357-.045-.0402.37-.1822.704-.2385 2.377-.7761 2.432-.7761zm-3.416 1.1261c.045 0 .162.066.441.2384 1.044.6538 2.463 1.445 3.072 1.7093.187.0812.208.0508-.224.3447-.922.6287-2.072 1.2476-3.482 1.871-.248.1116-.456.1974-.461.1974-.01 0 .02-.1268.06-.2787.34-1.2627.532-2.5407.543-3.565.004-.3382.02-.5123.051-.5224-.01.0053-.005.0053 0 .0053zm-.705.2688c.031.0303.01 1.1663-.03 1.4754-.091.7403-.233 1.4298-.466 2.2058-.055.1876-.106.3447-.117.3546-.02.0251-.715-.6538-.943-.918-.395-.4564-.704-.9127-.932-1.3592-.117-.2286-.299-.6743-.284-.6895.081-.0554 2.752-1.0904 2.772-1.0699zm-3.314 1.303c.005 0 .01 0 .015.0053.01.0099.046.0911.076.1822.162.4412.527 1.0904.841 1.5058.345.4564.795.9431 1.171 1.2628.122.1017.233.1974.248.2126.031.0303.041.025-.785.3394-.958.3652-2.003.7305-3.199 1.1155-.285.0918-.571.1852-.856.2786-.046.0152-.03-.0098.101-.2179.593-.9279 1.495-2.748 2.002-4.0366.087-.2232.173-.4465.188-.4966.02-.0714.045-.0964.111-.1321.036-.0099.072-.0205.087-.0205zm-1.013.4207c.015.0098-.244.5527-.498 1.0494-.491.9582-1.029 1.9013-1.748 3.0471-.122.1975-.239.3805-.254.401-.025.0357-.036.025-.117-.1322-.172-.3394-.314-.776-.39-1.1762-.076-.3956-.061-1.085.025-1.511.066-.3144.061-.3091.213-.3858.649-.3295 2.747-1.3136 2.767-1.2931zm8.743.3553v.2126c0 1.1307-.122 2.6828-.299 3.8134-.031.1974-.057.3599-.061.3652 0 0-.147-.0402-.32-.0911-.76-.2384-1.586-.5885-2.331-.9985-.492-.2688-1.206-.71-1.187-.7305.006-.0053.218-.1169.466-.2483.994-.5171 1.946-1.0752 2.773-1.628.309-.208.776-.5422.877-.634l.081-.0608zm-12.57 1.5012c.02 0 .015.0403-.016.2233-.02.1321-.045.3751-.055.5421-.041.7404.081 1.2878.446 2.0388.102.2081.182.3805.178.385-.036.0304-3.391 1.0145-4.446 1.303-.314.0858-.588.1625-.608.1671-.035.0098-.04.0053-.025-.0813.117-.7456.685-1.7191 1.475-2.5407.528-.5475.948-.8672 1.668-1.2779.517-.2939 1.313-.7351 1.373-.7556 0-.0053.006-.0053.01-.0053zm7.907 1.4147c.005-.0054.127.0607.274.1473 1.085.6287 2.595 1.2119 3.882 1.511l.117.0251-.162.0911c-.674.3751-2.889 1.2985-5.155 2.1451-.329.1215-.653.2438-.715.2688-.06.0251-.117.0403-.117.0357 0-.0045.092-.1822.208-.4009.634-1.1869 1.273-2.6319 1.597-3.6357.041-.0964.066-.1822.072-.1875zm-.806.2634c.005.0054-.036.1117-.087.2332-.441 1.0699-1.018 2.2362-1.758 3.5445-.188.3349-.345.6037-.35.6037s-.157-.0911-.339-.2028c-1.075-.6591-2.028-1.4708-2.651-2.2567l-.091-.1116.462-.1268c1.652-.4511 3.056-.9378 4.45-1.5362.197-.0812.359-.1473.365-.1473zm5.008 1.7495c.005.117-.254 1.1611-.466 1.9166-.178.634-.33 1.1306-.608 2.0077-.122.3857-.228.7046-.233.7046s-.036-.0053-.066-.0152c-1.505-.2741-2.854-.6545-4.121-1.161-.355-.142-.861-.3705-.892-.3956-.01-.0099.294-.1519.68-.3197 2.306-1.0091 4.698-2.155 5.519-2.647.097-.0607.173-.0911.188-.0911zm-11.561.3957c.009.0098-.634.9377-1.536 2.2005-.314.4412-.679.9583-.816 1.1511-.136.1929-.344.4966-.461.6796l-.214.3296-.228-.1929c-.269-.2232-.735-.7001-.943-.9636-.435-.5421-.73-1.1154-.846-1.6379-.055-.2437-.055-.3652-.005-.3804.076-.0205 1.429-.3394 2.696-.634.705-.1625 1.521-.3546 1.815-.426s.532-.1268.538-.1268zm.649.2483.162.1822c.73.8163 1.475 1.4199 2.377 1.9469.163.0911.284.1724.274.1777-.035.0251-3.132 1.1253-4.567 1.6227-.806.284-1.47.5118-1.475.5118-.004 0-.05-.0304-.101-.0661l-.091-.066.147-.2127c.477-.6894 1.075-1.445 2.377-3.0168zm4.044 2.8953c.006-.0053.228.0759.502.1777.659.2483 1.181.4054 1.881.5831.861.218 2.108.4313 2.843.4921.112.0098.172.0205.152.0357-.036.0205-.78.2688-1.328.4411-.872.2742-3.534 1.0601-5.703 1.6835-.401.1169-.745.2126-.765.2179-.051.0099-.218-.0357-.218-.0554 0-.0099.122-.1671.269-.3395.73-.8724 1.455-1.8459 2.058-2.7685.167-.2536.309-.4616.309-.4662zm-.891.025c.005.0054-.355.5832-.983 1.5772-.269.4206-.568.8975-.674 1.0645-.102.1625-.254.4162-.34.5582l-.147.2589-.076-.0205c-.182-.0509-1.465-.5019-1.804-.6386-.421-.1671-.857-.3698-1.181-.5422-.405-.2179-.912-.5429-.872-.5528.01-.0053.704-.1928 1.541-.4206 2.22-.6037 3.452-.953 4.258-1.2066.147-.0456.274-.0813.278-.0759zm6.31 1.4807h.005c.021.0509-.8 2.3327-1.1 3.0525-.066.1625-.091.2028-.126.1975-.087-.0053-1.278-.1724-2.003-.2787-1.262-.1929-3.38-.5627-3.912-.6849l-.122-.0251.755-.1723c1.623-.3653 2.403-.5627 3.194-.8065.999-.3044 1.987-.6849 2.985-1.1511.157-.0714.289-.1268.324-.1321z"/><path d="m174.155.00001747c-.112-.01518657-1.911.63404153-3.072 1.10558253-1.566.63936-2.782 1.24758-3.532 1.77456-.279.19818-.629.54748-.684.68492-.021.05087-.03.11162-.03.17236l.679.64392 1.617.5171 3.847.68947 4.399.75554.046-.38043c-.015 0-.025-.00531-.04-.00531l-.578-.09112-.116-.20806c-.598-1.05471-1.257-2.36304-1.643-3.24538-.299-.68492-.583-1.475379-.74-2.043358-.086-.3447366-.096-.36523854-.152-.36979453zm-.081.25893153h.005c.005.005316.025.14731.046.314363.085.709978.243 1.394128.491 2.134478.188.55811.188.52774-.03.46167-.517-.14199-2.833-.54216-4.511-.77603-.268-.03569-.496-.07062-.496-.07594-.021-.0205 1.211-.66441 1.754-.91803.694-.31967 2.6-1.115453 2.742-1.14127zm-4.886 2.271921.198.06606c1.075.36524 3.776.88234 5.266 1.00383.167.01519.309.03038.314.03038.006.00531-.136.08125-.319.16705-.72.35992-1.511.80109-2.058 1.14127-.162.101-.309.18224-.329.18224-.021 0-.127-.0205-.239-.03568l-.202-.03038-.507-.4966c-.892-.86716-1.592-1.53613-1.861-1.78974zm-.203.15718.715.89221c.39.49205.786.97346.872 1.07977s.158.19287.152.19819c-.02.01518-1.034-.18224-1.571-.3045-.553-.1268-.78-.18755-1.12-.29386l-.279-.09112v-.07137c.006-.33942.436-.84666 1.166-1.36376l.066-.04556zm6.072 1.21721c.021 0 .046.04556.107.18224.172.38042.709 1.40476.841 1.60218.041.06606.111.07138-.604-.04556-1.718-.27867-2.271-.36979-2.271-.38042 0-.00532.051-.04025.117-.07593.532-.29387 1.07-.66898 1.546-1.0699.117-.09644.223-.18756.243-.20274.005-.00987.015-.01519.021-.00987z"/><path d="m166.902 3.49371s-.111.17768-.005.44117c.066.16249.259.35992.477.56266 0 0 2.255 2.20054 2.529 2.5149 1.247 1.4397 1.789 2.85964 1.839 4.81716.031 1.2575-.208 2.3631-.8 3.6456-1.055 2.3023-3.28 4.8422-6.712 7.6616l.502-.167c.324-.2438.765-.5019 1.8-1.0699 2.387-1.3083 5.074-2.5104 8.368-3.7473 4.744-1.7852 12.545-3.8741 16.984-4.5537l.462-.0714-.071-.1116c-.406-.6287-.685-1.019-1.019-1.4352-.973-1.2065-2.154-2.18531-3.599-2.99703-1.987-1.11014-4.557-1.9773-7.811-2.62121-.613-.1215-1.961-.35461-3.056-.52242-2.322-.35992-3.822-.60823-5.474-.89222-.593-.10175-1.48-.25361-2.068-.38042-.305-.06606-.888-.20274-1.344-.35992-.365-.142-.892-.28399-1.003-.71529zm1.308 1.26808c.005-.00532.086.02506.193.06074.193.06607.441.142.734.22325.223.0615.446.12073.669.17768.305.07593.558.14731.563.14731.035.03569.547 1.67357.719 2.30229.066.23843.117.44117.112.44117-.006.00532-.061-.08124-.127-.19742-.593-1.04484-1.531-2.10411-2.616-2.95608-.142-.10099-.248-.19287-.248-.19742zm2.493.68947c.025 0 .137.01519.274.04556.862.19287 2.408.48673 3.396.65378.167.02506.299.0562.299.06607s-.061.04556-.136.08656c-.167.0858-.841.48673-1.065.6386-.562.37511-1.069.78059-1.434 1.14583-.147.14731-.274.2688-.274.2688s-.03-.0858-.055-.19287c-.183-.70466-.563-1.7495-.908-2.48453-.055-.11694-.101-.22324-.101-.23311 0 .00987 0 .00531.005.00531zm4.39.83678c.03.00987.081.18224.182.56267.187.73503.274 1.55662.244 2.32279-.01.21261-.021.4108-.031.43586l-.015.05087-.263-.0858c-.543-.17237-1.424-.4313-2.18-.64392-.431-.11693-.78-.22324-.78-.23311 0-.03037.629-.6591.897-.89753.512-.45104 1.901-1.52625 1.946-1.51107zm.35.05088c.015-.01519 2.098.34473 3.046.52773.704.13668 1.728.35005 1.789.37511.03.00987-.076.07062-.416.22325-1.339.60366-2.332 1.14583-3.32 1.80493-.259.17236-.477.31436-.482.31436-.004 0-.009-.14731-.009-.32424 0-.96359-.193-1.93705-.548-2.75864-.035-.08125-.066-.15719-.06-.1625zm5.388 1.06458c.015.01519-.051.42598-.112.66897-.182.75553-.674 1.87631-1.277 2.93103-.106.1875-.203.3394-.213.3447s-.148-.0714-.305-.1625c-.588-.3447-1.257-.6689-1.987-.9734-.203-.0858-.38-.1572-.385-.1671-.035-.0304 1.597-1.11089 2.459-1.62799.684-.41612 1.799-1.03421 1.819-1.01447zm.385.06075c.045 0 .968.25361 1.449.39561 1.191.35461 2.56.85728 3.452 1.26276l.37.16706-.258.06074c-2.179.50192-4.045 1.07978-5.844 1.81028-.148.0607-.279.1116-.29.1116-.01 0 .041-.1169.107-.2589.542-1.15119.891-2.35321.978-3.37754.005-.09644.021-.17237.036-.17237zm-9.184 2.10942c.015-.01519.719.15186 1.099.25817.578.1625 1.805.57326 1.805.60366 0 .0053-.137.1215-.299.2635-.665.5528-1.303 1.136-2.069 1.8763-.228.2179-.42.3956-.431.3956s-.015-.0304-.01-.0714c.117-.8519.091-1.9469-.07-3.05779-.016-.14199-.031-.26349-.025-.2688zm14.805.01518c.01.00987-.324.53765-.537.83675-.305.4359-.75 1.0145-1.759 2.2818-.532.669-1.13 1.4245-1.328 1.6781-.202.2537-.37.4663-.375.4663-.004 0-.07-.0911-.141-.2028-.568-.8519-1.248-1.5976-2.054-2.2666-.151-.1268-.319-.2635-.375-.3045-.055-.0402-.101-.0812-.101-.0858 0-.0152.861-.3857 1.515-.6492 1.146-.4662 2.707-1.0243 3.878-1.38425.614-.19287 1.268-.38043 1.278-.3698zm.39.10099c.021-.00531.142.05619.289.142 1.232.70466 2.438 1.61286 3.392 2.54526.268.2635.932.953.922.9583 0 0-.233.0205-.507.0402-2.134.1625-4.866.6136-7.492 1.2476-.177.0403-.334.0759-.344.0759s.187-.1974.435-.4358c1.541-1.486 2.246-2.4238 3.077-4.0974.117-.24826.217-.46163.227-.47681-.003 0-.003 0 0 0zm-11.288 1.15646c.071.0152.73.3242 1.227.5733.456.2278 1.14.593 1.175.6234.006.0053-.238.1321-.537.2787-.953.4768-1.769.9279-2.621 1.445-.244.1473-.446.2688-.451.2688-.02 0-.015-.0205.122-.2688.456-.8315.821-1.8254 1.029-2.7936.02-.0759.04-.1268.055-.1268zm-.659.1215c.015.0152-.157.6386-.263.9788-.208.6439-.558 1.4503-.897 2.0585-.082.142-.203.3501-.269.4663l-.127.2027-.284-.2741c-.329-.3197-.598-.5171-.942-.6948-.137-.0706-.244-.1321-.244-.142 0-.0403.867-.8262 1.531-1.3941.477-.4108 1.48-1.2172 1.495-1.2021zm4.03 1.6584.248.1625c.568.3705 1.236.8618 1.749 1.2931.289.2384.846.7404.958.8619l.06.066-.41.117c-2.322.6439-4.116 1.2172-6.209 1.9879-.233.0858-.431.1572-.446.1572-.031 0-.056.025.466-.4564 1.338-1.2324 2.524-2.5908 3.406-3.9143l.178-.2742zm-1.06.2635c.01.0098-.684.9886-1.1 1.5414-.496.6591-1.378 1.7647-1.987 2.4845-.253.2992-.471.5475-.481.5528-.015.0053-.02-.0706-.02-.1875 0-.6136-.158-1.2681-.432-1.8255-.116-.2331-.136-.2893-.111-.3143.096-.0866 1.571-.9279 2.504-1.4298.628-.3349 1.611-.8315 1.627-.8216zm-6.407 1.5718c.016 0 .132.0607.264.1321.324.1777.613.3751.872.5885.01.0099-.122.1169-.294.243-.481.3447-1.211.8975-1.637 1.2369-.446.3546-.462.3653-.411.2893.335-.5118.502-.8011.68-1.1716.157-.3296.314-.7199.425-1.06.041-.1474.091-.259.102-.259zm1.709 1.3387c.025-.0053.055.0402.193.2437.289.4313.511 1.0092.567 1.4754l.01.1018-.694.2688c-1.242.4814-2.387.9582-3.163 1.3128-.218.1018-.598.284-.846.4055-.249.1268-.451.2233-.451.218 0-.0054.157-.1215.35-.2635 1.515-1.1003 2.828-2.3069 3.812-3.5142.106-.1268.202-.2438.212-.2483zm-.786.1928c.021.0206-.558.6743-.952 1.0753-.979.9992-1.946 1.7798-3.148 2.5407-.152.0964-.289.1822-.304.1929-.036.0205.01-.0304.537-.6037.335-.3599.588-.6644.877-1.0395.193-.2483.228-.284.507-.4815.745-.5376 2.463-1.7039 2.483-1.6834z"/><path d="m150.818 36.989c-.093 0-.187.0091-.28.0091-1.889.101-3.162.9324-3.908 2.5559-.636 1.4685-.567 3.3881.007 4.8658.668 1.4435 1.748 2.2058 3.55 2.4936.381.0623.637.2719 1.375 1.1345l.909 1.0653h1.648l-1.096-1.1048c-.606-.606-1.096-1.1337-1.096-1.18 0-.0464.231-.1481.512-.2331.925-.2802 1.693-.9948 2.23-2.0897.435-.8793.497-1.1512.559-2.2454.164-3.2575-1.553-5.2933-4.412-5.2705zm1.445 8.5174c-.801.3887-1.966.4662-2.726.1868-.785-.2886-1.546-1.1049-1.888-2.029-.38-1.0106-.326-2.8748.109-3.7146.699-1.3364 1.624-1.9515 2.975-1.9515 2.004 0 3.144 1.2278 3.293 3.5362.118 1.9264-.527 3.3722-1.761 3.9713h-.001zm28.468-5.7353c-.692 0-1.221.2802-1.577.8315l-.28.4366v-1.1352h-1.196v6.8082h1.195v-2.1763c0-1.9902.025-2.2225.303-2.767.383-.7464 1.042-1.1192 1.679-.9408l.427.1246v-1.18h-.552v-.0016zm-7.029-.0622c-.234 0-.483.0311-.73.0858-1.601.4184-2.503 1.9515-2.448 3.5286 0 1.3205.257 1.9811.894 2.6736 1.304 1.0714 2.485 1.1565 4.078.5816.271-.1161.567-.2498.567-.2498v-1.0714l-.567.2939c-1.289.5611-2.26.5611-3.038-.1003-.496-.5049-.714-1.1116-.815-1.8026h4.824v-.918c0-1.8718-1.126-3.0533-2.766-3.0229h.001zm-1.951 2.9857s.179-1.1671.84-1.6258c.318-.2247.683-.3333 1.041-.3333.357 0 .715.1162 1.01.3417.606.4662.707 1.6083.707 1.6083h-3.597v.0091zm-28.841-1.2279c-1.297-.7859-1.872-1.3531-1.801-2.0213.201-1.849 2.485-1.5931 3.75-.8937l.009-1.2438s-.699-.303-1.702-.3189c-1.538-.0236-2.531.4814-2.997 1.508-.684 1.5149-.078 2.6576 2.111 3.9318 1.23.7153 1.773 1.3364 1.773 2.0137 0 1.3995-1.687 1.8877-3.426 1.01-.359-.1785-.662-.3273-.677-.3273-.063.3964-.031 1.3455-.031 1.3455s.535.2248 1.336.3797c1.988.3964 3.797-.5361 3.968-2.0517.149-1.4223-.365-2.1679-2.313-3.3327zm48.409-1.7738c-.234 0-.481.0319-.739.0866-1.6.4191-2.5 1.9515-2.438 3.5294 0 1.3189.255 1.9727.892 2.6645 1.305 1.0721 2.485 1.1587 4.086.5831.271-.1162.566-.2475.566-.2475v-1.073l-.567.2962c-1.292.5596-2.262.5596-3.037-.1018-.499-.5042-.715-1.1033-.816-1.8026h4.816v-.918c0-1.8627-1.127-3.045-2.765-3.0138l.003-.0015zm-1.951 2.9857s.18-1.1656.84-1.6325c.318-.2256.683-.3341 1.04-.3341.358 0 .715.1161 1.011.3424.605.4662.707 1.6166.707 1.6166h-3.596v.0084h-.001zm-21.928-1.1967c-1.297-.7844-1.871-1.3531-1.801-2.0213.201-1.8498 2.485-1.5931 3.75-.8938l.01-1.2437s-.7-.303-1.702-.3174c-1.538-.0228-2.531.4814-2.998 1.508-.683 1.5149-.07 2.6576 2.113 3.9318 1.227.7145 1.771 1.3281 1.771 2.0054 0 1.3994-1.685 1.8953-3.426 1.0099-.356-.1784-.659-.325-.677-.325-.062.3964-.03 1.3456-.03 1.3456s.528.2164 1.327.3796c1.99.3971 3.801-.5346 3.971-2.0494.148-1.4154-.365-2.1611-2.308-3.3266v-.0016zm30.908-1.7259c-.691 0-1.226.2809-1.576.8322l-.28.4351v-1.1337h-1.197v6.8066h1.196v-2.1762c0-1.9894.024-2.2226.303-2.7662.383-.7457 1.042-1.1193 1.679-.9401l.427.1245v-1.1822h-.553zm-40.421 1.6872v-4.3365h-1.206v9.6047h5.072v-1.1344h-3.866v-4.1346zm27.892 1.3516-.994 2.5878-.956-2.6022-.971-2.884h-1.235c.8 2.2689 1.67 4.5773 2.548 6.815.381.0091.762 0 1.142 0l1.343-3.3722 1.367-3.442h-1.181s-.521 1.3668-1.064 2.8984h.001zm-25.113-8.3056c.194 0 .356-.0622.489-.1959.132-.1321.201-.287.201-.4814s-.07-.3561-.201-.4814c-.133-.1245-.288-.1876-.481-.1876-.194 0-.358.0623-.49.1944-.133.1322-.194.2939-.194.4815 0 .1875.062.3584.194.4814.125.1245.287.1868.482.1868v.0015zm-.428-1.1048c.116-.1162.257-.1693.437-.1693.169 0 .309.0539.427.1693.116.1162.178.2567.178.4275 0 .1709-.062.3189-.178.4351-.118.1154-.258.1709-.427.1709-.17 0-.312-.0532-.428-.1709-.116-.1162-.178-.2635-.178-.4351s.053-.3121.169-.4275zm.288.4905h.078c.055 0 .109.0532.156.1549l.093.2104h.147l-.116-.2339c-.047-.0934-.093-.1481-.148-.1633.068-.0159.123-.0394.163-.0858.039-.0402.053-.0941.053-.1556 0-.0714-.022-.1245-.069-.164-.054-.0448-.139-.0684-.25-.0684h-.248v.871h.125v-.3653h.015zm0-.4047h.108c.079 0 .134.016.164.0395s.038.0539.038.1086c0 .101-.063.1481-.179.1481h-.133v-.2962h.001zm-19.923.3273c0-.303-.01-.5285-.016-.6614h.006c.032.1564.07.2734.101.3508l1.159 2.5878h.194l1.158-2.6113c.031-.0714.062-.1785.101-.3273h.009c-.023.2582-.031.4829-.031.6621v2.2841h.396v-3.395h-.497l-1.064 2.3616c-.039.0934-.093.2338-.163.4191h-.016c-.023-.0919-.078-.2316-.155-.4032l-1.041-2.3858h-.528v3.395h.381v-2.2758l.006-.0015zm3.945.0061h.342v2.1147h-.342zm.171-.7753c.071 0 .132-.0243.178-.0714.047-.0463.078-.1071.078-.1784 0-.0714-.023-.1322-.077-.1785-.048-.0471-.11-.0714-.18-.0714-.071 0-.132.0243-.178.0714-.048.0463-.079.1086-.079.1785 0 .0774.025.1321.079.1784.053.0471.108.0714.178.0714zm2.61 2.9363v-.3728c-.188.1397-.389.2096-.597.2096-.249 0-.451-.0858-.599-.2499-.148-.1625-.226-.388-.226-.6682s.078-.5277.241-.7061c.155-.1709.358-.2567.606-.2567.201 0 .396.0623.575.1876v-.3964c-.163-.0858-.349-.1245-.56-.1245-.388 0-.691.1245-.917.3652-.225.2407-.34.568-.34.9621 0 .3508.101.6462.309.8717.218.2316.498.3493.84.3493.264-.0076.481-.0623.668-.1716zm.979-1.1276c0-.2787.062-.5042.178-.6598.109-.1398.241-.2104.397-.2104.132 0 .225.0243.293.0782v-.4047c-.053-.0228-.13-.0311-.231-.0311-.14 0-.264.0471-.374.1336-.116.0919-.209.2316-.263.4101h-.009v-.4966h-.388v2.4237h.389v-1.2437h.007zm2.23 1.2924c.365 0 .66-.1177.877-.3508.218-.2316.326-.5437.326-.9325s-.099-.6993-.303-.9248c-.201-.2256-.481-.3341-.846-.3341s-.66.1085-.878.3189c-.233.2316-.356.5588-.356.9788 0 .3652.1.6682.31.8937.217.2331.505.35.869.35v.0008zm-.553-1.975c.148-.1557.343-.2339.583-.2339.241 0 .437.0775.576.2339.139.1632.209.3956.209.7069s-.062.5285-.194.6842c-.132.1632-.326.2498-.583.2498s-.443-.0866-.591-.2498c-.147-.164-.217-.3888-.217-.6842-.015-.2939.063-.5346.217-.7069zm3.457 1.7639c.148-.1321.226-.2939.226-.4974 0-.1784-.062-.3257-.178-.4427-.094-.0933-.241-.1784-.452-.2634-.187-.0783-.303-.1481-.365-.202-.062-.0623-.101-.1397-.101-.2498 0-.101.04-.1785.116-.2407.078-.0623.179-.0927.312-.0927.21 0 .389.0554.553.1716v-.3888c-.157-.0782-.327-.1154-.522-.1154-.249 0-.46.0684-.614.2012-.164.1322-.241.303-.241.5042 0 .1785.053.3266.155.4351.086.0927.231.1876.435.2719.194.0858.326.1632.396.2255s.101.1397.101.2316c0 .2263-.155.3432-.458.3432-.234 0-.442-.0767-.63-.2316v.4184c.169.1018.373.1481.597.1481.287-.0152.513-.0858.668-.2255h.002zm1.849-2.3311c-.365 0-.66.1085-.877.3189-.232.2316-.356.5588-.356.9788 0 .3652.101.6682.309.8937.219.2331.505.35.871.35s.659-.1177.877-.3508c.219-.2316.327-.5437.327-.9324 0-.3888-.101-.6994-.302-.9249-.211-.2255-.49-.3341-.847-.3341h-.001v.0008zm.754 1.2741c0 .2961-.063.5285-.195.6842-.132.1632-.326.2498-.583.2498-.256 0-.442-.0866-.59-.2498-.147-.164-.217-.3888-.217-.6842 0-.3121.077-.5528.234-.7145.147-.1549.341-.2339.583-.2339.241 0 .434.0782.573.2339.125.1708.195.4039.195.7145zm1.049 1.2127h.388v-2.0988h.568v-.3265h-.568v-.3744c0-.3402.132-.5118.405-.5118.092 0 .185.0228.255.0623v-.3501c-.07-.0311-.163-.0379-.28-.0379-.21 0-.381.0622-.52.1944-.163.1549-.25.3561-.25.6294v.3972h-.41v.3257h.41v2.0905l.003-.0016zm1.592-.6614c0 .4738.21.7153.637.7153.155 0 .272-.0251.365-.0805v-.3334c-.071.0532-.156.0783-.25.0783-.132 0-.224-.0312-.278-.1018-.056-.0691-.087-.1868-.087-.3493v-1.3675h.615v-.3266h-.615v-.7145c-.133.0463-.265.0858-.388.1245v.59h-.419v.3266h.419v1.4374zm41.689 4.4679c-.132-.1245-.288-.1868-.481-.1868-.194 0-.359.0623-.491.1959-.132.1314-.194.2939-.194.4814 0 .1876.062.3561.194.4814.132.1246.293.1876.49.1876s.356-.0623.49-.1944c.132-.1336.201-.2878.201-.4814-.007-.1959-.078-.3584-.21-.483h.001zm-.062.918c-.116.1162-.257.1694-.428.1694-.17 0-.309-.0532-.427-.1694-.116-.1177-.178-.265-.178-.4366s.053-.3098.17-.4275c.117-.1154.256-.1693.435-.1693.17 0 .311.0539.428.1693.116.1177.178.2582.178.4275 0 .18-.053.3189-.178.4366zm-.349-.3964c.069-.0159.124-.047.163-.0858.039-.0402.054-.0949.054-.1564 0-.0698-.022-.1245-.07-.1632-.053-.0448-.14-.0684-.25-.0684h-.247v.8695h.124v-.3653h.078c.053 0 .107.0532.154.1549l.093.2096h.148l-.116-.2339c-.04-.1017-.087-.148-.134-.1632l.002.0022zm-.086-.0782h-.134v-.2938h.11c.077 0 .132.0144.163.0379.031.0228.038.0532.038.1086 0 .101-.063.1473-.179.1473h.001zm-21.672-6.7755h.108v-.8709h.288v-.1086h-.684v.1086h.288zm.658-.6538c0-.085 0-.1541-.006-.1936.007.0463.024.0775.031.101l.334.7464h.053l.335-.754c.009-.0228.016-.0531.031-.0934-.007.0775-.007.1397-.007.1868v.6599h.116v-.9788h-.14l-.303.6758c-.006.0243-.031.0714-.046.1245h-.009c-.006-.0311-.022-.0622-.045-.1162l-.303-.6841h-.157v.9803h.11v-.6538h.006z"/><path d="m284.2 245.688-3.521-2.029c-.494-.284-1.127-.115-1.413.378-.111.195-.154.409-.133.616v3.967c0 .567.461 1.028 1.031 1.028.568 0 1.029-.461 1.029-1.028v-2.281l1.973 1.137c.495.286 1.129.115 1.413-.379.287-.493.117-1.124-.379-1.409z"/><path d="m275.444 241.339c.006-.367-.187-.708-.505-.892l-3.521-2.028c-.153-.088-.328-.134-.504-.134-.361 0-.697.193-.876.504-.279.481-.113 1.099.37 1.377l2.029 1.168-2.029 1.17c-.234.135-.402.352-.471.612-.07.26-.034.532.101.766.179.311.515.504.875.504.177 0 .352-.047.505-.135l3.521-2.028c.315-.183.508-.521.505-.884z"/><path d="m272.217 236.982 3.521 2.028c.41.238.917.16 1.241-.156.205-.188.333-.457.333-.756v-4.066c0-.568-.462-1.029-1.03-1.029-.57 0-1.031.461-1.031 1.029v2.314l-2-1.152c-.494-.285-1.127-.116-1.413.377-.287.494-.116 1.125.379 1.411z"/><path d="m280.134 241.503c0 .078-.045.186-.101.243l-1.395 1.392c-.055.056-.165.1-.243.1h-.355c-.078 0-.187-.044-.243-.1l-1.397-1.392c-.055-.057-.1-.165-.1-.243v-.354c0-.079.045-.187.1-.242l1.397-1.394c.056-.056.165-.101.243-.101h.355c.078 0 .188.045.243.101l1.395 1.394c.056.055.101.163.101.242zm-1.246-.17v-.015c0-.057-.033-.136-.073-.178l-.412-.41c-.041-.042-.12-.075-.179-.075h-.015c-.057 0-.136.033-.178.075l-.411.41c-.04.04-.073.12-.073.178v.015c0 .058.033.138.073.178l.411.411c.042.041.121.074.178.074h.015c.059 0 .138-.033.179-.074l.412-.411c.04-.04.073-.12.073-.178z"/><path d="m280.679 239.01 3.521-2.028c.495-.284.666-.917.379-1.411-.286-.493-.918-.662-1.413-.377l-1.973 1.137v-2.299c0-.568-.461-1.029-1.029-1.029-.57 0-1.031.461-1.031 1.029v3.985c-.02.206.021.422.133.616.286.494.919.663 1.413.377z"/><path d="m276.444 243.539c-.234-.045-.484-.007-.706.12l-3.521 2.029c-.495.285-.666.916-.379 1.409.286.496.919.665 1.413.379l2-1.152v2.296c0 .567.461 1.028 1.031 1.028.568 0 1.03-.461 1.03-1.028v-4.065c0-.513-.377-.938-.868-1.016z"/><path d="m286.4 238.777c-.284-.495-.918-.664-1.413-.379l-3.521 2.028c-.337.195-.523.551-.517.913-.003.36.183.712.517.903l3.521 2.03c.495.284 1.127.115 1.413-.378.287-.494.116-1.125-.379-1.411l-1.993-1.149 1.993-1.148c.496-.285.666-.916.379-1.409z"/><path d="m340.502 241.097v.001.037c0 .192-.161.334-.358.334h-4.947c.009.117.024.23.048.343.23 1.069 1.147 1.865 2.237 1.874h.144.04.103c.023 0 .045 0 .069-.002.021 0 .042-.001.063-.003.002 0 .003 0 .005-.001.361-.029.725-.174 1.051-.407h.001c.017-.012.034-.026.051-.039.003-.002.006-.005.01-.008.014-.01.029-.022.044-.034.006-.004.01-.009.016-.013.012-.009.024-.02.036-.03.008-.006.017-.014.024-.02.009-.009.018-.018.029-.025.009-.009.019-.018.028-.027.008-.006.015-.014.023-.021.012-.01.022-.021.034-.031.006-.006.012-.014.018-.02.012-.012.024-.024.036-.036.006-.006.011-.01.017-.016.012-.014.024-.027.036-.041.006-.004.01-.01.015-.016.013-.014.025-.027.037-.04.005-.006.011-.012.015-.018.012-.015.023-.029.035-.042.006-.008.012-.015.018-.023.01-.013.021-.025.03-.037s.016-.023.024-.033c.007-.01.015-.019.022-.03.012-.016.024-.033.035-.049.004-.006.007-.011.01-.015.03-.044.058-.089.087-.135 0 0 0-.001.001-.003.006-.01.014-.019.021-.03.003-.004.006-.009.011-.012.004-.007.01-.012.015-.018.004-.004.009-.009.013-.013.006-.005.011-.009.017-.014.004-.004.009-.009.015-.012.007-.006.016-.012.025-.016.006-.005.014-.009.02-.012.007-.003.013-.006.019-.009s.012-.004.017-.007c.009-.003.016-.005.025-.008.005-.001.008-.003.012-.004.029-.006.059-.011.087-.011.032 0 .065.005.095.014h.003c.012.004.025.007.037.013.003.002.006.002.009.003.014.006.026.012.038.019l.006.003c.164.12.215.33.115.502l-.002.001c-.012.019-.023.039-.035.057-.003.004-.006.009-.009.013-.351.533-.828.958-1.36 1.212-.012.004-.022.01-.034.016-.002 0-.005.002-.006.002-.246.114-.51.193-.792.226-.006 0-.012.001-.018.001-.024.003-.048.006-.072.008-.013 0-.027.001-.042.003-.016 0-.034.001-.051.003-.033 0-.066.001-.099.001-.004 0-.128 0-.212 0-.048 0-.075 0-.078 0-1.664-.012-3.004-1.397-3.004-3.093 0-1.725 1.349-3.117 3.026-3.117.05 0 .099.001.149.003.584.03 1.124.229 1.572.555.001.001.003.003.004.003.026.018.05.037.074.055.012.011.025.021.039.031.012.009.024.02.036.029.631.525 1.056 1.313 1.127 2.226zm-5.257-.332h4.477c-.221-1.077-1.149-1.857-2.221-1.857-1.091 0-2.011.765-2.256 1.857z"/><path d="m327.856 238.297c.056.055.093.13.102.216 0 .012.002.024.002.036v5.494c0 .196-.165.359-.36.359s-.358-.163-.358-.359v-.73c-.137.165-.287.314-.45.444-.004.005-.009.008-.013.012-.015.012-.032.024-.047.035-.494.38-1.096.598-1.724.598-1.011 0-1.902-.537-2.432-1.351-.005-.005-.011-.013-.015-.019-.015-.025-.03-.051-.047-.078-.01-.016-.019-.033-.03-.049-.01-.017-.019-.034-.028-.052-.015-.026-.03-.053-.043-.078-.005-.009-.008-.018-.012-.027-.197-.389-.318-.827-.339-1.292-.003-.053-.005-.105-.005-.159s.002-.106.005-.159c.021-.465.142-.903.339-1.293.004-.008.007-.017.012-.026.013-.025.028-.052.043-.078.009-.018.018-.035.028-.052.009-.016.02-.033.03-.049.015-.026.032-.053.047-.078.004-.006.01-.014.015-.02.53-.813 1.421-1.35 2.432-1.35.684 0 1.33.25 1.844.685.141.118.271.248.39.392v-.72c0-.012 0-.024.001-.036.009-.086.047-.161.102-.216 0 0 0 0 0-.002.006-.006.014-.01.02-.016.001-.002.004-.005.006-.006.004-.005.01-.008.015-.011.004-.003.009-.007.013-.01.003-.002.006-.003.009-.006.008-.003.014-.008.021-.012.002 0 .003-.002.005-.002.009-.004.018-.009.027-.013h.001c.021-.009.044-.015.066-.02.002 0 .005-.001.006-.001.009-.002.02-.003.03-.005.012 0 .024-.001.036-.001.013 0 .025.001.037.001.011.002.02.003.03.005.002 0 .003.001.006.001.023.005.045.011.066.02h.002c.009.004.018.009.025.013.003 0 .005.002.006.002.006.004.014.009.02.012.003.003.007.004.01.006.005.003.009.007.014.01.004.003.009.006.013.011.003.001.005.004.008.006.006.006.013.01.018.016.001.002.001.002.001.002zm-2.848 5.389c1.231 0 2.234-1.071 2.234-2.389 0-1.324-1.003-2.401-2.234-2.401-1.221 0-2.233 1.076-2.233 2.401 0 .042.002.082.003.123 0 .018.003.034.003.05.002.024.003.048.006.071.002.019.005.037.006.055.003.021.005.044.008.064.003.017.006.032.007.047.005.024.008.048.012.072.003.012.006.022.008.033.006.028.012.055.018.083.001.006.003.012.006.018.254 1.023 1.13 1.773 2.156 1.773z"/><path d="m318.847 235.601h-.098c-.012 0-.025 0-.037.002-.014-.002-.026-.002-.039-.002-.035 0-.069 0-.103.002-.006 0-.014.001-.02.001-.027 0-.054.002-.081.005-.004 0-.01 0-.015 0-.028.003-.055.004-.082.007-.003.002-.006.002-.009.002-.03.004-.059.007-.086.012-.001 0-.003 0-.003 0-.181.028-.344.079-.49.151 0 .001-.001.001-.003.001-.021.012-.043.024-.064.036-.005.002-.008.005-.012.008-.018.01-.036.02-.054.032-.008.005-.014.011-.02.015-.015.009-.028.02-.043.03-.011.009-.021.018-.032.026-.009.007-.018.015-.027.022-.016.015-.031.029-.046.044-.003.003-.006.006-.009.009-.018.019-.036.037-.054.056-.003.005-.006.009-.009.012-.015.017-.03.033-.044.05-.004.007-.01.015-.015.022-.011.015-.022.029-.032.044-.003.006-.006.01-.011.014-.012.018-.024.036-.034.054-.002.003-.003.005-.005.008-.097.16-.166.348-.21.576 0 .003 0 .007-.001.01-.006.029-.011.058-.015.088-.002.009-.003.018-.003.027-.005.026-.008.051-.011.078-.001.015-.003.03-.004.046-.003.021-.006.041-.008.063-.001.023-.003.045-.004.069-.002.015-.002.03-.003.046-.002.032-.003.065-.005.098 0 .009-.001.015-.001.022-.002.042-.002.085-.002.127v.591h-.746c-.047-.001-.093.008-.135.022-.135.05-.231.177-.231.325 0 .139.069.257.177.326.054.035.117.055.186.058h.003v.002h.746v5.217c-.001.008 0 .014 0 .021v.014c.005.083.039.16.095.218l.001.001c.008.008.017.015.024.023.002.001.003.001.005.003.006.006.013.01.019.015.003.003.008.006.011.007.003.003.006.005.01.006.059.038.128.059.201.059.012 0 .024-.002.034-.003.071-.006.135-.036.188-.08l.001-.001c.008-.006.014-.012.02-.02.001-.001.004-.003.006-.004.006-.006.01-.012.015-.017.057-.068.088-.154.084-.242v-5.217h.803v-.002h.003c.213-.01.369-.176.363-.382 0-.002 0-.002 0-.003.001-.008 0-.015 0-.023 0-.003 0-.006 0-.007-.006-.08-.041-.151-.095-.207 0 0 0 0 0-.001-.001 0-.001 0-.001 0-.008-.008-.014-.014-.021-.02-.003-.003-.006-.004-.008-.007-.006-.005-.01-.008-.016-.012-.005-.003-.011-.008-.015-.011-.003-.001-.008-.004-.011-.006-.007-.004-.015-.009-.022-.012-.002-.001-.005-.003-.006-.003-.009-.004-.018-.009-.027-.012-.002-.001-.003-.001-.006-.003-.009-.002-.018-.005-.027-.008-.003 0-.006-.002-.009-.002-.009-.001-.016-.004-.025-.006-.005 0-.009 0-.014-.001-.006-.002-.013-.002-.021-.003-.006 0-.012 0-.016 0-.005 0-.009-.002-.014-.002-.004 0-.01 0-.012 0h-.803v-.589c0-.005 0-.009 0-.012.001-.03.001-.06.003-.088 0-.008 0-.017.001-.024 0-.026.002-.051.003-.075 0-.005.002-.011.002-.015.001-.029.004-.057.007-.084.029-.292.092-.476.158-.588.001-.003.001-.004.003-.007.004-.008.01-.015.015-.023.003-.006.007-.012.012-.018.001-.003.004-.009.007-.012.008-.01.015-.019.024-.028.094-.106.241-.17.454-.196.003 0 .005-.001.009-.001.012-.002.026-.003.038-.003.006-.002.013-.002.019-.003.012 0 .023-.002.035-.002.009 0 .016-.001.027-.001.01-.002.021-.002.031-.002.011 0 .021-.001.032-.001h.031.045.001c.012 0 .023-.002.035-.003.013.001.027.003.04.003h.098c.201 0 .366-.165.366-.367s-.165-.365-.366-.365z"/><path d="m320.78 235.612s-.001-.002-.003-.002c-.007-.003-.013-.006-.022-.007-.003-.002-.008-.003-.012-.005-.006-.001-.012-.003-.018-.004-.006-.002-.012-.005-.017-.005-.007-.001-.013-.003-.021-.003-.006-.001-.01-.001-.016-.003-.012-.001-.026-.001-.038-.001-.195 0-.359.163-.359.357v8.104c0 .196.164.359.359.359.012 0 .026 0 .038-.001.001 0 .004-.002.006-.002.01-.001.021-.003.031-.004.002 0 .005-.002.008-.002.009-.003.018-.004.027-.007.001 0 .003 0 .004-.002.138-.043.24-.16.255-.303.002-.012.003-.024.003-.038v-8.104c0-.012-.001-.024-.003-.036-.013-.131-.1-.24-.222-.291z"/><path d="m293.261 242.495c-.003-.021-.003-.04-.006-.06-.002-.015-.003-.028-.005-.042-.003-.016-.004-.031-.007-.047-.003-.015-.006-.03-.009-.047-.002-.012-.005-.025-.008-.037-.004-.018-.007-.035-.012-.053-.003-.009-.006-.019-.009-.028-.004-.019-.01-.037-.018-.055-.001-.008-.004-.015-.006-.021-.007-.021-.015-.041-.024-.062-.001-.003-.003-.007-.004-.012-.011-.021-.02-.043-.03-.064-.002-.001-.002-.003-.003-.004-.086-.172-.207-.316-.356-.437 0-.002 0-.002-.001-.002-.021-.016-.042-.034-.065-.05 0 0-.001-.002-.003-.003-.001 0-.003-.002-.004-.003-.013-.009-.027-.02-.039-.029-.184-.13-.388-.233-.685-.347-.004-.001-.009-.003-.013-.004-.005-.003-.011-.005-.015-.008-.168-.063-.342-.123-.521-.181 0 0 0 0-.001 0 0 0-.002 0-.002-.001-.003 0-.006-.002-.01-.003-.016-.006-.034-.012-.058-.02-.012-.003-.021-.006-.03-.009-.06-.021-.122-.04-.183-.061-.044-.015-.09-.03-.146-.048-.015-.004-.051-.016-.081-.025-.001 0-.001-.002-.003-.002-.018-.006-.036-.012-.055-.018-.15-.048-.273-.09-.378-.128-.171-.063-.327-.131-.454-.211-.003-.002-.006-.003-.007-.005-.174-.111-.294-.247-.323-.425l-.001-.001c-.002-.012-.003-.026-.003-.038-.002-.003-.002-.004-.002-.005-.001-.015-.001-.029-.001-.044 0-.021.001-.042.003-.061 0-.006 0-.011.001-.015.002-.017.003-.032.005-.047.001-.004.001-.009.003-.013.003-.016.006-.031.009-.048.001-.001.001-.004.003-.007.004-.018.009-.035.015-.051 0-.002 0-.002 0-.002.078-.232.262-.404.479-.525.015-.007.03-.015.044-.022.015-.008.028-.015.042-.021.022-.011.045-.021.067-.03.014-.006.026-.012.039-.016.024-.009.048-.018.072-.027.012-.005.026-.009.039-.014.024-.007.047-.015.071-.021.015-.004.028-.009.043-.012.023-.006.045-.01.066-.016l.045-.009c.024-.005.046-.009.067-.012.014-.002.026-.003.039-.006.026-.003.053-.006.08-.008.006-.001.012-.001.019-.003.033-.001.066-.003.098-.003.037 0 .075.002.111.003h.016c.265.017.48.081.657.166.013.006.027.014.04.02.008.004.015.009.023.012.016.009.033.018.051.028.003.002.006.003.009.005.018.01.036.022.054.033.001.001.003.001.003.001.019.012.039.026.058.038 0 .001.001.001.001.003.02.012.038.023.056.037.007.006.013.01.021.015.042.031.108.082.168.132.007.004.013.009.018.013.045.037.087.07.127.1.008.006.014.011.018.014.002.001.003.003.005.003.004.003.009.006.013.009.011.007.023.015.033.022.005.003.009.005.014.008.01.006.021.012.031.018.005.001.008.002.012.004.012.006.023.01.035.015.003.001.004.001.007.003.014.004.027.009.041.01 0 0 0 0 .001.002.03.004.058.006.088-.002.003 0 .006-.001.009-.001.008-.002.017-.005.024-.006.003-.002.005-.003.008-.005.003 0 .006-.001.009-.003.012-.006.024-.012.036-.019.003 0 .004-.001.006-.003.013-.009.025-.018.037-.028.002-.002.002-.002.002-.002.01-.009.019-.019.028-.03.006-.007.012-.016.017-.025.001-.002.003-.003.003-.005.063-.104.027-.242-.084-.392-.002-.003-.003-.006-.006-.009-.005-.006-.008-.01-.012-.016-.255-.329-.835-.69-1.373-.805-.003 0-.006 0-.009-.001-.023-.005-.046-.009-.069-.014-.006 0-.013-.001-.019-.003-.02-.003-.039-.006-.059-.007-.007-.002-.015-.003-.022-.003-.018-.002-.038-.003-.056-.005-.007-.001-.015-.001-.021-.003-.025 0-.049-.001-.073-.001-.039 0-.078 0-.116.001-.021 0-.042.002-.064.003-.015.002-.033.002-.048.002-.03.003-.059.004-.087.007-.008 0-.017 0-.024.002-.033.003-.066.006-.097.01-.005 0-.008 0-.011 0-.034.005-.067.009-.1.015-.002 0-.005 0-.006 0-.033.005-.066.011-.098.017-.001 0-.003.001-.006.001-.067.012-.133.027-.196.044-.002 0-.002.001-.002.001-.031.008-.063.017-.094.025-.03.009-.058.02-.085.029-.003 0-.005.001-.008.001-.027.011-.054.02-.081.03-.003.002-.006.003-.007.003-.027.011-.051.021-.077.033-.003.002-.007.002-.01.005-.023.009-.047.021-.068.031-.006.003-.01.005-.015.008-.022.01-.043.021-.064.033-.006.002-.011.005-.017.008-.019.011-.039.023-.058.035-.006.003-.012.006-.018.01-.026.015-.05.032-.074.047-.028.021-.057.04-.082.061-.003 0-.005.002-.005.003-.127.094-.236.194-.326.311-.003.005-.008.009-.011.014-.01.016-.022.031-.033.046-.007.012-.015.024-.022.036-.006.009-.012.018-.017.027-.012.019-.022.039-.033.06-.001.003-.003.004-.004.007-.081.16-.128.344-.146.567 0 .003 0 .006-.001.009-.002.039-.005.078-.006.12 0 .031 0 .062.001.094v.013c.017.428.212.75.564.999.003.002.006.005.009.006.015.011.03.021.045.032.01.007.022.013.033.021.003.003.007.004.01.006.348.22.774.345 1.129.446.174.05.33.094.376.107.011.003.021.006.03.011.213.07.376.127.511.181.011.003.02.007.03.01.003.002.008.003.012.006.077.032.152.064.224.1.06.03.115.062.17.095.143.088.252.184.326.288.003.003.004.006.006.009.007.009.013.018.018.029.004.006.007.01.01.016.005.008.009.015.012.023.005.007.008.016.012.023.003.006.006.012.009.018.003.009.008.018.011.029.001.004.004.01.006.016.003.011.006.021.009.032.001.004.003.009.004.015.003.01.006.022.008.033.001.004.003.01.003.015.001.011.003.023.004.035.002.005.002.009.002.014.001.018.003.034.003.052 0 .027-.002.053-.003.078 0 .007-.002.015-.002.022-.001.02-.004.039-.009.059 0 .006-.001.012-.003.018-.009.052-.024.101-.043.151-.002.001-.002.003-.002.004-.01.023-.021.047-.033.068-.001.003-.001.004-.003.006-.025.047-.055.094-.093.137-.018.023-.037.044-.057.064-.001 0-.001 0-.001.002-.041.04-.086.078-.132.112-.002.002-.003.002-.003.003-.023.015-.045.032-.067.045-.003.003-.006.005-.009.006-.039.024-.081.048-.123.069-.015.007-.03.015-.047.022-.016.008-.034.017-.052.024-.015.006-.029.012-.044.018-.04.015-.079.03-.12.044-.006.001-.012.003-.018.005-.024.008-.048.014-.072.021-.006.002-.013.005-.019.006-.08.021-.157.038-.231.05-.001 0-.003 0-.004 0-.038.006-.074.01-.108.015-.014.001-.026.003-.039.003-.012.001-.024.001-.038.003-.028.001-.058.003-.085.003-.056 0-.11-.002-.162-.005-.021 0-.042-.001-.063-.003-.029-.003-.058-.004-.085-.007-.026-.002-.053-.005-.077-.008-.022-.003-.043-.006-.064-.009-.047-.007-.09-.013-.134-.022-.019-.005-.04-.008-.06-.012-.022-.006-.045-.011-.067-.017-.026-.006-.05-.012-.074-.019-.016-.004-.034-.009-.049-.013-.041-.012-.081-.026-.12-.041-.009-.003-.018-.006-.027-.009-.087-.033-.172-.069-.256-.111-.003-.001-.008-.004-.012-.005-.054-.027-.146-.078-.233-.128-.007-.004-.016-.009-.024-.013-.061-.036-.113-.066-.163-.09-.004-.003-.007-.004-.01-.006-.003-.001-.006-.003-.008-.003-.013-.006-.024-.012-.036-.016-.004-.002-.007-.003-.01-.005-.032-.012-.06-.021-.089-.024-.009-.001-.018-.001-.027-.001-.003-.002-.006-.002-.009-.002-.057 0-.106.02-.153.063-.01.009-.019.018-.028.029-.002.003-.005.006-.008.009-.006.007-.01.013-.015.019-.003.004-.006.009-.007.012-.005.006-.009.012-.012.018-.003.004-.005.009-.006.013-.003.006-.006.012-.009.018-.002.005-.003.008-.005.012-.003.008-.004.014-.006.02-.001.004-.003.007-.003.012-.001.007-.003.015-.004.022 0 .003-.002.006-.002.009-.001.011-.001.02-.001.029v.004c0 .012.001.022.004.034v.006c.003.009.005.02.008.029.001.004.003.009.004.013.003.008.005.017.009.024.002.005.003.008.005.011.019.045.051.091.091.136.044.048.099.096.164.145.001 0 .001 0 .001.001.018.012.036.026.056.039.004.003.007.006.012.008.052.036.108.07.171.106.015.009.03.018.044.025.015.009.03.017.045.024.018.011.039.021.059.032.013.006.025.013.039.019.03.015.061.03.093.045.004.003.007.005.012.006.034.016.069.031.103.045.015.006.029.012.044.018.003.001.006.003.009.003.32.125.716.209 1.065.224.026.002.053.003.078.003h.002c.012 0 .022 0 .034-.001h.081c.003 0 .006 0 .009-.002.568-.018 1.034-.164 1.432-.455 0-.001 0-.001 0-.001.44-.332.683-.8.683-1.316 0-.033-.001-.066-.003-.097 0-.012-.001-.024-.001-.035z"/><path d="m296.925 238.204c-.001 0-.003 0-.004 0-.699 0-1.358.284-1.835.787v-.428c0-.198-.153-.359-.346-.359-.014 0-.026.001-.038.001-.085.009-.16.047-.215.102-.002 0-.002 0-.003.002-.005.006-.011.012-.015.018-.003.001-.006.004-.008.007-.004.005-.007.009-.01.013-.003.005-.006.009-.011.014-.001.003-.003.006-.004.009-.005.007-.009.015-.014.021 0 .001 0 .003-.001.004-.005.009-.009.018-.014.027-.007.023-.015.045-.019.068 0 .001 0 .003-.002.003-.001.012-.003.022-.004.032 0 .012-.002.024-.002.038v5.555l-.004.024.018.015c0 .007.001.018.006.028 0 .002.001.005.001.006.003.008.008.017.015.024.047.089.132.156.233.186l.007.001h.084c.013 0 .027 0 .04-.001.009-.002.018-.005.027-.006.005 0 .008 0 .012-.002.012-.003.024-.006.036-.01h.002c.063-.023.117-.062.153-.114.001-.001.003-.003.004-.004.024-.026.038-.053.051-.09.002-.005.003-.008.003-.011.002-.001.002-.001.002-.003.006-.018.01-.035.015-.053l.001-.006v-3.363c.024-1.002.846-1.817 1.832-1.819h.003c1.004 0 1.821.816 1.821 1.818v3.305c0 .014.001.026.003.038.007.086.045.161.1.217 0 0 .002 0 .002.001.006.006.012.01.018.016.003.003.004.005.007.006.005.005.009.008.014.011.004.004.009.007.013.01.005.002.008.003.011.006.006.005.013.008.019.012.002 0 .003.002.006.002.008.004.017.009.026.013h.001c.021.009.044.015.066.02.003 0 .005.001.006.001.011.002.02.003.03.005.012.001.024.001.038.001.012 0 .024 0 .036-.001.01-.002.021-.003.029-.005.002 0 .005-.001.006-.001.024-.005.045-.011.068-.02.009-.004.018-.009.027-.013.001 0 .003-.002.004-.002.008-.004.014-.007.021-.012.003-.003.006-.004.009-.006.005-.003.009-.006.014-.01.004-.003.01-.006.015-.011.001-.001.004-.003.006-.006.006-.006.013-.01.019-.016 0-.001 0-.001 0-.001.057-.056.095-.131.102-.217.002-.012.002-.024.002-.038v-3.305c0-1.396-1.136-2.531-2.535-2.534z"/><path d="m303.391 238.192c1.628 0 2.951 1.392 2.951 3.105s-1.323 3.105-2.951 3.105c-.051 0-.1-.001-.15-.004-.007 0-.013 0-.021-.002-.043-.001-.087-.006-.129-.01-.001 0-.003 0-.004 0-.643-.071-1.244-.364-1.722-.844-.02-.019-.041-.039-.059-.06-.001 0-.001-.001-.003-.001-.01-.011-.019-.023-.03-.035-.022-.024-.045-.049-.067-.074-.018-.02-.035-.042-.053-.063-.012-.017-.025-.033-.039-.05-.027-.033-.052-.067-.076-.101-.003-.005-.006-.009-.009-.014-.292-.408-.483-.879-.555-1.379-.007-.046-.012-.093-.016-.139-.002-.004-.002-.01-.003-.016-.005-.044-.008-.086-.009-.129-.002-.009-.002-.018-.002-.028-.003-.051-.004-.104-.004-.156s.001-.105.004-.156c0-.01 0-.019.002-.028.001-.043.004-.087.009-.129.001-.006.001-.012.003-.016.004-.046.009-.093.016-.139.072-.5.263-.971.555-1.379.001-.005.004-.009.007-.012.026-.036.051-.071.078-.105.012-.015.026-.03.038-.046.018-.023.036-.044.054-.066.021-.024.042-.046.064-.07.011-.012.023-.026.033-.038.002 0 .002-.001.003-.001.017-.02.036-.038.054-.056.478-.481 1.081-.777 1.727-.848h.004c.042-.004.086-.007.129-.01.008 0 .014-.002.021-.002.05-.003.099-.004.15-.004zm2.221 2.861c0-.001 0-.001 0-.003-.052-.538-.274-1.024-.605-1.4-.015-.016-.029-.033-.044-.049-.009-.009-.018-.018-.027-.027-.018-.018-.034-.036-.052-.054-.017-.016-.035-.031-.051-.046-.011-.009-.02-.02-.03-.029-.027-.024-.054-.046-.081-.069 0 0-.002 0-.002-.001-.313-.253-.689-.419-1.094-.465-.004 0-.007-.002-.01-.002-.032-.004-.062-.006-.093-.007-.008-.002-.014-.002-.02-.002-.037-.003-.075-.003-.112-.003s-.075 0-.112.003c-.006 0-.012 0-.02.002-.031.001-.061.003-.093.007-.003 0-.006.002-.01.002-.405.046-.781.212-1.094.465 0 .001-.002.001-.002.001-.027.023-.054.045-.081.069-.01.009-.019.018-.03.027-.016.017-.034.032-.051.048-.016.017-.033.034-.051.052-.009.009-.018.018-.028.029-.014.015-.027.031-.042.048-.331.375-.555.863-.607 1.401v.003c-.003.035-.006.069-.008.105 0 .006-.001.012-.001.018-.002.04-.003.081-.003.121 0 1.315 1.013 2.389 2.233 2.389s2.233-1.074 2.233-2.389c0-.04-.001-.081-.003-.121 0-.006-.001-.012-.001-.018-.002-.036-.005-.07-.008-.105z"/><path d="m315.016 238.346c-.003-.003-.005-.006-.008-.009-.036-.045-.084-.081-.137-.103 0 0 0 0-.002 0-.006-.005-.013-.006-.019-.009-.003 0-.006-.002-.011-.003-.048-.017-.1-.02-.151-.012h-.002c-.103.016-.202.079-.258.172 0 0 0 0-.001 0-.008.015-.017.03-.023.045l-.001.001v.002l-1.718 4.692-1.349-3.204c-.013-.03-.031-.057-.052-.082-.074-.086-.186-.139-.301-.139-.018 0-.035 0-.053.004-.001 0-.003 0-.006 0-.12.021-.232.105-.283.217v.001l-1.349 3.204-.654-1.772-1.076-2.921c-.006-.017-.012-.03-.019-.045-.002-.002-.002-.002-.003-.003-.033-.062-.086-.109-.149-.139 0 0-.001 0-.001-.002-.032-.013-.065-.024-.099-.03-.003 0-.005 0-.008-.001-.016-.002-.034-.003-.051-.003h-.001c-.005 0-.008 0-.011 0-.007 0-.015 0-.022.001-.005 0-.01.002-.015.002-.007.001-.013.001-.019.003-.005.001-.009.001-.014.003-.007.001-.015.003-.022.006-.003.001-.006.001-.009.003-.008.003-.015.004-.023.009 0 0 0 0-.001 0-.062.027-.111.073-.147.127-.002.003-.003.004-.005.007-.001.003-.003.006-.004.009-.027.045-.044.098-.05.15-.006.055.002.114.024.167l1.246 3.34.799 2.142v.002c.033.081.081.136.147.166.001.001.004.003.006.004.001.002.003.003.006.005 0 .001.001.001.003.003.002.001.004.003.007.006h.003c.012.007.027.013.046.015.002 0 .003.001.005.001.006.002.012.005.018.006.003 0 .006.002.009.002.037.012.061.016.091.016.017 0 .032-.001.048-.004.012-.002.026-.005.038-.009.003-.002.006-.002.009-.003.012-.003.024-.008.036-.014.004-.001.009-.003.013-.006.008-.004.017-.009.026-.013.006-.005.013-.009.021-.014.004-.003.009-.007.013-.01.011-.008.02-.015.03-.024.002-.002.003-.003.005-.006.01-.011.021-.021.031-.033 0-.001.002-.003.003-.004.009-.012.018-.026.026-.039.007-.015.015-.032.021-.048l.001-.005.005-.006.004-.01 1.354-3.225 1.365 3.237c.01.033.027.063.049.091.003.005.006.008.009.012.008.009.015.018.024.027.005.003.009.007.014.01.007.008.016.015.025.023.005.003.008.006.012.007.011.008.021.015.032.021.003.002.006.003.009.005.012.006.022.012.036.016.003.002.006.003.01.003.011.005.021.009.033.012.015.003.03.006.044.009h.045c.018 0 .034-.001.051-.004.004 0 .007 0 .012-.002.015-.003.028-.006.042-.01.004-.002.007-.003.01-.005.015-.004.03-.012.044-.019.001 0 .003-.002.004-.002.017-.01.033-.021.047-.031.06-.045.103-.103.133-.175v-.002l.844-2.267 1.187-3.191c.046-.112.028-.234-.036-.33-.003-.006-.008-.012-.012-.018z"/><path d="m334.076 238.446c0-.006-.001-.013-.003-.019 0-.005-.001-.009-.003-.014-.001-.007-.003-.015-.004-.021-.002-.004-.003-.009-.005-.012-.001-.009-.004-.016-.009-.024 0-.003-.001-.004-.003-.007-.004-.011-.009-.02-.015-.029 0-.001 0-.001 0-.001-.018-.031-.04-.058-.066-.082-.001-.002-.001-.002-.001-.002-.002-.001-.002-.001-.002-.001-.127-.127-.307-.144-.448-.045-.004.003-.007.006-.012.007-.006.005-.012.009-.018.014-.009.009-.018.016-.027.025 0 0-.001 0-.001.002l-3.512 3.416v-5.714c0-.012 0-.024-.001-.036-.014-.131-.102-.24-.222-.291-.002 0-.002-.002-.003-.002-.008-.003-.015-.006-.023-.007-.003-.002-.007-.003-.012-.005-.006-.001-.012-.003-.019-.004-.005-.002-.011-.003-.017-.005-.006-.001-.013-.003-.019-.003-.006-.001-.011-.001-.017-.003-.013-.001-.025-.001-.037-.001-.196 0-.36.163-.36.357v8.104c0 .196.164.359.36.359.012 0 .025 0 .037-.001.002 0 .003-.002.006-.002.011-.001.021-.001.03-.004.003 0 .006-.002.009-.002.009-.003.018-.004.027-.007.002 0 .003-.002.005-.002.138-.043.24-.161.255-.303.001-.012.001-.024.001-.038v-1.367l1.183-1.179 2.297 2.768c.015.023.032.044.053.061.004.004.007.007.012.01.006.005.012.009.018.012.007.006.015.009.022.014.003.001.008.004.011.006.01.004.019.007.03.012.003.001.006.001.007.003.012.003.023.006.035.009.001 0 .004.001.007.001.012.003.023.005.036.006.003 0 .006 0 .009.002.015 0 .03.001.047.001.024 0 .046-.001.067-.004h.002c.042-.006.081-.02.117-.038.001 0 .001-.001.001-.001.017-.009.033-.02.049-.032l.005-.004c.136-.136.157-.322.058-.476-.009-.013-.018-.027-.028-.04l-2.334-2.829 2.317-2.234c.062-.063.099-.139.108-.222 0-.001 0-.003.002-.004 0-.008 0-.017 0-.024 0-.004.001-.009.001-.012s0-.004 0-.006c0-.006-.001-.01-.001-.016 0-.005-.002-.009-.002-.014z"/><path d="m45.0147 276h-5.4v27h5.4z" fill-opacity=".9"/><path d="m39.6145 276-3.7536 2.041v22.983l3.7536 1.976z"/><path d="m45.0805 276v27l3.7536-1.976v-22.983z" fill-opacity=".75"/><path d="m52.5877 279.753 2.1074 1.12v17.254l-2.1074 1.119z" fill-opacity=".75"/><path d="m52.5877 299.246-3.7537-1.119v-17.254l3.7537-1.12z"/><path d="m29.9999 280.873v17.254l2.1073 1.119v-19.493z"/><path d="m32.1072 279.753 3.7536 1.12v17.254l-3.7536 1.119z" fill-opacity=".75"/><path d="m82.5267 283.106v-.856c0-.132.1318-.264.2635-.264h4.017c.1317 0 .2634.066.2634.264v.724c0 .132-.1317.329-.3292.593l-2.0415 2.963c.7244 0 1.5805.132 2.239.527.1317.066.1976.264.1976.395v.922c0 .132-.1317.264-.3293.198-1.2512-.659-2.8975-.659-4.2146 0-.1317.066-.3293-.066-.3293-.198v-.856c0-.132 0-.395.1317-.658l2.3708-3.425h-2.0415c-.0658-.066-.1976-.197-.1976-.329z"/><path d="m67.9075 288.703h-1.1854c-.1317 0-.1975-.131-.1975-.197v-6.256c0-.132.1317-.264.2634-.264h1.1195c.1317 0 .1975.132.2634.198v.79c.3293-.79.8561-1.119 1.5805-1.119s1.2512.395 1.5805 1.119c.3292-.79.9219-1.119 1.7122-1.119.5268 0 1.0536.197 1.3829.658.3951.527.3293 1.251.3293 1.976v3.951c0 .132-.1317.263-.2635.263h-1.1853c-.1317 0-.2634-.131-.2634-.263v-3.359c0-.263 0-.922-.0659-1.185-.0658-.461-.3951-.593-.6585-.593s-.6586.198-.7244.527c-.0659.329-.1317.79-.1317 1.186v3.358c0 .132-.1317.264-.2634.264h-1.1854c-.1317 0-.2634-.132-.2634-.264v-3.358c0-.659.1317-1.713-.7244-1.713s-.7903.988-.7903 1.713v3.358c-.0658.198-.1975.329-.3292.329z"/><path d="m90.495 283.172c-.8561 0-.9219 1.185-.9219 2.041 0 .725 0 2.371.9219 2.371.922 0 .9878-1.317.9878-2.107 0-.527 0-1.12-.1975-1.647-.1317-.527-.3952-.658-.7903-.658zm-.0658-1.317c1.8439 0 2.7658 1.58 2.7658 3.49s-1.0536 3.424-2.7658 3.424c-1.7781 0-2.7659-1.58-2.7659-3.49.0659-1.844.9878-3.424 2.7659-3.424z"/><path d="m95.5656 288.703h-1.1854c-.1317 0-.2634-.131-.2634-.263v-6.256c0-.132.1317-.198.2634-.198h1.1195c.1318 0 .1976.066.1976.198v.922c.3293-.856.7902-1.251 1.6463-1.251.5927 0 1.0537.197 1.4488.724.3293.527.3293 1.317.3293 1.976v3.951c0 .132-.1317.197-.2634.197h-1.1854c-.1317 0-.1975-.065-.1975-.197v-3.425c0-.658.0658-1.712-.7244-1.712-.3293 0-.5927.198-.7244.527-.1976.395-.1976.724-.1976 1.185v3.425c0 .066-.1317.197-.2634.197z"/><path d="m79.1024 286.991c-.1975.329-.5268.593-.7902.593-.461 0-.7244-.395-.7244-.856 0-1.054.922-1.251 1.8439-1.251v.263c-.0658.461-.0658.79-.3293 1.251zm2.4366.593c-.2634-.329-.4609-.593-.4609-1.12v-1.909c0-.791.0658-1.581-.5927-2.108-.461-.461-1.2512-.658-1.8439-.658-1.1195 0-2.4366.461-2.7 1.909 0 .132.0658.264.1975.264l1.1854.132c.1317 0 .1976-.132.1976-.264.1317-.527.5268-.724.9878-.724.2634 0 .5926.066.6585.329.1976.263.1317.593.1317.856v.132c-.7244.066-1.6463.132-2.3049.461-.7244.329-1.317.988-1.317 2.041 0 1.252.7902 1.91 1.8439 1.91.8561 0 1.317-.197 2.0414-.856.2634.329.3293.527.6586.79.0658.066.1975.066.3292 0 .2634-.197.6586-.658.922-.79.1317-.132.1317-.329.0658-.395z"/><path d="m63.166 286.991c-.1975.329-.5268.593-.8561.593-.4609 0-.7244-.395-.7244-.856 0-1.054.922-1.251 1.8439-1.251v.263c-.0658.461 0 .79-.2634 1.251zm1.9098-.527v-1.909c0-.791.0658-1.581-.5927-2.108-.5268-.461-1.2512-.658-1.8439-.658-1.1195 0-2.4366.461-2.7 1.909 0 .132.0659.264.1976.264l1.1853.132c.1317 0 .1976-.132.1976-.264.1317-.527.5268-.724.9878-.724.2634 0 .5927.066.7244.329.1975.263.1317.593.1317.856v.132c-.6585.066-1.6464.132-2.3049.461-.7244.329-1.3171.988-1.3171 2.041 0 1.252.7903 1.91 1.8439 1.91.8561 0 1.3171-.197 2.0415-.856.2634.329.3293.527.7244.79.0658.066.1976.066.3293 0 .2634-.197.6585-.658.9219-.79.1317-.066.0659-.198 0-.329-.3293-.395-.5268-.659-.5268-1.186z"/><path d="m60.5321 294.038h.7244c.7903 0 1.3171-.461 1.3171-1.12 0-.724-.5927-1.053-1.3829-1.119-.3952 0-.6586.065-.7244.065zm-.7902-2.7c.3951-.066.9219-.132 1.4488-.132.7902 0 1.317.132 1.7122.527.3292.263.4609.658.4609 1.119 0 .725-.5268 1.317-1.1195 1.515.461.197.7244.593.8561 1.185.1976.791.3293 1.383.461 1.647h-.7902c-.1318-.198-.2635-.659-.3952-1.449-.1975-.79-.5268-1.12-1.1853-1.12h-.7244v2.569h-.7244z"/><path d="m68.1947 294.439h-2.3049v2.107h2.5683v.658h-3.3585v-5.926h3.2268v.658h-2.4366v1.844h2.3049z"/><path d="m70.8529 296.618c.1976.066.5268.066.7244.066 1.6463 0 2.5024-.922 2.5024-2.503 0-1.383-.7243-2.239-2.3707-2.239-.3951 0-.6585.066-.8561.066zm-.7902-5.268c.4609-.066.9878-.132 1.6463-.132 1.1195 0 1.9098.263 2.3707.724.5269.527.7903 1.186.7903 2.108s-.3293 1.778-.8561 2.304c-.5927.593-1.4488.857-2.6342.857-.5926 0-.9878 0-1.3829-.066z"/><path d="m76.3846 296.288c.3293.198.7902.396 1.3829.396.7244 0 1.2512-.461 1.2512-.988s-.3292-.856-1.1195-1.186c-.9219-.329-1.5805-.79-1.5805-1.712s.7244-1.646 1.9757-1.646c.6585 0 1.0536.132 1.317.329l-.1975.659c-.1976-.132-.5927-.264-1.1195-.264-.7903 0-1.1196.527-1.1196.856 0 .593.3952.791 1.1854 1.12.9878.395 1.5146.856 1.5146 1.778s-.6585 1.712-2.0414 1.712c-.5927 0-1.1854-.197-1.5147-.395z"/><path d="m82.2873 291.278v2.502h2.8975v-2.502h.7244v5.926h-.7244v-2.765h-2.8975v2.765h-.7903v-5.926z"/><path d="m88.6092 291.278h-.7244v5.926h.7244z"/><path d="m90.5848 291.278h3.161v.658h-2.4366v1.976h2.239v.658h-2.239v2.634h-.7244z"/><path d="m94.7993 291.278v.658h1.7781v5.268h.7902v-5.268h1.7781v-.658z"/></g></svg>