<svg fill="none" height="95" viewBox="0 0 95 95" width="95" xmlns="http://www.w3.org/2000/svg"><g fill="#abb8ff"><path d="m57.9118.810147c-.1481.441903.7406 4.124383 2.0735 8.101473 1.333 3.97708 2.4438 7.65958 2.4438 8.10148 0 .5155-3.8508 2.946-9.3308 5.9656-5.1097 2.7987-9.3308 5.4501-9.3308 5.892 0 .6629 2.2956.9574 10.5157 1.3257l10.5157.5155v3.3143c.3702 11.563.8886 17.455 1.7032 17.455.4443 0 3.0362-3.9035 5.7762-8.7643 2.666-4.7873 5.1838-8.9853 5.4801-9.3536.4443-.4419 2.814 0 8.6643 1.9149 5.1098 1.6203 8.146 2.4305 8.5162 2.0622.4444-.4419-1.5551-3.3879-5.4059-8.396l-6.0725-7.8069 3.999-7.9542c4.9616-9.94271 4.8135-10.16366-5.1838-5.00818-3.9249 1.98858-7.4055 3.68248-7.7757 3.60888-.2962 0-3.999-2.65143-8.146-5.89202s-7.7016-5.89198-7.8497-5.89198c-.1482 0-.4444.441899-.5925.883797z"/><path d="m21.5512 53.5435c-8.5903 9.1325-15.47736 16.7184-15.2552 16.9394.22216.2209 7.8498-6.6285 17.0325-15.1719 12.5892-11.7103 16.5881-15.761 16.44-16.7184-.1481-.6629-.7405-1.2521-1.333-1.3257-.9627-.1473-5.0356 3.8297-16.8103 16.3502z"/><path d="m51.7653 39.2552c-5.0357 4.64-52.060124 55.2373-51.76390656 55.6792.14810856.2946 1.33297656-.4419 2.51784656-1.473 1.18487-1.1047 12.66326-11.7839 25.54876-23.7152 29.6957-27.4713 29.7698-27.6186 29.3255-29.3126-.5184-1.6203-.8146-1.9885-2.5179-2.5041-.9627-.2946-1.7773 0-3.1103 1.2521z"/><path d="m39.9166 71.8086c-8.5903 9.1326-15.4773 16.7185-15.2552 16.9394.2222.221 7.8498-6.6284 17.0325-15.1718 12.5893-11.7103 16.5882-15.7611 16.4401-16.7185-.1481-.6629-.7406-1.2521-1.333-1.3257-.9627-.1473-5.0357 3.8298-16.8103 16.3502z"/></g></svg>