<svg fill="none" height="21" viewBox="0 0 20 21" width="20" xmlns="http://www.w3.org/2000/svg"><path d="m2.225 16.825c-.7-.8666-1.245833-1.8375-1.6375-2.9125s-.5875-2.2125-.5875-3.4125c0-2.61662.8625-4.86662 2.5875-6.74995s3.8625-2.950001 6.4125-3.200001v2.000001c-2 .23333-3.66667 1.1-5 2.6s-2 3.28333-2 5.34995c0 .9334.14167 1.8125.425 2.6375s.69167 1.5792 1.225 2.2625zm7.775 3.675c-1.21667 0-2.36667-.2-3.45-.6s-2.05833-.9583-2.925-1.675l1.4-1.425c.68333.5334 1.44583.95 2.2875 1.25s1.7375.45 2.6875.45 1.8458-.15 2.6875-.45 1.6042-.7166 2.2875-1.25l1.4 1.425c-.8667.7167-1.8417 1.275-2.925 1.675s-2.2333.6-3.45.6zm7.775-3.675-1.425-1.425c.5333-.6833.9417-1.4375 1.225-2.2625s.425-1.7041.425-2.6375c0-2.06662-.6667-3.84995-2-5.34995s-3-2.36667-5-2.6v-2.000001c2.55.25 4.6875 1.316671 6.4125 3.200001s2.5875 4.13333 2.5875 6.74995c0 1.2-.1958 2.3375-.5875 3.4125s-.9375 2.0459-1.6375 2.9125zm-10.275-1.825v-8.99995l7 4.49995z" fill="#020013"/></svg>