<svg fill="none" height="40" viewBox="0 0 41 40" width="41" xmlns="http://www.w3.org/2000/svg"><g fill="#fff"><path d="m24.7298.340821c-.0619.185902.3099 1.735089.8676 3.408209s1.0225 3.22231 1.0225 3.40821c0 .21689-1.6112 1.23935-3.904 2.50969-2.1379 1.17737-3.9039 2.29277-3.9039 2.47867 0 .2789.9604.4028 4.3996.5577l4.3997.2169v1.3943c.1549 4.8644.3718 7.3431.7127 7.3431.1859 0 1.2703-1.6421 2.4167-3.687 1.1154-2.014 2.1688-3.7801 2.2928-3.935.1859-.1859 1.1774 0 3.6251.8056 2.1379.6817 3.4082 1.0225 3.5631.8676.1859-.1859-.6506-1.4253-2.2618-3.5322l-2.5407-3.28427 1.6732-3.34624c2.0759-4.18281 2.0139-4.27576-2.1689-2.1069-1.6421.83657-3.0984 1.54919-3.2533 1.51821-.1239 0-1.6731-1.11542-3.4082-2.4787-1.7351-1.36329-3.2223-2.4787-3.2843-2.4787s-.1859.185902-.2479.371805z"/><path d="m9.51686 22.5251c-3.59412 3.842-6.4756 7.0333-6.38265 7.1262.09295.093 3.28427-2.7885 7.12629-6.3826 5.2672-4.9264 6.9403-6.6305 6.8784-7.0333-.062-.2789-.3099-.5267-.5578-.5577-.4027-.062-2.1068 1.6111-7.03326 6.8784z"/><path d="m22.1582 16.5144c-2.1069 1.9519-21.781552 23.2378-21.657617 23.4237.061967.1239.557707-.1859 1.053447-.6197.49574-.4648 5.29822-4.9574 10.68937-9.9768 12.4245-11.5569 12.4555-11.6189 12.2696-12.3315-.2169-.6816-.3408-.8366-1.0535-1.0534-.4028-.124-.7436 0-1.3013.5267z"/><path d="m17.2008 30.2092c-3.5941 3.8419-6.4756 7.0333-6.3826 7.1262.0929.093 3.2842-2.7885 7.1262-6.3826 5.2673-4.9264 6.9404-6.6305 6.8784-7.0333-.062-.2789-.3098-.5268-.5577-.5577-.4028-.062-2.1069 1.6111-7.0333 6.8783z"/></g></svg>